<svg width="2397" height="2393" xmlns="http://www.w3.org/2000/svg" xmlns:xlink="http://www.w3.org/1999/xlink" xml:space="preserve" overflow="hidden"><g transform="translate(-55 -27)"><g><rect x="59.0001" y="32" width="2391" height="2385" fill="#001621" fill-opacity="1"/><path d="M282 2122.95 2228 2157 2223.71 386.109 2017.97 896.943 1760.79 318 1512.18 726.667 1267.86 590.443 1002.11 999.11 757.784 794.777 496.317 1271.56 282 965.056 282 2122.95Z" fill="#FFFFFF" fill-rule="evenodd" fill-opacity="1"/><path d="M283 2109.83 2229 2135 2224.71 826.332 2018.97 1203.83 1761.79 776 1513.18 1078 1268.86 977.332 1003.11 1279.33 758.784 1128.33 497.317 1480.67 283 1254.17 283 2109.83Z" fill="#7EC1CA" fill-rule="evenodd" fill-opacity="1"/><path d="M283 2111.33 2229 2125 2224.71 1414.33 2018.97 1619.33 1761.79 1387 1513.18 1551 1268.86 1496.33 1003.11 1660.33 758.784 1578.33 497.317 1769.67 283 1646.67 283 2111.33Z" fill="#368EAD" fill-rule="evenodd" fill-opacity="1"/><path d="M283 2125.72 2229 2130 2224.71 1907.56 2018.97 1971.72 1761.79 1899 1513.18 1950.33 1268.86 1933.22 1003.11 1984.56 758.784 1958.89 497.317 2018.78 283 1980.28 283 2125.72Z" fill="#2B5983" fill-rule="evenodd" fill-opacity="1"/><rect x="188" y="2125" width="2127" height="185" fill="#001621" fill-opacity="1"/><rect x="95" y="291" width="186" height="2126" fill="#001621" fill-opacity="1"/><rect x="2219" y="226" width="185" height="2127" fill="#001621" fill-opacity="1"/></g></g></svg>
