<?xml version="1.0" encoding="UTF-8"?>
<svg width="376px" height="376px" viewBox="0 0 376 376" version="1.1" xmlns="http://www.w3.org/2000/svg" xmlns:xlink="http://www.w3.org/1999/xlink">
    <!-- Generator: Sketch 52.6 (67491) - http://www.bohemiancoding.com/sketch -->
    <title>Group 6 Copy 15</title>
    <desc>Created with Sketch.</desc>
    <g id="Data-viz-vocabulary" stroke="none" stroke-width="1" fill="none" fill-rule="evenodd">
        <g id="Details-large-1" transform="translate(-132.000000, -2134.000000)">
            <g id="Group-6-Copy-15" transform="translate(132.000000, 2134.000000)">
                <rect id="Rectangle-Copy-3" fill="#001521" x="0" y="0" width="376" height="376"></rect>
                <g id="Group-17" transform="translate(50.000000, 88.000000)">
                    <rect id="Rectangle-Copy-109" fill-opacity="0.55" fill="#009FE3" x="32" y="170" width="26" height="4"></rect>
                    <rect id="Rectangle-Copy-162" fill-opacity="0.55" fill="#009FE3" x="32" y="20" width="26" height="4"></rect>
                    <rect id="Rectangle-Copy-194" fill-opacity="0.55" fill="#009FE3" x="95" y="24" width="26" height="4"></rect>
                    <rect id="Rectangle-Copy-195" fill-opacity="0.55" fill="#009FE3" x="157" y="17" width="26" height="4"></rect>
                    <rect id="Rectangle-Copy-214" fill-opacity="0.55" fill="#009FE3" x="220" y="48" width="26" height="4"></rect>
                    <rect id="Rectangle-Copy-133" fill-opacity="0.55" fill="#009FE3" x="95" y="170" width="26" height="4"></rect>
                    <rect id="Rectangle-Copy-141" fill-opacity="0.55" fill="#009FE3" x="157" y="177" width="26" height="4"></rect>
                    <rect id="Rectangle-Copy-161" fill-opacity="0.55" fill="#009FE3" x="220" y="164" width="26" height="4"></rect>
                    <rect id="Rectangle-Copy-225" fill-opacity="0.55" fill="#009FE3" x="43" y="24" width="4" height="146"></rect>
                    <rect id="Rectangle-Copy-226" fill-opacity="0.55" fill="#009FE3" x="106" y="28" width="4" height="142"></rect>
                    <rect id="Rectangle-Copy-227" fill-opacity="0.55" fill="#009FE3" x="168" y="22" width="4" height="155"></rect>
                    <rect id="Rectangle-Copy-228" fill-opacity="0.55" fill="#009FE3" x="231" y="52" width="4" height="112"></rect>
                    <rect id="Rectangle-Copy-107" fill-opacity="0.2" fill="#FFFFFF" x="0" y="0" width="4" height="198"></rect>
                    <rect id="Rectangle-Copy-108" fill-opacity="0.2" fill="#FFFFFF" x="4" y="194" width="272" height="4"></rect>
                    <circle id="Oval-Copy-96" fill-opacity="0.55" fill="#FFFFFF" cx="45" cy="41" r="2"></circle>
                    <circle id="Oval-Copy-98" fill-opacity="0.55" fill="#FFFFFF" cx="45" cy="47" r="2"></circle>
                    <circle id="Oval-Copy-99" fill-opacity="0.55" fill="#FFFFFF" cx="45" cy="60" r="2"></circle>
                    <circle id="Oval-Copy-100" fill-opacity="0.55" fill="#FFFFFF" cx="45" cy="69" r="2"></circle>
                    <circle id="Oval-Copy-101" fill-opacity="0.55" fill="#FFFFFF" cx="45" cy="82" r="2"></circle>
                    <circle id="Oval-Copy-102" fill-opacity="0.55" fill="#FFFFFF" cx="45" cy="97" r="2"></circle>
                    <circle id="Oval-Copy-105" fill-opacity="0.55" fill="#FFFFFF" cx="45" cy="88" r="2"></circle>
                    <circle id="Oval-Copy-103" fill-opacity="0.55" fill="#FFFFFF" cx="45" cy="112" r="2"></circle>
                    <circle id="Oval-Copy-106" fill-opacity="0.55" fill="#FFFFFF" cx="45" cy="116" r="2"></circle>
                    <circle id="Oval-Copy-104" fill-opacity="0.55" fill="#FFFFFF" cx="45" cy="129" r="2"></circle>
                    <circle id="Oval-Copy-108" fill-opacity="0.55" fill="#FFFFFF" cx="45" cy="144" r="2"></circle>
                    <circle id="Oval-Copy-110" fill-opacity="0.55" fill="#FFFFFF" cx="45" cy="105" r="2"></circle>
                    <circle id="Oval-Copy-107" fill-opacity="0.55" fill="#FFFFFF" cx="45" cy="118" r="2"></circle>
                    <circle id="Oval-Copy-111" fill-opacity="0.55" fill="#FFFFFF" cx="108" cy="50" r="2"></circle>
                    <circle id="Oval-Copy-112" fill-opacity="0.55" fill="#FFFFFF" cx="108" cy="58" r="2"></circle>
                    <circle id="Oval-Copy-113" fill-opacity="0.55" fill="#FFFFFF" cx="108" cy="73" r="2"></circle>
                    <circle id="Oval-Copy-114" fill-opacity="0.55" fill="#FFFFFF" cx="108" cy="82" r="2"></circle>
                    <circle id="Oval-Copy-115" fill-opacity="0.55" fill="#FFFFFF" cx="108" cy="151" r="2"></circle>
                    <circle id="Oval-Copy-116" fill-opacity="0.55" fill="#FFFFFF" cx="108" cy="95" r="2"></circle>
                    <circle id="Oval-Copy-117" fill-opacity="0.55" fill="#FFFFFF" cx="108" cy="101" r="2"></circle>
                    <circle id="Oval-Copy-118" fill-opacity="0.55" fill="#FFFFFF" cx="108" cy="110" r="2"></circle>
                    <circle id="Oval-Copy-121" fill-opacity="0.55" fill="#FFFFFF" cx="170" cy="110" r="2"></circle>
                    <circle id="Oval-Copy-122" fill-opacity="0.55" fill="#FFFFFF" cx="170" cy="101" r="2"></circle>
                    <circle id="Oval-Copy-123" fill-opacity="0.55" fill="#FFFFFF" cx="170" cy="95" r="2"></circle>
                    <circle id="Oval-Copy-126" fill-opacity="0.55" fill="#FFFFFF" cx="170" cy="125" r="2"></circle>
                    <circle id="Oval-Copy-127" fill-opacity="0.55" fill="#FFFFFF" cx="170" cy="131" r="2"></circle>
                    <circle id="Oval-Copy-128" fill-opacity="0.55" fill="#FFFFFF" cx="170" cy="151" r="2"></circle>
                    <circle id="Oval-Copy-124" fill-opacity="0.55" fill="#FFFFFF" cx="170" cy="86" r="2"></circle>
                    <circle id="Oval-Copy-125" fill-opacity="0.55" fill="#FFFFFF" cx="170" cy="105" r="2"></circle>
                    <circle id="Oval-Copy-132" fill-opacity="0.55" fill="#FFFFFF" cx="233" cy="82" r="2"></circle>
                    <circle id="Oval-Copy-134" fill-opacity="0.55" fill="#FFFFFF" cx="233" cy="93" r="2"></circle>
                    <circle id="Oval-Copy-135" fill-opacity="0.55" fill="#FFFFFF" cx="233" cy="99" r="2"></circle>
                    <circle id="Oval-Copy-136" fill-opacity="0.55" fill="#FFFFFF" cx="233" cy="112" r="2"></circle>
                    <circle id="Oval-Copy-137" fill-opacity="0.55" fill="#FFFFFF" cx="233" cy="121" r="2"></circle>
                    <circle id="Oval-Copy-138" fill-opacity="0.55" fill="#FFFFFF" cx="233" cy="146" r="2"></circle>
                    <circle id="Oval-Copy-133" fill-opacity="0.55" fill="#FFFFFF" cx="233" cy="67" r="2"></circle>
                    <circle id="Oval-Copy-129" fill-opacity="0.55" fill="#FFFFFF" cx="170" cy="52" r="2"></circle>
                    <circle id="Oval-Copy-131" fill-opacity="0.55" fill="#FFFFFF" cx="170" cy="71" r="2"></circle>
                    <circle id="Oval-Copy-130" fill-opacity="0.55" fill="#FFFFFF" cx="170" cy="37" r="2"></circle>
                    <circle id="Oval-Copy-119" fill-opacity="0.55" fill="#FFFFFF" cx="108" cy="138" r="2"></circle>
                    <circle id="Oval-Copy-120" fill-opacity="0.55" fill="#FFFFFF" cx="108" cy="116" r="2"></circle>
                    <rect id="Rectangle-Copy-60" fill-opacity="0.55" fill="#00ADEF" transform="translate(233.000000, 99.500000) scale(1, -1) translate(-233.000000, -99.500000) " x="220" y="91" width="26" height="17"></rect>
                    <rect id="Rectangle-Copy-73" fill-opacity="0.55" fill="#00ADEF" x="32" y="73" width="26" height="26"></rect>
                    <rect id="Rectangle-Copy-74" fill-opacity="0.55" fill="#00ADEF" x="95" y="79" width="26" height="22"></rect>
                    <rect id="Rectangle-Copy-75" fill-opacity="0.55" fill="#00ADEF" x="157" y="77" width="26" height="22"></rect>
                    <rect id="Rectangle-Copy-221" fill-opacity="0.85" fill="#009FE3" x="32" y="99" width="26" height="26"></rect>
                    <rect id="Rectangle-Copy-222" fill-opacity="0.85" fill="#009FE3" x="95" y="101" width="26" height="17"></rect>
                    <rect id="Rectangle-Copy-223" fill-opacity="0.85" fill="#009FE3" x="157" y="99" width="26" height="22"></rect>
                    <rect id="Rectangle-Copy-224" fill-opacity="0.85" fill="#009FE3" x="220" y="108" width="26" height="17"></rect>
                </g>
            </g>
        </g>
    </g>
</svg>
