<?xml version="1.0" encoding="UTF-8"?>
<svg width="376px" height="376px" viewBox="0 0 376 376" version="1.1" xmlns="http://www.w3.org/2000/svg" xmlns:xlink="http://www.w3.org/1999/xlink">
    <!-- Generator: Sketch 52.6 (67491) - http://www.bohemiancoding.com/sketch -->
    <title>Group 6 Copy 13</title>
    <desc>Created with Sketch.</desc>
    <g id="Data-viz-vocabulary" stroke="none" stroke-width="1" fill="none" fill-rule="evenodd">
        <g id="Details-large-1" transform="translate(-532.000000, -1734.000000)">
            <g id="Group-6-Copy-13" transform="translate(532.000000, 1734.000000)">
                <rect id="Rectangle-Copy-3" fill="#001521" x="0" y="0" width="376" height="376"></rect>
                <g id="Group-34" transform="translate(52.000000, 92.000000)" fill="#009FE3">
                    <rect id="Rectangle" x="8" y="9" width="180" height="4"></rect>
                    <rect id="Rectangle-Copy-90" x="109" y="95" width="98" height="4"></rect>
                    <rect id="Rectangle-Copy-93" x="75" y="52" width="86" height="4"></rect>
                    <rect id="Rectangle-Copy-91" x="163" y="137" width="103" height="4"></rect>
                    <rect id="Rectangle-Copy-92" x="99" y="180" width="128" height="4"></rect>
                    <circle id="Oval-Copy-48" cx="10" cy="10" r="10"></circle>
                    <circle id="Oval-Copy-75" cx="117" cy="96" r="10"></circle>
                    <circle id="Oval-Copy-81" cx="77" cy="53" r="10"></circle>
                    <circle id="Oval-Copy-77" cx="162" cy="139" r="10"></circle>
                    <circle id="Oval-Copy-79" cx="100" cy="182" r="10"></circle>
                    <circle id="Oval-Copy-71" cx="184" cy="10" r="10"></circle>
                    <circle id="Oval-Copy-76" cx="207" cy="96" r="10"></circle>
                    <circle id="Oval-Copy-82" cx="162" cy="53" r="10"></circle>
                    <circle id="Oval-Copy-78" cx="262" cy="139" r="10"></circle>
                    <circle id="Oval-Copy-80" cx="224" cy="182" r="10"></circle>
                </g>
            </g>
        </g>
    </g>
</svg>
