<svg width="2397" height="2393" xmlns="http://www.w3.org/2000/svg" xmlns:xlink="http://www.w3.org/1999/xlink" xml:space="preserve" overflow="hidden"><g transform="translate(-55 -27)"><g><rect x="59.0001" y="32" width="2391" height="2385" fill="#001621" fill-opacity="1"/><rect x="311" y="1976" width="259" height="260" fill="#00A0E3" fill-opacity="1"/><rect x="638" y="1976" width="259" height="260" fill="#00A0E3" fill-opacity="1"/><rect x="965" y="1976" width="259" height="260" fill="#00A0E3" fill-opacity="1"/><rect x="1292" y="1976" width="259" height="260" fill="#00A0E3" fill-opacity="1"/><rect x="1619" y="1976" width="259" height="260" fill="#00A0E3" fill-opacity="1"/><rect x="1946" y="1976" width="260" height="260" fill="#00A0E3" fill-opacity="1"/><rect x="311" y="1624" width="259" height="260" fill="#00A0E3" fill-opacity="1"/><rect x="638" y="1624" width="259" height="260" fill="#00A0E3" fill-opacity="1"/><rect x="965" y="1624" width="259" height="260" fill="#00A0E3" fill-opacity="1"/><rect x="1292" y="1624" width="259" height="260" fill="#00A0E3" fill-opacity="1"/><rect x="1619" y="1624" width="259" height="260" fill="#00A0E3" fill-opacity="1"/><rect x="1946" y="1624" width="260" height="260" fill="#00A0E3" fill-opacity="1"/><rect x="311" y="1272" width="259" height="260" fill="#00A0E3" fill-opacity="1"/><rect x="638" y="1272" width="259" height="260" fill="#00A0E3" fill-opacity="1"/><rect x="965" y="1272" width="259" height="260" fill="#00A0E3" fill-opacity="1"/><rect x="1292" y="1272" width="259" height="260" fill="#7EC1CA" fill-opacity="1"/><rect x="1619" y="1272" width="259" height="260" fill="#7EC1CA" fill-opacity="1"/><rect x="1946" y="1272" width="260" height="260" fill="#7EC1CA" fill-opacity="1"/><rect x="311" y="919" width="259" height="261" fill="#7EC1CA" fill-opacity="1"/><rect x="638" y="919" width="259" height="261" fill="#7EC1CA" fill-opacity="1"/><rect x="965" y="919" width="259" height="261" fill="#7EC1CA" fill-opacity="1"/><rect x="1292" y="919" width="259" height="261" fill="#7EC1CA" fill-opacity="1"/><rect x="1619" y="919" width="259" height="261" fill="#7EC1CA" fill-opacity="1"/><rect x="1946" y="919" width="260" height="261" fill="#7EC1CA" fill-opacity="1"/><rect x="311" y="567" width="259" height="261" fill="#7EC1CA" fill-opacity="1"/><rect x="638" y="567" width="259" height="261" fill="#7EC1CA" fill-opacity="1"/><rect x="965" y="567" width="259" height="261" fill="#7EC1CA" fill-opacity="1"/><rect x="1292" y="567" width="259" height="261" fill="#7EC1CA" fill-opacity="1"/><rect x="1619" y="567" width="259" height="261" fill="#7EC1CA" fill-opacity="1"/><rect x="1946" y="567" width="260" height="261" fill="#7EC1CA" fill-opacity="1"/><rect x="311" y="215" width="259" height="261" fill="#7EC1CA" fill-opacity="1"/><rect x="638" y="215" width="259" height="261" fill="#7EC1CA" fill-opacity="1"/><rect x="965" y="215" width="259" height="261" fill="#7EC1CA" fill-opacity="1"/><rect x="1292" y="215" width="259" height="261" fill="#7EC1CA" fill-opacity="1"/><rect x="1619" y="215" width="259" height="261" fill="#7EC1CA" fill-opacity="1"/><rect x="1946" y="215" width="260" height="261" fill="#7EC1CA" fill-opacity="1"/></g></g></svg>
