<?xml version="1.0" encoding="UTF-8"?>
<svg width="376px" height="376px" viewBox="0 0 376 376" version="1.1" xmlns="http://www.w3.org/2000/svg" xmlns:xlink="http://www.w3.org/1999/xlink">
    <!-- Generator: Sketch 52.6 (67491) - http://www.bohemiancoding.com/sketch -->
    <title>Group 6 Copy 19</title>
    <desc>Created with Sketch.</desc>
    <g id="Data-viz-vocabulary" stroke="none" stroke-width="1" fill="none" fill-rule="evenodd">
        <g id="Details-large-1" transform="translate(-532.000000, -2534.000000)">
            <g id="Group-6-Copy-19" transform="translate(532.000000, 2534.000000)">
                <rect id="Rectangle-Copy-3" fill="#001521" x="0" y="0" width="376" height="376"></rect>
                <g id="Group-2" transform="translate(52.000000, 90.000000)">
                    <polyline id="Stroke-1" stroke="#009FE3" stroke-width="4" stroke-linejoin="round" points="0 171.347707 9.96852212 196 18.9723713 66.179383 28.9401878 135.682274 38.586917 147.471713 48.5554391 119.698819 58.2021684 121.345627 68.1706905 136.660575 78.1392126 0 87.7852362 127.670165 97.7537583 7.98765107 107.400488 31.031182 117.36901 161.359972 127.337532 177.145955 136.662468 109.219217 146.63099 120.71426 156.27772 131.02266 166.246242 144.556737 175.892971 134.490195 185.860787 113.856185 195.829309 43.5878637 205.476039 127.793359 215.444561 14.726156 225.09129 17.3974627 235.059812 160.424245 245.028334 149.170154 254.031478 76.2640416 264 109.158526"></polyline>
                    <circle id="Oval-Copy-29" fill="#009FE3" cx="266" cy="114" r="8"></circle>
                </g>
            </g>
        </g>
    </g>
</svg>
