<?xml version="1.0" encoding="UTF-8"?>
<svg width="376px" height="376px" viewBox="0 0 376 376" version="1.1" xmlns="http://www.w3.org/2000/svg" xmlns:xlink="http://www.w3.org/1999/xlink">
    <!-- Generator: Sketch 52.6 (67491) - http://www.bohemiancoding.com/sketch -->
    <title>Group 6 Copy 37</title>
    <desc>Created with Sketch.</desc>
    <g id="Data-viz-vocabulary" stroke="none" stroke-width="1" fill="none" fill-rule="evenodd">
        <g id="Details-large-2" transform="translate(-532.000000, -1736.000000)">
            <g id="Group-6-Copy-37" transform="translate(532.000000, 1736.000000)">
                <rect id="Rectangle-Copy-3" fill="#001521" x="0" y="0" width="376" height="376"></rect>
                <g id="Group-3" transform="translate(113.000000, 83.000000)" fill-rule="nonzero">
                    <path d="M75,0 C132.989899,0 180,47.0101013 180,105 C180,162.989899 132.989899,210 75,210 C45.7726738,210 19.3344715,198.058341 0.29833646,178.787967 L11.681014,167.543651 C28.3055729,184.372774 50.8690265,194 75,194 C124.153343,194 164,154.153343 164,105 C164,55.8466573 124.153343,16 75,16 L75,0 Z" id="Path" fill="#2C5985"></path>
                    <path d="M75,46 L75,30 C116.421356,30 150,63.5786438 150,105 C150,146.421356 116.421356,180 75,180 L75,164 C107.5848,164 134,137.5848 134,105 C134,72.4151998 107.5848,46 75,46 Z" id="Path" fill="#358EAD"></path>
                    <path d="M75,60 C99.8528137,60 120,80.1471863 120,105 C120,129.852814 99.8528137,150 75,150 C62.5399181,150 51.2626276,144.935867 43.1140585,136.753532 L54.4511353,125.46324 C59.8685558,130.90311 67.168797,134 75,134 C91.0162577,134 104,121.016258 104,105 C104,88.9837423 91.0162577,76 75,76 L75,60 Z" id="Path" fill="#7EC1CA"></path>
                </g>
            </g>
        </g>
    </g>
</svg>
