<?xml version="1.0" encoding="UTF-8"?>
<svg width="376px" height="376px" viewBox="0 0 376 376" version="1.1" xmlns="http://www.w3.org/2000/svg" xmlns:xlink="http://www.w3.org/1999/xlink">
    <!-- Generator: Sketch 52.6 (67491) - http://www.bohemiancoding.com/sketch -->
    <title>Group 6 Copy 30</title>
    <desc>Created with Sketch.</desc>
    <g id="Data-viz-vocabulary" stroke="none" stroke-width="1" fill="none" fill-rule="evenodd">
        <g id="Details-large-2" transform="translate(-132.000000, -934.000000)">
            <g id="Group-6-Copy-30" transform="translate(132.000000, 934.000000)">
                <rect id="Rectangle-Copy-3" fill="#001521" x="0" y="0" width="376" height="376"></rect>
                <g id="Group-17" transform="translate(50.000000, 89.000000)" fill-rule="nonzero">
                    <path d="M0,53.2816253 L0,28 C57.7106359,28 100.515385,53.2578843 128.106216,104.448881 C152.689478,150.059747 201.988245,173.290531 275.943502,172.707634 L276,197.989037 C198.810901,198.597422 146.378904,173.890184 118.644997,122.433728 C93.9186577,76.5574022 54.4730027,53.2816253 0,53.2816253 Z" id="Path" fill="#2C5985" transform="translate(138.000000, 113.000000) scale(1, -1) translate(-138.000000, -113.000000) "></path>
                    <path d="M0,22.3679832 L0,0 C57.7106359,0 100.515385,22.3469783 128.106216,67.6383447 C152.689478,107.992676 201.988245,128.546172 275.943502,128.030453 L276,158.992978 C198.810901,159.531248 146.378904,129.076716 118.644997,83.5504842 C93.9186577,42.9612869 54.4730027,22.3679832 0,22.3679832 Z" id="Path" fill="#2C5985" transform="translate(138.000000, 79.500000) scale(1, -1) translate(-138.000000, -79.500000) "></path>
                    <path d="M0,35.8695212 L0,0 C60.1296293,0 105.446741,15.177998 135.181376,46.4920066 C157.398243,69.8889368 204.339881,82.4444157 275.858776,82.1244597 L276,117.993665 C196.39774,118.349784 141.624231,103.699514 111.531959,72.0088725 C88.9574548,48.2353092 52.0367886,35.8695212 0,35.8695212 Z" id="Path" fill="#358EAD"></path>
                    <path d="M0,86.5978508 L0,62 C59.3233807,62 103.803124,74.7695006 132.823231,100.965468 C155.828816,121.732226 203.556082,132.674334 275.887015,132.396968 L276,156.994602 C197.202045,157.296767 143.20896,144.918137 113.902729,118.463891 C90.6110199,97.4388528 52.8487769,86.5978508 0,86.5978508 Z" id="Path" fill="#358EAD"></path>
                    <path d="M0,97.9734723 L0,82 C57.7106359,82 100.515385,97.9584722 128.106216,130.30204 C152.689478,159.119962 201.988245,173.797669 275.943502,173.429382 L276,197.995485 C198.810901,198.379876 146.378904,174.176542 118.644997,141.665252 C93.9186577,112.679607 54.4730027,97.9734723 0,97.9734723 Z" id="Path" fill="#358EAD"></path>
                </g>
            </g>
        </g>
    </g>
</svg>
