<?xml version="1.0" encoding="UTF-8"?>
<svg width="376px" height="376px" viewBox="0 0 376 376" version="1.1" xmlns="http://www.w3.org/2000/svg" xmlns:xlink="http://www.w3.org/1999/xlink">
    <!-- Generator: Sketch 52.6 (67491) - http://www.bohemiancoding.com/sketch -->
    <title>Group 6 Copy 41</title>
    <desc>Created with Sketch.</desc>
    <g id="Data-viz-vocabulary" stroke="none" stroke-width="1" fill="none" fill-rule="evenodd">
        <g id="Details-large-2" transform="translate(-932.000000, -2136.000000)">
            <g id="Group-6-Copy-41" transform="translate(932.000000, 2136.000000)">
                <rect id="Rectangle-Copy-3" fill="#001521" x="0" y="0" width="376" height="376"></rect>
                <g id="ScatterplotMatrix" transform="translate(52.000000, 88.000000)">
                    <g id="Group-61" fill="#009FE3" fill-opacity="0.15">
                        <rect id="Rectangle" x="0" y="0" width="88" height="64"></rect>
                        <rect id="Rectangle-Copy-256" x="0" y="68.0434783" width="88" height="64"></rect>
                        <rect id="Rectangle-Copy-260" x="0" y="136.086957" width="88" height="64"></rect>
                        <rect id="Rectangle-Copy-249" x="92.375" y="0" width="88" height="64"></rect>
                        <rect id="Rectangle-Copy-257" x="92.375" y="68.0434783" width="88" height="64"></rect>
                        <rect id="Rectangle-Copy-261" x="92.375" y="136.086957" width="88" height="64"></rect>
                        <rect id="Rectangle-Copy-255" x="183.75" y="0" width="88" height="64"></rect>
                        <rect id="Rectangle-Copy-259" x="183.75" y="68.0434783" width="88" height="64"></rect>
                        <rect id="Rectangle-Copy-289" x="183.75" y="136.086957" width="88" height="64"></rect>
                    </g>
                    <g id="Group-62" transform="translate(8.000000, 12.000000)" fill="#009FE3">
                        <circle id="Oval-Copy-59" cx="119" cy="30" r="2"></circle>
                        <circle id="Oval-Copy-159" cx="126" cy="27" r="2"></circle>
                        <circle id="Oval-Copy-160" cx="115" cy="30" r="2"></circle>
                        <circle id="Oval-Copy-161" cx="111" cy="34" r="2"></circle>
                        <circle id="Oval-Copy-162" cx="119" cy="25" r="2"></circle>
                        <circle id="Oval-Copy-163" cx="113" cy="30" r="2"></circle>
                        <circle id="Oval-Copy-164" cx="109" cy="34" r="2"></circle>
                        <circle id="Oval-Copy-165" cx="98" cy="42" r="2"></circle>
                        <circle id="Oval-Copy-166" cx="102" cy="40" r="2"></circle>
                        <circle id="Oval-Copy-178" cx="70" cy="66" r="2"></circle>
                        <circle id="Oval-Copy-242" cx="66" cy="134" r="2"></circle>
                        <circle id="Oval-Copy-268" cx="162" cy="134" r="2"></circle>
                        <circle id="Oval-Copy-244" cx="49" cy="134" r="2"></circle>
                        <circle id="Oval-Copy-245" cx="45" cy="139" r="2"></circle>
                        <circle id="Oval-Copy-246" cx="38" cy="143" r="2"></circle>
                        <circle id="Oval-Copy-247" cx="34" cy="145" r="2"></circle>
                        <circle id="Oval-Copy-248" cx="30" cy="147" r="2"></circle>
                        <circle id="Oval-Copy-249" cx="26" cy="147" r="2"></circle>
                        <circle id="Oval-Copy-250" cx="21" cy="156" r="2"></circle>
                        <circle id="Oval-Copy-251" cx="21" cy="151" r="2"></circle>
                        <circle id="Oval-Copy-252" cx="26" cy="154" r="2"></circle>
                        <circle id="Oval-Copy-253" cx="15" cy="156" r="2"></circle>
                        <circle id="Oval-Copy-254" cx="17" cy="154" r="2"></circle>
                        <circle id="Oval-Copy-255" cx="26" cy="151" r="2"></circle>
                        <circle id="Oval-Copy-256" cx="24" cy="160" r="2"></circle>
                        <circle id="Oval-Copy-257" cx="19" cy="160" r="2"></circle>
                        <circle id="Oval-Copy-258" cx="2" cy="179" r="2"></circle>
                        <circle id="Oval-Copy-260" cx="17" cy="164" r="2"></circle>
                        <circle id="Oval-Copy-259" cx="15" cy="158" r="2"></circle>
                        <circle id="Oval-Copy-261" cx="11" cy="158" r="2"></circle>
                        <circle id="Oval-Copy-262" cx="11" cy="162" r="2"></circle>
                        <circle id="Oval-Copy-263" cx="11" cy="166" r="2"></circle>
                        <circle id="Oval-Copy-266" cx="7" cy="166" r="2"></circle>
                        <circle id="Oval-Copy-264" cx="11" cy="173" r="2"></circle>
                        <circle id="Oval-Copy-265" cx="4" cy="173" r="2"></circle>
                        <circle id="Oval-Copy-267" cx="15" cy="177" r="2"></circle>
                        <circle id="Oval-Copy-222" cx="70" cy="70" r="2"></circle>
                        <circle id="Oval-Copy-243" cx="66" cy="143" r="2"></circle>
                        <circle id="Oval-Copy-270" cx="160" cy="141" r="2"></circle>
                        <circle id="Oval-Copy-271" cx="145" cy="136" r="2"></circle>
                        <circle id="Oval-Copy-272" cx="136" cy="141" r="2"></circle>
                        <circle id="Oval-Copy-274" cx="132" cy="145" r="2"></circle>
                        <circle id="Oval-Copy-276" cx="130" cy="143" r="2"></circle>
                        <circle id="Oval-Copy-278" cx="128" cy="149" r="2"></circle>
                        <circle id="Oval-Copy-273" cx="136" cy="145" r="2"></circle>
                        <circle id="Oval-Copy-275" cx="117" cy="154" r="2"></circle>
                        <circle id="Oval-Copy-277" cx="111" cy="160" r="2"></circle>
                        <circle id="Oval-Copy-279" cx="126" cy="149" r="2"></circle>
                        <circle id="Oval-Copy-296" cx="132" cy="156" r="2"></circle>
                        <circle id="Oval-Copy-280" cx="124" cy="154" r="2"></circle>
                        <circle id="Oval-Copy-281" cx="122" cy="158" r="2"></circle>
                        <circle id="Oval-Copy-282" cx="122" cy="154" r="2"></circle>
                        <circle id="Oval-Copy-284" cx="117" cy="158" r="2"></circle>
                        <circle id="Oval-Copy-286" cx="113" cy="158" r="2"></circle>
                        <circle id="Oval-Copy-287" cx="113" cy="168" r="2"></circle>
                        <circle id="Oval-Copy-285" cx="107" cy="158" r="2"></circle>
                        <circle id="Oval-Copy-288" cx="107" cy="164" r="2"></circle>
                        <circle id="Oval-Copy-290" cx="105" cy="173" r="2"></circle>
                        <circle id="Oval-Copy-293" cx="105" cy="168" r="2"></circle>
                        <circle id="Oval-Copy-292" cx="100" cy="171" r="2"></circle>
                        <circle id="Oval-Copy-291" cx="100" cy="177" r="2"></circle>
                        <circle id="Oval-Copy-294" cx="98" cy="175" r="2"></circle>
                        <circle id="Oval-Copy-295" cx="94" cy="182" r="2"></circle>
                        <circle id="Oval-Copy-289" cx="109" cy="168" r="2"></circle>
                        <circle id="Oval-Copy-283" cx="117" cy="160" r="2"></circle>
                        <circle id="Oval-Copy-223" cx="38" cy="79" r="2"></circle>
                        <circle id="Oval-Copy-224" cx="36" cy="81" r="2"></circle>
                        <circle id="Oval-Copy-225" cx="32" cy="85" r="2"></circle>
                        <circle id="Oval-Copy-227" cx="28" cy="89" r="2"></circle>
                        <circle id="Oval-Copy-241" cx="49" cy="72" r="2"></circle>
                        <circle id="Oval-Copy-228" cx="28" cy="85" r="2"></circle>
                        <circle id="Oval-Copy-229" cx="23" cy="89" r="2"></circle>
                        <circle id="Oval-Copy-230" cx="15" cy="100" r="2"></circle>
                        <circle id="Oval-Copy-269" cx="15" cy="94" r="2"></circle>
                        <circle id="Oval-Copy-231" cx="21" cy="96" r="2"></circle>
                        <circle id="Oval-Copy-232" cx="19" cy="94" r="2"></circle>
                        <circle id="Oval-Copy-233" cx="11" cy="98" r="2"></circle>
                        <circle id="Oval-Copy-234" cx="11" cy="104" r="2"></circle>
                        <circle id="Oval-Copy-235" cx="4" cy="104" r="2"></circle>
                        <circle id="Oval-Copy-236" cx="15" cy="98" r="2"></circle>
                        <circle id="Oval-Copy-237" cx="9" cy="100" r="2"></circle>
                        <circle id="Oval-Copy-238" cx="6" cy="108" r="2"></circle>
                        <circle id="Oval-Copy-239" cx="2" cy="108" r="2"></circle>
                        <circle id="Oval-Copy-240" cx="45" cy="76" r="2"></circle>
                        <circle id="Oval-Copy-226" cx="32" cy="83" r="2"></circle>
                        <circle id="Oval-Copy-167" cx="136" cy="19" r="2"></circle>
                        <circle id="Oval-Copy-171" cx="136" cy="15" r="2"></circle>
                        <circle id="Oval-Copy-168" cx="128" cy="19" r="2"></circle>
                        <circle id="Oval-Copy-169" cx="126" cy="21" r="2"></circle>
                        <circle id="Oval-Copy-170" cx="130" cy="21" r="2"></circle>
                        <circle id="Oval-Copy-172" cx="149" cy="6" r="2"></circle>
                        <circle id="Oval-Copy-173" cx="132" cy="17" r="2"></circle>
                        <circle id="Oval-Copy-174" cx="147" cy="8" r="2"></circle>
                        <circle id="Oval-Copy-175" cx="158" cy="2" r="2"></circle>
                        <circle id="Oval-Copy-176" cx="149" cy="10" r="2"></circle>
                        <circle id="Oval-Copy-177" cx="143" cy="10" r="2"></circle>
                        <circle id="Oval-Copy-180" cx="246" cy="70" r="2"></circle>
                        <circle id="Oval-Copy-202" cx="240" cy="75" r="2"></circle>
                        <circle id="Oval-Copy-203" cx="246" cy="81" r="2"></circle>
                        <circle id="Oval-Copy-204" cx="208" cy="113" r="2"></circle>
                        <circle id="Oval-Copy-205" cx="236" cy="85" r="2"></circle>
                        <circle id="Oval-Copy-206" cx="236" cy="90" r="2"></circle>
                        <circle id="Oval-Copy-207" cx="231" cy="90" r="2"></circle>
                        <circle id="Oval-Copy-208" cx="231" cy="94" r="2"></circle>
                        <circle id="Oval-Copy-209" cx="238" cy="94" r="2"></circle>
                        <circle id="Oval-Copy-210" cx="227" cy="94" r="2"></circle>
                        <circle id="Oval-Copy-211" cx="234" cy="98" r="2"></circle>
                        <circle id="Oval-Copy-212" cx="227" cy="100" r="2"></circle>
                        <circle id="Oval-Copy-213" cx="223" cy="100" r="2"></circle>
                        <circle id="Oval-Copy-214" cx="219" cy="105" r="2"></circle>
                        <circle id="Oval-Copy-215" cx="217" cy="98" r="2"></circle>
                        <circle id="Oval-Copy-216" cx="225" cy="107" r="2"></circle>
                        <circle id="Oval-Copy-217" cx="221" cy="98" r="2"></circle>
                        <circle id="Oval-Copy-218" cx="214" cy="111" r="2"></circle>
                        <circle id="Oval-Copy-219" cx="212" cy="105" r="2"></circle>
                        <circle id="Oval-Copy-220" cx="208" cy="105" r="2"></circle>
                        <circle id="Oval-Copy-221" cx="194" cy="109" r="2"></circle>
                        <circle id="Oval-Copy-179" cx="104" cy="36" r="2"></circle>
                        <circle id="Oval-Copy-181" cx="124" cy="23" r="2"></circle>
                        <circle id="Oval-Copy-182" cx="141" cy="15" r="2"></circle>
                        <circle id="Oval-Copy-183" cx="235" cy="11" r="2"></circle>
                        <circle id="Oval-Copy-184" cx="246" cy="4" r="2"></circle>
                        <circle id="Oval-Copy-185" cx="246" cy="11" r="2"></circle>
                        <circle id="Oval-Copy-186" cx="254" cy="8" r="2"></circle>
                        <circle id="Oval-Copy-187" cx="242" cy="11" r="2"></circle>
                        <circle id="Oval-Copy-188" cx="239" cy="13" r="2"></circle>
                        <circle id="Oval-Copy-189" cx="235" cy="15" r="2"></circle>
                        <circle id="Oval-Copy-190" cx="225" cy="26" r="2"></circle>
                        <circle id="Oval-Copy-191" cx="216" cy="17" r="2"></circle>
                        <circle id="Oval-Copy-192" cx="210" cy="30" r="2"></circle>
                        <circle id="Oval-Copy-193" cx="216" cy="26" r="2"></circle>
                        <circle id="Oval-Copy-194" cx="186" cy="40" r="2"></circle>
                        <circle id="Oval-Copy-195" cx="214" cy="34" r="2"></circle>
                        <circle id="Oval-Copy-196" cx="220" cy="23" r="2"></circle>
                        <circle id="Oval-Copy-197" cx="227" cy="19" r="2"></circle>
                        <circle id="Oval-Copy-198" cx="242" cy="19" r="2"></circle>
                        <circle id="Oval-Copy-199" cx="252" cy="2" r="2"></circle>
                        <circle id="Oval-Copy-200" cx="250" cy="30" r="2"></circle>
                        <circle id="Oval-Copy-201" cx="235" cy="21" r="2"></circle>
                    </g>
                    <text id="v1" font-family="TitilliumWeb-Regular, Titillium Web" font-size="14" font-weight="normal" line-spacing="20" fill="#FFFFFF" fill-opacity="0.55">
                        <tspan x="38" y="36">v1</tspan>
                    </text>
                    <text id="v2" font-family="TitilliumWeb-Regular, Titillium Web" font-size="14" font-weight="normal" line-spacing="20" fill="#FFFFFF" fill-opacity="0.55">
                        <tspan x="130" y="104">v2</tspan>
                    </text>
                    <text id="v3" font-family="TitilliumWeb-Regular, Titillium Web" font-size="14" font-weight="normal" line-spacing="20" fill="#FFFFFF" fill-opacity="0.55">
                        <tspan x="219" y="172">v3</tspan>
                    </text>
                </g>
            </g>
        </g>
    </g>
</svg>
