<?xml version="1.0" encoding="UTF-8"?>
<svg width="376px" height="376px" viewBox="0 0 376 376" version="1.1" xmlns="http://www.w3.org/2000/svg" xmlns:xlink="http://www.w3.org/1999/xlink">
    <!-- Generator: Sketch 52.6 (67491) - http://www.bohemiancoding.com/sketch -->
    <title>Group 6 Copy 9</title>
    <desc>Created with Sketch.</desc>
    <g id="Data-viz-vocabulary" stroke="none" stroke-width="1" fill="none" fill-rule="evenodd">
        <g id="Details-large-1" transform="translate(-132.000000, -1334.000000)">
            <g id="Group-6-Copy-9" transform="translate(132.000000, 1334.000000)">
                <rect id="Rectangle-Copy-3" fill="#001521" x="0" y="0" width="376" height="376"></rect>
                <g id="Group-19" transform="translate(52.000000, 90.000000)" fill="#009FE3">
                    <polygon id="Rectangle" transform="translate(135.858452, 36.465040) rotate(-8.000000) translate(-135.858452, -36.465040) " points="9.85845225 34.4650403 261.857796 34.5010135 261.858452 38.4650403 9.8591085 38.429067"></polygon>
                    <polygon id="Rectangle-Copy-81" transform="translate(137.075904, 66.390702) rotate(-12.000000) translate(-137.075904, -66.390702) " points="11.0759045 64.3907016 263.074936 64.443557 263.075904 68.3907016 11.0768729 68.3378462"></polygon>
                    <polygon id="Rectangle-Copy-84" transform="translate(134.352027, 121.247177) rotate(-25.000000) translate(-134.352027, -121.247177) " points="-1.64797333 119.247177 270.350212 119.353677 270.352027 123.247177 -1.64615821 123.140677"></polygon>
                    <polygon id="Rectangle-Copy-83" transform="translate(137.074147, 130.308315) rotate(-10.000000) translate(-137.074147, -130.308315) " points="11.0741474 128.308315 263.073333 128.352855 263.074147 132.308315 11.0749617 132.263775"></polygon>
                    <polygon id="Rectangle-Copy-82" transform="translate(137.071183, 130.320179) rotate(5.000000) translate(-137.071183, -130.320179) " points="11.0715965 128.342917 263.071183 128.320179 263.07077 132.29744 11.071183 132.320179"></polygon>
                    <rect id="Rectangle" x="9" y="0" width="4" height="196"></rect>
                    <rect id="Rectangle-Copy-79" x="260" y="0" width="4" height="196"></rect>
                    <circle id="Oval-Copy-48" cx="10" cy="91" r="10"></circle>
                    <circle id="Oval-Copy-69" cx="262" cy="17" r="10"></circle>
                    <circle id="Oval-Copy-65" cx="262" cy="40" r="10"></circle>
                    <circle id="Oval-Copy-70" cx="10" cy="53" r="10"></circle>
                    <circle id="Oval-Copy-66" cx="262" cy="109" r="10"></circle>
                    <circle id="Oval-Copy-67" cx="262" cy="141" r="10"></circle>
                    <circle id="Oval-Copy-72" cx="10" cy="151" r="10"></circle>
                    <circle id="Oval-Copy-74" cx="10" cy="119" r="10"></circle>
                    <circle id="Oval-Copy-68" cx="262" cy="63" r="10"></circle>
                    <circle id="Oval-Copy-73" cx="10" cy="178" r="10"></circle>
                </g>
            </g>
        </g>
    </g>
</svg>
