<svg width="1200" height="600" viewBox="0 0 1200 600" fill="none" xmlns="http://www.w3.org/2000/svg">
<rect width="1200" height="600" fill="black"/>
<path d="M491.41 416.76L440.207 277.217H477.906L513.354 382.718L548.802 277.217H586.501L535.017 416.76H491.41Z" fill="white"/>
<path d="M625.814 255.554C619.249 255.554 613.81 253.585 609.496 249.646C605.37 245.708 603.307 240.737 603.307 234.736C603.307 228.734 605.37 223.857 609.496 220.106C613.81 216.167 619.249 214.198 625.814 214.198C632.378 214.198 637.723 216.167 641.85 220.106C646.164 223.857 648.321 228.734 648.321 234.736C648.321 240.737 646.164 245.708 641.85 249.646C637.723 253.585 632.378 255.554 625.814 255.554ZM607.808 416.76V277.217H643.819V416.76H607.808Z" fill="white"/>
<path d="M669.59 416.76V387.782L740.768 307.039H670.434V277.217H781.843V306.195L709.54 386.938H783.25V416.76H669.59Z" fill="white"/>
<path d="M810.403 416.76V277.217H842.475L845.851 303.382C850.915 294.379 857.762 287.252 866.388 282C875.204 276.561 885.519 273.841 897.335 273.841V311.822H887.207C879.33 311.822 872.297 313.04 866.107 315.479C859.918 317.918 855.042 322.138 851.478 328.139C848.102 334.141 846.414 342.487 846.414 353.178V416.76H810.403Z" fill="white"/>
<path d="M977.993 420.136C964.489 420.136 952.298 417.041 941.42 410.852C930.729 404.663 922.195 396.129 915.818 385.25C909.629 374.185 906.534 361.43 906.534 346.989C906.534 332.547 909.722 319.887 916.099 309.008C922.477 297.943 931.01 289.315 941.701 283.125C952.58 276.936 964.771 273.841 978.275 273.841C991.591 273.841 1003.59 276.936 1014.29 283.125C1025.16 289.315 1033.7 297.943 1039.89 309.008C1046.26 319.887 1049.45 332.547 1049.45 346.989C1049.45 361.43 1046.26 374.185 1039.89 385.25C1033.7 396.129 1025.16 404.663 1014.29 410.852C1003.41 417.041 991.31 420.136 977.993 420.136ZM977.993 388.908C987.371 388.908 995.531 385.438 1002.47 378.498C1009.41 371.372 1012.88 360.868 1012.88 346.989C1012.88 333.11 1009.41 322.7 1002.47 315.76C995.531 308.634 987.465 305.07 978.275 305.07C968.709 305.07 960.457 308.634 953.517 315.76C946.765 322.7 943.389 333.11 943.389 346.989C943.389 360.868 946.765 371.372 953.517 378.498C960.457 385.438 968.616 388.908 977.993 388.908Z" fill="white"/>
<path d="M386.496 179.904V416.76H149.64L386.496 179.904Z" fill="#2251FF"/>
</svg>
