<svg width="23" height="20" viewBox="0 0 23 20" fill="none" xmlns="http://www.w3.org/2000/svg">
<path fill-rule="evenodd" clip-rule="evenodd" d="M9.25 0L11.001 3.001L9.785 5.083L10.316 6H12.671L13.207 5.07L12 3.001L13.75 0H17.25L19.001 3.001L17.25 6H14.98L14.389 7.024L15.525 9H16.583L17.75 7H21.25L23.001 10.001L21.25 13H17.75L16.582 11H15.525L14.349 13.045L14.882 14H17.25L19.001 17.001L17.25 20H13.75L12 17.001L13.158 15.014L12.592 14H10.317L9.785 14.918L11.001 17.001L9.25 20H5.75L4 17.001L5.75 14H8.005L8.605 12.965L7.475 11H6.418L5.25 13H1.75L0 10.001L1.75 7H5.25L6.417 9H7.475L8.605 7.034L8.006 6H5.75L4 3.001L5.75 0H9.25ZM8.106 16.001H6.903L6.32 17.001L6.903 18.001H8.106L8.689 17.001L8.106 16.001ZM16.106 16.001H14.903L14.32 17.001L14.903 18.001H16.106L16.689 17.001L16.106 16.001ZM12.605 8.0004H10.3137L9.16366 9.99973L10.3137 12.0004H12.605L13.7543 9.99973L12.605 8.0004ZM4.106 9.001H2.903L2.32 10.001L2.903 11.001H4.106L4.689 10.001L4.106 9.001ZM20.106 9.001H18.903L18.32 10.001L18.903 11.001H20.106L20.689 10.001L20.106 9.001ZM16.106 2.001H14.903L14.32 3.001L14.903 4.001H16.106L16.689 3.001L16.106 2.001ZM8.106 2.001H6.903L6.32 3.001L6.903 4.001H8.106L8.689 3.001L8.106 2.001Z" fill="white"/>
</svg>
