<svg width="4523" height="2186" xmlns="http://www.w3.org/2000/svg" xmlns:xlink="http://www.w3.org/1999/xlink" xml:space="preserve" overflow="hidden"><g transform="translate(41 -201)"><g><g><g><g><path d="M2179.06 1859.52 2239.94 1859.52 2239.94 1920.39 2179.06 1920.39Z" stroke="#7F7F7F" stroke-width="10.3617" stroke-linecap="butt" stroke-linejoin="miter" stroke-miterlimit="10" stroke-opacity="1" fill="none" fill-rule="nonzero"/><path d="M2179.06 1448.61 2239.94 1448.61 2239.94 1509.48 2179.06 1509.48Z" stroke="#7F7F7F" stroke-width="10.3617" stroke-linecap="butt" stroke-linejoin="miter" stroke-miterlimit="10" stroke-opacity="1" fill="none" fill-rule="nonzero"/><path d="M2209.5 1566.55 2102.97 1627.43 2102.97 1741.57 2209.5 1802.45 2316.03 1741.57 2316.03 1627.43Z" stroke="#7F7F7F" stroke-width="10.3617" stroke-linecap="butt" stroke-linejoin="miter" stroke-miterlimit="10" stroke-opacity="1" fill="none" fill-rule="nonzero"/><path d="M2209.5 1802.45 2209.5 1688.3 2316.03 1627.43 2209.5 1688.3 2102.97 1627.43" stroke="#7F7F7F" stroke-width="10.3617" stroke-linecap="butt" stroke-linejoin="miter" stroke-miterlimit="10" stroke-opacity="1" fill="none" fill-rule="nonzero"/><path d="M2384.52 1558.95 2445.39 1558.95 2445.39 1619.82 2384.52 1619.82Z" stroke="#7F7F7F" stroke-width="10.3617" stroke-linecap="butt" stroke-linejoin="miter" stroke-miterlimit="10" stroke-opacity="1" fill="none" fill-rule="nonzero"/><path d="M2384.52 1589.38 2338.86 1589.38 2295.49 1616.02" stroke="#7F7F7F" stroke-width="10.3617" stroke-linecap="butt" stroke-linejoin="miter" stroke-miterlimit="10" stroke-opacity="1" fill="none" fill-rule="nonzero"/><path d="M2384.52 1783.42 2337.34 1783.42 2290.92 1756.03" stroke="#7F7F7F" stroke-width="10.3617" stroke-linecap="butt" stroke-linejoin="miter" stroke-miterlimit="10" stroke-opacity="1" fill="none" fill-rule="nonzero"/><path d="M2384.52 1752.98 2445.39 1752.98 2445.39 1813.86 2384.52 1813.86Z" stroke="#7F7F7F" stroke-width="10.3617" stroke-linecap="butt" stroke-linejoin="miter" stroke-miterlimit="10" stroke-opacity="1" fill="none" fill-rule="nonzero"/><path d="M1973.61 1558.95 2034.48 1558.95 2034.48 1619.82 1973.61 1619.82Z" stroke="#7F7F7F" stroke-width="10.3617" stroke-linecap="butt" stroke-linejoin="miter" stroke-miterlimit="10" stroke-opacity="1" fill="none" fill-rule="nonzero"/><path d="M2034.48 1589.38 2080.14 1589.38 2125.04 1614.49" stroke="#7F7F7F" stroke-width="10.3617" stroke-linecap="butt" stroke-linejoin="miter" stroke-miterlimit="10" stroke-opacity="1" fill="none" fill-rule="nonzero"/><path d="M2034.48 1783.42 2081.66 1783.42 2127.32 1756.03" stroke="#7F7F7F" stroke-width="10.3617" stroke-linecap="butt" stroke-linejoin="miter" stroke-miterlimit="10" stroke-opacity="1" fill="none" fill-rule="nonzero"/><path d="M1973.61 1752.98 2034.48 1752.98 2034.48 1813.86 1973.61 1813.86Z" stroke="#7F7F7F" stroke-width="10.3617" stroke-linecap="butt" stroke-linejoin="miter" stroke-miterlimit="10" stroke-opacity="1" fill="none" fill-rule="nonzero"/><path d="M2209.5 1859.52 2209.5 1798.64" stroke="#7F7F7F" stroke-width="10.3617" stroke-linecap="butt" stroke-linejoin="miter" stroke-miterlimit="10" stroke-opacity="1" fill="none" fill-rule="nonzero"/><path d="M2209.5 1566.55 2209.5 1509.48" stroke="#7F7F7F" stroke-width="10.3617" stroke-linecap="butt" stroke-linejoin="miter" stroke-miterlimit="10" stroke-opacity="1" fill="none" fill-rule="nonzero"/></g></g></g><text fill="#7F7F7F" fill-opacity="1" font-family="Segoe UI,Segoe UI_MSFontService,sans-serif" font-style="normal" font-variant="normal" font-weight="400" font-stretch="normal" font-size="92" text-anchor="start" direction="ltr" writing-mode="lr-tb" unicode-bidi="normal" text-decoration="none" transform="matrix(1 0 0 1 3356.42 2115)">​</text><text fill="#7F7F7F" fill-opacity="1" font-family="Segoe UI,Segoe UI_MSFontService,sans-serif" font-style="normal" font-variant="normal" font-weight="700" font-stretch="normal" font-size="92" text-anchor="start" direction="ltr" writing-mode="lr-tb" unicode-bidi="normal" text-decoration="none" transform="matrix(1 0 0 1 3356.42 2115)">production scaling</text><text fill="#7F7F7F" fill-opacity="1" font-family="Segoe UI,Segoe UI_MSFontService,sans-serif" font-style="normal" font-variant="normal" font-weight="400" font-stretch="normal" font-size="73" text-anchor="start" direction="ltr" writing-mode="lr-tb" unicode-bidi="normal" text-decoration="none" transform="matrix(1 0 0 1 3255.88 2235)">​</text><text fill="#7F7F7F" fill-opacity="1" font-family="Segoe UI,Segoe UI_MSFontService,sans-serif" font-style="normal" font-variant="normal" font-weight="400" font-stretch="normal" font-size="73" text-anchor="start" direction="ltr" writing-mode="lr-tb" unicode-bidi="normal" text-decoration="none" transform="matrix(1 0 0 1 3255.88 2235)">build prototypes and deploy to </text><text fill="#7F7F7F" fill-opacity="1" font-family="Segoe UI,Segoe UI_MSFontService,sans-serif" font-style="normal" font-variant="normal" font-weight="400" font-stretch="normal" font-size="73" text-anchor="start" direction="ltr" writing-mode="lr-tb" unicode-bidi="normal" text-decoration="none" transform="matrix(1 0 0 1 3271.35 2323)">production at scale in minutes</text><text fill="#7F7F7F" fill-opacity="1" font-family="Segoe UI,Segoe UI_MSFontService,sans-serif" font-style="normal" font-variant="normal" font-weight="400" font-stretch="normal" font-size="92" text-anchor="start" direction="ltr" writing-mode="lr-tb" unicode-bidi="normal" text-decoration="none" transform="matrix(1 0 0 1 1717.45 913)">​</text><text fill="#7F7F7F" fill-opacity="1" font-family="Segoe UI,Segoe UI_MSFontService,sans-serif" font-style="normal" font-variant="normal" font-weight="700" font-stretch="normal" font-size="92" text-anchor="start" direction="ltr" writing-mode="lr-tb" unicode-bidi="normal" text-decoration="none" transform="matrix(1 0 0 1 1717.45 913)">in</text><text fill="#7F7F7F" fill-opacity="1" font-family="Segoe UI,Segoe UI_MSFontService,sans-serif" font-style="normal" font-variant="normal" font-weight="700" font-stretch="normal" font-size="92" text-anchor="start" direction="ltr" writing-mode="lr-tb" unicode-bidi="normal" text-decoration="none" transform="matrix(1 0 0 1 1798.8 913)">-</text><text fill="#7F7F7F" fill-opacity="1" font-family="Segoe UI,Segoe UI_MSFontService,sans-serif" font-style="normal" font-variant="normal" font-weight="700" font-stretch="normal" font-size="92" text-anchor="start" direction="ltr" writing-mode="lr-tb" unicode-bidi="normal" text-decoration="none" transform="matrix(1 0 0 1 1836.04 913)">built best practices</text><text fill="#7F7F7F" fill-opacity="1" font-family="Segoe UI,Segoe UI_MSFontService,sans-serif" font-style="normal" font-variant="normal" font-weight="400" font-stretch="normal" font-size="73" text-anchor="start" direction="ltr" writing-mode="lr-tb" unicode-bidi="normal" text-decoration="none" transform="matrix(1 0 0 1 1655.57 1033)">​</text><text fill="#7F7F7F" fill-opacity="1" font-family="Segoe UI,Segoe UI_MSFontService,sans-serif" font-style="normal" font-variant="normal" font-weight="400" font-stretch="normal" font-size="73" text-anchor="start" direction="ltr" writing-mode="lr-tb" unicode-bidi="normal" text-decoration="none" transform="matrix(1 0 0 1 1655.57 1033)">a</text><text fill="#7F7F7F" fill-opacity="1" font-family="Segoe UI,Segoe UI_MSFontService,sans-serif" font-style="normal" font-variant="normal" font-weight="400" font-stretch="normal" font-size="73" text-anchor="start" direction="ltr" writing-mode="lr-tb" unicode-bidi="normal" text-decoration="none" transform="matrix(1 0 0 1 1692.81 1033)">pply beautiful visual design and </text><text fill="#7F7F7F" fill-opacity="1" font-family="Segoe UI,Segoe UI_MSFontService,sans-serif" font-style="normal" font-variant="normal" font-weight="400" font-stretch="normal" font-size="73" text-anchor="start" direction="ltr" writing-mode="lr-tb" unicode-bidi="normal" text-decoration="none" transform="matrix(1 0 0 1 1642.37 1121)">engineering for</text><text fill="#7F7F7F" fill-opacity="1" font-family="Segoe UI,Segoe UI_MSFontService,sans-serif" font-style="normal" font-variant="normal" font-weight="400" font-stretch="normal" font-size="73" text-anchor="start" direction="ltr" writing-mode="lr-tb" unicode-bidi="normal" text-decoration="none" transform="matrix(1 0 0 1 2160.29 1121)">powerful</text><text fill="#7F7F7F" fill-opacity="1" font-family="Segoe UI,Segoe UI_MSFontService,sans-serif" font-style="normal" font-variant="normal" font-weight="400" font-stretch="normal" font-size="73" text-anchor="start" direction="ltr" writing-mode="lr-tb" unicode-bidi="normal" text-decoration="none" transform="matrix(1 0 0 1 2466.68 1121)">feature</text><text fill="#7F7F7F" fill-opacity="1" font-family="Segoe UI,Segoe UI_MSFontService,sans-serif" font-style="normal" font-variant="normal" font-weight="400" font-stretch="normal" font-size="73" text-anchor="start" direction="ltr" writing-mode="lr-tb" unicode-bidi="normal" text-decoration="none" transform="matrix(1 0 0 1 2694.31 1121)">s</text><text fill="#7F7F7F" fill-opacity="1" font-family="Segoe UI,Segoe UI_MSFontService,sans-serif" font-style="normal" font-variant="normal" font-weight="400" font-stretch="normal" font-size="92" text-anchor="start" direction="ltr" writing-mode="lr-tb" unicode-bidi="normal" text-decoration="none" transform="matrix(1 0 0 1 311.143 2115)">​</text><text fill="#7F7F7F" fill-opacity="1" font-family="Segoe UI,Segoe UI_MSFontService,sans-serif" font-style="normal" font-variant="normal" font-weight="700" font-stretch="normal" font-size="92" text-anchor="start" direction="ltr" writing-mode="lr-tb" unicode-bidi="normal" text-decoration="none" transform="matrix(1 0 0 1 311.143 2115)">open</text><text fill="#7F7F7F" fill-opacity="1" font-family="Segoe UI,Segoe UI_MSFontService,sans-serif" font-style="normal" font-variant="normal" font-weight="700" font-stretch="normal" font-size="92" text-anchor="start" direction="ltr" writing-mode="lr-tb" unicode-bidi="normal" text-decoration="none" transform="matrix(1 0 0 1 529.424 2115)">-</text><text fill="#7F7F7F" fill-opacity="1" font-family="Segoe UI,Segoe UI_MSFontService,sans-serif" font-style="normal" font-variant="normal" font-weight="700" font-stretch="normal" font-size="92" text-anchor="start" direction="ltr" writing-mode="lr-tb" unicode-bidi="normal" text-decoration="none" transform="matrix(1 0 0 1 566.664 2115)">source tools</text><text fill="#7F7F7F" fill-opacity="1" font-family="Segoe UI,Segoe UI_MSFontService,sans-serif" font-style="normal" font-variant="normal" font-weight="400" font-stretch="normal" font-size="73" text-anchor="start" direction="ltr" writing-mode="lr-tb" unicode-bidi="normal" text-decoration="none" transform="matrix(1 0 0 1 10.4762 2235)">​</text><text fill="#7F7F7F" fill-opacity="1" font-family="Segoe UI,Segoe UI_MSFontService,sans-serif" font-style="normal" font-variant="normal" font-weight="400" font-stretch="normal" font-size="73" text-anchor="start" direction="ltr" writing-mode="lr-tb" unicode-bidi="normal" text-decoration="none" transform="matrix(1 0 0 1 10.4762 2235)">enjoy the freedom of open source with the </text><text fill="#7F7F7F" fill-opacity="1" font-family="Segoe UI,Segoe UI_MSFontService,sans-serif" font-style="normal" font-variant="normal" font-weight="400" font-stretch="normal" font-size="73" text-anchor="start" direction="ltr" writing-mode="lr-tb" unicode-bidi="normal" text-decoration="none" transform="matrix(1 0 0 1 98.8887 2323)">flexibility of </text><text fill="#7F7F7F" fill-opacity="1" font-family="Segoe UI,Segoe UI_MSFontService,sans-serif" font-style="normal" font-variant="normal" font-weight="400" font-stretch="normal" font-size="73" text-anchor="start" direction="ltr" writing-mode="lr-tb" unicode-bidi="normal" text-decoration="none" transform="matrix(1 0 0 1 490.58 2323)">Plotly</text><text fill="#7F7F7F" fill-opacity="1" font-family="Segoe UI,Segoe UI_MSFontService,sans-serif" font-style="normal" font-variant="normal" font-weight="400" font-stretch="normal" font-size="73" text-anchor="start" direction="ltr" writing-mode="lr-tb" unicode-bidi="normal" text-decoration="none" transform="matrix(1 0 0 1 666.832 2323)">, Dash and </text><text fill="#7F7F7F" fill-opacity="1" font-family="Segoe UI,Segoe UI_MSFontService,sans-serif" font-style="normal" font-variant="normal" font-weight="400" font-stretch="normal" font-size="73" text-anchor="start" direction="ltr" writing-mode="lr-tb" unicode-bidi="normal" text-decoration="none" transform="matrix(1 0 0 1 1025.48 2323)">Pydantic</text><text fill="#7F7F7F" fill-opacity="1" font-family="Segoe UI,Segoe UI_MSFontService,sans-serif" font-style="normal" font-variant="normal" font-weight="400" font-stretch="normal" font-size="92" text-anchor="start" direction="ltr" writing-mode="lr-tb" unicode-bidi="normal" text-decoration="none" transform="matrix(1 0 0 1 497.904 913)">​</text><text fill="#7F7F7F" fill-opacity="1" font-family="Segoe UI,Segoe UI_MSFontService,sans-serif" font-style="normal" font-variant="normal" font-weight="700" font-stretch="normal" font-size="92" text-anchor="start" direction="ltr" writing-mode="lr-tb" unicode-bidi="normal" text-decoration="none" transform="matrix(1 0 0 1 497.904 913)">low</text><text fill="#7F7F7F" fill-opacity="1" font-family="Segoe UI,Segoe UI_MSFontService,sans-serif" font-style="normal" font-variant="normal" font-weight="700" font-stretch="normal" font-size="92" text-anchor="start" direction="ltr" writing-mode="lr-tb" unicode-bidi="normal" text-decoration="none" transform="matrix(1 0 0 1 653.164 913)">-</text><text fill="#7F7F7F" fill-opacity="1" font-family="Segoe UI,Segoe UI_MSFontService,sans-serif" font-style="normal" font-variant="normal" font-weight="700" font-stretch="normal" font-size="92" text-anchor="start" direction="ltr" writing-mode="lr-tb" unicode-bidi="normal" text-decoration="none" transform="matrix(1 0 0 1 690.404 913)">code</text><text fill="#7F7F7F" fill-opacity="1" font-family="Segoe UI,Segoe UI_MSFontService,sans-serif" font-style="normal" font-variant="normal" font-weight="400" font-stretch="normal" font-size="73" text-anchor="start" direction="ltr" writing-mode="lr-tb" unicode-bidi="normal" text-decoration="none" transform="matrix(1 0 0 1 79.1935 1033)">​</text><text fill="#7F7F7F" fill-opacity="1" font-family="Segoe UI,Segoe UI_MSFontService,sans-serif" font-style="normal" font-variant="normal" font-weight="400" font-stretch="normal" font-size="73" text-anchor="start" direction="ltr" writing-mode="lr-tb" unicode-bidi="normal" text-decoration="none" transform="matrix(1 0 0 1 79.1935 1033)">use a few lines of simple </text><text fill="#7F7F7F" fill-opacity="1" font-family="Segoe UI,Segoe UI_MSFontService,sans-serif" font-style="normal" font-variant="normal" font-weight="400" font-stretch="normal" font-size="73" text-anchor="start" direction="ltr" writing-mode="lr-tb" unicode-bidi="normal" text-decoration="none" transform="matrix(1 0 0 1 883.385 1033)">configuration </text><text fill="#7F7F7F" fill-opacity="1" font-family="Segoe UI,Segoe UI_MSFontService,sans-serif" font-style="normal" font-variant="normal" font-weight="400" font-stretch="normal" font-size="73" text-anchor="start" direction="ltr" writing-mode="lr-tb" unicode-bidi="normal" text-decoration="none" transform="matrix(1 0 0 1 193.112 1121)">to build apps quickly and easily</text><text fill="#7F7F7F" fill-opacity="1" font-family="Segoe UI,Segoe UI_MSFontService,sans-serif" font-style="normal" font-variant="normal" font-weight="400" font-stretch="normal" font-size="92" text-anchor="start" direction="ltr" writing-mode="lr-tb" unicode-bidi="normal" text-decoration="none" transform="matrix(1 0 0 1 3229.77 913)">​</text><text fill="#7F7F7F" fill-opacity="1" font-family="Segoe UI,Segoe UI_MSFontService,sans-serif" font-style="normal" font-variant="normal" font-weight="700" font-stretch="normal" font-size="92" text-anchor="start" direction="ltr" writing-mode="lr-tb" unicode-bidi="normal" text-decoration="none" transform="matrix(1 0 0 1 3229.77 913)">e</text><text fill="#7F7F7F" fill-opacity="1" font-family="Segoe UI,Segoe UI_MSFontService,sans-serif" font-style="normal" font-variant="normal" font-weight="700" font-stretch="normal" font-size="92" text-anchor="start" direction="ltr" writing-mode="lr-tb" unicode-bidi="normal" text-decoration="none" transform="matrix(1 0 0 1 3279.62 913)">fficient communication</text><text fill="#7F7F7F" fill-opacity="1" font-family="Segoe UI,Segoe UI_MSFontService,sans-serif" font-style="normal" font-variant="normal" font-weight="400" font-stretch="normal" font-size="73" text-anchor="start" direction="ltr" writing-mode="lr-tb" unicode-bidi="normal" text-decoration="none" transform="matrix(1 0 0 1 3098.3 1033)">​</text><text fill="#7F7F7F" fill-opacity="1" font-family="Segoe UI,Segoe UI_MSFontService,sans-serif" font-style="normal" font-variant="normal" font-weight="400" font-stretch="normal" font-size="73" text-anchor="start" direction="ltr" writing-mode="lr-tb" unicode-bidi="normal" text-decoration="none" transform="matrix(1 0 0 1 3098.3 1033)">share insights without needing </text><text fill="#7F7F7F" fill-opacity="1" font-family="Segoe UI,Segoe UI_MSFontService,sans-serif" font-style="normal" font-variant="normal" font-weight="400" font-stretch="normal" font-size="73" text-anchor="start" direction="ltr" writing-mode="lr-tb" unicode-bidi="normal" text-decoration="none" transform="matrix(1 0 0 1 4107.39 1033)">advanced </text><text fill="#7F7F7F" fill-opacity="1" font-family="Segoe UI,Segoe UI_MSFontService,sans-serif" font-style="normal" font-variant="normal" font-weight="400" font-stretch="normal" font-size="73" text-anchor="start" direction="ltr" writing-mode="lr-tb" unicode-bidi="normal" text-decoration="none" transform="matrix(1 0 0 1 3145.37 1121)">engineering or visual design expertise</text><text fill="#7F7F7F" fill-opacity="1" font-family="Segoe UI,Segoe UI_MSFontService,sans-serif" font-style="normal" font-variant="normal" font-weight="400" font-stretch="normal" font-size="92" text-anchor="start" direction="ltr" writing-mode="lr-tb" unicode-bidi="normal" text-decoration="none" transform="matrix(1 0 0 1 1869.03 2115)">​</text><text fill="#7F7F7F" fill-opacity="1" font-family="Segoe UI,Segoe UI_MSFontService,sans-serif" font-style="normal" font-variant="normal" font-weight="700" font-stretch="normal" font-size="92" text-anchor="start" direction="ltr" writing-mode="lr-tb" unicode-bidi="normal" text-decoration="none" transform="matrix(1 0 0 1 1869.03 2115)">code extensions</text><text fill="#7F7F7F" fill-opacity="1" font-family="Segoe UI,Segoe UI_MSFontService,sans-serif" font-style="normal" font-variant="normal" font-weight="400" font-stretch="normal" font-size="73" text-anchor="start" direction="ltr" writing-mode="lr-tb" unicode-bidi="normal" text-decoration="none" transform="matrix(1 0 0 1 1557.29 2235)">​</text><text fill="#7F7F7F" fill-opacity="1" font-family="Segoe UI,Segoe UI_MSFontService,sans-serif" font-style="normal" font-variant="normal" font-weight="400" font-stretch="normal" font-size="73" text-anchor="start" direction="ltr" writing-mode="lr-tb" unicode-bidi="normal" text-decoration="none" transform="matrix(1 0 0 1 1557.29 2235)">enable customization for advanced users </text><text fill="#7F7F7F" fill-opacity="1" font-family="Segoe UI,Segoe UI_MSFontService,sans-serif" font-style="normal" font-variant="normal" font-weight="400" font-stretch="normal" font-size="73" text-anchor="start" direction="ltr" writing-mode="lr-tb" unicode-bidi="normal" text-decoration="none" transform="matrix(1 0 0 1 1571.11 2323)">using Python, JavaScript, HTML and CSS</text><path d="M3547 1763 3547 1521.6C3547 1509.26 3557.24 1500 3569.05 1500L3913.95 1500C3926.55 1500 3936 1510.03 3936 1521.6L3936 1763" stroke="#7F7F7F" stroke-width="10.3125" stroke-linecap="butt" stroke-linejoin="miter" stroke-miterlimit="8" stroke-opacity="1" fill="none" fill-rule="evenodd"/><path d="M3806.7 1802 3806.7 1825.9 3676.3 1825.9 3676.3 1802 3498 1802C3498 1836.7 3527.06 1866 3563.2 1866L3919.8 1866C3955.15 1866 3985 1837.47 3985 1802L3806.7 1802Z" stroke="#7F7F7F" stroke-width="10.3125" stroke-linecap="butt" stroke-linejoin="miter" stroke-miterlimit="8" stroke-opacity="1" fill="none" fill-rule="evenodd"/><path d="M3859 1596 3753.33 1698 3688.66 1635.11 3624 1698" stroke="#7F7F7F" stroke-width="10.3125" stroke-linecap="butt" stroke-linejoin="miter" stroke-miterlimit="8" stroke-opacity="1" fill="none" fill-rule="evenodd"/><path d="M3786 1596 3859 1596 3859 1667" stroke="#7F7F7F" stroke-width="10.3125" stroke-linecap="butt" stroke-linejoin="miter" stroke-miterlimit="8" stroke-opacity="1" fill="none" fill-rule="evenodd"/><g><g><g><path d="M2146.54 614.102 2205.89 614.102 2205.89 686.391 2146.54 686.391Z" stroke="#7F7F7F" stroke-width="8.96308" stroke-linecap="butt" stroke-linejoin="miter" stroke-miterlimit="10" stroke-opacity="1" fill="none" fill-rule="nonzero"/><path d="M2247.75 492.352 2307.1 492.352 2307.1 686.391 2247.75 686.391Z" stroke="#7F7F7F" stroke-width="8.96308" stroke-linecap="butt" stroke-linejoin="miter" stroke-miterlimit="10" stroke-opacity="1" fill="none" fill-rule="nonzero"/><path d="M2347.43 387.342 2406.78 387.342 2406.78 686.391 2347.43 686.391Z" stroke="#7F7F7F" stroke-width="8.96308" stroke-linecap="butt" stroke-linejoin="miter" stroke-miterlimit="10" stroke-opacity="1" fill="none" fill-rule="nonzero"/><path d="M2088.71 261.787C2088.71 287.843 2067.59 308.966 2041.53 308.966 2015.48 308.966 1994.35 287.843 1994.35 261.787 1994.35 235.732 2015.48 214.609 2041.53 214.609 2067.59 214.609 2088.71 235.732 2088.71 261.787Z" stroke="#7F7F7F" stroke-width="8.96308" stroke-linecap="butt" stroke-linejoin="miter" stroke-miterlimit="10" stroke-opacity="1" fill="none" fill-rule="nonzero"/><path d="M2041.53 533.442 2041.53 686.391" stroke="#7F7F7F" stroke-width="8.96308" stroke-linecap="butt" stroke-linejoin="miter" stroke-miterlimit="10" stroke-opacity="1" fill="none" fill-rule="nonzero"/><path d="M1991.31 381.255 1991.31 686.391 2092.51 686.391 2092.51 390.386 2173.17 478.655 2206.65 447.456 2118.39 350.817C2107.73 339.403 2092.51 332.555 2076.53 332.555L1992.83 332.555C1969.24 332.555 1950.22 352.339 1950.22 375.167L1950.22 533.442 1991.31 533.442" stroke="#7F7F7F" stroke-width="8.96308" stroke-linecap="butt" stroke-linejoin="miter" stroke-miterlimit="10" stroke-opacity="1" fill="none" fill-rule="nonzero"/></g></g></g><g><g><g><path d="M75.3328 92.0735 75.3328 40.3297 127.077 40.3297" stroke="#7F7F7F" stroke-width="8.96308" stroke-linecap="butt" stroke-linejoin="miter" stroke-miterlimit="10" stroke-opacity="1" fill="none" fill-rule="nonzero" transform="matrix(1 0 0 1.00205 3476 204)"/><path d="M75.3328 39.5688 154.47 117.945" stroke="#7F7F7F" stroke-width="8.96308" stroke-linecap="butt" stroke-linejoin="miter" stroke-miterlimit="10" stroke-opacity="1" fill="none" fill-rule="nonzero" transform="matrix(1 0 0 1.00205 3476 204)"/><path d="M415.472 92.0735 415.472 40.3297 363.728 40.3297" stroke="#7F7F7F" stroke-width="8.96308" stroke-linecap="butt" stroke-linejoin="miter" stroke-miterlimit="10" stroke-opacity="1" fill="none" fill-rule="nonzero" transform="matrix(1 0 0 1.00205 3476 204)"/><path d="M415.472 39.5688 336.334 117.945" stroke="#7F7F7F" stroke-width="8.96308" stroke-linecap="butt" stroke-linejoin="miter" stroke-miterlimit="10" stroke-opacity="1" fill="none" fill-rule="nonzero" transform="matrix(1 0 0 1.00205 3476 204)"/><path d="M75.3328 379.708 75.3328 432.213 127.077 432.213" stroke="#7F7F7F" stroke-width="8.96308" stroke-linecap="butt" stroke-linejoin="miter" stroke-miterlimit="10" stroke-opacity="1" fill="none" fill-rule="nonzero" transform="matrix(1 0 0 1.00205 3476 204)"/><path d="M75.3328 432.213 154.47 353.075" stroke="#7F7F7F" stroke-width="8.96308" stroke-linecap="butt" stroke-linejoin="miter" stroke-miterlimit="10" stroke-opacity="1" fill="none" fill-rule="nonzero" transform="matrix(1 0 0 1.00205 3476 204)"/><path d="M415.472 379.708 415.472 432.213 363.728 432.213" stroke="#7F7F7F" stroke-width="8.96308" stroke-linecap="butt" stroke-linejoin="miter" stroke-miterlimit="10" stroke-opacity="1" fill="none" fill-rule="nonzero" transform="matrix(1 0 0 1.00205 3476 204)"/><path d="M415.472 432.213 336.334 353.075" stroke="#7F7F7F" stroke-width="8.96308" stroke-linecap="butt" stroke-linejoin="miter" stroke-miterlimit="10" stroke-opacity="1" fill="none" fill-rule="nonzero" transform="matrix(1 0 0 1.00205 3476 204)"/><path d="M44.1344 264.806 7.60938 228.281 43.3734 191.756" stroke="#7F7F7F" stroke-width="8.96308" stroke-linecap="butt" stroke-linejoin="miter" stroke-miterlimit="10" stroke-opacity="1" fill="none" fill-rule="nonzero" transform="matrix(1 0 0 1.00205 3476 204)"/><path d="M7.60938 229.042 117.945 228.281" stroke="#7F7F7F" stroke-width="8.96308" stroke-linecap="butt" stroke-linejoin="miter" stroke-miterlimit="10" stroke-opacity="1" fill="none" fill-rule="nonzero" transform="matrix(1 0 0 1.00205 3476 204)"/><path d="M442.105 265.567 479.391 229.042 442.105 192.517" stroke="#7F7F7F" stroke-width="8.96308" stroke-linecap="butt" stroke-linejoin="miter" stroke-miterlimit="10" stroke-opacity="1" fill="none" fill-rule="nonzero" transform="matrix(1 0 0 1.00205 3476 204)"/><path d="M479.391 229.042 369.055 228.281" stroke="#7F7F7F" stroke-width="8.96308" stroke-linecap="butt" stroke-linejoin="miter" stroke-miterlimit="10" stroke-opacity="1" fill="none" fill-rule="nonzero" transform="matrix(1 0 0 1.00205 3476 204)"/><path d="M290.678 54.7875C290.678 80.8433 269.556 101.966 243.5 101.966 217.444 101.966 196.322 80.8433 196.322 54.7875 196.322 28.7317 217.444 7.60938 243.5 7.60938 269.556 7.60938 290.678 28.7317 290.678 54.7875Z" stroke="#7F7F7F" stroke-width="8.96308" stroke-linecap="butt" stroke-linejoin="miter" stroke-miterlimit="10" stroke-opacity="1" fill="none" fill-rule="nonzero" transform="matrix(1 0 0 1.00205 3476 204)"/><path d="M303.614 319.594 339.378 319.594 327.964 175.016C325.681 146.1 302.092 124.794 273.177 124.794L213.063 124.794C184.147 124.794 160.558 146.861 158.275 175.016L146.861 319.594 183.386 319.594" stroke="#7F7F7F" stroke-width="8.96308" stroke-linecap="butt" stroke-linejoin="miter" stroke-miterlimit="10" stroke-opacity="1" fill="none" fill-rule="nonzero" transform="matrix(1 0 0 1.00205 3476 204)"/><path d="M306.658 283.069 291.439 479.391 195.561 479.391 180.342 283.069" stroke="#7F7F7F" stroke-width="8.96308" stroke-linecap="butt" stroke-linejoin="miter" stroke-miterlimit="10" stroke-opacity="1" fill="none" fill-rule="nonzero" transform="matrix(1 0 0 1.00205 3476 204)"/></g></g></g><path d="M1483 422 1483 552.515" stroke="#909090" stroke-width="13.75" stroke-linecap="butt" stroke-linejoin="miter" stroke-miterlimit="8" stroke-opacity="1" fill="none" fill-rule="evenodd"/><path d="M0 0 117.926 0.000360892" stroke="#909090" stroke-width="13.75" stroke-linecap="butt" stroke-linejoin="miter" stroke-miterlimit="8" stroke-opacity="1" fill="none" fill-rule="evenodd" transform="matrix(-1 0 0 1 1541.93 488)"/><path d="M1484 1611 1484 1741.51" stroke="#909090" stroke-width="13.75" stroke-linecap="butt" stroke-linejoin="miter" stroke-miterlimit="8" stroke-opacity="1" fill="none" fill-rule="evenodd"/><path d="M0 0 117.926 0.000360892" stroke="#909090" stroke-width="13.75" stroke-linecap="butt" stroke-linejoin="miter" stroke-miterlimit="8" stroke-opacity="1" fill="none" fill-rule="evenodd" transform="matrix(-1 0 0 1 1542.93 1677)"/><path d="M2888 481.125 3004.64 481.125 3004.64 494.875 2888 494.875ZM2997.77 453.625 3039.02 488 2997.77 522.375Z" fill="#909090" fill-rule="nonzero" fill-opacity="1"/><path d="M2888 1670.13 3004.64 1670.13 3004.64 1683.88 2888 1683.88ZM2997.77 1642.63 3039.02 1677 2997.77 1711.38Z" fill="#909090" fill-rule="nonzero" fill-opacity="1"/><g><g><g><path d="M479.391 254.153 479.391 398.731 358.402 438.3 238.934 398.731 238.934 254.153 359.163 213.823 479.391 254.153Z" stroke="#7F7F7F" stroke-width="9.8718" stroke-linecap="butt" stroke-linejoin="miter" stroke-miterlimit="10" stroke-opacity="1" fill="none" fill-rule="nonzero" transform="matrix(1.00205 0 0 1 479 1441)"/><path d="M479.391 254.153 358.402 293.722 238.934 254.153" stroke="#7F7F7F" stroke-width="9.8718" stroke-linecap="butt" stroke-linejoin="miter" stroke-miterlimit="10" stroke-opacity="1" fill="none" fill-rule="nonzero" transform="matrix(1.00205 0 0 1 479 1441)"/><path d="M358.402 293.722 358.402 438.3" stroke="#7F7F7F" stroke-width="9.8718" stroke-linecap="butt" stroke-linejoin="miter" stroke-miterlimit="10" stroke-opacity="1" fill="none" fill-rule="nonzero" transform="matrix(1.00205 0 0 1 479 1441)"/><path d="M192.517 251.87 192.517 362.206 100.444 392.644 7.60938 362.206 7.60938 251.87 100.444 221.433Z" stroke="#7F7F7F" stroke-width="9.8718" stroke-linecap="butt" stroke-linejoin="miter" stroke-miterlimit="10" stroke-opacity="1" fill="none" fill-rule="nonzero" transform="matrix(1.00205 0 0 1 479 1441)"/><path d="M192.517 251.87 100.444 282.308 7.60938 251.87M100.444 282.308 100.444 392.644" stroke="#7F7F7F" stroke-width="9.8718" stroke-linecap="butt" stroke-linejoin="miter" stroke-miterlimit="10" stroke-opacity="1" fill="none" fill-rule="nonzero" transform="matrix(1.00205 0 0 1 479 1441)"/><path d="M308.941 77.6156 308.941 184.147 218.389 213.823 127.838 184.147 127.838 77.6156 218.389 47.9391 308.941 77.6156Z" stroke="#7F7F7F" stroke-width="9.8718" stroke-linecap="butt" stroke-linejoin="miter" stroke-miterlimit="10" stroke-opacity="1" fill="none" fill-rule="nonzero" transform="matrix(1.00205 0 0 1 479 1441)"/><path d="M308.941 77.6156 218.389 108.053 127.838 77.6156" stroke="#7F7F7F" stroke-width="9.8718" stroke-linecap="butt" stroke-linejoin="miter" stroke-miterlimit="10" stroke-opacity="1" fill="none" fill-rule="nonzero" transform="matrix(1.00205 0 0 1 479 1441)"/><path d="M218.389 108.053 218.389 213.823" stroke="#7F7F7F" stroke-width="9.8718" stroke-linecap="butt" stroke-linejoin="miter" stroke-miterlimit="10" stroke-opacity="1" fill="none" fill-rule="nonzero" transform="matrix(1.00205 0 0 1 479 1441)"/></g></g></g><path d="M481 532 547 532 547 692 481 692Z" stroke="#7F7F7F" stroke-width="9.55318" stroke-linecap="butt" stroke-linejoin="miter" stroke-miterlimit="8" stroke-opacity="1" fill="none" fill-rule="evenodd"/><path d="M547 567 746.117 567C763.184 567 776.188 579.75 777 595.5 777 611.25 763.184 623.25 746.117 624L689.226 624" stroke="#7F7F7F" stroke-width="9.55318" stroke-linecap="butt" stroke-linejoin="miter" stroke-miterlimit="8" stroke-opacity="1" fill="none" fill-rule="evenodd"/><path d="M771.053 612.12 821.383 612.12 876.585 554.451C887.95 543.069 906.621 541.551 919.609 552.175 932.598 562.798 933.41 580.25 922.045 592.391L838.431 680.412C834.372 684.965 827.878 688 821.383 688L610.319 688C606.26 688 603.013 687.241 599.766 685.723L547 659.165" stroke="#7F7F7F" stroke-width="9.55318" stroke-linecap="butt" stroke-linejoin="miter" stroke-miterlimit="8" stroke-opacity="1" fill="none" fill-rule="evenodd"/><g><g><g><path d="M694.93 310.859 629.891 378.5 694.93 446.141" stroke="#7F7F7F" stroke-width="8.03336" stroke-linecap="butt" stroke-linejoin="miter" stroke-miterlimit="10" stroke-opacity="1" fill="none" fill-rule="nonzero"/><path d="M744.359 310.859 809.109 378.5 744.359 446.141" stroke="#7F7F7F" stroke-width="8.03336" stroke-linecap="butt" stroke-linejoin="miter" stroke-miterlimit="10" stroke-opacity="1" fill="none" fill-rule="nonzero"/></g></g></g><path d="M590 303.001C590 282.014 607.013 265 628.001 265L805.999 265C826.986 265 844 282.014 844 303.001L844 454.999C844 475.986 826.986 493 805.999 493L628.001 493C607.013 493 590 475.986 590 454.999Z" stroke="#7F7F7F" stroke-width="9.55318" stroke-linecap="butt" stroke-linejoin="miter" stroke-miterlimit="8" stroke-opacity="1" fill="none" fill-rule="evenodd"/></g></g></svg>
