<svg width="643" height="513" xmlns="http://www.w3.org/2000/svg" xmlns:xlink="http://www.w3.org/1999/xlink" xml:space="preserve" overflow="hidden"><g transform="translate(-589 673)"><g><g><g><g><path d="M173.6 272.8 140 305.6 173.6 338.4" stroke="#7F7F7F" stroke-width="5.71998" stroke-linecap="butt" stroke-linejoin="miter" stroke-miterlimit="10" stroke-opacity="1" fill="none" fill-rule="nonzero" transform="matrix(1.25195 0 0 1 590 -673)"/><path d="M338.4 272.8 372 305.6 338.4 338.4" stroke="#7F7F7F" stroke-width="5.71998" stroke-linecap="butt" stroke-linejoin="miter" stroke-miterlimit="10" stroke-opacity="1" fill="none" fill-rule="nonzero" transform="matrix(1.25195 0 0 1 590 -673)"/><path d="M223.2 372 288.8 239.2" stroke="#7F7F7F" stroke-width="5.71998" stroke-linecap="butt" stroke-linejoin="miter" stroke-miterlimit="10" stroke-opacity="1" fill="none" fill-rule="nonzero" transform="matrix(1.25195 0 0 1 590 -673)"/><path d="M74.4 99.2 107.2 99.2" stroke="#7F7F7F" stroke-width="5.71998" stroke-linecap="butt" stroke-linejoin="miter" stroke-miterlimit="10" stroke-opacity="1" fill="none" fill-rule="nonzero" transform="matrix(1.25195 0 0 1 590 -673)"/><path d="M156.8 99.2 189.6 99.2" stroke="#7F7F7F" stroke-width="5.71998" stroke-linecap="butt" stroke-linejoin="miter" stroke-miterlimit="10" stroke-opacity="1" fill="none" fill-rule="nonzero" transform="matrix(1.25195 0 0 1 590 -673)"/><path d="M347.2 99.2 437.6 99.2" stroke="#7F7F7F" stroke-width="5.71998" stroke-linecap="butt" stroke-linejoin="miter" stroke-miterlimit="10" stroke-opacity="1" fill="none" fill-rule="nonzero" transform="matrix(1.25195 0 0 1 590 -673)"/><path d="M8 156.8 504 156.8" stroke="#7F7F7F" stroke-width="5.71998" stroke-linecap="butt" stroke-linejoin="miter" stroke-miterlimit="10" stroke-opacity="1" fill="none" fill-rule="nonzero" transform="matrix(1.25195 0 0 1 590 -673)"/><path d="M8 40.8 504 40.8 504 470.4 8 470.4Z" stroke="#7F7F7F" stroke-width="5.71998" stroke-linecap="butt" stroke-linejoin="miter" stroke-miterlimit="10" stroke-opacity="1" fill="none" fill-rule="nonzero" transform="matrix(1.25195 0 0 1 590 -673)"/></g></g></g></g></g></svg>
