<?xml version="1.0" encoding="UTF-8"?>
<svg width="376px" height="376px" viewBox="0 0 376 376" version="1.1" xmlns="http://www.w3.org/2000/svg" xmlns:xlink="http://www.w3.org/1999/xlink">
    <!-- Generator: Sketch 52.6 (67491) - http://www.bohemiancoding.com/sketch -->
    <title>Group 6 Copy 29</title>
    <desc>Created with Sketch.</desc>
    <g id="Data-viz-vocabulary" stroke="none" stroke-width="1" fill="none" fill-rule="evenodd">
        <g id="Details-large-2" transform="translate(-932.000000, -534.000000)">
            <g id="Group-6-Copy-29" transform="translate(932.000000, 534.000000)">
                <rect id="Rectangle-Copy-3" fill="#001521" x="0" y="0" width="376" height="376"></rect>
                <g id="Group-25" transform="translate(83.000000, 83.000000)" fill="#009FE3">
                    <path d="M210.000457,104.384837 C210.000457,135.200054 196.715674,162.931467 175.555891,182.130489 L165.603717,168.412011 C165.603717,168.412011 101.288935,76.2220109 25.3602391,66.5140761 L9.22219565,61.2640761 C24.1961087,28.1000543 55.9015435,4.06418478 93.587413,0.00114130435 L93.587413,16.9152717 C93.587413,16.9152717 96.0526304,118.651141 191.693935,88.2239674 L207.831978,82.9716848 C209.247196,89.8879891 210.000457,97.0553804 210.000457,104.384837" id="Fill-1" fill-opacity="0.6"></path>
                    <path d="M200.755207,61.2871304 L184.639989,66.5143043 C96.8645543,92.6159348 44.3736848,168.412239 44.3736848,168.412239 L34.4215109,182.128435 C13.2845543,162.931696 -0.00022826087,135.200283 -0.00022826087,104.385065 C-0.00022826087,97.0556087 0.753032609,89.9110435 2.16825,82.9970217 L18.2834674,88.2241957 C102.598467,100.260391 117.885098,42.9303913 116.412815,16.9155 L116.412815,-0.000913043478 C154.098685,4.08495652 185.80412,28.1002826 200.755207,61.2871304" id="Fill-4" fill-opacity="0.6"></path>
                    <path d="M157.112641,195.550859 C141.773511,204.361728 123.96688,209.38575 105.000685,209.38575 C86.0322065,209.38575 68.2278587,204.361728 52.8659022,195.550859 L62.79525,181.855207 C62.79525,181.83238 62.8157935,181.83238 62.8157935,181.83238 C101.96025,100.580641 25.3604674,66.5149891 25.3604674,66.5149891 L9.22242391,61.2649891 C24.196337,28.1009674 55.9017717,4.06281522 93.5876413,-0.00022826087 L93.5876413,16.9139022 C93.5876413,104.082163 148.050685,181.03575 147.160467,181.83238 L157.112641,195.550859 Z" id="Fill-7" fill-opacity="0.6"></path>
                    <path d="M93.587413,0 L93.587413,16.9141304 C63.4113261,20.8402174 37.9830652,40.0597826 25.3602391,66.5152174 L9.22219565,61.2652174 C24.1961087,28.1011957 55.9015435,4.06304348 93.587413,0" id="Fill-11"></path>
                    <path d="M44.3741413,168.411554 L34.4219674,182.130033 C13.2850109,162.933293 0.00022826087,135.199598 0.00022826087,104.38438 C0.00022826087,97.0549239 0.75348913,89.9103587 2.16870652,82.996337 L18.2839239,88.2235109 C17.3024022,93.4735109 16.8002283,98.8604674 16.8002283,104.38438 C16.8002283,129.559272 27.3915326,152.319163 44.3741413,168.411554" id="Fill-13"></path>
                    <path d="M210.000457,104.384837 C210.000457,135.200054 196.715674,162.931467 175.555891,182.130489 L165.603717,168.412011 C182.586326,152.342446 193.200457,129.582554 193.200457,104.384837 C193.200457,98.8609239 192.698283,93.4739674 191.693935,88.2239674 L207.831978,82.9716848 C209.247196,89.8879891 210.000457,97.0553804 210.000457,104.384837" id="Fill-18"></path>
                    <path d="M157.112641,195.470168 C141.773511,204.229214 123.96688,209.223685 105.000685,209.223685 C86.0322065,209.223685 68.2278587,204.229214 52.8659022,195.470168 L62.8157935,181.83238 C75.3495978,188.639929 89.72775,192.520231 105.000685,192.520231 C120.248511,192.520231 134.628946,188.639929 147.160467,181.83238 L157.112641,195.470168 Z" id="Fill-15"></path>
                    <path d="M200.755207,61.2871304 L184.639989,66.5143043 C172.017163,40.0588696 146.588902,20.8393043 116.412815,16.9155 L116.412815,-0.000913043478 C154.098685,4.08495652 185.80412,28.1002826 200.755207,61.2871304" id="Fill-21"></path>
                </g>
            </g>
        </g>
    </g>
</svg>
