<svg width="2397" height="2393" xmlns="http://www.w3.org/2000/svg" xmlns:xlink="http://www.w3.org/1999/xlink" xml:space="preserve" overflow="hidden"><g transform="translate(-55 -27)"><g><rect x="59.0001" y="32" width="2391" height="2385" fill="#001621" fill-opacity="1"/><path d="M10.608-8.74825 326.843 374.716 305.627 392.212-10.608 8.74825ZM348.059 357.219C362.554 374.795 360.056 400.794 342.48 415.288 324.904 429.783 298.906 427.285 284.411 409.709 269.917 392.133 272.414 366.134 289.99 351.64 307.566 337.145 333.565 339.643 348.059 357.219Z" fill="#00A0E3" fill-rule="nonzero" fill-opacity="1" transform="matrix(-1 0 0 1 886.235 1592)"/><path d="M1234.38 1780.18 879.889 1604.32 892.111 1579.68 1246.6 1755.55ZM1258.82 1730.91C1279.23 1741.04 1287.57 1765.79 1277.44 1786.2 1267.32 1806.61 1242.56 1814.94 1222.16 1804.82 1201.75 1794.69 1193.41 1769.94 1203.54 1749.53 1213.66 1729.13 1238.41 1720.79 1258.82 1730.91ZM867.667 1628.95C847.259 1618.83 838.923 1594.08 849.047 1573.67 859.172 1553.26 883.924 1544.92 904.332 1555.05 924.741 1565.17 933.077 1589.92 922.952 1610.33 912.827 1630.74 888.076 1639.08 867.667 1628.95Z" fill="#00A0E3" fill-rule="nonzero" fill-opacity="1"/><path d="M0 0 162.195 826.308" stroke="#00A0E3" stroke-width="27.5" stroke-linecap="butt" stroke-linejoin="miter" stroke-miterlimit="8" stroke-opacity="1" fill="none" fill-rule="evenodd" transform="matrix(1 0 0 -1 1241 1768.31)"/><path d="M1632.03 1120.38 1395.07 953.236 1410.93 930.764 1647.88 1097.91ZM1663.73 1075.44C1682.35 1088.57 1686.79 1114.3 1673.66 1132.92 1660.53 1151.54 1634.79 1155.98 1616.18 1142.85 1597.56 1129.72 1593.11 1103.98 1606.24 1085.37 1619.38 1066.75 1645.11 1062.3 1663.73 1075.44ZM1379.22 975.708C1360.61 962.576 1356.16 936.839 1369.29 918.223 1382.42 899.607 1408.16 895.16 1426.78 908.292 1445.39 921.424 1449.84 947.161 1436.71 965.777 1423.58 984.393 1397.84 988.839 1379.22 975.708Z" fill="#00A0E3" fill-rule="nonzero" fill-opacity="1"/><path d="M0 0 85.128 716.795" stroke="#00A0E3" stroke-width="27.5" stroke-linecap="butt" stroke-linejoin="miter" stroke-miterlimit="8" stroke-opacity="1" fill="none" fill-rule="evenodd" transform="matrix(-1 0 0 1 1725.13 392)"/><path d="M1729.85 379.132 1951.21 462.484 1941.52 488.22 1720.15 404.868ZM1710.46 430.604C1689.14 422.576 1678.37 398.785 1686.4 377.464 1694.42 356.144 1718.22 345.368 1739.54 353.396 1760.86 361.424 1771.63 385.215 1763.6 406.536 1755.58 427.856 1731.78 438.632 1710.46 430.604ZM1960.9 436.748C1982.22 444.775 1993 468.567 1984.97 489.887 1976.94 511.208 1953.15 521.984 1931.83 513.956 1910.51 505.928 1899.73 482.136 1907.76 460.816 1915.79 439.495 1939.58 428.72 1960.9 436.748Z" fill="#00A0E3" fill-rule="nonzero" fill-opacity="1"/></g></g></svg>
