<svg width="2397" height="2393" xmlns="http://www.w3.org/2000/svg" xmlns:xlink="http://www.w3.org/1999/xlink" xml:space="preserve" overflow="hidden"><g transform="translate(-55 -27)"><g><rect x="59.0001" y="32" width="2391" height="2385" fill="#001621" fill-opacity="1"/><rect x="821" y="690" width="1048" height="202" fill="#7EC1CA" fill-opacity="1"/><rect x="701" y="983" width="840" height="202" fill="#7EC1CA" fill-opacity="1"/><rect x="1102" y="1277" width="767" height="202" fill="#7EC1CA" fill-opacity="1"/><rect x="495" y="1570" width="1278" height="202" fill="#7EC1CA" fill-opacity="1"/><rect x="1102" y="1864" width="957" height="202" fill="#7EC1CA" fill-opacity="1"/><rect x="441" y="397" width="1157" height="202" fill="#7EC1CA" fill-opacity="1"/><rect x="1074" y="397" width="318" height="202" fill="#00A9F4" fill-opacity="1"/><rect x="1150" y="690" width="165" height="202" fill="#00A9F4" fill-opacity="1"/><rect x="920" y="985" width="528" height="200" fill="#00A9F4" fill-opacity="1"/><rect x="1180" y="1276" width="268" height="202" fill="#00A9F4" fill-opacity="1"/><rect x="748" y="1570" width="572" height="202" fill="#00A9F4" fill-opacity="1"/><rect x="1150" y="1863" width="298" height="203" fill="#00A9F4" fill-opacity="1"/><path d="M1255 330 1255 2124.66" stroke="#FFFFFF" stroke-width="27.5" stroke-linecap="butt" stroke-linejoin="miter" stroke-miterlimit="8" stroke-opacity="1" fill="none" fill-rule="evenodd"/></g></g></svg>
