<?xml version="1.0" encoding="UTF-8"?>
<svg width="376px" height="376px" viewBox="0 0 376 376" version="1.1" xmlns="http://www.w3.org/2000/svg" xmlns:xlink="http://www.w3.org/1999/xlink">
    <!-- Generator: Sketch 52.6 (67491) - http://www.bohemiancoding.com/sketch -->
    <title>Group 6 Copy 16</title>
    <desc>Created with Sketch.</desc>
    <g id="Data-viz-vocabulary" stroke="none" stroke-width="1" fill="none" fill-rule="evenodd">
        <g id="Details-large-1" transform="translate(-532.000000, -2134.000000)">
            <g id="Group-6-Copy-16" transform="translate(532.000000, 2134.000000)">
                <rect id="Rectangle-Copy-3" fill="#001521" x="0" y="0" width="376" height="376"></rect>
                <g id="Group-949" transform="translate(52.000000, 92.000000)">
                    <polygon id="Fill-1" fill-opacity="0.2" fill="#0097A7" points="47.476372 193.633606 44.2721116 193.267923 41.1050369 192.901529 37.982585 192.535845 34.9310719 192.169451 31.959651 191.803768 29.0637457 191.438084 26.2496488 191.0724 23.5516856 190.706006 20.9778653 190.340323 18.5138857 189.973929 16.1637515 189.608245 13.9669367 189.241851 11.9303063 188.876168 10.0292606 188.510484 8.26665994 188.1448 6.67969006 187.778406 5.27807644 187.412723 4.02634966 187.046329 2.92508182 186.680645 2.00745396 186.314961 1.28547992 185.948568 0.715108991 185.582884 0.295769079 185.21649 0.0526320217 184.850807 0 184.485123 0.0898176893 184.119439 0.318080479 183.753045 0.70309516 183.387362 1.25916391 183.020968 1.93708723 182.655284 2.73343261 182.28889 3.65735342 181.923207 4.72200769 181.557523 5.88220052 181.191839 7.13335521 180.825445 8.4783322 180.459762 9.92742906 180.093368 11.4423159 179.727684 13.0189882 179.36129 14.6557297 178.995607 16.3565449 178.629923 18.0951179 178.263529 19.8662999 177.897846 21.6660862 177.532162 23.4933327 177.165768 25.332593 176.800084 27.1792904 176.434401 29.0294204 176.068007 30.8755458 175.702323 32.7119457 175.335929 34.5363317 174.970246 36.3458435 174.604562 38.1261789 174.238168 39.8824866 173.872484 41.6130503 173.506801 43.3155818 173.140407 44.9734905 172.774723 46.5982181 172.408329 48.1886205 172.042646 49.7446977 171.676962 51.2481428 171.310568 52.7132581 170.944884 54.1417598 170.579201 55.5330759 170.212807 56.8711878 169.847123 58.1698258 169.48073 59.4324222 169.115046 60.6584051 168.749362 61.8351884 168.382968 62.9747861 168.017285 64.0806306 167.651601 65.1538662 167.285207 66.1830511 166.919523 67.1784828 166.55313 68.1447381 166.187446 69.0818169 165.821762 69.9822821 165.455368 70.8529988 165.089685 71.6985437 164.724001 72.5200609 164.357607 73.3101133 163.991923 74.0749939 163.62624 74.8187073 163.259846 75.5418255 162.894162 76.2397718 162.527768 76.9148347 162.162085 77.5721629 161.796401 78.2123285 161.430007 78.8307547 161.064324 79.42973 160.69864 80.0126869 160.332246 80.5807695 159.966562 81.1311173 159.600169 81.6637305 159.234485 82.1831857 158.868801 82.6894829 158.502407 83.1797616 158.136724 83.6557381 157.77104 84.1197008 157.404646 84.5727939 157.038962 85.013301 156.673279 85.4412222 156.306885 85.8599901 155.940491 86.2701766 155.574807 86.6712097 155.209124 87.0630894 154.84344 87.4486762 154.477046 87.8285421 154.111363 88.2032592 153.745679 88.5733996 153.379285 88.9401075 153.012891 89.3056712 152.647208 89.6695187 152.281524 90.0333661 151.91584 90.3989299 151.549446 90.7656378 151.183763 91.1352061 150.818079 91.5099232 150.451685 91.889217 150.086001 92.2736596 149.719608 92.6643951 149.353924 93.063712 148.98753 93.470466 148.621846 93.8846571 148.256163 94.3074296 147.890479 94.7410717 147.524085 95.182723 147.158402 95.6329556 146.792008 96.0911974 146.426324 96.560881 146.05993 97.0385738 145.694247 97.5225596 145.328563 98.0134104 144.962879 98.5122704 144.596485 99.0162792 144.230802 99.5242927 143.865118 100.035739 143.498724 100.550045 143.13304 101.064923 142.766647 101.57923 142.400963 102.092392 142.035279 102.60155 141.668885 103.105559 141.303202 103.604419 140.937518 104.096414 140.571124 104.576967 140.205441 105.047222 139.839047 105.506036 139.473363 105.953409 139.106969 106.383046 138.741286 106.796665 138.375602 107.19541 138.009918 107.578136 137.643524 107.938551 137.277841 108.278943 136.911447 108.6016 136.545763 108.906523 136.179369 109.185701 135.813686 109.444285 135.448002 109.683989 135.082318 109.904815 134.715924 110.101041 134.350241 110.277244 133.983847 110.43514 133.618163 110.576445 133.251769 110.696583 132.886086 110.798415 132.520402 110.886516 132.154008 110.960316 131.788325 111.018669 131.422641 111.063291 131.056957 111.098189 130.690563 111.123933 130.32417 111.139951 129.958486 111.148532 129.592802 111.151965 129.226408 111.151965 128.860725 111.149104 128.495041 111.1451 128.129357 111.141095 127.762963 111.138235 127.39728 111.138235 127.030886 111.142811 126.665202 111.151965 126.298808 111.166839 125.933125 111.189151 125.567441 111.220615 125.201047 111.259517 124.835364 111.307573 124.46968 111.365353 124.103286 111.43572 123.737602 111.51524 123.371209 111.605058 123.005525 111.705745 122.639841 111.820163 122.273447 111.944878 121.907764 112.078746 121.54208 112.223484 121.176396 112.38138 120.810002 112.54843 120.444319 112.72406 120.077925 112.908845 119.712241 113.104498 119.345847 113.308161 118.980164 113.518117 118.61448 113.735511 118.248086 113.960913 117.882403 114.191464 117.516719 114.427736 117.150325 114.668013 116.784641 114.91401 116.418248 115.16344 116.052564 115.415731 115.68688 115.670882 115.320486 115.929465 114.954803 116.189193 114.589119 116.450636 114.222725 116.713224 113.857041 116.977529 113.490648 117.241261 113.124964 117.506137 112.75928 117.771586 112.392886 118.036462 112.027203 118.300766 111.661519 118.565071 111.295125 118.828231 110.929442 119.091391 110.563048 119.352835 110.197364 119.613134 109.83168 119.872862 109.465287 120.130301 109.099603 120.385452 108.733919 120.638887 108.367525 120.891177 108.001842 121.139463 107.636158 121.384888 107.269764 121.627453 106.90408 121.867158 106.537687 122.101714 106.172003 122.331121 105.806319 122.556523 105.439925 122.777349 105.074242 122.991309 104.708558 123.198405 104.342164 123.399207 103.976481 123.593145 103.610087 123.777929 103.244403 123.95356 102.878009 124.121182 102.512326 124.27965 102.146642 124.427248 101.780958 124.562833 101.414564 124.688692 101.048881 124.803682 100.682487 124.905513 100.316803 124.993614 99.9511194 125.070846 99.5847256 125.135492 99.2190419 125.18698 98.8533582 125.222449 98.4869644 125.246477 98.1212807 125.258491 97.755597 125.256203 97.3892032 125.238468 97.0235195 125.209291 96.6571257 125.168673 96.291442 125.116041 95.9250482 125.048535 95.5593645 124.971875 95.1936808 124.884918 94.8279971 124.788235 94.4616033 124.680683 94.0959196 124.565693 93.7295258 124.443839 93.3638421 124.316263 92.9974483 124.181823 92.6317646 124.04395 92.2660809 123.902644 91.9003972 123.760195 91.5340034 123.616601 91.1683197 123.474151 90.8019259 123.333417 90.4362422 123.195544 90.0698484 123.063392 89.7041647 122.936389 89.338481 122.816251 88.9727973 122.702405 88.6064035 122.601718 88.2407198 122.510184 87.874326 122.428948 87.5086423 122.359153 87.1429586 122.306521 86.7765648 122.267047 86.4108811 122.241303 86.0444873 122.228717 85.6788036 122.23787 85.3131199 122.261898 84.9474362 122.301372 84.5810424 122.35572 84.2153587 122.43238 83.8489649 122.524486 83.4832812 122.632039 83.1168874 122.754465 82.7512037 122.898059 82.38552 123.055955 82.0198363 123.227581 81.6534425 123.411793 81.2877588 123.614312 80.921365 123.828273 80.5556813 124.053103 80.1899976 124.287659 79.8236038 124.534801 79.4579201 124.789951 79.0915263 125.051967 78.7258426 125.320276 78.3601589 125.59545 77.9937651 125.873485 77.6280814 126.154951 77.2623977 126.437563 76.8960039 126.721318 76.5303202 127.003929 76.1639264 127.284824 75.7982427 127.564002 75.432559 127.838604 75.0668753 128.108057 74.7004815 128.372361 74.3347978 128.631517 73.968404 128.882091 73.6027203 129.124084 73.2363265 129.35864 72.8706428 129.585186 72.5049591 129.801435 72.1385653 130.006242 71.7728816 130.202468 71.4071979 130.388969 71.0408041 130.5646 70.6751204 130.728217 70.3087266 130.882108 69.9430429 131.026274 69.5773592 131.15957 69.2109654 131.281425 68.8452817 131.394126 68.479598 131.498246 68.1132042 131.59264 67.7475205 131.676165 67.3811267 131.752825 67.015443 131.822047 66.6497593 131.883261 66.2833655 131.935893 65.9176818 131.983376 65.5519981 132.025138 65.1856043 132.061752 64.8199206 132.092072 64.4542369 132.119533 64.0878431 132.14356 63.7221594 132.164155 63.3557656 132.18189 62.9900819 132.197909 62.6243982 132.212783 62.2580044 132.227085 61.8923207 132.240243 61.5266369 132.253973 61.1602432 132.267703 60.7945595 132.282005 60.4281657 132.297452 60.062482 132.315186 59.6967983 132.333493 59.3304045 132.353516 58.9647208 132.3764 58.599037 132.400427 58.2326433 132.426743 57.8669596 132.454776 57.5012758 132.485096 57.1348821 132.517705 56.7684883 132.551458 56.4028046 132.586356 56.0371209 132.622969 55.6714371 132.660727 55.3050434 132.699057 54.9393597 132.737387 54.5736759 132.775717 54.2072822 132.813474 53.8415984 132.85066 53.4752047 132.886701 53.109521 132.919883 52.7438372 132.951347 52.3774435 132.980524 52.0117597 133.006268 51.646076 133.028007 51.2796823 133.04517 50.9139985 133.0589 50.5476048 133.068053 50.181921 133.070914 49.8155273 133.068625 49.4498436 133.061188 49.0841598 133.04803 48.7184761 133.028007 48.3520824 133.001119 47.9863986 132.96851 47.6200049 132.930752 47.2543211 132.885557 46.8879274 132.833497 46.5222437 132.776861 46.1565599 132.714503 45.7908762 132.645853 45.4244824 132.572054 45.0587987 132.49425 44.693115 132.412441 44.3267212 132.326056 43.9610375 132.23681 43.5946438 132.145276 43.22896 132.051454 42.8625663 131.956488 42.4968825 131.860949 42.1311988 131.765983 41.7655151 131.671588 41.3991213 131.578338 41.0334376 131.487948 40.6670438 131.400419 40.3013601 131.316894 39.9349664 131.237374 39.5692826 131.164147 39.2035989 131.096069 38.8379152 131.033711 38.4715214 130.978791 38.1058377 130.932452 37.740154 130.89355 37.3737602 130.862085 37.0073665 130.839201 36.6416827 130.827188 36.275999 130.823755 35.9103153 130.828332 35.5439215 130.843206 35.1782378 130.86895 34.8125541 130.903275 34.4461603 130.946754 34.0797666 130.998242 33.7140828 131.061743 33.3483991 131.13211 32.9820053 131.210486 32.6163216 131.296299 32.2506379 131.391838 31.8849542 131.493097 31.5185604 131.600649 31.1528767 131.713351 30.7864829 131.832917 30.4207992 131.95706 30.0544054 132.084063 29.6887217 132.214499 29.323038 132.34894 28.9573543 132.484524 28.5909605 132.621825 28.2252768 132.759698 27.858883 132.898715 27.4931993 133.036588 27.1268055 133.173889 26.7611218 133.309474 26.3954381 133.44277 26.0290443 133.573778 25.6633606 133.701926 25.2976769 133.827785 24.9312831 133.947923 24.5655994 134.064629 24.1999157 134.17733 23.8335219 134.286599 23.4678382 134.389002 23.1014444 134.486829 22.7357607 134.580652 22.370077 134.668753 22.0043933 134.751134 21.6379995 134.827793 21.2723158 134.899876 20.905922 134.966811 20.5402383 135.028024 20.1738445 135.083516 19.8081608 135.134432 19.4424771 135.181343 19.0760833 135.221961 18.7103996 135.258575 18.3447159 135.290612 17.9783221 135.319216 17.6126384 135.342672 17.2462446 135.362695 16.8805609 135.379285 16.5148772 135.392443 16.1484834 135.402741 15.7827997 135.409606 15.417116 135.414183 15.0514323 135.416471 14.6850385 135.416471 14.3186447 135.414755 13.952961 135.411322 13.5872773 135.406746 13.2208835 135.401025 12.8551998 135.39416 12.4895161 135.387295 12.1231223 135.379285 11.7574386 135.371276 11.3910448 135.363267 11.0253611 135.355258 10.6596774 135.347249 10.2932836 135.340383 9.9275999 135.333518 9.56191619 135.327798 9.19552241 135.322649 8.8298387 135.319216 8.46415498 135.316356 8.09776121 135.31464 7.73207749 135.314067 7.36568371 135.31464 7 136.68536 7 136.685933 7.36568371 136.68536 7.73207749 136.683644 8.09776121 136.680784 8.46415498 136.677351 8.8298387 136.672202 9.19552241 136.665909 9.56191619 136.659617 9.9275999 136.652751 10.2932836 136.644742 10.6596774 136.636733 11.0253611 136.629296 11.3910448 136.620715 11.7574386 136.612705 12.1231223 136.60584 12.4895161 136.598975 12.8551998 136.593254 13.2208835 136.588106 13.5872773 136.585245 13.952961 136.583529 14.3186447 136.583529 14.6850385 136.585817 15.0514323 136.590394 15.417116 136.597831 15.7827997 136.607557 16.1484834 136.621287 16.5148772 136.637305 16.8805609 136.657328 17.2462446 136.680784 17.6126384 136.709388 17.9783221 136.741997 18.3447159 136.777466 18.7103996 136.819229 19.0760833 136.865568 19.4424771 136.917056 19.8081608 136.971976 20.1738445 137.033189 20.5402383 137.100124 20.905922 137.172207 21.2723158 137.249438 21.6379995 137.330675 22.0043933 137.419348 22.370077 137.513171 22.7357607 137.610425 23.1014444 137.713401 23.4678382 137.82267 23.8335219 137.935371 24.1999157 138.052077 24.5655994 138.172787 24.9312831 138.298074 25.2976769 138.426222 25.6633606 138.55723 26.0290443 138.690526 26.3954381 138.826111 26.7611218 138.963984 27.1268055 139.101857 27.4931993 139.23973 27.858883 139.378175 28.2252768 139.515476 28.5909605 139.651633 28.9573543 139.785501 29.323038 139.916509 29.6887217 140.04294 30.0544054 140.167083 30.4207992 140.286649 30.7864829 140.399351 31.1528767 140.506903 31.5185604 140.608734 31.8849542 140.703701 32.2506379 140.789514 32.6163216 140.86789 32.9820053 140.938829 33.3483991 141.001758 33.7140828 141.053818 34.0797666 141.096725 34.4461603 141.13105 34.8125541 141.157366 35.1782378 141.171668 35.5439215 141.176245 35.9103153 141.172812 36.275999 141.160799 36.6416827 141.137915 37.0073665 141.107022 37.3737602 141.067548 37.740154 141.021209 38.1058377 140.966861 38.4715214 140.903931 38.8379152 140.835853 39.2035989 140.762626 39.5692826 140.683678 39.9349664 140.599009 40.3013601 140.512052 40.6670438 140.421662 41.0334376 140.328412 41.3991213 140.234017 41.7655151 140.138479 42.1311988 140.04294 42.4968825 139.947974 42.8625663 139.854724 43.22896 139.76319 43.5946438 139.673944 43.9610375 139.587559 44.3267212 139.50575 44.693115 139.427946 45.0587987 139.354147 45.4244824 139.285497 45.7908762 139.223711 46.1565599 139.166503 46.5222437 139.114443 46.8879274 139.069248 47.2543211 139.03149 47.6200049 138.998881 47.9863986 138.971993 48.3520824 138.95197 48.7184761 138.939384 49.0841598 138.931375 49.4498436 138.929086 49.8155273 138.931947 50.181921 138.941672 50.5476048 138.95483 50.9139985 138.971993 51.2796823 138.993732 51.646076 139.019476 52.0117597 139.048653 52.3774435 139.080117 52.7438372 139.113299 53.109521 139.14934 53.4752047 139.186526 53.8415984 139.224283 54.2072822 139.262613 54.5736759 139.301515 54.9393597 139.339273 55.3050434 139.376459 55.6714371 139.413644 56.0371209 139.448542 56.4028046 139.482867 56.7684883 139.514904 57.1348821 139.545224 57.5012758 139.573257 57.8669596 139.599573 58.2326433 139.624172 58.599037 139.646484 58.9647208 139.666507 59.3304045 139.684814 59.6967983 139.702548 60.062482 139.717995 60.4281657 139.732297 60.7945595 139.746599 61.1602432 139.759757 61.5266369 139.773487 61.8923207 139.787217 62.2580044 139.802091 62.6243982 139.81811 62.9900819 139.835845 63.3557656 139.85644 63.7221594 139.880467 64.0878431 139.907356 64.4542369 139.93882 64.8199206 139.974862 65.1856043 140.016624 65.5519981 140.064107 65.9176818 140.116739 66.2833655 140.178525 66.6497593 140.247747 67.015443 140.323835 67.3811267 140.40736 67.7475205 140.501754 68.1132042 140.605874 68.479598 140.718575 68.8452817 140.84043 69.2109654 140.973154 69.5773592 141.117892 69.9430429 141.272356 70.3087266 141.4354 70.6751204 141.611031 71.0408041 141.797532 71.4071979 141.993758 71.7728816 142.199137 72.1385653 142.414814 72.5049591 142.64136 72.8706428 142.876488 73.2363265 143.117909 73.6027203 143.369055 73.968404 143.627639 74.3347978 143.891943 74.7004815 144.161968 75.0668753 144.435998 75.432559 144.714604 75.7982427 144.996643 76.1639264 145.279254 76.5303202 145.562437 76.8960039 145.845621 77.2623977 146.126515 77.6280814 146.40455 77.9937651 146.679724 78.3601589 146.948033 78.7258426 147.210049 79.0915263 147.465199 79.4579201 147.712913 79.8236038 147.947469 80.1899976 148.171727 80.5556813 148.385688 80.921365 148.588207 81.2877588 148.772419 81.6534425 148.944045 82.0198363 149.101941 82.38552 149.245535 82.7512037 149.367961 83.1168874 149.475514 83.4832812 149.56762 83.8489649 149.644852 84.2153587 149.698628 84.5810424 149.738102 84.9474362 149.76213 85.3131199 149.770711 85.6788036 149.759269 86.0444873 149.732953 86.4108811 149.693479 86.7765648 149.641419 87.1429586 149.571052 87.5086423 149.489816 87.874326 149.398282 88.2407198 149.297023 88.6064035 149.184321 88.9727973 149.063611 89.338481 148.936608 89.7041647 148.804456 90.0698484 148.666583 90.4362422 148.525849 90.8019259 148.383399 91.1683197 148.240378 91.5340034 148.097356 91.9003972 147.95605 92.2660809 147.818177 92.6317646 147.684309 92.9974483 147.555589 93.3638421 147.434307 93.7295258 147.319317 94.0959196 147.211765 94.4616033 147.115082 94.8279971 147.028125 95.1936808 146.951465 95.5593645 146.883959 95.9250482 146.831327 96.291442 146.790709 96.6571257 146.762104 97.0235195 146.743797 97.3892032 146.741509 97.755597 146.753523 98.1212807 146.777551 98.4869644 146.81302 98.8533582 146.863936 99.2190419 146.929154 99.5847256 147.006386 99.9511194 147.094487 100.316803 147.196318 100.682487 147.311308 101.048881 147.437167 101.414564 147.572752 101.780958 147.72035 102.146642 147.879391 102.512326 148.04644 102.878009 148.222071 103.244403 148.406855 103.610087 148.600793 103.976481 148.801595 104.342164 149.008691 104.708558 149.222651 105.074242 149.443477 105.439925 149.668879 105.806319 149.898858 106.172003 150.132842 106.537687 150.372547 106.90408 150.615112 107.269764 150.860537 107.636158 151.108823 108.001842 151.361113 108.367525 151.614548 108.733919 151.869699 109.099603 152.127138 109.465287 152.386866 109.83168 152.647737 110.197364 152.909181 110.563048 153.171769 110.929442 153.435501 111.295125 153.699234 111.661519 153.963538 112.027203 154.228414 112.392886 154.493863 112.75928 154.758739 113.124964 155.023043 113.490648 155.286776 113.857041 155.549364 114.222725 155.810807 114.589119 156.071107 114.954803 156.329118 115.320486 156.583697 115.68688 156.83656 116.052564 157.08599 116.418248 157.331987 116.784641 157.572836 117.150325 157.807964 117.516719 158.039087 117.882403 158.264489 118.248086 158.481883 118.61448 158.691839 118.980164 158.895502 119.345847 159.091155 119.712241 159.27594 120.077925 159.45157 120.444319 159.61862 120.810002 159.776516 121.176396 159.921254 121.54208 160.055694 121.907764 160.179837 122.273447 160.294255 122.639841 160.395514 123.005525 160.48476 123.371209 160.56428 123.737602 160.635219 124.103286 160.692427 124.46968 160.740483 124.835364 160.779385 125.201047 160.810849 125.567441 160.833161 125.933125 160.848035 126.298808 160.857189 126.665202 160.861765 127.030886 160.861765 127.39728 160.858905 127.762963 160.8549 128.129357 160.850896 128.495041 160.848035 128.860725 160.848035 129.226408 160.851468 129.592802 160.860049 129.958486 160.876067 130.32417 160.901811 130.690563 160.937281 131.056957 160.981331 131.422641 161.039684 131.788325 161.113484 132.154008 161.201585 132.520402 161.303417 132.886086 161.423555 133.251769 161.56486 133.618163 161.723329 133.983847 161.898959 134.350241 162.095185 134.715924 162.316583 135.082318 162.555715 135.448002 162.814299 135.813686 163.093477 136.179369 163.3984 136.545763 163.721057 136.911447 164.061449 137.277841 164.421864 137.643524 164.80459 138.009918 165.203335 138.375602 165.617526 138.741286 166.046591 139.106969 166.493964 139.473363 166.952778 139.839047 167.423605 140.205441 167.904159 140.571124 168.395581 140.937518 168.894441 141.303202 169.39845 141.668885 169.907608 142.035279 170.42077 142.400963 170.935077 142.766647 171.449955 143.13304 171.964261 143.498724 172.475707 143.865118 172.983149 144.230802 173.48773 144.596485 173.98659 144.962879 174.478013 145.328563 174.961426 145.694247 175.438547 146.05993 175.908803 146.426324 176.367616 146.792008 176.817277 147.158402 177.258928 147.524085 177.693143 147.890479 178.115343 148.256163 178.529534 148.621846 178.936288 148.98753 179.335605 149.353924 179.726912 149.719608 180.110783 150.086001 180.490077 150.451685 180.864794 150.818079 181.234362 151.183763 181.601642 151.549446 181.966634 151.91584 182.330481 152.281524 182.694329 152.647208 183.059892 153.012891 183.4266 153.379285 183.796741 153.745679 184.171458 154.111363 184.551324 154.477046 184.936911 154.84344 185.329362 155.209124 185.729823 155.574807 186.140582 155.940491 186.558778 156.306885 186.986699 156.673279 187.427778 157.038962 187.880871 157.404646 188.344262 157.77104 188.820238 158.136724 189.311089 158.502407 189.816814 158.868801 190.336269 159.234485 190.868883 159.600169 191.418658 159.966562 191.987313 160.332246 192.570842 160.69864 193.169817 161.064324 193.788244 161.430007 194.427837 161.796401 195.085165 162.162085 195.7608 162.527768 196.458175 162.894162 197.180721 163.259846 197.925006 163.62624 198.689887 163.991923 199.480511 164.357607 200.301456 164.724001 201.147001 165.089685 202.017718 165.455368 202.918183 165.821762 203.855262 166.187446 204.821517 166.55313 205.816949 166.919523 206.846706 167.285207 207.919369 167.651601 209.024642 168.017285 210.164812 168.382968 211.341023 168.749362 212.567578 169.115046 213.830174 169.48073 215.128812 169.847123 216.466924 170.212807 217.85824 170.579201 219.286742 170.944884 220.752429 171.310568 222.255302 171.676962 223.811379 172.042646 225.401782 172.408329 227.02651 172.774723 228.684418 173.140407 230.38695 173.506801 232.118086 173.872484 233.873821 174.238168 235.654156 174.604562 237.463668 174.970246 239.288054 175.335929 241.125026 175.702323 242.97058 176.068007 244.821282 176.434401 246.667407 176.800084 248.506667 177.165768 250.333914 177.532162 252.134272 177.897846 253.905454 178.263529 255.643455 178.629923 257.34427 178.995607 258.981012 179.36129 260.557684 179.727684 262.072571 180.093368 263.521668 180.459762 264.866645 180.825445 266.117799 181.191839 267.278564 181.557523 268.342647 181.923207 269.266567 182.28889 270.062913 182.655284 270.740836 183.020968 271.296905 183.387362 271.68192 183.753045 271.910182 184.119439 272 184.485123 271.947368 184.850807 271.704231 185.21649 271.284891 185.582884 270.71452 185.948568 269.993118 186.314961 269.074918 186.680645 267.97365 187.046329 266.721924 187.412723 265.32031 187.778406 263.73334 188.1448 261.970739 188.510484 260.069122 188.876168 258.033063 189.241851 255.836248 189.608245 253.486114 189.973929 251.022135 190.340323 248.448314 190.706006 245.750923 191.0724 242.936826 191.438084 240.040349 191.803768 237.068928 192.169451 234.017415 192.535845 230.894963 192.901529 227.72846 193.267923 224.523628 193.633606 221.286187 194 50.7138134 194"></polygon>
                    <g id="Group-26" transform="translate(51.000000, 0.000000)" fill="#009FE3">
                        <path d="M87.1071429,168.549451 C87.1071429,169.653954 86.2116463,170.549451 85.1071429,170.549451 C84.0026394,170.549451 83.1071429,169.653954 83.1071429,168.549451 C83.1071429,167.444947 84.0026394,166.549451 85.1071429,166.549451 C86.2116463,166.549451 87.1071429,167.444947 87.1071429,168.549451" id="Fill-933"></path>
                        <path d="M87.1071429,172.791209 C87.1071429,173.895712 86.2116463,174.791209 85.1071429,174.791209 C84.0026394,174.791209 83.1071429,173.895712 83.1071429,172.791209 C83.1071429,171.686705 84.0026394,170.791209 85.1071429,170.791209 C86.2116463,170.791209 87.1071429,171.686705 87.1071429,172.791209" id="Fill-933-Copy-11"></path>
                        <path d="M87.1071429,181.274725 C87.1071429,182.379229 86.2116463,183.274725 85.1071429,183.274725 C84.0026394,183.274725 83.1071429,182.379229 83.1071429,181.274725 C83.1071429,180.170222 84.0026394,179.274725 85.1071429,179.274725 C86.2116463,179.274725 87.1071429,180.170222 87.1071429,181.274725" id="Fill-933-Copy-12"></path>
                        <path d="M87.1071429,185.516484 C87.1071429,186.620987 86.2116463,187.516484 85.1071429,187.516484 C84.0026394,187.516484 83.1071429,186.620987 83.1071429,185.516484 C83.1071429,184.41198 84.0026394,183.516484 85.1071429,183.516484 C86.2116463,183.516484 87.1071429,184.41198 87.1071429,185.516484" id="Fill-933-Copy-17"></path>
                        <path d="M87.1071429,189.758242 C87.1071429,190.862745 86.2116463,191.758242 85.1071429,191.758242 C84.0026394,191.758242 83.1071429,190.862745 83.1071429,189.758242 C83.1071429,188.653738 84.0026394,187.758242 85.1071429,187.758242 C86.2116463,187.758242 87.1071429,188.653738 87.1071429,189.758242" id="Fill-933-Copy-22"></path>
                        <path d="M95.6309524,168.549451 C95.6309524,169.653954 94.7354558,170.549451 93.6309524,170.549451 C92.5264489,170.549451 91.6309524,169.653954 91.6309524,168.549451 C91.6309524,167.444947 92.5264489,166.549451 93.6309524,166.549451 C94.7354558,166.549451 95.6309524,167.444947 95.6309524,168.549451" id="Fill-933-Copy"></path>
                        <path d="M95.6309524,172.791209 C95.6309524,173.895712 94.7354558,174.791209 93.6309524,174.791209 C92.5264489,174.791209 91.6309524,173.895712 91.6309524,172.791209 C91.6309524,171.686705 92.5264489,170.791209 93.6309524,170.791209 C94.7354558,170.791209 95.6309524,171.686705 95.6309524,172.791209" id="Fill-933-Copy-7"></path>
                        <path d="M95.6309524,181.274725 C95.6309524,182.379229 94.7354558,183.274725 93.6309524,183.274725 C92.5264489,183.274725 91.6309524,182.379229 91.6309524,181.274725 C91.6309524,180.170222 92.5264489,179.274725 93.6309524,179.274725 C94.7354558,179.274725 95.6309524,180.170222 95.6309524,181.274725" id="Fill-933-Copy-13"></path>
                        <path d="M95.6309524,185.516484 C95.6309524,186.620987 94.7354558,187.516484 93.6309524,187.516484 C92.5264489,187.516484 91.6309524,186.620987 91.6309524,185.516484 C91.6309524,184.41198 92.5264489,183.516484 93.6309524,183.516484 C94.7354558,183.516484 95.6309524,184.41198 95.6309524,185.516484" id="Fill-933-Copy-18"></path>
                        <path d="M121.202381,185.516484 C121.202381,186.620987 120.306884,187.516484 119.202381,187.516484 C118.097877,187.516484 117.202381,186.620987 117.202381,185.516484 C117.202381,184.41198 118.097877,183.516484 119.202381,183.516484 C120.306884,183.516484 121.202381,184.41198 121.202381,185.516484" id="Fill-933-Copy-27"></path>
                        <path d="M121.202381,189.758242 C121.202381,190.862745 120.306884,191.758242 119.202381,191.758242 C118.097877,191.758242 117.202381,190.862745 117.202381,189.758242 C117.202381,188.653738 118.097877,187.758242 119.202381,187.758242 C120.306884,187.758242 121.202381,188.653738 121.202381,189.758242" id="Fill-933-Copy-42"></path>
                        <path d="M29.5714286,185.516484 C29.5714286,186.620987 28.675932,187.516484 27.5714286,187.516484 C26.4669251,187.516484 25.5714286,186.620987 25.5714286,185.516484 C25.5714286,184.41198 26.4669251,183.516484 27.5714286,183.516484 C28.675932,183.516484 29.5714286,184.41198 29.5714286,185.516484" id="Fill-933-Copy-31"></path>
                        <path d="M29.5714286,189.758242 C29.5714286,190.862745 28.675932,191.758242 27.5714286,191.758242 C26.4669251,191.758242 25.5714286,190.862745 25.5714286,189.758242 C25.5714286,188.653738 26.4669251,187.758242 27.5714286,187.758242 C28.675932,187.758242 29.5714286,188.653738 29.5714286,189.758242" id="Fill-933-Copy-35"></path>
                        <path d="M4,189.758242 C4,190.862745 3.10450346,191.758242 2,191.758242 C0.895496536,191.758242 0,190.862745 0,189.758242 C0,188.653738 0.895496536,187.758242 2,187.758242 C3.10450346,187.758242 4,188.653738 4,189.758242" id="Fill-933-Copy-38"></path>
                        <path d="M138.25,185.516484 C138.25,186.620987 137.354503,187.516484 136.25,187.516484 C135.145497,187.516484 134.25,186.620987 134.25,185.516484 C134.25,184.41198 135.145497,183.516484 136.25,183.516484 C137.354503,183.516484 138.25,184.41198 138.25,185.516484" id="Fill-933-Copy-29"></path>
                        <path d="M138.25,189.758242 C138.25,190.862745 137.354503,191.758242 136.25,191.758242 C135.145497,191.758242 134.25,190.862745 134.25,189.758242 C134.25,188.653738 135.145497,187.758242 136.25,187.758242 C137.354503,187.758242 138.25,188.653738 138.25,189.758242" id="Fill-933-Copy-44"></path>
                        <path d="M46.6190476,185.516484 C46.6190476,186.620987 45.7235511,187.516484 44.6190476,187.516484 C43.5145442,187.516484 42.6190476,186.620987 42.6190476,185.516484 C42.6190476,184.41198 43.5145442,183.516484 44.6190476,183.516484 C45.7235511,183.516484 46.6190476,184.41198 46.6190476,185.516484" id="Fill-933-Copy-32"></path>
                        <path d="M46.6190476,189.758242 C46.6190476,190.862745 45.7235511,191.758242 44.6190476,191.758242 C43.5145442,191.758242 42.6190476,190.862745 42.6190476,189.758242 C42.6190476,188.653738 43.5145442,187.758242 44.6190476,187.758242 C45.7235511,187.758242 46.6190476,188.653738 46.6190476,189.758242" id="Fill-933-Copy-36"></path>
                        <path d="M21.047619,189.758242 C21.047619,190.862745 20.1521225,191.758242 19.047619,191.758242 C17.9431156,191.758242 17.047619,190.862745 17.047619,189.758242 C17.047619,188.653738 17.9431156,187.758242 19.047619,187.758242 C20.1521225,187.758242 21.047619,188.653738 21.047619,189.758242" id="Fill-933-Copy-39"></path>
                        <path d="M95.6309524,189.758242 C95.6309524,190.862745 94.7354558,191.758242 93.6309524,191.758242 C92.5264489,191.758242 91.6309524,190.862745 91.6309524,189.758242 C91.6309524,188.653738 92.5264489,187.758242 93.6309524,187.758242 C94.7354558,187.758242 95.6309524,188.653738 95.6309524,189.758242" id="Fill-933-Copy-23"></path>
                        <path d="M78.5833333,168.549451 C78.5833333,169.653954 77.6878368,170.549451 76.5833333,170.549451 C75.4788299,170.549451 74.5833333,169.653954 74.5833333,168.549451 C74.5833333,167.444947 75.4788299,166.549451 76.5833333,166.549451 C77.6878368,166.549451 78.5833333,167.444947 78.5833333,168.549451" id="Fill-933-Copy-4"></path>
                        <path d="M78.5833333,172.791209 C78.5833333,173.895712 77.6878368,174.791209 76.5833333,174.791209 C75.4788299,174.791209 74.5833333,173.895712 74.5833333,172.791209 C74.5833333,171.686705 75.4788299,170.791209 76.5833333,170.791209 C77.6878368,170.791209 78.5833333,171.686705 78.5833333,172.791209" id="Fill-933-Copy-8"></path>
                        <path d="M78.5833333,181.274725 C78.5833333,182.379229 77.6878368,183.274725 76.5833333,183.274725 C75.4788299,183.274725 74.5833333,182.379229 74.5833333,181.274725 C74.5833333,180.170222 75.4788299,179.274725 76.5833333,179.274725 C77.6878368,179.274725 78.5833333,180.170222 78.5833333,181.274725" id="Fill-933-Copy-14"></path>
                        <path d="M78.5833333,185.516484 C78.5833333,186.620987 77.6878368,187.516484 76.5833333,187.516484 C75.4788299,187.516484 74.5833333,186.620987 74.5833333,185.516484 C74.5833333,184.41198 75.4788299,183.516484 76.5833333,183.516484 C77.6878368,183.516484 78.5833333,184.41198 78.5833333,185.516484" id="Fill-933-Copy-19"></path>
                        <path d="M78.5833333,189.758242 C78.5833333,190.862745 77.6878368,191.758242 76.5833333,191.758242 C75.4788299,191.758242 74.5833333,190.862745 74.5833333,189.758242 C74.5833333,188.653738 75.4788299,187.758242 76.5833333,187.758242 C77.6878368,187.758242 78.5833333,188.653738 78.5833333,189.758242" id="Fill-933-Copy-24"></path>
                        <path d="M72.1904762,168.549451 C72.1904762,169.653954 71.2949797,170.549451 70.1904762,170.549451 C69.0859727,170.549451 68.1904762,169.653954 68.1904762,168.549451 C68.1904762,167.444947 69.0859727,166.549451 70.1904762,166.549451 C71.2949797,166.549451 72.1904762,167.444947 72.1904762,168.549451" id="Fill-933-Copy-5"></path>
                        <path d="M72.1904762,172.791209 C72.1904762,173.895712 71.2949797,174.791209 70.1904762,174.791209 C69.0859727,174.791209 68.1904762,173.895712 68.1904762,172.791209 C68.1904762,171.686705 69.0859727,170.791209 70.1904762,170.791209 C71.2949797,170.791209 72.1904762,171.686705 72.1904762,172.791209" id="Fill-933-Copy-9"></path>
                        <path d="M72.1904762,181.274725 C72.1904762,182.379229 71.2949797,183.274725 70.1904762,183.274725 C69.0859727,183.274725 68.1904762,182.379229 68.1904762,181.274725 C68.1904762,180.170222 69.0859727,179.274725 70.1904762,179.274725 C71.2949797,179.274725 72.1904762,180.170222 72.1904762,181.274725" id="Fill-933-Copy-15"></path>
                        <path d="M72.1904762,185.516484 C72.1904762,186.620987 71.2949797,187.516484 70.1904762,187.516484 C69.0859727,187.516484 68.1904762,186.620987 68.1904762,185.516484 C68.1904762,184.41198 69.0859727,183.516484 70.1904762,183.516484 C71.2949797,183.516484 72.1904762,184.41198 72.1904762,185.516484" id="Fill-933-Copy-20"></path>
                        <path d="M72.1904762,189.758242 C72.1904762,190.862745 71.2949797,191.758242 70.1904762,191.758242 C69.0859727,191.758242 68.1904762,190.862745 68.1904762,189.758242 C68.1904762,188.653738 69.0859727,187.758242 70.1904762,187.758242 C71.2949797,187.758242 72.1904762,188.653738 72.1904762,189.758242" id="Fill-933-Copy-25"></path>
                        <path d="M57.2738095,168.549451 C57.2738095,169.653954 56.378313,170.549451 55.2738095,170.549451 C54.1693061,170.549451 53.2738095,169.653954 53.2738095,168.549451 C53.2738095,167.444947 54.1693061,166.549451 55.2738095,166.549451 C56.378313,166.549451 57.2738095,167.444947 57.2738095,168.549451" id="Fill-933-Copy-6"></path>
                        <path d="M102.02381,168.549451 C102.02381,169.653954 101.128313,170.549451 100.02381,170.549451 C98.9193061,170.549451 98.0238095,169.653954 98.0238095,168.549451 C98.0238095,167.444947 98.9193061,166.549451 100.02381,166.549451 C101.128313,166.549451 102.02381,167.444947 102.02381,168.549451" id="Fill-933-Copy-2"></path>
                        <path d="M102.02381,172.791209 C102.02381,173.895712 101.128313,174.791209 100.02381,174.791209 C98.9193061,174.791209 98.0238095,173.895712 98.0238095,172.791209 C98.0238095,171.686705 98.9193061,170.791209 100.02381,170.791209 C101.128313,170.791209 102.02381,171.686705 102.02381,172.791209" id="Fill-933-Copy-10"></path>
                        <path d="M102.02381,181.274725 C102.02381,182.379229 101.128313,183.274725 100.02381,183.274725 C98.9193061,183.274725 98.0238095,182.379229 98.0238095,181.274725 C98.0238095,180.170222 98.9193061,179.274725 100.02381,179.274725 C101.128313,179.274725 102.02381,180.170222 102.02381,181.274725" id="Fill-933-Copy-16"></path>
                        <path d="M102.02381,185.516484 C102.02381,186.620987 101.128313,187.516484 100.02381,187.516484 C98.9193061,187.516484 98.0238095,186.620987 98.0238095,185.516484 C98.0238095,184.41198 98.9193061,183.516484 100.02381,183.516484 C101.128313,183.516484 102.02381,184.41198 102.02381,185.516484" id="Fill-933-Copy-21"></path>
                        <path d="M127.595238,185.516484 C127.595238,186.620987 126.699742,187.516484 125.595238,187.516484 C124.490735,187.516484 123.595238,186.620987 123.595238,185.516484 C123.595238,184.41198 124.490735,183.516484 125.595238,183.516484 C126.699742,183.516484 127.595238,184.41198 127.595238,185.516484" id="Fill-933-Copy-28"></path>
                        <path d="M127.595238,189.758242 C127.595238,190.862745 126.699742,191.758242 125.595238,191.758242 C124.490735,191.758242 123.595238,190.862745 123.595238,189.758242 C123.595238,188.653738 124.490735,187.758242 125.595238,187.758242 C126.699742,187.758242 127.595238,188.653738 127.595238,189.758242" id="Fill-933-Copy-43"></path>
                        <path d="M35.9642857,185.516484 C35.9642857,186.620987 35.0687892,187.516484 33.9642857,187.516484 C32.8597823,187.516484 31.9642857,186.620987 31.9642857,185.516484 C31.9642857,184.41198 32.8597823,183.516484 33.9642857,183.516484 C35.0687892,183.516484 35.9642857,184.41198 35.9642857,185.516484" id="Fill-933-Copy-33"></path>
                        <path d="M35.9642857,189.758242 C35.9642857,190.862745 35.0687892,191.758242 33.9642857,191.758242 C32.8597823,191.758242 31.9642857,190.862745 31.9642857,189.758242 C31.9642857,188.653738 32.8597823,187.758242 33.9642857,187.758242 C35.0687892,187.758242 35.9642857,188.653738 35.9642857,189.758242" id="Fill-933-Copy-37"></path>
                        <path d="M10.3928571,189.758242 C10.3928571,190.862745 9.49736061,191.758242 8.39285714,191.758242 C7.28835368,191.758242 6.39285714,190.862745 6.39285714,189.758242 C6.39285714,188.653738 7.28835368,187.758242 8.39285714,187.758242 C9.49736061,187.758242 10.3928571,188.653738 10.3928571,189.758242" id="Fill-933-Copy-40"></path>
                        <path d="M144.642857,185.516484 C144.642857,186.620987 143.747361,187.516484 142.642857,187.516484 C141.538354,187.516484 140.642857,186.620987 140.642857,185.516484 C140.642857,184.41198 141.538354,183.516484 142.642857,183.516484 C143.747361,183.516484 144.642857,184.41198 144.642857,185.516484" id="Fill-933-Copy-30"></path>
                        <path d="M144.642857,189.758242 C144.642857,190.862745 143.747361,191.758242 142.642857,191.758242 C141.538354,191.758242 140.642857,190.862745 140.642857,189.758242 C140.642857,188.653738 141.538354,187.758242 142.642857,187.758242 C143.747361,187.758242 144.642857,188.653738 144.642857,189.758242" id="Fill-933-Copy-45"></path>
                        <path d="M155.297619,189.758242 C155.297619,190.862745 154.402123,191.758242 153.297619,191.758242 C152.193116,191.758242 151.297619,190.862745 151.297619,189.758242 C151.297619,188.653738 152.193116,187.758242 153.297619,187.758242 C154.402123,187.758242 155.297619,188.653738 155.297619,189.758242" id="Fill-933-Copy-46"></path>
                        <path d="M170.214286,189.758242 C170.214286,190.862745 169.318789,191.758242 168.214286,191.758242 C167.109782,191.758242 166.214286,190.862745 166.214286,189.758242 C166.214286,188.653738 167.109782,187.758242 168.214286,187.758242 C169.318789,187.758242 170.214286,188.653738 170.214286,189.758242" id="Fill-933-Copy-47"></path>
                        <path d="M178.738095,189.758242 C178.738095,190.862745 177.842599,191.758242 176.738095,191.758242 C175.633592,191.758242 174.738095,190.862745 174.738095,189.758242 C174.738095,188.653738 175.633592,187.758242 176.738095,187.758242 C177.842599,187.758242 178.738095,188.653738 178.738095,189.758242" id="Fill-933-Copy-48"></path>
                        <path d="M53.0119048,185.516484 C53.0119048,186.620987 52.1164082,187.516484 51.0119048,187.516484 C49.9074013,187.516484 49.0119048,186.620987 49.0119048,185.516484 C49.0119048,184.41198 49.9074013,183.516484 51.0119048,183.516484 C52.1164082,183.516484 53.0119048,184.41198 53.0119048,185.516484" id="Fill-933-Copy-34"></path>
                        <path d="M53.0119048,189.758242 C53.0119048,190.862745 52.1164082,191.758242 51.0119048,191.758242 C49.9074013,191.758242 49.0119048,190.862745 49.0119048,189.758242 C49.0119048,188.653738 49.9074013,187.758242 51.0119048,187.758242 C52.1164082,187.758242 53.0119048,188.653738 53.0119048,189.758242" id="Fill-933-Copy-41"></path>
                        <path d="M102.02381,189.758242 C102.02381,190.862745 101.128313,191.758242 100.02381,191.758242 C98.9193061,191.758242 98.0238095,190.862745 98.0238095,189.758242 C98.0238095,188.653738 98.9193061,187.758242 100.02381,187.758242 C101.128313,187.758242 102.02381,188.653738 102.02381,189.758242" id="Fill-933-Copy-26"></path>
                        <path d="M116.940476,168.549451 C116.940476,169.653954 116.04498,170.549451 114.940476,170.549451 C113.835973,170.549451 112.940476,169.653954 112.940476,168.549451 C112.940476,167.444947 113.835973,166.549451 114.940476,166.549451 C116.04498,166.549451 116.940476,167.444947 116.940476,168.549451" id="Fill-933-Copy-3"></path>
                        <path d="M87.1071429,162.186524 C87.1071429,163.291187 86.2116463,164.186813 85.1071429,164.186813 C84.0026394,164.186813 83.1071429,163.291187 83.1071429,162.186524 C83.1071429,161.081862 84.0026394,160.186813 85.1071429,160.186813 C86.2116463,160.186813 87.1071429,161.081862 87.1071429,162.186524" id="Fill-935"></path>
                        <path d="M87.1071429,162.187102 C87.1071429,163.291765 86.2116463,164.186813 85.1071429,164.186813 C84.0026394,164.186813 83.1071429,163.291765 83.1071429,162.187102 C83.1071429,161.082439 84.0026394,160.186813 85.1071429,160.186813 C86.2116463,160.186813 87.1071429,161.082439 87.1071429,162.187102" id="Fill-937"></path>
                        <path d="M87.1071429,151.582418 C87.1071429,152.686921 86.2116463,153.582418 85.1071429,153.582418 C84.0026394,153.582418 83.1071429,152.686921 83.1071429,151.582418 C83.1071429,150.477914 84.0026394,149.582418 85.1071429,149.582418 C86.2116463,149.582418 87.1071429,150.477914 87.1071429,151.582418" id="Fill-939"></path>
                        <path d="M87.1071429,155.824176 C87.1071429,156.928679 86.2116463,157.824176 85.1071429,157.824176 C84.0026394,157.824176 83.1071429,156.928679 83.1071429,155.824176 C83.1071429,154.719672 84.0026394,153.824176 85.1071429,153.824176 C86.2116463,153.824176 87.1071429,154.719672 87.1071429,155.824176" id="Fill-939-Copy-7"></path>
                        <path d="M97.7619048,151.582418 C97.7619048,152.686921 96.8664082,153.582418 95.7619048,153.582418 C94.6574013,153.582418 93.7619048,152.686921 93.7619048,151.582418 C93.7619048,150.477914 94.6574013,149.582418 95.7619048,149.582418 C96.8664082,149.582418 97.7619048,150.477914 97.7619048,151.582418" id="Fill-939-Copy"></path>
                        <path d="M97.7619048,155.824176 C97.7619048,156.928679 96.8664082,157.824176 95.7619048,157.824176 C94.6574013,157.824176 93.7619048,156.928679 93.7619048,155.824176 C93.7619048,154.719672 94.6574013,153.824176 95.7619048,153.824176 C96.8664082,153.824176 97.7619048,154.719672 97.7619048,155.824176" id="Fill-939-Copy-5"></path>
                        <path d="M93.5,162.186813 C93.5,163.291317 92.6045035,164.186813 91.5,164.186813 C90.3954965,164.186813 89.5,163.291317 89.5,162.186813 C89.5,161.08231 90.3954965,160.186813 91.5,160.186813 C92.6045035,160.186813 93.5,161.08231 93.5,162.186813" id="Fill-939-Copy-8"></path>
                        <path d="M99.8928571,162.186813 C99.8928571,163.291317 98.9973606,164.186813 97.8928571,164.186813 C96.7883537,164.186813 95.8928571,163.291317 95.8928571,162.186813 C95.8928571,161.08231 96.7883537,160.186813 97.8928571,160.186813 C98.9973606,160.186813 99.8928571,161.08231 99.8928571,162.186813" id="Fill-939-Copy-10"></path>
                        <path d="M59.4047619,151.582418 C59.4047619,152.686921 58.5092654,153.582418 57.4047619,153.582418 C56.3002584,153.582418 55.4047619,152.686921 55.4047619,151.582418 C55.4047619,150.477914 56.3002584,149.582418 57.4047619,149.582418 C58.5092654,149.582418 59.4047619,150.477914 59.4047619,151.582418" id="Fill-939-Copy-3"></path>
                        <path d="M112.678571,151.582418 C112.678571,152.686921 111.783075,153.582418 110.678571,153.582418 C109.574068,153.582418 108.678571,152.686921 108.678571,151.582418 C108.678571,150.477914 109.574068,149.582418 110.678571,149.582418 C111.783075,149.582418 112.678571,150.477914 112.678571,151.582418" id="Fill-939-Copy-4"></path>
                        <path d="M76.452381,151.582418 C76.452381,152.686921 75.5568844,153.582418 74.452381,153.582418 C73.3478775,153.582418 72.452381,152.686921 72.452381,151.582418 C72.452381,150.477914 73.3478775,149.582418 74.452381,149.582418 C75.5568844,149.582418 76.452381,150.477914 76.452381,151.582418" id="Fill-939-Copy-2"></path>
                        <path d="M76.452381,155.824176 C76.452381,156.928679 75.5568844,157.824176 74.452381,157.824176 C73.3478775,157.824176 72.452381,156.928679 72.452381,155.824176 C72.452381,154.719672 73.3478775,153.824176 74.452381,153.824176 C75.5568844,153.824176 76.452381,154.719672 76.452381,155.824176" id="Fill-939-Copy-6"></path>
                        <path d="M80.7142857,162.186813 C80.7142857,163.291317 79.8187892,164.186813 78.7142857,164.186813 C77.6097823,164.186813 76.7142857,163.291317 76.7142857,162.186813 C76.7142857,161.08231 77.6097823,160.186813 78.7142857,160.186813 C79.8187892,160.186813 80.7142857,161.08231 80.7142857,162.186813" id="Fill-939-Copy-9"></path>
                        <path d="M74.3214286,162.186813 C74.3214286,163.291317 73.425932,164.186813 72.3214286,164.186813 C71.2169251,164.186813 70.3214286,163.291317 70.3214286,162.186813 C70.3214286,161.08231 71.2169251,160.186813 72.3214286,160.186813 C73.425932,160.186813 74.3214286,161.08231 74.3214286,162.186813" id="Fill-939-Copy-11"></path>
                        <path d="M95.6309524,145.21978 C95.6309524,146.324284 94.7354558,147.21978 93.6309524,147.21978 C92.5264489,147.21978 91.6309524,146.324284 91.6309524,145.21978 C91.6309524,144.115277 92.5264489,143.21978 93.6309524,143.21978 C94.7354558,143.21978 95.6309524,144.115277 95.6309524,145.21978" id="Fill-941"></path>
                        <path d="M59.4047619,145.21978 C59.4047619,146.324284 58.5092654,147.21978 57.4047619,147.21978 C56.3002584,147.21978 55.4047619,146.324284 55.4047619,145.21978 C55.4047619,144.115277 56.3002584,143.21978 57.4047619,143.21978 C58.5092654,143.21978 59.4047619,144.115277 59.4047619,145.21978" id="Fill-941-Copy-4"></path>
                        <path d="M99.8928571,145.21978 C99.8928571,146.324284 98.9973606,147.21978 97.8928571,147.21978 C96.7883537,147.21978 95.8928571,146.324284 95.8928571,145.21978 C95.8928571,144.115277 96.7883537,143.21978 97.8928571,143.21978 C98.9973606,143.21978 99.8928571,144.115277 99.8928571,145.21978" id="Fill-941-Copy"></path>
                        <path d="M63.6666667,145.21978 C63.6666667,146.324284 62.7711701,147.21978 61.6666667,147.21978 C60.5621632,147.21978 59.6666667,146.324284 59.6666667,145.21978 C59.6666667,144.115277 60.5621632,143.21978 61.6666667,143.21978 C62.7711701,143.21978 63.6666667,144.115277 63.6666667,145.21978" id="Fill-941-Copy-5"></path>
                        <path d="M110.547619,145.21978 C110.547619,146.324284 109.652123,147.21978 108.547619,147.21978 C107.443116,147.21978 106.547619,146.324284 106.547619,145.21978 C106.547619,144.115277 107.443116,143.21978 108.547619,143.21978 C109.652123,143.21978 110.547619,144.115277 110.547619,145.21978" id="Fill-941-Copy-2"></path>
                        <path d="M74.3214286,145.21978 C74.3214286,146.324284 73.425932,147.21978 72.3214286,147.21978 C71.2169251,147.21978 70.3214286,146.324284 70.3214286,145.21978 C70.3214286,144.115277 71.2169251,143.21978 72.3214286,143.21978 C73.425932,143.21978 74.3214286,144.115277 74.3214286,145.21978" id="Fill-941-Copy-6"></path>
                        <path d="M114.809524,145.21978 C114.809524,146.324284 113.914027,147.21978 112.809524,147.21978 C111.70502,147.21978 110.809524,146.324284 110.809524,145.21978 C110.809524,144.115277 111.70502,143.21978 112.809524,143.21978 C113.914027,143.21978 114.809524,144.115277 114.809524,145.21978" id="Fill-941-Copy-3"></path>
                        <path d="M78.5833333,145.21978 C78.5833333,146.324284 77.6878368,147.21978 76.5833333,147.21978 C75.4788299,147.21978 74.5833333,146.324284 74.5833333,145.21978 C74.5833333,144.115277 75.4788299,143.21978 76.5833333,143.21978 C77.6878368,143.21978 78.5833333,144.115277 78.5833333,145.21978" id="Fill-941-Copy-7"></path>
                        <path d="M87.1071429,104.923077 C87.1071429,106.02758 86.2116463,106.923077 85.1071429,106.923077 C84.0026394,106.923077 83.1071429,106.02758 83.1071429,104.923077 C83.1071429,103.818573 84.0026394,102.923077 85.1071429,102.923077 C86.2116463,102.923077 87.1071429,103.818573 87.1071429,104.923077" id="Fill-943"></path>
                        <path d="M87.1071429,109.164835 C87.1071429,110.269339 86.2116463,111.164835 85.1071429,111.164835 C84.0026394,111.164835 83.1071429,110.269339 83.1071429,109.164835 C83.1071429,108.060332 84.0026394,107.164835 85.1071429,107.164835 C86.2116463,107.164835 87.1071429,108.060332 87.1071429,109.164835" id="Fill-943-Copy-3"></path>
                        <path d="M87.1071429,117.648352 C87.1071429,118.752855 86.2116463,119.648352 85.1071429,119.648352 C84.0026394,119.648352 83.1071429,118.752855 83.1071429,117.648352 C83.1071429,116.543848 84.0026394,115.648352 85.1071429,115.648352 C86.2116463,115.648352 87.1071429,116.543848 87.1071429,117.648352" id="Fill-943-Copy-9"></path>
                        <path d="M87.1071429,121.89011 C87.1071429,122.994613 86.2116463,123.89011 85.1071429,123.89011 C84.0026394,123.89011 83.1071429,122.994613 83.1071429,121.89011 C83.1071429,120.785606 84.0026394,119.89011 85.1071429,119.89011 C86.2116463,119.89011 87.1071429,120.785606 87.1071429,121.89011" id="Fill-943-Copy-16"></path>
                        <path d="M87.1071429,126.131868 C87.1071429,127.236372 86.2116463,128.131868 85.1071429,128.131868 C84.0026394,128.131868 83.1071429,127.236372 83.1071429,126.131868 C83.1071429,125.027365 84.0026394,124.131868 85.1071429,124.131868 C86.2116463,124.131868 87.1071429,125.027365 87.1071429,126.131868" id="Fill-943-Copy-17"></path>
                        <path d="M87.1071429,132.494505 C87.1071429,133.599009 86.2116463,134.494505 85.1071429,134.494505 C84.0026394,134.494505 83.1071429,133.599009 83.1071429,132.494505 C83.1071429,131.390002 84.0026394,130.494505 85.1071429,130.494505 C86.2116463,130.494505 87.1071429,131.390002 87.1071429,132.494505" id="Fill-943-Copy-18"></path>
                        <path d="M87.1071429,138.857143 C87.1071429,139.961646 86.2116463,140.857143 85.1071429,140.857143 C84.0026394,140.857143 83.1071429,139.961646 83.1071429,138.857143 C83.1071429,137.752639 84.0026394,136.857143 85.1071429,136.857143 C86.2116463,136.857143 87.1071429,137.752639 87.1071429,138.857143" id="Fill-943-Copy-19"></path>
                        <path d="M87.1071429,145.21978 C87.1071429,146.324284 86.2116463,147.21978 85.1071429,147.21978 C84.0026394,147.21978 83.1071429,146.324284 83.1071429,145.21978 C83.1071429,144.115277 84.0026394,143.21978 85.1071429,143.21978 C86.2116463,143.21978 87.1071429,144.115277 87.1071429,145.21978" id="Fill-943-Copy-22"></path>
                        <path d="M95.6309524,104.923077 C95.6309524,106.02758 94.7354558,106.923077 93.6309524,106.923077 C92.5264489,106.923077 91.6309524,106.02758 91.6309524,104.923077 C91.6309524,103.818573 92.5264489,102.923077 93.6309524,102.923077 C94.7354558,102.923077 95.6309524,103.818573 95.6309524,104.923077" id="Fill-943-Copy"></path>
                        <path d="M97.7619048,117.648352 C97.7619048,118.752855 96.8664082,119.648352 95.7619048,119.648352 C94.6574013,119.648352 93.7619048,118.752855 93.7619048,117.648352 C93.7619048,116.543848 94.6574013,115.648352 95.7619048,115.648352 C96.8664082,115.648352 97.7619048,116.543848 97.7619048,117.648352" id="Fill-943-Copy-7"></path>
                        <path d="M93.6309524,134.494505 C92.5264489,134.494505 91.6309524,133.599009 91.6309524,132.494505 C91.6309524,131.390002 92.5264489,130.494505 93.6309524,130.494505 C94.7354558,130.494505 95.6309524,131.390002 95.6309524,132.494505 C95.6309524,133.599009 94.7354558,134.494505 93.6309524,134.494505 Z" id="Fill-943-Copy-14"></path>
                        <path d="M97.8928571,140.857143 C96.7883537,140.857143 95.8928571,139.961646 95.8928571,138.857143 C95.8928571,137.752639 96.7883537,136.857143 97.8928571,136.857143 C98.9973606,136.857143 99.8928571,137.752639 99.8928571,138.857143 C99.8928571,139.961646 98.9973606,140.857143 97.8928571,140.857143 Z" id="Fill-943-Copy-20"></path>
                        <path d="M99.8928571,124.010989 C99.8928571,125.115492 98.9973606,126.010989 97.8928571,126.010989 C96.7883537,126.010989 95.8928571,125.115492 95.8928571,124.010989 C95.8928571,122.906486 96.7883537,122.010989 97.8928571,122.010989 C98.9973606,122.010989 99.8928571,122.906486 99.8928571,124.010989" id="Fill-943-Copy-10"></path>
                        <path d="M108.416667,124.010989 C108.416667,125.115492 107.52117,126.010989 106.416667,126.010989 C105.312163,126.010989 104.416667,125.115492 104.416667,124.010989 C104.416667,122.906486 105.312163,122.010989 106.416667,122.010989 C107.52117,122.010989 108.416667,122.906486 108.416667,124.010989" id="Fill-943-Copy-12"></path>
                        <path d="M78.5833333,104.923077 C78.5833333,106.02758 77.6878368,106.923077 76.5833333,106.923077 C75.4788299,106.923077 74.5833333,106.02758 74.5833333,104.923077 C74.5833333,103.818573 75.4788299,102.923077 76.5833333,102.923077 C77.6878368,102.923077 78.5833333,103.818573 78.5833333,104.923077" id="Fill-943-Copy-2"></path>
                        <path d="M76.452381,117.648352 C76.452381,118.752855 75.5568844,119.648352 74.452381,119.648352 C73.3478775,119.648352 72.452381,118.752855 72.452381,117.648352 C72.452381,116.543848 73.3478775,115.648352 74.452381,115.648352 C75.5568844,115.648352 76.452381,116.543848 76.452381,117.648352" id="Fill-943-Copy-8"></path>
                        <path d="M78.5833333,132.494505 C78.5833333,133.599009 77.6878368,134.494505 76.5833333,134.494505 C75.4788299,134.494505 74.5833333,133.599009 74.5833333,132.494505 C74.5833333,131.390002 75.4788299,130.494505 76.5833333,130.494505 C77.6878368,130.494505 78.5833333,131.390002 78.5833333,132.494505" id="Fill-943-Copy-15"></path>
                        <path d="M74.3214286,138.857143 C74.3214286,139.961646 73.425932,140.857143 72.3214286,140.857143 C71.2169251,140.857143 70.3214286,139.961646 70.3214286,138.857143 C70.3214286,137.752639 71.2169251,136.857143 72.3214286,136.857143 C73.425932,136.857143 74.3214286,137.752639 74.3214286,138.857143" id="Fill-943-Copy-21"></path>
                        <path d="M74.3214286,124.010989 C74.3214286,125.115492 73.425932,126.010989 72.3214286,126.010989 C71.2169251,126.010989 70.3214286,125.115492 70.3214286,124.010989 C70.3214286,122.906486 71.2169251,122.010989 72.3214286,122.010989 C73.425932,122.010989 74.3214286,122.906486 74.3214286,124.010989" id="Fill-943-Copy-11"></path>
                        <path d="M65.797619,124.010989 C65.797619,125.115492 64.9021225,126.010989 63.797619,126.010989 C62.6931156,126.010989 61.797619,125.115492 61.797619,124.010989 C61.797619,122.906486 62.6931156,122.010989 63.797619,122.010989 C64.9021225,122.010989 65.797619,122.906486 65.797619,124.010989" id="Fill-943-Copy-13"></path>
                        <path d="M87.1071429,83.7142857 C87.1071429,84.8187892 86.2116463,85.7142857 85.1071429,85.7142857 C84.0026394,85.7142857 83.1071429,84.8187892 83.1071429,83.7142857 C83.1071429,82.6097823 84.0026394,81.7142857 85.1071429,81.7142857 C86.2116463,81.7142857 87.1071429,82.6097823 87.1071429,83.7142857" id="Fill-945"></path>
                        <path d="M78.5833333,83.7142857 C78.5833333,84.8187892 77.6878368,85.7142857 76.5833333,85.7142857 C75.4788299,85.7142857 74.5833333,84.8187892 74.5833333,83.7142857 C74.5833333,82.6097823 75.4788299,81.7142857 76.5833333,81.7142857 C77.6878368,81.7142857 78.5833333,82.6097823 78.5833333,83.7142857" id="Fill-945-Copy-3"></path>
                        <path d="M67.9285714,83.7142857 C67.9285714,84.8187892 67.0330749,85.7142857 65.9285714,85.7142857 C64.824068,85.7142857 63.9285714,84.8187892 63.9285714,83.7142857 C63.9285714,82.6097823 64.824068,81.7142857 65.9285714,81.7142857 C67.0330749,81.7142857 67.9285714,82.6097823 67.9285714,83.7142857" id="Fill-945-Copy-7"></path>
                        <path d="M78.5833333,75.2307692 C78.5833333,76.3352727 77.6878368,77.2307692 76.5833333,77.2307692 C75.4788299,77.2307692 74.5833333,76.3352727 74.5833333,75.2307692 C74.5833333,74.1262658 75.4788299,73.2307692 76.5833333,73.2307692 C77.6878368,73.2307692 78.5833333,74.1262658 78.5833333,75.2307692" id="Fill-945-Copy-4"></path>
                        <path d="M95.6309524,83.7142857 C95.6309524,84.8187892 94.7354558,85.7142857 93.6309524,85.7142857 C92.5264489,85.7142857 91.6309524,84.8187892 91.6309524,83.7142857 C91.6309524,82.6097823 92.5264489,81.7142857 93.6309524,81.7142857 C94.7354558,81.7142857 95.6309524,82.6097823 95.6309524,83.7142857" id="Fill-945-Copy-2"></path>
                        <path d="M106.285714,83.7142857 C106.285714,84.8187892 105.390218,85.7142857 104.285714,85.7142857 C103.181211,85.7142857 102.285714,84.8187892 102.285714,83.7142857 C102.285714,82.6097823 103.181211,81.7142857 104.285714,81.7142857 C105.390218,81.7142857 106.285714,82.6097823 106.285714,83.7142857" id="Fill-945-Copy-6"></path>
                        <path d="M95.6309524,75.2307692 C95.6309524,76.3352727 94.7354558,77.2307692 93.6309524,77.2307692 C92.5264489,77.2307692 91.6309524,76.3352727 91.6309524,75.2307692 C91.6309524,74.1262658 92.5264489,73.2307692 93.6309524,73.2307692 C94.7354558,73.2307692 95.6309524,74.1262658 95.6309524,75.2307692" id="Fill-945-Copy-5"></path>
                        <path d="M87.1071429,90.0769231 C87.1071429,91.1814265 86.2116463,92.0769231 85.1071429,92.0769231 C84.0026394,92.0769231 83.1071429,91.1814265 83.1071429,90.0769231 C83.1071429,88.9724196 84.0026394,88.0769231 85.1071429,88.0769231 C86.2116463,88.0769231 87.1071429,88.9724196 87.1071429,90.0769231" id="Fill-945-Copy"></path>
                        <path d="M87.1071429,96.4395604 C87.1071429,97.5440639 86.2116463,98.4395604 85.1071429,98.4395604 C84.0026394,98.4395604 83.1071429,97.5440639 83.1071429,96.4395604 C83.1071429,95.335057 84.0026394,94.4395604 85.1071429,94.4395604 C86.2116463,94.4395604 87.1071429,95.335057 87.1071429,96.4395604" id="Fill-945-Copy-8"></path>
                        <path d="M87.1071429,75.2307692 C87.1071429,76.3352727 86.2116463,77.2307692 85.1071429,77.2307692 C84.0026394,77.2307692 83.1071429,76.3352727 83.1071429,75.2307692 C83.1071429,74.1262658 84.0026394,73.2307692 85.1071429,73.2307692 C86.2116463,73.2307692 87.1071429,74.1262658 87.1071429,75.2307692" id="Fill-947"></path>
                        <path d="M87.1071429,70.989011 C87.1071429,72.0935145 86.2116463,72.989011 85.1071429,72.989011 C84.0026394,72.989011 83.1071429,72.0935145 83.1071429,70.989011 C83.1071429,69.8845075 84.0026394,68.989011 85.1071429,68.989011 C86.2116463,68.989011 87.1071429,69.8845075 87.1071429,70.989011" id="Fill-947-Copy-12"></path>
                        <path d="M87.1071429,54.021978 C87.1071429,55.1264815 86.2116463,56.021978 85.1071429,56.021978 C84.0026394,56.021978 83.1071429,55.1264815 83.1071429,54.021978 C83.1071429,52.9174746 84.0026394,52.021978 85.1071429,52.021978 C86.2116463,52.021978 87.1071429,52.9174746 87.1071429,54.021978" id="Fill-947-Copy-10"></path>
                        <path d="M87.1071429,60.3846154 C87.1071429,61.4891188 86.2116463,62.3846154 85.1071429,62.3846154 C84.0026394,62.3846154 83.1071429,61.4891188 83.1071429,60.3846154 C83.1071429,59.2801119 84.0026394,58.3846154 85.1071429,58.3846154 C86.2116463,58.3846154 87.1071429,59.2801119 87.1071429,60.3846154" id="Fill-947-Copy-11"></path>
                        <path d="M87.1071429,79.4725275 C87.1071429,80.5770309 86.2116463,81.4725275 85.1071429,81.4725275 C84.0026394,81.4725275 83.1071429,80.5770309 83.1071429,79.4725275 C83.1071429,78.368024 84.0026394,77.4725275 85.1071429,77.4725275 C86.2116463,77.4725275 87.1071429,78.368024 87.1071429,79.4725275" id="Fill-947-Copy-9"></path>
                        <path d="M87.1071429,28.5714286 C87.1071429,29.675932 86.2116463,30.5714286 85.1071429,30.5714286 C84.0026394,30.5714286 83.1071429,29.675932 83.1071429,28.5714286 C83.1071429,27.4669251 84.0026394,26.5714286 85.1071429,26.5714286 C86.2116463,26.5714286 87.1071429,27.4669251 87.1071429,28.5714286" id="Fill-947-Copy-2"></path>
                        <path d="M95.6309524,28.5714286 C95.6309524,29.675932 94.7354558,30.5714286 93.6309524,30.5714286 C92.5264489,30.5714286 91.6309524,29.675932 91.6309524,28.5714286 C91.6309524,27.4669251 92.5264489,26.5714286 93.6309524,26.5714286 C94.7354558,26.5714286 95.6309524,27.4669251 95.6309524,28.5714286" id="Fill-947-Copy-5"></path>
                        <path d="M78.5833333,28.5714286 C78.5833333,29.675932 77.6878368,30.5714286 76.5833333,30.5714286 C75.4788299,30.5714286 74.5833333,29.675932 74.5833333,28.5714286 C74.5833333,27.4669251 75.4788299,26.5714286 76.5833333,26.5714286 C77.6878368,26.5714286 78.5833333,27.4669251 78.5833333,28.5714286" id="Fill-947-Copy-7"></path>
                        <path d="M87.1071429,32.8131868 C87.1071429,33.9176903 86.2116463,34.8131868 85.1071429,34.8131868 C84.0026394,34.8131868 83.1071429,33.9176903 83.1071429,32.8131868 C83.1071429,31.7086833 84.0026394,30.8131868 85.1071429,30.8131868 C86.2116463,30.8131868 87.1071429,31.7086833 87.1071429,32.8131868" id="Fill-947-Copy-3"></path>
                        <path d="M95.6309524,32.8131868 C95.6309524,33.9176903 94.7354558,34.8131868 93.6309524,34.8131868 C92.5264489,34.8131868 91.6309524,33.9176903 91.6309524,32.8131868 C91.6309524,31.7086833 92.5264489,30.8131868 93.6309524,30.8131868 C94.7354558,30.8131868 95.6309524,31.7086833 95.6309524,32.8131868" id="Fill-947-Copy-6"></path>
                        <path d="M78.5833333,32.8131868 C78.5833333,33.9176903 77.6878368,34.8131868 76.5833333,34.8131868 C75.4788299,34.8131868 74.5833333,33.9176903 74.5833333,32.8131868 C74.5833333,31.7086833 75.4788299,30.8131868 76.5833333,30.8131868 C77.6878368,30.8131868 78.5833333,31.7086833 78.5833333,32.8131868" id="Fill-947-Copy-8"></path>
                        <path d="M87.1071429,37.0549451 C87.1071429,38.1594485 86.2116463,39.0549451 85.1071429,39.0549451 C84.0026394,39.0549451 83.1071429,38.1594485 83.1071429,37.0549451 C83.1071429,35.9504416 84.0026394,35.0549451 85.1071429,35.0549451 C86.2116463,35.0549451 87.1071429,35.9504416 87.1071429,37.0549451" id="Fill-947-Copy-4"></path>
                        <path d="M87.1071429,2 C87.1071429,3.10450346 86.2116463,4 85.1071429,4 C84.0026394,4 83.1071429,3.10450346 83.1071429,2 C83.1071429,0.895496536 84.0026394,0 85.1071429,0 C86.2116463,0 87.1071429,0.895496536 87.1071429,2" id="Fill-947-Copy"></path>
                    </g>
                </g>
            </g>
        </g>
    </g>
</svg>
