<?xml version="1.0" encoding="UTF-8"?>
<svg width="376px" height="376px" viewBox="0 0 376 376" version="1.1" xmlns="http://www.w3.org/2000/svg" xmlns:xlink="http://www.w3.org/1999/xlink">
    <!-- Generator: Sketch 52.6 (67491) - http://www.bohemiancoding.com/sketch -->
    <title>Group 6 Copy 14</title>
    <desc>Created with Sketch.</desc>
    <g id="Data-viz-vocabulary" stroke="none" stroke-width="1" fill="none" fill-rule="evenodd">
        <g id="Details-large-1" transform="translate(-932.000000, -1734.000000)">
            <g id="Group-6-Copy-14" transform="translate(932.000000, 1734.000000)">
                <rect id="Rectangle-Copy-3" fill="#001521" x="0" y="0" width="376" height="376"></rect>
                <g id="Group-15" transform="translate(52.000000, 91.000000)" fill="#009FE3" fill-opacity="0.8">
                    <rect id="Rectangle" x="0" y="0" width="4" height="26"></rect>
                    <rect id="Rectangle-Copy-98" x="7" y="0" width="4" height="26"></rect>
                    <rect id="Rectangle-Copy-102" x="13" y="0" width="2" height="26"></rect>
                    <rect id="Rectangle-Copy-136" x="19" y="0" width="2" height="26"></rect>
                    <rect id="Rectangle-Copy-137" x="26" y="0" width="4" height="26"></rect>
                    <rect id="Rectangle-Copy-138" x="32" y="0" width="4" height="26"></rect>
                    <rect id="Rectangle-Copy-139" x="38" y="0" width="2" height="26"></rect>
                    <rect id="Rectangle-Copy-140" x="45" y="0" width="4" height="26"></rect>
                    <rect id="Rectangle-Copy-144" x="71" y="0" width="6" height="26"></rect>
                    <rect id="Rectangle-Copy-145" x="77" y="0" width="4" height="26"></rect>
                    <rect id="Rectangle-Copy-146" x="83" y="0" width="2" height="26"></rect>
                    <rect id="Rectangle-Copy-147" x="90" y="0" width="2" height="26"></rect>
                    <rect id="Rectangle-Copy-148" x="94" y="0" width="4" height="26"></rect>
                    <rect id="Rectangle-Copy-153" x="128" y="0" width="4" height="26"></rect>
                    <rect id="Rectangle-Copy-154" x="134" y="0" width="4" height="26"></rect>
                    <rect id="Rectangle-Copy-155" x="141" y="0" width="4" height="26"></rect>
                    <rect id="Rectangle-Copy-156" x="147" y="0" width="2" height="26"></rect>
                    <rect id="Rectangle-Copy-157" x="154" y="0" width="2" height="26"></rect>
                    <rect id="Rectangle-Copy-160" x="173" y="0" width="2" height="26"></rect>
                    <rect id="Rectangle-Copy-163" x="192" y="0" width="2" height="26"></rect>
                    <rect id="Rectangle-Copy-164" x="198" y="0" width="4" height="26"></rect>
                    <rect id="Rectangle-Copy-165" x="205" y="0" width="4" height="26"></rect>
                    <rect id="Rectangle-Copy-166" x="211" y="0" width="2" height="26"></rect>
                    <rect id="Rectangle-Copy-167" x="218" y="0" width="4" height="26"></rect>
                    <rect id="Rectangle-Copy-170" x="237" y="0" width="2" height="26"></rect>
                    <rect id="Rectangle-Copy-171" x="243" y="0" width="4" height="26"></rect>
                    <rect id="Rectangle-Copy-172" x="250" y="0" width="2" height="26"></rect>
                    <rect id="Rectangle-Copy-173" x="256" y="0" width="4" height="26"></rect>
                    <rect id="Rectangle-Copy-174" x="262" y="0" width="4" height="26"></rect>
                    <rect id="Rectangle-Copy-175" x="270" y="0" width="2" height="26"></rect>
                    <rect id="Rectangle-Copy-56" x="0" y="42" width="4" height="26"></rect>
                    <rect id="Rectangle-Copy-94" x="6" y="42" width="2" height="26"></rect>
                    <rect id="Rectangle-Copy-95" x="9" y="42" width="6" height="26"></rect>
                    <rect id="Rectangle-Copy-96" x="17" y="42" width="2" height="26"></rect>
                    <rect id="Rectangle-Copy-97" x="21" y="42" width="2" height="26"></rect>
                    <rect id="Rectangle-Copy-99" x="39" y="42" width="4" height="26"></rect>
                    <rect id="Rectangle-Copy-100" x="45" y="42" width="2" height="26"></rect>
                    <rect id="Rectangle-Copy-101" x="51" y="42" width="2" height="26"></rect>
                    <rect id="Rectangle-Copy-103" x="64" y="42" width="4" height="26"></rect>
                    <rect id="Rectangle-Copy-104" x="70" y="42" width="2" height="26"></rect>
                    <rect id="Rectangle-Copy-105" x="75" y="42" width="2" height="26"></rect>
                    <rect id="Rectangle-Copy-106" x="83" y="42" width="9" height="26"></rect>
                    <rect id="Rectangle-Copy-112" x="122" y="42" width="4" height="26"></rect>
                    <rect id="Rectangle-Copy-115" x="141" y="42" width="2" height="26"></rect>
                    <rect id="Rectangle-Copy-116" x="147" y="42" width="4" height="26"></rect>
                    <rect id="Rectangle-Copy-117" x="154" y="42" width="2" height="26"></rect>
                    <rect id="Rectangle-Copy-118" x="160" y="42" width="2" height="26"></rect>
                    <rect id="Rectangle-Copy-123" x="192" y="42" width="6" height="26"></rect>
                    <rect id="Rectangle-Copy-124" x="198" y="42" width="2" height="26"></rect>
                    <rect id="Rectangle-Copy-125" x="205" y="42" width="2" height="26"></rect>
                    <rect id="Rectangle-Copy-126" x="211" y="42" width="2" height="26"></rect>
                    <rect id="Rectangle-Copy-130" x="237" y="42" width="2" height="26"></rect>
                    <rect id="Rectangle-Copy-131" x="243" y="42" width="2" height="26"></rect>
                    <rect id="Rectangle-Copy-132" x="250" y="42" width="4" height="26"></rect>
                    <rect id="Rectangle-Copy-134" x="262" y="42" width="2" height="26"></rect>
                    <rect id="Rectangle-Copy-59" x="0" y="84" width="11" height="26"></rect>
                    <rect id="Rectangle-Copy-110" x="13" y="84" width="2" height="26"></rect>
                    <rect id="Rectangle-Copy-111" x="19" y="84" width="2" height="26"></rect>
                    <rect id="Rectangle-Copy-119" x="220" y="84" width="2" height="26"></rect>
                    <rect id="Rectangle-Copy-135" x="224" y="84" width="2" height="26"></rect>
                    <rect id="Rectangle-Copy-113" x="26" y="84" width="2" height="26"></rect>
                    <rect id="Rectangle-Copy-114" x="28" y="84" width="6" height="26"></rect>
                    <rect id="Rectangle-Copy-120" x="45" y="84" width="4" height="26"></rect>
                    <rect id="Rectangle-Copy-121" x="51" y="84" width="2" height="26"></rect>
                    <rect id="Rectangle-Copy-122" x="58" y="84" width="6" height="26"></rect>
                    <rect id="Rectangle-Copy-127" x="64" y="84" width="2" height="26"></rect>
                    <rect id="Rectangle-Copy-128" x="70" y="84" width="2" height="26"></rect>
                    <rect id="Rectangle-Copy-129" x="77" y="84" width="4" height="26"></rect>
                    <rect id="Rectangle-Copy-143" x="103" y="84" width="4" height="26"></rect>
                    <rect id="Rectangle-Copy-149" x="109" y="84" width="2" height="26"></rect>
                    <rect id="Rectangle-Copy-159" x="141" y="84" width="6" height="26"></rect>
                    <rect id="Rectangle-Copy-168" x="147" y="84" width="4" height="26"></rect>
                    <rect id="Rectangle-Copy-169" x="154" y="84" width="2" height="26"></rect>
                    <rect id="Rectangle-Copy-176" x="160" y="84" width="2" height="26"></rect>
                    <rect id="Rectangle-Copy-57" x="0" y="126" width="2" height="26"></rect>
                    <rect id="Rectangle-Copy-142" x="9" y="126" width="4" height="26"></rect>
                    <rect id="Rectangle-Copy-150" x="15" y="126" width="6" height="26"></rect>
                    <rect id="Rectangle-Copy-151" x="21" y="126" width="2" height="26"></rect>
                    <rect id="Rectangle-Copy-178" x="49" y="126" width="2" height="26"></rect>
                    <rect id="Rectangle-Copy-179" x="56" y="126" width="6" height="26"></rect>
                    <rect id="Rectangle-Copy-180" x="62" y="126" width="4" height="26"></rect>
                    <rect id="Rectangle-Copy-182" x="75" y="126" width="4" height="26"></rect>
                    <rect id="Rectangle-Copy-183" x="81" y="126" width="2" height="26"></rect>
                    <rect id="Rectangle-Copy-184" x="88" y="126" width="2" height="26"></rect>
                    <rect id="Rectangle-Copy-185" x="94" y="126" width="4" height="26"></rect>
                    <rect id="Rectangle-Copy-186" x="100" y="126" width="2" height="26"></rect>
                    <rect id="Rectangle-Copy-187" x="107" y="126" width="4" height="26"></rect>
                    <rect id="Rectangle-Copy-188" x="113" y="126" width="2" height="26"></rect>
                    <rect id="Rectangle-Copy-193" x="145" y="126" width="15" height="26"></rect>
                    <rect id="Rectangle-Copy-196" x="164" y="126" width="2" height="26"></rect>
                    <rect id="Rectangle-Copy-197" x="171" y="126" width="2" height="26"></rect>
                    <rect id="Rectangle-Copy-198" x="177" y="126" width="2" height="26"></rect>
                    <rect id="Rectangle-Copy-201" x="196" y="126" width="4" height="26"></rect>
                    <rect id="Rectangle-Copy-202" x="203" y="126" width="2" height="26"></rect>
                    <rect id="Rectangle-Copy-203" x="209" y="126" width="2" height="26"></rect>
                    <rect id="Rectangle-Copy-204" x="216" y="126" width="4" height="26"></rect>
                    <rect id="Rectangle-Copy-205" x="222" y="126" width="2" height="26"></rect>
                    <rect id="Rectangle-Copy-206" x="228" y="126" width="2" height="26"></rect>
                    <rect id="Rectangle-Copy-207" x="235" y="126" width="2" height="26"></rect>
                    <rect id="Rectangle-Copy-58" x="0" y="168" width="6" height="26"></rect>
                    <rect id="Rectangle-Copy-152" x="7" y="168" width="4" height="26"></rect>
                    <rect id="Rectangle-Copy-177" x="32" y="168" width="4" height="26"></rect>
                    <rect id="Rectangle-Copy-189" x="79" y="168" width="9" height="26"></rect>
                    <rect id="Rectangle-Copy-158" x="13" y="168" width="2" height="26"></rect>
                    <rect id="Rectangle-Copy-181" x="38" y="168" width="2" height="26"></rect>
                    <rect id="Rectangle-Copy-190" x="75" y="168" width="2" height="26"></rect>
                    <rect id="Rectangle-Copy-191" x="88" y="168" width="2" height="26"></rect>
                    <rect id="Rectangle-Copy-192" x="94" y="168" width="2" height="26"></rect>
                    <rect id="Rectangle-Copy-199" x="124" y="168" width="2" height="26"></rect>
                    <rect id="Rectangle-Copy-200" x="149" y="168" width="2" height="26"></rect>
                    <rect id="Rectangle-Copy-208" x="158" y="168" width="2" height="26"></rect>
                    <rect id="Rectangle-Copy-209" x="166" y="168" width="9" height="26"></rect>
                    <rect id="Rectangle-Copy-210" x="175" y="168" width="2" height="26"></rect>
                    <rect id="Rectangle-Copy-211" x="183" y="168" width="2" height="26"></rect>
                    <rect id="Rectangle-Copy-212" x="192" y="168" width="4" height="26"></rect>
                    <rect id="Rectangle-Copy-213" x="201" y="168" width="2" height="26"></rect>
                    <rect id="Rectangle-Copy-216" x="226" y="168" width="4" height="26"></rect>
                    <rect id="Rectangle-Copy-217" x="233" y="168" width="2" height="26"></rect>
                    <rect id="Rectangle-Copy-218" x="252" y="168" width="2" height="26"></rect>
                    <rect id="Rectangle-Copy-219" x="256" y="168" width="2" height="26"></rect>
                    <rect id="Rectangle-Copy-220" x="260" y="168" width="4" height="26"></rect>
                </g>
            </g>
        </g>
    </g>
</svg>
