<?xml version="1.0" encoding="UTF-8"?>
<svg width="376px" height="376px" viewBox="0 0 376 376" version="1.1" xmlns="http://www.w3.org/2000/svg" xmlns:xlink="http://www.w3.org/1999/xlink">
    <!-- Generator: Sketch 52.6 (67491) - http://www.bohemiancoding.com/sketch -->
    <title>Group 6 Copy 22</title>
    <desc>Created with Sketch.</desc>
    <g id="Data-viz-vocabulary" stroke="none" stroke-width="1" fill="none" fill-rule="evenodd">
        <g id="Details-large-1" transform="translate(-532.000000, -2934.000000)">
            <g id="Group-6-Copy-22" transform="translate(532.000000, 2934.000000)">
                <rect id="Rectangle-Copy-3" fill="#001521" x="0" y="0" width="376" height="376"></rect>
                <g id="Group-15" transform="translate(52.000000, 91.000000)" fill="#009FE3">
                    <rect id="Rectangle" x="13" y="15" width="242" height="4"></rect>
                    <rect id="Rectangle-Copy-56" x="13" y="70" width="242" height="4"></rect>
                    <rect id="Rectangle-Copy-59" x="13" y="125" width="242" height="4"></rect>
                    <rect id="Rectangle-Copy-58" x="13" y="180" width="242" height="4"></rect>
                    <circle id="Oval-Copy-63" cx="12" cy="17" r="10"></circle>
                    <circle id="Oval-Copy-92" cx="91" cy="17" r="17"></circle>
                    <circle id="Oval-Copy-97" cx="91" cy="72" r="10"></circle>
                    <circle id="Oval-Copy-109" cx="176" cy="72" r="15"></circle>
                    <circle id="Oval-Copy-93" cx="176" cy="17" r="13"></circle>
                    <circle id="Oval-Copy-89" cx="12" cy="72" r="12"></circle>
                    <circle id="Oval-Copy-83" cx="257" cy="17" r="15"></circle>
                    <circle id="Oval-Copy-84" cx="257" cy="72" r="12"></circle>
                    <circle id="Oval-Copy-85" cx="257" cy="127" r="10"></circle>
                    <circle id="Oval-Copy-87" cx="257" cy="182" r="8"></circle>
                    <circle id="Oval-Copy-88" cx="12" cy="182" r="12"></circle>
                    <circle id="Oval-Copy-91" cx="12" cy="127" r="9"></circle>
                    <circle id="Oval-Copy-94" cx="91" cy="127" r="12"></circle>
                    <circle id="Oval-Copy-141" cx="91" cy="182" r="10"></circle>
                    <circle id="Oval-Copy-142" cx="176" cy="182" r="12"></circle>
                    <circle id="Oval-Copy-95" cx="176" cy="127" r="19"></circle>
                </g>
            </g>
        </g>
    </g>
</svg>
