<?xml version="1.0" encoding="UTF-8"?>
<svg width="376px" height="376px" viewBox="0 0 376 376" version="1.1" xmlns="http://www.w3.org/2000/svg" xmlns:xlink="http://www.w3.org/1999/xlink">
    <!-- Generator: Sketch 52.6 (67491) - http://www.bohemiancoding.com/sketch -->
    <title>Group 6 Copy 3</title>
    <desc>Created with Sketch.</desc>
    <g id="Data-viz-vocabulary" stroke="none" stroke-width="1" fill="none" fill-rule="evenodd">
        <g id="Details-large-1" transform="translate(-532.000000, -534.000000)">
            <g id="Group-6-Copy-3" transform="translate(532.000000, 534.000000)">
                <rect id="Rectangle-Copy-3" fill="#001521" x="0" y="0" width="376" height="376"></rect>
                <g id="Group-8" transform="translate(51.000000, 90.000000)" fill="#009FE3" fill-opacity="0.55" stroke="#009FE3">
                    <circle id="Oval-Copy-10" cx="66.5" cy="145.5" r="21"></circle>
                    <circle id="Oval-Copy-48" cx="34.5" cy="161.5" r="34"></circle>
                    <circle id="Oval-Copy-46" cx="151.5" cy="51.5" r="21"></circle>
                    <circle id="Oval-Copy-47" cx="103" cy="120" r="14.5"></circle>
                    <circle id="Oval-Copy-55" cx="98" cy="86" r="16.5"></circle>
                    <circle id="Oval-Copy-44" cx="126.5" cy="98.5" r="25"></circle>
                    <circle id="Oval-Copy-17" cx="252.5" cy="21.5" r="21"></circle>
                    <circle id="Oval-Copy-30" cx="118" cy="13" r="12.5"></circle>
                    <circle id="Oval-Copy-50" cx="208" cy="94" r="12.5"></circle>
                    <circle id="Oval-Copy-57" cx="237.5" cy="40.5" r="4"></circle>
                    <circle id="Oval-Copy-51" cx="191" cy="94" r="12.5"></circle>
                    <circle id="Oval-Copy-49" cx="212" cy="13" r="12.5"></circle>
                    <circle id="Oval-Copy-60" cx="122.5" cy="44.5" r="6"></circle>
                    <circle id="Oval-Copy-59" cx="89.5" cy="25.5" r="4"></circle>
                    <circle id="Oval-Copy-25" cx="180" cy="32" r="31.5"></circle>
                    <circle id="Oval-Copy-45" cx="205.5" cy="44.5" r="19"></circle>
                    <circle id="Oval-Copy-39" cx="148" cy="131" r="14.5"></circle>
                </g>
            </g>
        </g>
    </g>
</svg>
