<svg width="2416" height="2411" xmlns="http://www.w3.org/2000/svg" xmlns:xlink="http://www.w3.org/1999/xlink" xml:space="preserve" overflow="hidden"><g transform="translate(-45 -18)"><g><rect x="59.5" y="32.5002" width="2391" height="2385" stroke="#000000" stroke-width="20.625" stroke-linecap="square" stroke-linejoin="miter" stroke-miterlimit="8" stroke-opacity="1" fill="#001621" fill-opacity="1"/><path d="M439.5 1053.5 777.854 1053.5" stroke="#00B0F0" stroke-width="20.625" stroke-linecap="butt" stroke-linejoin="round" stroke-miterlimit="10" stroke-opacity="1" fill="none" fill-rule="evenodd"/><path d="M785.5 1053.5 1094.61 1404.39" stroke="#00B0F0" stroke-width="20.625" stroke-linecap="butt" stroke-linejoin="miter" stroke-miterlimit="8" stroke-opacity="1" fill="none" fill-rule="evenodd"/><path d="M1099.5 1408.5 1437.85 1408.5" stroke="#00B0F0" stroke-width="20.625" stroke-linecap="butt" stroke-linejoin="miter" stroke-miterlimit="8" stroke-opacity="1" fill="none" fill-rule="evenodd"/><path d="M0 0 296.582 350.886" stroke="#00B0F0" stroke-width="20.625" stroke-linecap="butt" stroke-linejoin="miter" stroke-miterlimit="8" stroke-opacity="1" fill="none" fill-rule="evenodd" transform="matrix(1 0 0 -1 1449.5 1404.39)"/><path d="M1750.5 1053.5 2076.32 1053.5" stroke="#00B0F0" stroke-width="20.625" stroke-linecap="butt" stroke-linejoin="miter" stroke-miterlimit="8" stroke-opacity="1" fill="none" fill-rule="evenodd"/><path d="M439.5 1404.5 777.854 1767.92" stroke="#00B0F0" stroke-width="20.625" stroke-linecap="butt" stroke-linejoin="miter" stroke-miterlimit="8" stroke-opacity="1" fill="none" fill-rule="evenodd"/><path d="M785.5 1767.5 1750.44 1767.5" stroke="#00B0F0" stroke-width="20.625" stroke-linecap="butt" stroke-linejoin="miter" stroke-miterlimit="8" stroke-opacity="1" fill="none" fill-rule="evenodd"/><path d="M1750.5 1767.5 2076.32 2125.14" stroke="#00B0F0" stroke-width="20.625" stroke-linecap="butt" stroke-linejoin="miter" stroke-miterlimit="8" stroke-opacity="1" fill="none" fill-rule="evenodd"/><path d="M0 0 338.354 363.418" stroke="#FFFFFF" stroke-width="20.625" stroke-linecap="butt" stroke-linejoin="miter" stroke-miterlimit="8" stroke-opacity="1" fill="none" fill-rule="evenodd" transform="matrix(1 0 0 -1 439.5 1767.92)"/><path d="M0 0 321.646 350.886" stroke="#FFFFFF" stroke-width="20.625" stroke-linecap="butt" stroke-linejoin="miter" stroke-miterlimit="8" stroke-opacity="1" fill="none" fill-rule="evenodd" transform="matrix(1 0 0 -1 777.5 1404.39)"/><path d="M1099.5 1067.5 1437.85 1067.5" stroke="#FFFFFF" stroke-width="20.625" stroke-linecap="butt" stroke-linejoin="miter" stroke-miterlimit="8" stroke-opacity="1" fill="none" fill-rule="evenodd"/><path d="M0 0 309.114 350.886" stroke="#FFFFFF" stroke-width="20.625" stroke-linecap="butt" stroke-linejoin="miter" stroke-miterlimit="8" stroke-opacity="1" fill="none" fill-rule="evenodd" transform="matrix(1 0 0 -1 1437.5 1053.39)"/><path d="M1750.5 698.5 2076.32 698.5" stroke="#FFFFFF" stroke-width="20.625" stroke-linecap="butt" stroke-linejoin="miter" stroke-miterlimit="8" stroke-opacity="1" fill="none" fill-rule="evenodd"/><path d="M439.5 2125.5 1751.15 2125.5" stroke="#00B0F0" stroke-width="20.625" stroke-linecap="butt" stroke-linejoin="miter" stroke-miterlimit="8" stroke-opacity="1" fill="none" fill-rule="evenodd"/><path d="M0 0 325.823 357.639" stroke="#00B0F0" stroke-width="20.625" stroke-linecap="butt" stroke-linejoin="miter" stroke-miterlimit="8" stroke-opacity="1" fill="none" fill-rule="evenodd" transform="matrix(1 0 0 -1 1750.5 2125.14)"/><path d="M439.5 338.5 782.032 338.5" stroke="#00B0F0" stroke-width="20.625" stroke-linecap="butt" stroke-linejoin="miter" stroke-miterlimit="8" stroke-opacity="1" fill="none" fill-rule="evenodd"/><path d="M785.5 338.5 1094.61 701.918" stroke="#00B0F0" stroke-width="20.625" stroke-linecap="butt" stroke-linejoin="miter" stroke-miterlimit="8" stroke-opacity="1" fill="none" fill-rule="evenodd"/><path d="M0 0 338.354 351.373" stroke="#00B0F0" stroke-width="20.625" stroke-linecap="butt" stroke-linejoin="miter" stroke-miterlimit="8" stroke-opacity="1" fill="none" fill-rule="evenodd" transform="matrix(1 0 0 -1 1099.5 701.873)"/><path d="M1449.5 350.5 2109.5 350.5" stroke="#00B0F0" stroke-width="20.625" stroke-linecap="butt" stroke-linejoin="miter" stroke-miterlimit="8" stroke-opacity="1" fill="none" fill-rule="evenodd"/><path d="M1750.5 1404.5 2076.32 1404.5" stroke="#00B0F0" stroke-width="20.625" stroke-linecap="butt" stroke-linejoin="miter" stroke-miterlimit="8" stroke-opacity="1" fill="none" fill-rule="evenodd"/><path d="M0 0 375.949 4.17733" stroke="#00B0F0" stroke-width="20.625" stroke-linecap="butt" stroke-linejoin="miter" stroke-miterlimit="8" stroke-opacity="1" fill="none" fill-rule="evenodd" transform="matrix(1 0 0 -1 401.5 702.677)"/><path d="M0 0 321.646 347.196" stroke="#00B0F0" stroke-width="20.625" stroke-linecap="butt" stroke-linejoin="miter" stroke-miterlimit="8" stroke-opacity="1" fill="none" fill-rule="evenodd" transform="matrix(1 0 0 -1 777.5 697.696)"/><path d="M1099.5 350.5 1437.85 697.696" stroke="#00B0F0" stroke-width="20.625" stroke-linecap="butt" stroke-linejoin="miter" stroke-miterlimit="8" stroke-opacity="1" fill="none" fill-rule="evenodd"/><path d="M1437.5 702.5 1746.61 1408.45" stroke="#00B0F0" stroke-width="20.625" stroke-linecap="butt" stroke-linejoin="miter" stroke-miterlimit="8" stroke-opacity="1" fill="none" fill-rule="evenodd"/><path d="M393.5 339C393.5 312.214 415.438 290.5 442.5 290.5 469.562 290.5 491.5 312.214 491.5 339 491.5 365.786 469.562 387.5 442.5 387.5 415.438 387.5 393.5 365.786 393.5 339Z" stroke="#00B0F0" stroke-width="20.625" stroke-linecap="square" stroke-linejoin="miter" stroke-miterlimit="8" stroke-opacity="1" fill="#00A9F4" fill-rule="evenodd" fill-opacity="1"/><path d="M391.5 696.5C391.5 669.438 413.438 647.5 440.5 647.5 467.562 647.5 489.5 669.438 489.5 696.5 489.5 723.562 467.562 745.5 440.5 745.5 413.438 745.5 391.5 723.562 391.5 696.5Z" stroke="#00B0F0" stroke-width="20.625" stroke-linecap="square" stroke-linejoin="miter" stroke-miterlimit="8" stroke-opacity="1" fill="#00A9F4" fill-rule="evenodd" fill-opacity="1"/><path d="M389.5 1050C389.5 1023.21 411.214 1001.5 438 1001.5 464.786 1001.5 486.5 1023.21 486.5 1050 486.5 1076.79 464.786 1098.5 438 1098.5 411.214 1098.5 389.5 1076.79 389.5 1050Z" stroke="#00B0F0" stroke-width="20.625" stroke-linecap="square" stroke-linejoin="miter" stroke-miterlimit="8" stroke-opacity="1" fill="#00A9F4" fill-rule="evenodd" fill-opacity="1"/><path d="M394.5 1406.5C394.5 1379.44 416.214 1357.5 443 1357.5 469.786 1357.5 491.5 1379.44 491.5 1406.5 491.5 1433.56 469.786 1455.5 443 1455.5 416.214 1455.5 394.5 1433.56 394.5 1406.5Z" stroke="#00B0F0" stroke-width="20.625" stroke-linecap="square" stroke-linejoin="miter" stroke-miterlimit="8" stroke-opacity="1" fill="#00A9F4" fill-rule="evenodd" fill-opacity="1"/><path d="M389.5 1748.5C389.5 1721.44 411.214 1699.5 438 1699.5 464.786 1699.5 486.5 1721.44 486.5 1748.5 486.5 1775.56 464.786 1797.5 438 1797.5 411.214 1797.5 389.5 1775.56 389.5 1748.5Z" stroke="#FFFFFF" stroke-width="20.625" stroke-linecap="square" stroke-linejoin="miter" stroke-miterlimit="8" stroke-opacity="1" fill="#FFFFFF" fill-rule="evenodd" fill-opacity="1"/><path d="M394.5 2118.5C394.5 2091.44 416.214 2069.5 443 2069.5 469.786 2069.5 491.5 2091.44 491.5 2118.5 491.5 2145.56 469.786 2167.5 443 2167.5 416.214 2167.5 394.5 2145.56 394.5 2118.5Z" stroke="#00B0F0" stroke-width="20.625" stroke-linecap="square" stroke-linejoin="miter" stroke-miterlimit="8" stroke-opacity="1" fill="#00A9F4" fill-rule="evenodd" fill-opacity="1"/><path d="M718.5 339C718.5 312.214 740.214 290.5 767 290.5 793.786 290.5 815.5 312.214 815.5 339 815.5 365.786 793.786 387.5 767 387.5 740.214 387.5 718.5 365.786 718.5 339Z" stroke="#00B0F0" stroke-width="20.625" stroke-linecap="square" stroke-linejoin="miter" stroke-miterlimit="8" stroke-opacity="1" fill="#00A9F4" fill-rule="evenodd" fill-opacity="1"/><path d="M716.5 696.5C716.5 669.438 738.438 647.5 765.5 647.5 792.562 647.5 814.5 669.438 814.5 696.5 814.5 723.562 792.562 745.5 765.5 745.5 738.438 745.5 716.5 723.562 716.5 696.5Z" stroke="#00B0F0" stroke-width="20.625" stroke-linecap="square" stroke-linejoin="miter" stroke-miterlimit="8" stroke-opacity="1" fill="#00A9F4" fill-rule="evenodd" fill-opacity="1"/><path d="M714.5 1050C714.5 1023.21 736.214 1001.5 763 1001.5 789.786 1001.5 811.5 1023.21 811.5 1050 811.5 1076.79 789.786 1098.5 763 1098.5 736.214 1098.5 714.5 1076.79 714.5 1050Z" stroke="#00B0F0" stroke-width="20.625" stroke-linecap="square" stroke-linejoin="miter" stroke-miterlimit="8" stroke-opacity="1" fill="#00A9F4" fill-rule="evenodd" fill-opacity="1"/><path d="M719.5 1406.5C719.5 1379.44 741.214 1357.5 768 1357.5 794.786 1357.5 816.5 1379.44 816.5 1406.5 816.5 1433.56 794.786 1455.5 768 1455.5 741.214 1455.5 719.5 1433.56 719.5 1406.5Z" stroke="#FFFFFF" stroke-width="20.625" stroke-linecap="square" stroke-linejoin="miter" stroke-miterlimit="8" stroke-opacity="1" fill="#FFFFFF" fill-rule="evenodd" fill-opacity="1"/><path d="M714.5 1748.5C714.5 1721.44 736.214 1699.5 763 1699.5 789.786 1699.5 811.5 1721.44 811.5 1748.5 811.5 1775.56 789.786 1797.5 763 1797.5 736.214 1797.5 714.5 1775.56 714.5 1748.5Z" stroke="#00B0F0" stroke-width="20.625" stroke-linecap="square" stroke-linejoin="miter" stroke-miterlimit="8" stroke-opacity="1" fill="#00A9F4" fill-rule="evenodd" fill-opacity="1"/><path d="M719.5 2118.5C719.5 2091.44 741.214 2069.5 768 2069.5 794.786 2069.5 816.5 2091.44 816.5 2118.5 816.5 2145.56 794.786 2167.5 768 2167.5 741.214 2167.5 719.5 2145.56 719.5 2118.5Z" stroke="#00B0F0" stroke-width="20.625" stroke-linecap="square" stroke-linejoin="miter" stroke-miterlimit="8" stroke-opacity="1" fill="#00A9F4" fill-rule="evenodd" fill-opacity="1"/><path d="M1054.5 337C1054.5 310.214 1076.21 288.5 1103 288.5 1129.79 288.5 1151.5 310.214 1151.5 337 1151.5 363.786 1129.79 385.5 1103 385.5 1076.21 385.5 1054.5 363.786 1054.5 337Z" stroke="#00B0F0" stroke-width="20.625" stroke-linecap="square" stroke-linejoin="miter" stroke-miterlimit="8" stroke-opacity="1" fill="#00A9F4" fill-rule="evenodd" fill-opacity="1"/><path d="M1052.5 695C1052.5 668.214 1074.21 646.5 1101 646.5 1127.79 646.5 1149.5 668.214 1149.5 695 1149.5 721.786 1127.79 743.5 1101 743.5 1074.21 743.5 1052.5 721.786 1052.5 695Z" stroke="#00B0F0" stroke-width="20.625" stroke-linecap="square" stroke-linejoin="miter" stroke-miterlimit="8" stroke-opacity="1" fill="#00A9F4" fill-rule="evenodd" fill-opacity="1"/><path d="M1049.5 1048.5C1049.5 1021.44 1071.44 999.5 1098.5 999.5 1125.56 999.5 1147.5 1021.44 1147.5 1048.5 1147.5 1075.56 1125.56 1097.5 1098.5 1097.5 1071.44 1097.5 1049.5 1075.56 1049.5 1048.5Z" stroke="#FFFFFF" stroke-width="20.625" stroke-linecap="square" stroke-linejoin="miter" stroke-miterlimit="8" stroke-opacity="1" fill="#FFFFFF" fill-rule="evenodd" fill-opacity="1"/><path d="M1054.5 1404.5C1054.5 1377.44 1076.44 1355.5 1103.5 1355.5 1130.56 1355.5 1152.5 1377.44 1152.5 1404.5 1152.5 1431.56 1130.56 1453.5 1103.5 1453.5 1076.44 1453.5 1054.5 1431.56 1054.5 1404.5Z" stroke="#00B0F0" stroke-width="20.625" stroke-linecap="square" stroke-linejoin="miter" stroke-miterlimit="8" stroke-opacity="1" fill="#00A9F4" fill-rule="evenodd" fill-opacity="1"/><path d="M1049.5 1747C1049.5 1720.21 1071.44 1698.5 1098.5 1698.5 1125.56 1698.5 1147.5 1720.21 1147.5 1747 1147.5 1773.79 1125.56 1795.5 1098.5 1795.5 1071.44 1795.5 1049.5 1773.79 1049.5 1747Z" stroke="#00B0F0" stroke-width="20.625" stroke-linecap="square" stroke-linejoin="miter" stroke-miterlimit="8" stroke-opacity="1" fill="#00A9F4" fill-rule="evenodd" fill-opacity="1"/><path d="M1054.5 2116.5C1054.5 2089.44 1076.44 2067.5 1103.5 2067.5 1130.56 2067.5 1152.5 2089.44 1152.5 2116.5 1152.5 2143.56 1130.56 2165.5 1103.5 2165.5 1076.44 2165.5 1054.5 2143.56 1054.5 2116.5Z" stroke="#00B0F0" stroke-width="20.625" stroke-linecap="square" stroke-linejoin="miter" stroke-miterlimit="8" stroke-opacity="1" fill="#00A9F4" fill-rule="evenodd" fill-opacity="1"/><path d="M1375.5 340.5C1375.5 313.438 1397.21 291.5 1424 291.5 1450.79 291.5 1472.5 313.438 1472.5 340.5 1472.5 367.562 1450.79 389.5 1424 389.5 1397.21 389.5 1375.5 367.562 1375.5 340.5Z" stroke="#00B0F0" stroke-width="20.625" stroke-linecap="square" stroke-linejoin="miter" stroke-miterlimit="8" stroke-opacity="1" fill="#00A9F4" fill-rule="evenodd" fill-opacity="1"/><path d="M1373.5 698C1373.5 671.214 1395.21 649.5 1422 649.5 1448.79 649.5 1470.5 671.214 1470.5 698 1470.5 724.786 1448.79 746.5 1422 746.5 1395.21 746.5 1373.5 724.786 1373.5 698Z" stroke="#00B0F0" stroke-width="20.625" stroke-linecap="square" stroke-linejoin="miter" stroke-miterlimit="8" stroke-opacity="1" fill="#00A9F4" fill-rule="evenodd" fill-opacity="1"/><path d="M1370.5 1052C1370.5 1025.21 1392.44 1003.5 1419.5 1003.5 1446.56 1003.5 1468.5 1025.21 1468.5 1052 1468.5 1078.79 1446.56 1100.5 1419.5 1100.5 1392.44 1100.5 1370.5 1078.79 1370.5 1052Z" stroke="#FFFFFF" stroke-width="20.625" stroke-linecap="square" stroke-linejoin="miter" stroke-miterlimit="8" stroke-opacity="1" fill="#FFFFFF" fill-rule="evenodd" fill-opacity="1"/><path d="M1375.5 1408C1375.5 1381.21 1397.44 1359.5 1424.5 1359.5 1451.56 1359.5 1473.5 1381.21 1473.5 1408 1473.5 1434.79 1451.56 1456.5 1424.5 1456.5 1397.44 1456.5 1375.5 1434.79 1375.5 1408Z" stroke="#00B0F0" stroke-width="20.625" stroke-linecap="square" stroke-linejoin="miter" stroke-miterlimit="8" stroke-opacity="1" fill="#00A9F4" fill-rule="evenodd" fill-opacity="1"/><path d="M1370.5 1750C1370.5 1723.21 1392.44 1701.5 1419.5 1701.5 1446.56 1701.5 1468.5 1723.21 1468.5 1750 1468.5 1776.79 1446.56 1798.5 1419.5 1798.5 1392.44 1798.5 1370.5 1776.79 1370.5 1750Z" stroke="#00B0F0" stroke-width="20.625" stroke-linecap="square" stroke-linejoin="miter" stroke-miterlimit="8" stroke-opacity="1" fill="#00A9F4" fill-rule="evenodd" fill-opacity="1"/><path d="M1375.5 2120C1375.5 2093.21 1397.44 2071.5 1424.5 2071.5 1451.56 2071.5 1473.5 2093.21 1473.5 2120 1473.5 2146.79 1451.56 2168.5 1424.5 2168.5 1397.44 2168.5 1375.5 2146.79 1375.5 2120Z" stroke="#00B0F0" stroke-width="20.625" stroke-linecap="square" stroke-linejoin="miter" stroke-miterlimit="8" stroke-opacity="1" fill="#00A9F4" fill-rule="evenodd" fill-opacity="1"/><path d="M1703.5 340.5C1703.5 313.438 1725.21 291.5 1752 291.5 1778.79 291.5 1800.5 313.438 1800.5 340.5 1800.5 367.562 1778.79 389.5 1752 389.5 1725.21 389.5 1703.5 367.562 1703.5 340.5Z" stroke="#00B0F0" stroke-width="20.625" stroke-linecap="square" stroke-linejoin="miter" stroke-miterlimit="8" stroke-opacity="1" fill="#00A9F4" fill-rule="evenodd" fill-opacity="1"/><path d="M1701.5 698C1701.5 671.214 1723.44 649.5 1750.5 649.5 1777.56 649.5 1799.5 671.214 1799.5 698 1799.5 724.786 1777.56 746.5 1750.5 746.5 1723.44 746.5 1701.5 724.786 1701.5 698Z" stroke="#FFFFFF" stroke-width="20.625" stroke-linecap="square" stroke-linejoin="miter" stroke-miterlimit="8" stroke-opacity="1" fill="#FFFFFF" fill-rule="evenodd" fill-opacity="1"/><path d="M1699.5 1052C1699.5 1025.21 1721.21 1003.5 1748 1003.5 1774.79 1003.5 1796.5 1025.21 1796.5 1052 1796.5 1078.79 1774.79 1100.5 1748 1100.5 1721.21 1100.5 1699.5 1078.79 1699.5 1052Z" stroke="#00B0F0" stroke-width="20.625" stroke-linecap="square" stroke-linejoin="miter" stroke-miterlimit="8" stroke-opacity="1" fill="#00A9F4" fill-rule="evenodd" fill-opacity="1"/><path d="M1704.5 1408C1704.5 1381.21 1726.21 1359.5 1753 1359.5 1779.79 1359.5 1801.5 1381.21 1801.5 1408 1801.5 1434.79 1779.79 1456.5 1753 1456.5 1726.21 1456.5 1704.5 1434.79 1704.5 1408Z" stroke="#00B0F0" stroke-width="20.625" stroke-linecap="square" stroke-linejoin="miter" stroke-miterlimit="8" stroke-opacity="1" fill="#00A9F4" fill-rule="evenodd" fill-opacity="1"/><path d="M1699.5 1750C1699.5 1723.21 1721.21 1701.5 1748 1701.5 1774.79 1701.5 1796.5 1723.21 1796.5 1750 1796.5 1776.79 1774.79 1798.5 1748 1798.5 1721.21 1798.5 1699.5 1776.79 1699.5 1750Z" stroke="#00B0F0" stroke-width="20.625" stroke-linecap="square" stroke-linejoin="miter" stroke-miterlimit="8" stroke-opacity="1" fill="#00A9F4" fill-rule="evenodd" fill-opacity="1"/><path d="M1704.5 2120C1704.5 2093.21 1726.21 2071.5 1753 2071.5 1779.79 2071.5 1801.5 2093.21 1801.5 2120 1801.5 2146.79 1779.79 2168.5 1753 2168.5 1726.21 2168.5 1704.5 2146.79 1704.5 2120Z" stroke="#00B0F0" stroke-width="20.625" stroke-linecap="square" stroke-linejoin="miter" stroke-miterlimit="8" stroke-opacity="1" fill="#00A9F4" fill-rule="evenodd" fill-opacity="1"/><path d="M2031.5 337C2031.5 310.214 2053.21 288.5 2080 288.5 2106.79 288.5 2128.5 310.214 2128.5 337 2128.5 363.786 2106.79 385.5 2080 385.5 2053.21 385.5 2031.5 363.786 2031.5 337Z" stroke="#00B0F0" stroke-width="20.625" stroke-linecap="square" stroke-linejoin="miter" stroke-miterlimit="8" stroke-opacity="1" fill="#00A9F4" fill-rule="evenodd" fill-opacity="1"/><path d="M2029.5 695C2029.5 668.214 2051.44 646.5 2078.5 646.5 2105.56 646.5 2127.5 668.214 2127.5 695 2127.5 721.786 2105.56 743.5 2078.5 743.5 2051.44 743.5 2029.5 721.786 2029.5 695Z" stroke="#FFFFFF" stroke-width="20.625" stroke-linecap="square" stroke-linejoin="miter" stroke-miterlimit="8" stroke-opacity="1" fill="#FFFFFF" fill-rule="evenodd" fill-opacity="1"/><path d="M2027.5 1048.5C2027.5 1021.44 2049.21 999.5 2076 999.5 2102.79 999.5 2124.5 1021.44 2124.5 1048.5 2124.5 1075.56 2102.79 1097.5 2076 1097.5 2049.21 1097.5 2027.5 1075.56 2027.5 1048.5Z" stroke="#00B0F0" stroke-width="20.625" stroke-linecap="square" stroke-linejoin="miter" stroke-miterlimit="8" stroke-opacity="1" fill="#00A9F4" fill-rule="evenodd" fill-opacity="1"/><path d="M2032.5 1404.5C2032.5 1377.44 2054.21 1355.5 2081 1355.5 2107.79 1355.5 2129.5 1377.44 2129.5 1404.5 2129.5 1431.56 2107.79 1453.5 2081 1453.5 2054.21 1453.5 2032.5 1431.56 2032.5 1404.5Z" stroke="#00B0F0" stroke-width="20.625" stroke-linecap="square" stroke-linejoin="miter" stroke-miterlimit="8" stroke-opacity="1" fill="#00A9F4" fill-rule="evenodd" fill-opacity="1"/><path d="M2027.5 1747C2027.5 1720.21 2049.21 1698.5 2076 1698.5 2102.79 1698.5 2124.5 1720.21 2124.5 1747 2124.5 1773.79 2102.79 1795.5 2076 1795.5 2049.21 1795.5 2027.5 1773.79 2027.5 1747Z" stroke="#00B0F0" stroke-width="20.625" stroke-linecap="square" stroke-linejoin="miter" stroke-miterlimit="8" stroke-opacity="1" fill="#00A9F4" fill-rule="evenodd" fill-opacity="1"/><path d="M2032.5 2116.5C2032.5 2089.44 2054.21 2067.5 2081 2067.5 2107.79 2067.5 2129.5 2089.44 2129.5 2116.5 2129.5 2143.56 2107.79 2165.5 2081 2165.5 2054.21 2165.5 2032.5 2143.56 2032.5 2116.5Z" stroke="#00B0F0" stroke-width="20.625" stroke-linecap="square" stroke-linejoin="miter" stroke-miterlimit="8" stroke-opacity="1" fill="#00A9F4" fill-rule="evenodd" fill-opacity="1"/></g></g></svg>
