<?xml version="1.0" encoding="UTF-8"?>
<svg width="376px" height="376px" viewBox="0 0 376 376" version="1.1" xmlns="http://www.w3.org/2000/svg" xmlns:xlink="http://www.w3.org/1999/xlink">
    <!-- Generator: Sketch 52.6 (67491) - http://www.bohemiancoding.com/sketch -->
    <title>Group 6</title>
    <desc>Created with Sketch.</desc>
    <g id="Data-viz-vocabulary" stroke="none" stroke-width="1" fill="none" fill-rule="evenodd">
        <g id="Details-large-1" transform="translate(-532.000000, -134.000000)">
            <g id="Group-6" transform="translate(532.000000, 134.000000)">
                <rect id="Rectangle-Copy-3" fill="#001521" x="0" y="0" width="376" height="376"></rect>
                <g id="Group-2" transform="translate(51.000000, 90.000000)">
                    <rect id="Rectangle" fill="#009FE3" x="139" y="0" width="103" height="26"></rect>
                    <rect id="Rectangle-Copy-42" fill="#7EC1CA" x="49" y="0" width="86" height="26"></rect>
                    <rect id="Rectangle-Copy-43" fill="#009FE3" x="139" y="34" width="120" height="26"></rect>
                    <rect id="Rectangle-Copy-44" fill="#7EC1CA" x="0" y="34" width="135" height="26"></rect>
                    <rect id="Rectangle-Copy-45" fill="#009FE3" x="139" y="68" width="86" height="26"></rect>
                    <rect id="Rectangle-Copy-46" fill="#7EC1CA" x="66" y="68" width="69" height="26"></rect>
                    <rect id="Rectangle-Copy-48" fill="#7EC1CA" x="32" y="103" width="103" height="26"></rect>
                    <rect id="Rectangle-Copy-49" fill="#009FE3" x="139" y="103" width="103" height="26"></rect>
                    <rect id="Rectangle-Copy-50" fill="#7EC1CA" x="11" y="137" width="124" height="26"></rect>
                    <rect id="Rectangle-Copy-51" fill="#009FE3" x="139" y="137" width="135" height="26"></rect>
                    <rect id="Rectangle-Copy-52" fill="#7EC1CA" x="58" y="171" width="77" height="26"></rect>
                    <rect id="Rectangle-Copy-53" fill="#009FE3" x="139" y="171" width="86" height="26"></rect>
                </g>
            </g>
        </g>
    </g>
</svg>
