<?xml version="1.0" encoding="UTF-8"?>
<svg width="376px" height="376px" viewBox="0 0 376 376" version="1.1" xmlns="http://www.w3.org/2000/svg" xmlns:xlink="http://www.w3.org/1999/xlink">
    <!-- Generator: Sketch 52.6 (67491) - http://www.bohemiancoding.com/sketch -->
    <title>Group 6 Copy 42</title>
    <desc>Created with Sketch.</desc>
    <g id="Data-viz-vocabulary" stroke="none" stroke-width="1" fill="none" fill-rule="evenodd">
        <g id="Details-large-2" transform="translate(-132.000000, -2536.000000)">
            <g id="Group-6-Copy-42" transform="translate(132.000000, 2536.000000)">
                <rect id="Rectangle-Copy-3" fill="#001521" x="0" y="0" width="376" height="376"></rect>
                <g id="Group-71" transform="translate(56.000000, 124.000000)" fill="#009FE3">
                    <g id="standing-up-man--copy-11">
                        <circle id="Oval" cx="12" cy="5" r="5"></circle>
                        <path d="M13.5732384,12.1680811 C12.3821187,11.932279 11.0870544,11.9426212 9.91714786,12.2115183 C1.96963224,13.1195633 -0.610950377,22.0893518 0.117722149,28.9286474 C0.433798441,31.8854819 5.2141872,31.9165085 4.89492893,28.9286474 C4.62976425,26.4361777 4.74325473,22.6747202 6.10195853,20.001262 C6.10195853,23.2507806 6.10195853,26.5002993 6.10195853,29.7487838 C6.10195853,29.8635822 6.11362577,29.971141 6.11892906,30.0818025 C6.11574709,30.1345477 6.10301918,30.1790192 6.10301918,30.2327986 C6.10301918,37.9677286 6.08923062,45.699556 5.76148708,53.4282807 C5.61617684,56.8639589 11.0796298,56.8505141 11.2238794,53.4282807 C11.4805588,47.3708552 11.545259,41.3103271 11.5601082,35.2487647 C11.8189089,35.2653123 12.0777096,35.2653123 12.3365104,35.2508332 C12.3524202,41.3123955 12.4149991,47.3729237 12.6695572,53.4282807 C12.8148674,56.8505141 18.2783204,56.8639589 18.1319495,53.4282807 C17.8042059,45.699556 17.7925387,37.9677286 17.7925387,30.2327986 C17.7925387,29.9928596 17.7596583,29.7746392 17.7098073,29.5646926 C17.7023827,26.2065809 17.570861,22.8453665 17.6111661,19.4893232 C19.2382165,22.175192 19.3867087,26.2717367 19.1045735,28.926579 C18.7842546,31.9123716 23.565704,31.8823792 23.8817803,28.926579 C24.6274234,21.9455952 21.9227437,12.7431073 13.5732384,12.1680811 Z" id="Path"></path>
                    </g>
                    <g id="standing-up-man--copy-18" transform="translate(0.000000, 72.000000)">
                        <circle id="Oval" cx="12" cy="5" r="5"></circle>
                        <path d="M13.5732384,12.1680811 C12.3821187,11.932279 11.0870544,11.9426212 9.91714786,12.2115183 C1.96963224,13.1195633 -0.610950377,22.0893518 0.117722149,28.9286474 C0.433798441,31.8854819 5.2141872,31.9165085 4.89492893,28.9286474 C4.62976425,26.4361777 4.74325473,22.6747202 6.10195853,20.001262 C6.10195853,23.2507806 6.10195853,26.5002993 6.10195853,29.7487838 C6.10195853,29.8635822 6.11362577,29.971141 6.11892906,30.0818025 C6.11574709,30.1345477 6.10301918,30.1790192 6.10301918,30.2327986 C6.10301918,37.9677286 6.08923062,45.699556 5.76148708,53.4282807 C5.61617684,56.8639589 11.0796298,56.8505141 11.2238794,53.4282807 C11.4805588,47.3708552 11.545259,41.3103271 11.5601082,35.2487647 C11.8189089,35.2653123 12.0777096,35.2653123 12.3365104,35.2508332 C12.3524202,41.3123955 12.4149991,47.3729237 12.6695572,53.4282807 C12.8148674,56.8505141 18.2783204,56.8639589 18.1319495,53.4282807 C17.8042059,45.699556 17.7925387,37.9677286 17.7925387,30.2327986 C17.7925387,29.9928596 17.7596583,29.7746392 17.7098073,29.5646926 C17.7023827,26.2065809 17.570861,22.8453665 17.6111661,19.4893232 C19.2382165,22.175192 19.3867087,26.2717367 19.1045735,28.926579 C18.7842546,31.9123716 23.565704,31.8823792 23.8817803,28.926579 C24.6274234,21.9455952 21.9227437,12.7431073 13.5732384,12.1680811 Z" id="Path"></path>
                    </g>
                    <g id="standing-up-man--copy-12" transform="translate(40.000000, 0.000000)">
                        <circle id="Oval" cx="12" cy="5" r="5"></circle>
                        <path d="M13.5732384,12.1680811 C12.3821187,11.932279 11.0870544,11.9426212 9.91714786,12.2115183 C1.96963224,13.1195633 -0.610950377,22.0893518 0.117722149,28.9286474 C0.433798441,31.8854819 5.2141872,31.9165085 4.89492893,28.9286474 C4.62976425,26.4361777 4.74325473,22.6747202 6.10195853,20.001262 C6.10195853,23.2507806 6.10195853,26.5002993 6.10195853,29.7487838 C6.10195853,29.8635822 6.11362577,29.971141 6.11892906,30.0818025 C6.11574709,30.1345477 6.10301918,30.1790192 6.10301918,30.2327986 C6.10301918,37.9677286 6.08923062,45.699556 5.76148708,53.4282807 C5.61617684,56.8639589 11.0796298,56.8505141 11.2238794,53.4282807 C11.4805588,47.3708552 11.545259,41.3103271 11.5601082,35.2487647 C11.8189089,35.2653123 12.0777096,35.2653123 12.3365104,35.2508332 C12.3524202,41.3123955 12.4149991,47.3729237 12.6695572,53.4282807 C12.8148674,56.8505141 18.2783204,56.8639589 18.1319495,53.4282807 C17.8042059,45.699556 17.7925387,37.9677286 17.7925387,30.2327986 C17.7925387,29.9928596 17.7596583,29.7746392 17.7098073,29.5646926 C17.7023827,26.2065809 17.570861,22.8453665 17.6111661,19.4893232 C19.2382165,22.175192 19.3867087,26.2717367 19.1045735,28.926579 C18.7842546,31.9123716 23.565704,31.8823792 23.8817803,28.926579 C24.6274234,21.9455952 21.9227437,12.7431073 13.5732384,12.1680811 Z" id="Path"></path>
                    </g>
                    <g id="standing-up-man--copy-19" transform="translate(40.000000, 72.000000)">
                        <circle id="Oval" cx="12" cy="5" r="5"></circle>
                        <path d="M13.5732384,12.1680811 C12.3821187,11.932279 11.0870544,11.9426212 9.91714786,12.2115183 C1.96963224,13.1195633 -0.610950377,22.0893518 0.117722149,28.9286474 C0.433798441,31.8854819 5.2141872,31.9165085 4.89492893,28.9286474 C4.62976425,26.4361777 4.74325473,22.6747202 6.10195853,20.001262 C6.10195853,23.2507806 6.10195853,26.5002993 6.10195853,29.7487838 C6.10195853,29.8635822 6.11362577,29.971141 6.11892906,30.0818025 C6.11574709,30.1345477 6.10301918,30.1790192 6.10301918,30.2327986 C6.10301918,37.9677286 6.08923062,45.699556 5.76148708,53.4282807 C5.61617684,56.8639589 11.0796298,56.8505141 11.2238794,53.4282807 C11.4805588,47.3708552 11.545259,41.3103271 11.5601082,35.2487647 C11.8189089,35.2653123 12.0777096,35.2653123 12.3365104,35.2508332 C12.3524202,41.3123955 12.4149991,47.3729237 12.6695572,53.4282807 C12.8148674,56.8505141 18.2783204,56.8639589 18.1319495,53.4282807 C17.8042059,45.699556 17.7925387,37.9677286 17.7925387,30.2327986 C17.7925387,29.9928596 17.7596583,29.7746392 17.7098073,29.5646926 C17.7023827,26.2065809 17.570861,22.8453665 17.6111661,19.4893232 C19.2382165,22.175192 19.3867087,26.2717367 19.1045735,28.926579 C18.7842546,31.9123716 23.565704,31.8823792 23.8817803,28.926579 C24.6274234,21.9455952 21.9227437,12.7431073 13.5732384,12.1680811 Z" id="Path"></path>
                    </g>
                    <g id="standing-up-man--copy-13" transform="translate(80.000000, 0.000000)">
                        <circle id="Oval" cx="12" cy="5" r="5"></circle>
                        <path d="M13.5732384,12.1680811 C12.3821187,11.932279 11.0870544,11.9426212 9.91714786,12.2115183 C1.96963224,13.1195633 -0.610950377,22.0893518 0.117722149,28.9286474 C0.433798441,31.8854819 5.2141872,31.9165085 4.89492893,28.9286474 C4.62976425,26.4361777 4.74325473,22.6747202 6.10195853,20.001262 C6.10195853,23.2507806 6.10195853,26.5002993 6.10195853,29.7487838 C6.10195853,29.8635822 6.11362577,29.971141 6.11892906,30.0818025 C6.11574709,30.1345477 6.10301918,30.1790192 6.10301918,30.2327986 C6.10301918,37.9677286 6.08923062,45.699556 5.76148708,53.4282807 C5.61617684,56.8639589 11.0796298,56.8505141 11.2238794,53.4282807 C11.4805588,47.3708552 11.545259,41.3103271 11.5601082,35.2487647 C11.8189089,35.2653123 12.0777096,35.2653123 12.3365104,35.2508332 C12.3524202,41.3123955 12.4149991,47.3729237 12.6695572,53.4282807 C12.8148674,56.8505141 18.2783204,56.8639589 18.1319495,53.4282807 C17.8042059,45.699556 17.7925387,37.9677286 17.7925387,30.2327986 C17.7925387,29.9928596 17.7596583,29.7746392 17.7098073,29.5646926 C17.7023827,26.2065809 17.570861,22.8453665 17.6111661,19.4893232 C19.2382165,22.175192 19.3867087,26.2717367 19.1045735,28.926579 C18.7842546,31.9123716 23.565704,31.8823792 23.8817803,28.926579 C24.6274234,21.9455952 21.9227437,12.7431073 13.5732384,12.1680811 Z" id="Path"></path>
                    </g>
                    <g id="standing-up-man--copy-20" transform="translate(80.000000, 72.000000)">
                        <circle id="Oval" cx="12" cy="5" r="5"></circle>
                        <path d="M13.5732384,12.1680811 C12.3821187,11.932279 11.0870544,11.9426212 9.91714786,12.2115183 C1.96963224,13.1195633 -0.610950377,22.0893518 0.117722149,28.9286474 C0.433798441,31.8854819 5.2141872,31.9165085 4.89492893,28.9286474 C4.62976425,26.4361777 4.74325473,22.6747202 6.10195853,20.001262 C6.10195853,23.2507806 6.10195853,26.5002993 6.10195853,29.7487838 C6.10195853,29.8635822 6.11362577,29.971141 6.11892906,30.0818025 C6.11574709,30.1345477 6.10301918,30.1790192 6.10301918,30.2327986 C6.10301918,37.9677286 6.08923062,45.699556 5.76148708,53.4282807 C5.61617684,56.8639589 11.0796298,56.8505141 11.2238794,53.4282807 C11.4805588,47.3708552 11.545259,41.3103271 11.5601082,35.2487647 C11.8189089,35.2653123 12.0777096,35.2653123 12.3365104,35.2508332 C12.3524202,41.3123955 12.4149991,47.3729237 12.6695572,53.4282807 C12.8148674,56.8505141 18.2783204,56.8639589 18.1319495,53.4282807 C17.8042059,45.699556 17.7925387,37.9677286 17.7925387,30.2327986 C17.7925387,29.9928596 17.7596583,29.7746392 17.7098073,29.5646926 C17.7023827,26.2065809 17.570861,22.8453665 17.6111661,19.4893232 C19.2382165,22.175192 19.3867087,26.2717367 19.1045735,28.926579 C18.7842546,31.9123716 23.565704,31.8823792 23.8817803,28.926579 C24.6274234,21.9455952 21.9227437,12.7431073 13.5732384,12.1680811 Z" id="Path"></path>
                    </g>
                    <g id="standing-up-man--copy-14" transform="translate(120.000000, 0.000000)">
                        <circle id="Oval" cx="12" cy="5" r="5"></circle>
                        <path d="M13.5732384,12.1680811 C12.3821187,11.932279 11.0870544,11.9426212 9.91714786,12.2115183 C1.96963224,13.1195633 -0.610950377,22.0893518 0.117722149,28.9286474 C0.433798441,31.8854819 5.2141872,31.9165085 4.89492893,28.9286474 C4.62976425,26.4361777 4.74325473,22.6747202 6.10195853,20.001262 C6.10195853,23.2507806 6.10195853,26.5002993 6.10195853,29.7487838 C6.10195853,29.8635822 6.11362577,29.971141 6.11892906,30.0818025 C6.11574709,30.1345477 6.10301918,30.1790192 6.10301918,30.2327986 C6.10301918,37.9677286 6.08923062,45.699556 5.76148708,53.4282807 C5.61617684,56.8639589 11.0796298,56.8505141 11.2238794,53.4282807 C11.4805588,47.3708552 11.545259,41.3103271 11.5601082,35.2487647 C11.8189089,35.2653123 12.0777096,35.2653123 12.3365104,35.2508332 C12.3524202,41.3123955 12.4149991,47.3729237 12.6695572,53.4282807 C12.8148674,56.8505141 18.2783204,56.8639589 18.1319495,53.4282807 C17.8042059,45.699556 17.7925387,37.9677286 17.7925387,30.2327986 C17.7925387,29.9928596 17.7596583,29.7746392 17.7098073,29.5646926 C17.7023827,26.2065809 17.570861,22.8453665 17.6111661,19.4893232 C19.2382165,22.175192 19.3867087,26.2717367 19.1045735,28.926579 C18.7842546,31.9123716 23.565704,31.8823792 23.8817803,28.926579 C24.6274234,21.9455952 21.9227437,12.7431073 13.5732384,12.1680811 Z" id="Path"></path>
                    </g>
                    <g id="standing-up-man--copy-21" transform="translate(120.000000, 72.000000)">
                        <circle id="Oval" cx="12" cy="5" r="5"></circle>
                        <path d="M13.5732384,12.1680811 C12.3821187,11.932279 11.0870544,11.9426212 9.91714786,12.2115183 C1.96963224,13.1195633 -0.610950377,22.0893518 0.117722149,28.9286474 C0.433798441,31.8854819 5.2141872,31.9165085 4.89492893,28.9286474 C4.62976425,26.4361777 4.74325473,22.6747202 6.10195853,20.001262 C6.10195853,23.2507806 6.10195853,26.5002993 6.10195853,29.7487838 C6.10195853,29.8635822 6.11362577,29.971141 6.11892906,30.0818025 C6.11574709,30.1345477 6.10301918,30.1790192 6.10301918,30.2327986 C6.10301918,37.9677286 6.08923062,45.699556 5.76148708,53.4282807 C5.61617684,56.8639589 11.0796298,56.8505141 11.2238794,53.4282807 C11.4805588,47.3708552 11.545259,41.3103271 11.5601082,35.2487647 C11.8189089,35.2653123 12.0777096,35.2653123 12.3365104,35.2508332 C12.3524202,41.3123955 12.4149991,47.3729237 12.6695572,53.4282807 C12.8148674,56.8505141 18.2783204,56.8639589 18.1319495,53.4282807 C17.8042059,45.699556 17.7925387,37.9677286 17.7925387,30.2327986 C17.7925387,29.9928596 17.7596583,29.7746392 17.7098073,29.5646926 C17.7023827,26.2065809 17.570861,22.8453665 17.6111661,19.4893232 C19.2382165,22.175192 19.3867087,26.2717367 19.1045735,28.926579 C18.7842546,31.9123716 23.565704,31.8823792 23.8817803,28.926579 C24.6274234,21.9455952 21.9227437,12.7431073 13.5732384,12.1680811 Z" id="Path"></path>
                    </g>
                    <g id="standing-up-man--copy-15" transform="translate(160.000000, 0.000000)">
                        <circle id="Oval" cx="12" cy="5" r="5"></circle>
                        <path d="M13.5732384,12.1680811 C12.3821187,11.932279 11.0870544,11.9426212 9.91714786,12.2115183 C1.96963224,13.1195633 -0.610950377,22.0893518 0.117722149,28.9286474 C0.433798441,31.8854819 5.2141872,31.9165085 4.89492893,28.9286474 C4.62976425,26.4361777 4.74325473,22.6747202 6.10195853,20.001262 C6.10195853,23.2507806 6.10195853,26.5002993 6.10195853,29.7487838 C6.10195853,29.8635822 6.11362577,29.971141 6.11892906,30.0818025 C6.11574709,30.1345477 6.10301918,30.1790192 6.10301918,30.2327986 C6.10301918,37.9677286 6.08923062,45.699556 5.76148708,53.4282807 C5.61617684,56.8639589 11.0796298,56.8505141 11.2238794,53.4282807 C11.4805588,47.3708552 11.545259,41.3103271 11.5601082,35.2487647 C11.8189089,35.2653123 12.0777096,35.2653123 12.3365104,35.2508332 C12.3524202,41.3123955 12.4149991,47.3729237 12.6695572,53.4282807 C12.8148674,56.8505141 18.2783204,56.8639589 18.1319495,53.4282807 C17.8042059,45.699556 17.7925387,37.9677286 17.7925387,30.2327986 C17.7925387,29.9928596 17.7596583,29.7746392 17.7098073,29.5646926 C17.7023827,26.2065809 17.570861,22.8453665 17.6111661,19.4893232 C19.2382165,22.175192 19.3867087,26.2717367 19.1045735,28.926579 C18.7842546,31.9123716 23.565704,31.8823792 23.8817803,28.926579 C24.6274234,21.9455952 21.9227437,12.7431073 13.5732384,12.1680811 Z" id="Path"></path>
                    </g>
                    <g id="standing-up-man--copy-22" transform="translate(160.000000, 72.000000)">
                        <circle id="Oval" cx="12" cy="5" r="5"></circle>
                        <path d="M13.5732384,12.1680811 C12.3821187,11.932279 11.0870544,11.9426212 9.91714786,12.2115183 C1.96963224,13.1195633 -0.610950377,22.0893518 0.117722149,28.9286474 C0.433798441,31.8854819 5.2141872,31.9165085 4.89492893,28.9286474 C4.62976425,26.4361777 4.74325473,22.6747202 6.10195853,20.001262 C6.10195853,23.2507806 6.10195853,26.5002993 6.10195853,29.7487838 C6.10195853,29.8635822 6.11362577,29.971141 6.11892906,30.0818025 C6.11574709,30.1345477 6.10301918,30.1790192 6.10301918,30.2327986 C6.10301918,37.9677286 6.08923062,45.699556 5.76148708,53.4282807 C5.61617684,56.8639589 11.0796298,56.8505141 11.2238794,53.4282807 C11.4805588,47.3708552 11.545259,41.3103271 11.5601082,35.2487647 C11.8189089,35.2653123 12.0777096,35.2653123 12.3365104,35.2508332 C12.3524202,41.3123955 12.4149991,47.3729237 12.6695572,53.4282807 C12.8148674,56.8505141 18.2783204,56.8639589 18.1319495,53.4282807 C17.8042059,45.699556 17.7925387,37.9677286 17.7925387,30.2327986 C17.7925387,29.9928596 17.7596583,29.7746392 17.7098073,29.5646926 C17.7023827,26.2065809 17.570861,22.8453665 17.6111661,19.4893232 C19.2382165,22.175192 19.3867087,26.2717367 19.1045735,28.926579 C18.7842546,31.9123716 23.565704,31.8823792 23.8817803,28.926579 C24.6274234,21.9455952 21.9227437,12.7431073 13.5732384,12.1680811 Z" id="Path"></path>
                    </g>
                    <g id="standing-up-man--copy-16" transform="translate(200.000000, 0.000000)">
                        <circle id="Oval" cx="12" cy="5" r="5"></circle>
                        <path d="M13.5732384,12.1680811 C12.3821187,11.932279 11.0870544,11.9426212 9.91714786,12.2115183 C1.96963224,13.1195633 -0.610950377,22.0893518 0.117722149,28.9286474 C0.433798441,31.8854819 5.2141872,31.9165085 4.89492893,28.9286474 C4.62976425,26.4361777 4.74325473,22.6747202 6.10195853,20.001262 C6.10195853,23.2507806 6.10195853,26.5002993 6.10195853,29.7487838 C6.10195853,29.8635822 6.11362577,29.971141 6.11892906,30.0818025 C6.11574709,30.1345477 6.10301918,30.1790192 6.10301918,30.2327986 C6.10301918,37.9677286 6.08923062,45.699556 5.76148708,53.4282807 C5.61617684,56.8639589 11.0796298,56.8505141 11.2238794,53.4282807 C11.4805588,47.3708552 11.545259,41.3103271 11.5601082,35.2487647 C11.8189089,35.2653123 12.0777096,35.2653123 12.3365104,35.2508332 C12.3524202,41.3123955 12.4149991,47.3729237 12.6695572,53.4282807 C12.8148674,56.8505141 18.2783204,56.8639589 18.1319495,53.4282807 C17.8042059,45.699556 17.7925387,37.9677286 17.7925387,30.2327986 C17.7925387,29.9928596 17.7596583,29.7746392 17.7098073,29.5646926 C17.7023827,26.2065809 17.570861,22.8453665 17.6111661,19.4893232 C19.2382165,22.175192 19.3867087,26.2717367 19.1045735,28.926579 C18.7842546,31.9123716 23.565704,31.8823792 23.8817803,28.926579 C24.6274234,21.9455952 21.9227437,12.7431073 13.5732384,12.1680811 Z" id="Path"></path>
                    </g>
                    <g id="standing-up-man--copy-17" transform="translate(240.000000, 0.000000)">
                        <circle id="Oval" cx="12" cy="5" r="5"></circle>
                        <path d="M13.5732384,12.1680811 C12.3821187,11.932279 11.0870544,11.9426212 9.91714786,12.2115183 C1.96963224,13.1195633 -0.610950377,22.0893518 0.117722149,28.9286474 C0.433798441,31.8854819 5.2141872,31.9165085 4.89492893,28.9286474 C4.62976425,26.4361777 4.74325473,22.6747202 6.10195853,20.001262 C6.10195853,23.2507806 6.10195853,26.5002993 6.10195853,29.7487838 C6.10195853,29.8635822 6.11362577,29.971141 6.11892906,30.0818025 C6.11574709,30.1345477 6.10301918,30.1790192 6.10301918,30.2327986 C6.10301918,37.9677286 6.08923062,45.699556 5.76148708,53.4282807 C5.61617684,56.8639589 11.0796298,56.8505141 11.2238794,53.4282807 C11.4805588,47.3708552 11.545259,41.3103271 11.5601082,35.2487647 C11.8189089,35.2653123 12.0777096,35.2653123 12.3365104,35.2508332 C12.3524202,41.3123955 12.4149991,47.3729237 12.6695572,53.4282807 C12.8148674,56.8505141 18.2783204,56.8639589 18.1319495,53.4282807 C17.8042059,45.699556 17.7925387,37.9677286 17.7925387,30.2327986 C17.7925387,29.9928596 17.7596583,29.7746392 17.7098073,29.5646926 C17.7023827,26.2065809 17.570861,22.8453665 17.6111661,19.4893232 C19.2382165,22.175192 19.3867087,26.2717367 19.1045735,28.926579 C18.7842546,31.9123716 23.565704,31.8823792 23.8817803,28.926579 C24.6274234,21.9455952 21.9227437,12.7431073 13.5732384,12.1680811 Z" id="Path"></path>
                    </g>
                </g>
            </g>
        </g>
    </g>
</svg>
