<?xml version="1.0" encoding="UTF-8"?>
<svg width="376px" height="376px" viewBox="0 0 376 376" version="1.1" xmlns="http://www.w3.org/2000/svg" xmlns:xlink="http://www.w3.org/1999/xlink">
    <!-- Generator: Sketch 52.6 (67491) - http://www.bohemiancoding.com/sketch -->
    <title>Group 6 Copy 35</title>
    <desc>Created with Sketch.</desc>
    <g id="Data-viz-vocabulary" stroke="none" stroke-width="1" fill="none" fill-rule="evenodd">
        <g id="Details-large-2" transform="translate(-932.000000, -1336.000000)">
            <g id="Group-6-Copy-35" transform="translate(932.000000, 1336.000000)">
                <rect id="Rectangle-Copy-3" fill="#001521" x="0" y="0" width="376" height="376"></rect>
                <g id="Group-74" transform="translate(52.000000, 91.000000)">
                    <g id="Group-64">
                        <path d="M0,43.125 L6.47619048,47.4375 L10.7936508,56.0625 L21.5873016,47.4375 L30.2222222,51.75 L36.6984127,47.4375 L49.6507937,47.4375 L56.1269841,51.75 L62.6031746,47.4375 L73.3968254,47.4375 L82.031746,43.125 L90.6666667,47.4375 L99.3015873,38.8125 L116.571429,38.8125 L131.68254,56.0625 L142.47619,47.4375 L151.111111,38.8125 L155.428571,30.1875 L168.380952,30.1875 L177.015873,38.8125 L185.650794,47.4375 L194.285714,38.8125 L202.920635,30.1875 L211.555556,30.1875 L228.825397,21.5625 L246.095238,21.5625 L254.730159,21.5625 L263.365079,12.9375 L272,2.15625 L272,69 C90.6666667,69 0,69 0,69 C0,69 0,60.375 0,43.125 Z" id="Path-9" fill-opacity="0.2" fill="#009FE3"></path>
                        <polyline id="Path-9" stroke-opacity="0.8" stroke="#009FE3" points="0 43.125 6.47619048 47.4375 10.7936508 56.0625 21.5873016 47.4375 30.2222222 51.75 36.6984127 47.4375 49.6507937 47.4375 56.1269841 51.75 62.6031746 47.4375 73.3968254 47.4375 82.031746 43.125 90.6666667 47.4375 99.3015873 38.8125 116.571429 38.8125 131.68254 56.0625 142.47619 47.4375 151.111111 38.8125 155.428571 30.1875 168.380952 30.1875 177.015873 38.8125 185.650794 47.4375 194.285714 38.8125 202.920635 30.1875 211.555556 30.1875 228.825397 21.5625 246.095238 21.5625 254.730159 21.5625 263.365079 12.9375 272 2.15625"></polyline>
                        <circle id="Oval" fill="#94D457" cx="271.453125" cy="3" r="3"></circle>
                        <circle id="Oval-Copy-300" fill="#DB504A" cx="131.296875" cy="55.75" r="3"></circle>
                    </g>
                    <g id="Group-64-Copy" transform="translate(0.000000, 91.000000)">
                        <polygon id="Path-9" fill-opacity="0.2" fill="#009FE3" points="0 4.25 6.92733135 4.25 12.952381 10.625 21.5873016 8.5 30.2222222 9.5625 38.8571429 6.375 49.6507937 10.625 56.1269841 8.5 62.6031746 8.5 73.3968254 6.375 82.031746 6.375 90.6666667 8.5 99.3015873 6.375 116.571429 6.375 129.52381 11.6875 140.31746 14.875 151.111111 19.125 159.746032 24.375 170.539683 14.875 177.015873 8.5 185.650794 10.625 194.285714 10.625 202.920635 2.125 209.396825 8.5 228.825397 8.5 243.936508 10.625 254.730159 17 263.365079 23.375 272 23.375 272 34 0 34"></polygon>
                        <polyline id="Path-9" stroke-opacity="0.8" stroke="#009FE3" points="0 4.25 6.92733135 4.25 12.952381 10.625 21.5873016 8.5 30.2222222 9.5625 38.8571429 6.375 49.6507937 10.625 56.1269841 8.5 62.6031746 8.5 73.3968254 6.375 82.031746 6.375 90.6666667 8.5 99.3015873 6.375 116.571429 6.375 129.52381 11.6875 140.31746 14.875 151.111111 19.125 159.746032 24.375 170.539683 14.875 177.015873 8.5 185.650794 10.625 194.285714 10.625 202.920635 2.125 209.396825 8.5 228.825397 8.5 243.936508 10.625 254.730159 17 263.365079 23.375 272 23.375"></polyline>
                        <ellipse id="Oval" fill="#DB504A" cx="159.507937" cy="24.078125" rx="3" ry="2.953125"></ellipse>
                        <ellipse id="Oval-Copy-301" fill="#94D457" cx="202.68254" cy="2.953125" rx="3" ry="2.953125"></ellipse>
                    </g>
                    <g id="Group-64-Copy-2" transform="translate(0.000000, 145.000000)">
                        <path d="M0,41.1666667 L8.63492063,32.5 L17.2698413,41.1666667 L25.9047619,23.8333333 L34.5396825,23.8333333 L43.1746032,32.5 L51.8095238,23.8333333 L60.4444444,23.8333333 L69.0793651,39 L77.7142857,23.8333333 L86.3492063,43.3333333 L94.984127,23.8333333 L103.619048,23.8333333 L112.253968,36.8333333 L120.888889,23.8333333 L129.52381,15.1666667 L138.15873,23.8333333 L146.793651,15.1666667 L155.428571,15.1666667 L172.698413,15.1666667 L189.968254,15.1666667 L198.603175,32.5 L215.873016,23.8333333 L233.142857,15.1666667 L246.095238,8.66666667 L261.206349,6.5 L272,2.16666667 C272,35.3888889 272,52 272,52 C272,52 181.333333,52 0,52 L0,41.1666667 Z" id="Path-10" fill-opacity="0.2" fill="#009FE3"></path>
                        <polyline id="Path-10" stroke="#009FE3" points="0 41.1666667 8.63492063 32.5 17.2698413 41.1666667 25.9047619 23.8333333 34.5396825 23.8333333 43.1746032 32.5 51.8095238 23.8333333 60.4444444 23.8333333 69.0793651 39 77.7142857 23.8333333 86.3492063 43.3333333 94.984127 23.8333333 103.619048 23.8333333 112.253968 36.8333333 120.888889 23.8333333 129.52381 15.1666667 138.15873 23.8333333 146.793651 15.1666667 155.428571 15.1666667 172.698413 15.1666667 189.968254 15.1666667 198.603175 32.5 215.873016 23.8333333 233.142857 15.1666667 246.095238 8.66666667 259.047619 6.5 272 2.16666667"></polyline>
                        <ellipse id="Oval" fill="#94D457" cx="270.527559" cy="3.01277372" rx="3" ry="3.01277372"></ellipse>
                        <ellipse id="Oval-Copy-302" fill="#DB504A" cx="86.0629921" cy="44.1794404" rx="3" ry="3.01277372"></ellipse>
                    </g>
                </g>
            </g>
        </g>
    </g>
</svg>
