<?xml version="1.0" encoding="UTF-8"?>
<svg width="376px" height="376px" viewBox="0 0 376 376" version="1.1" xmlns="http://www.w3.org/2000/svg" xmlns:xlink="http://www.w3.org/1999/xlink">
    <!-- Generator: Sketch 52.6 (67491) - http://www.bohemiancoding.com/sketch -->
    <title>Group 6 Copy 25</title>
    <desc>Created with Sketch.</desc>
    <g id="Data-viz-vocabulary" stroke="none" stroke-width="1" fill="none" fill-rule="evenodd" transform="rotate(90 188 188)">
        <g id="Details-large-2" transform="translate(-532.000000, -134.000000)">
            <g id="Group-6-Copy-25" transform="translate(532.000000, 134.000000)">
                <rect id="Rectangle-Copy-3" fill="#001521" x="0" y="0" width="376" height="376"></rect>
                <g id="Group-11" transform="translate(54.000000, 90.000000)">
                    <rect id="Rectangle" fill="#358EAD" x="0" y="85" width="43" height="43"></rect>
                    <rect id="Rectangle-Copy-215" fill="#358EAD" x="75" y="51" width="43" height="43"></rect>
                    <rect id="Rectangle-Copy-230" fill="#358EAD" x="150" y="85" width="43" height="43"></rect>
                    <rect id="Rectangle-Copy-232" fill="#358EAD" x="225" y="47" width="43" height="60"></rect>
                    <rect id="Rectangle" fill="#7EC1CA" x="0" y="17" width="43" height="68"></rect>
                    <rect id="Rectangle-Copy-229" fill="#7EC1CA" x="75" y="0" width="43" height="51"></rect>
                    <rect id="Rectangle-Copy-231" fill="#7EC1CA" x="150" y="34" width="43" height="51"></rect>
                    <rect id="Rectangle-Copy-233" fill="#7EC1CA" x="225" y="21" width="43" height="26"></rect>
                    <rect id="Rectangle" fill="#2C5985" x="0" y="128" width="43" height="68"></rect>
                    <rect id="Rectangle-Copy-47" fill="#2C5985" x="75" y="94" width="43" height="102"></rect>
                    <rect id="Rectangle-Copy-54" fill="#2C5985" x="150" y="128" width="43" height="68"></rect>
                    <rect id="Rectangle-Copy-55" fill="#2C5985" x="225" y="107" width="43" height="89"></rect>
                </g>
            </g>
        </g>
    </g>
</svg>
