<?xml version="1.0" encoding="UTF-8"?>
<svg width="376px" height="376px" viewBox="0 0 376 376" version="1.1" xmlns="http://www.w3.org/2000/svg" xmlns:xlink="http://www.w3.org/1999/xlink">
    <!-- Generator: Sketch 52.6 (67491) - http://www.bohemiancoding.com/sketch -->
    <title>Group 6 Copy 6</title>
    <desc>Created with Sketch.</desc>
    <g id="Data-viz-vocabulary" stroke="none" stroke-width="1" fill="none" fill-rule="evenodd">
        <g id="Details-large-1" transform="translate(-932.000000, -134.000000)">
            <g id="Group-6-Copy-6" transform="translate(932.000000, 134.000000)">
                <rect id="Rectangle-Copy-3" fill="#001521" x="0" y="0" width="376" height="376"></rect>
                <g id="Group-4" transform="translate(51.000000, 90.000000)">
                    <polygon id="Path-2" fill="#009FE3" points="0 102.477157 8.57142857 25.6192893 23.5714286 0 30 102.477157"></polygon>
                    <polygon id="Path-2-Copy-2" fill="#009FE3" points="109 102.477157 115.5 78.5989848 122 102.477157"></polygon>
                    <polygon id="Path-2-Copy-5" fill="#009FE3" points="225 102.477157 227 78.5989848 231 102.477157"></polygon>
                    <polygon id="Path-2-Copy-4" fill="#009FE3" points="205 102.477157 211 77.0071066 215.5 70.6395939 220 102.477157"></polygon>
                    <polygon id="Path-2-Copy-6" fill="#009FE3" points="237 102.477157 243.6 68.6497462 245.8 79.2208122 248 102.477157"></polygon>
                    <polygon id="Path-2-Copy" fill="#009FE3" points="38 102.477157 44.4285714 51.3096447 59.4285714 42.7817259 68 60.9035533 76.5714286 60.9035533 85.1428571 51.3096447 98 102.477157"></polygon>
                    <polygon id="Path-2-Copy-3" fill="#009FE3" points="130 102.477157 134.296296 51.4043993 138.592593 25.8680203 145.037037 51.4043993 157.925926 64.1725888 172.962963 38.6362098 188 102.477157"></polygon>
                    <polygon id="Path-3" fill="#7EC1CA" points="30 102.477157 32.25 132.324873 34.5 121.664975 39 102.477157"></polygon>
                    <polygon id="Path-4" fill="#7EC1CA" points="98 102.477157 100.2 175.106599 104.6 145.200358 106.8 151.608838 109 102.477157"></polygon>
                    <polygon id="Path-4-Copy" fill="#7EC1CA" points="122 102.477157 124.25 145.258883 126.5 143.119797 131 102.477157"></polygon>
                    <polygon id="Path-5" fill="#7EC1CA" points="188 102.477157 190.125 130.285279 196.5 132.424365 200.75 145.258883 205 102.477157"></polygon>
                    <polygon id="Path-6" fill="#7EC1CA" points="221 102.477157 223 128.345178 225 102.477157"></polygon>
                    <polygon id="Path-6-Copy-2" fill="#7EC1CA" points="231 102.477157 233 128.345178 235 126.189509 237 102.477157"></polygon>
                    <polygon id="Path-6-Copy" fill="#7EC1CA" points="248 102.477157 252.333333 159.866174 256.666667 164.117213 267.5 196 274 102.477157"></polygon>
                </g>
            </g>
        </g>
    </g>
</svg>
