<svg width="32" height="32" viewBox="0 0 32 32" fill="none" xmlns="http://www.w3.org/2000/svg">
<path d="M2 2H4V28H30V30H2V2Z" fill="white" />
<path d="M27.8682 5.49619C28.1422 5.01667 27.9756 4.40582 27.4961 4.13181C27.0166 3.8578 26.4058 4.02439 26.1317 4.50391L22.3435 11.1334L18.7575 12.0299C18.493 12.096 18.267 12.2672 18.1317 12.5039L14.6011 18.6826L11.4472 17.1056C10.9725 16.8683 10.3951 17.0431 10.1317 17.5039L6.14482 24.481L6.14272 24.4845L6.13165 24.5039C6.09457 24.5688 6.06555 24.6361 6.04429 24.7046C6.03819 24.7244 6.03272 24.7444 6.02787 24.7645C6.00441 24.8611 5.99589 24.9595 6.00146 25.0565C6.00275 25.0793 6.00481 25.1021 6.00765 25.1248C6.02658 25.2744 6.07912 25.4189 6.16201 25.5462C6.1678 25.5551 6.17375 25.5639 6.17986 25.5726C6.23492 25.6516 6.30203 25.7235 6.38036 25.7851L6.39123 25.7936C6.42654 25.8206 6.46408 25.8456 6.50375 25.8683L6.5216 25.8782C6.57694 25.9084 6.63393 25.9328 6.69187 25.9516C6.833 25.9975 6.97975 26.0102 7.1219 25.9927C7.14889 25.9893 7.17571 25.9849 7.20229 25.9794C7.26157 25.9671 7.31968 25.9496 7.37585 25.9268C7.57667 25.8456 7.75266 25.6988 7.86848 25.4962L7.87875 25.4782L7.8824 25.4714L11.3989 19.3175L14.5528 20.8945C15.0275 21.1318 15.6049 20.957 15.8682 20.4962L19.6565 13.8667L23.2425 12.9702C23.507 12.9041 23.733 12.7329 23.8682 12.4962L27.8682 5.49619Z" fill="white" />
<path d="M10.0765 16.8178C9.92704 16.9345 9.79747 17.0815 9.69787 17.2558L6.51141 22.8321L10.0301 8.75746C10.164 8.22166 10.707 7.8959 11.2427 8.02985L15.2427 9.02985C15.4841 9.09018 15.6943 9.23831 15.8323 9.44529L17.7016 12.2493L17.6979 12.2558L16.5922 14.1907L14.3826 10.8764L11.7278 10.2127L10.0765 16.8178Z" fill="white" />
<path d="M19.585 15L18.5142 16.8739C18.6607 16.9554 18.8275 17 19.0002 17H23.0002C23.2166 17 23.4271 16.9298 23.6002 16.8L27.6002 13.8C28.042 13.4686 28.1316 12.8418 27.8002 12.4C27.4688 11.9582 26.842 11.8686 26.4002 12.2L22.6669 15H19.585Z" fill="white" />
<path d="M11.5061 20.1375L9.14543 24.2687L11.0937 22.3204L14.3999 24.8C14.7554 25.0667 15.2443 25.0667 15.5999 24.8L19.4383 21.9212L22.7807 21.0856L26.3999 23.8C26.8417 24.1314 27.4685 24.0418 27.7999 23.6C28.1312 23.1582 28.0417 22.5314 27.5999 22.2L23.5999 19.2C23.359 19.0193 23.0495 18.9568 22.7573 19.0299L18.7573 20.0299C18.628 20.0622 18.5065 20.12 18.3999 20.2L14.9999 22.75L11.5999 20.2C11.5695 20.1772 11.5382 20.1564 11.5061 20.1375Z" fill="white" />
</svg>
