<svg width="321" height="353" viewBox="0 0 321 353" fill="none" xmlns="http://www.w3.org/2000/svg">
<path fill-rule="evenodd" clip-rule="evenodd" d="M157.943 304.339C198.027 304.339 221.862 277.534 221.862 247.43C221.862 231.759 219.388 204.542 167.015 120.828C156.293 125.777 151.345 126.189 139.798 125.364C104.333 216.501 100.209 228.46 100.209 247.43C100.209 268.197 117.858 304.339 157.943 304.339Z" fill="url(#paint0_linear_19064_124159)"/>
<path d="M170.211 141.216L173.82 152.118M177.428 163.02L181.036 173.923L184.645 184.825M195.47 217.532L199.078 228.435L202.686 239.337L206.295 250.239" stroke="#141721" stroke-width="4" stroke-linecap="round"/>
<path d="M160.829 130.313L162.942 141.628M165.056 152.943L167.169 164.257M171.396 186.887L173.51 198.201L175.623 209.516L177.737 220.831L179.85 232.146M184.077 254.775L186.191 266.09" stroke="#141721" stroke-width="4" stroke-linecap="round"/>
<path d="M156.912 164.257L157.53 175.572L158.149 186.887M158.768 198.201L159.386 209.516M160.005 220.831L160.623 232.146L161.242 243.461" stroke="#141721" stroke-width="4" stroke-linecap="round"/>
<path d="M148.406 141.422L147.53 152.531M145.777 174.747L144.901 185.856M141.395 230.29L140.52 241.399L139.643 252.507L138.767 263.616" stroke="#141721" stroke-width="4" stroke-linecap="round"/>
<path d="M143.509 130.313L141.344 141.061M139.179 151.808L137.014 162.557M130.519 194.8L128.354 205.547M126.189 216.295L124.024 227.043L121.859 237.79M117.529 259.286L115.364 270.033" stroke="#141721" stroke-width="4" stroke-linecap="round"/>
<path d="M229.191 265.65V249.06L278.058 171.852H291.892V195.47H283.457L250.56 247.599V248.498H318.772V265.65H229.191ZM284.132 287.019V260.589L284.357 253.166V171.852H304.039V287.019H284.132Z" fill="lightgrey"/>
<path d="M1.55582 265.65V249.06L50.4232 171.852H64.2568V195.47H55.8217L22.9248 247.599V248.498H91.1367V265.65H1.55582ZM56.4965 287.019V260.589L56.7214 253.166V171.852H76.4034V287.019H56.4965Z" fill="lightgrey"/>
<path d="M234.234 37.9393H184.748C182.926 37.9393 181.449 39.4163 181.449 41.2383C181.449 43.0603 182.926 44.5374 184.748 44.5374H234.234C236.056 44.5374 237.533 43.0603 237.533 41.2383C237.533 39.4163 236.056 37.9393 234.234 37.9393Z" fill="#373A44"/>
<path fill-rule="evenodd" clip-rule="evenodd" d="M270.523 44.5374C268.701 44.5374 267.224 46.0145 267.224 47.8364C267.224 49.6584 268.701 51.1355 270.523 51.1355H207.841C209.663 51.1355 211.14 49.6584 211.14 47.8364C211.14 46.0145 209.663 44.5374 207.841 44.5374H270.523Z" fill="#373A44"/>
<path fill-rule="evenodd" clip-rule="evenodd" d="M235.058 31.3411C233.236 31.3411 231.759 32.8182 231.759 34.6401C231.759 36.4069 233.148 37.8492 234.893 37.935L235.058 37.9391H211.965C213.787 37.9391 215.264 36.462 215.264 34.6401C215.264 32.8182 213.787 31.3411 211.965 31.3411H235.058Z" fill="#373A44"/>
<path fill-rule="evenodd" clip-rule="evenodd" d="M240.832 37.9393H273.822C275.644 37.9393 277.121 39.4163 277.121 41.2383C277.121 43.0603 275.644 44.5374 273.822 44.5374H240.832C239.01 44.5374 237.533 43.0603 237.533 41.2383C237.533 39.4163 239.01 37.9393 240.832 37.9393Z" fill="#373A44"/>
<path fill-rule="evenodd" clip-rule="evenodd" d="M211.14 24.743H254.028C255.85 24.743 257.327 26.2201 257.327 28.0421C257.327 29.8641 255.85 31.3411 254.028 31.3411H211.14C209.318 31.3411 207.841 29.8641 207.841 28.0421C207.841 26.2201 209.318 24.743 211.14 24.743Z" fill="#373A44"/>
<path fill-rule="evenodd" clip-rule="evenodd" d="M240.832 51.1355H283.72C285.542 51.1355 287.019 52.6126 287.019 54.4346C287.019 56.2566 285.542 57.7336 283.72 57.7336H240.832C239.01 57.7336 237.533 56.2566 237.533 54.4346C237.533 52.6126 239.01 51.1355 240.832 51.1355Z" fill="#373A44"/>
<path d="M224.336 51.1355H197.944C196.122 51.1355 194.645 52.6125 194.645 54.4345C194.645 56.2564 196.122 57.7335 197.944 57.7335H224.336C226.157 57.7335 227.635 56.2564 227.635 54.4345C227.635 52.6125 226.157 51.1355 224.336 51.1355Z" fill="#373A44"/>
<path d="M230.934 67.6308H204.542C202.72 67.6308 201.243 69.1079 201.243 70.9298C201.243 72.7518 202.72 74.2288 204.542 74.2288H230.934C232.756 74.2288 234.233 72.7518 234.233 70.9298C234.233 69.1079 232.756 67.6308 230.934 67.6308Z" fill="#373A44"/>
<path d="M122.065 31.3411H95.6728C93.8509 31.3411 92.3738 32.8182 92.3738 34.6401C92.3738 36.462 93.8509 37.9391 95.6728 37.9391H122.065C123.886 37.9391 125.364 36.462 125.364 34.6401C125.364 32.8182 123.886 31.3411 122.065 31.3411Z" fill="#373A44"/>
<path d="M86.5996 74.229H60.2078C58.3859 74.229 56.9089 75.706 56.9089 77.5279C56.9089 79.3499 58.3859 80.8269 60.2078 80.8269H86.5996C88.4214 80.8269 89.8986 79.3499 89.8986 77.5279C89.8986 75.706 88.4214 74.229 86.5996 74.229Z" fill="#373A44"/>
<path d="M118.766 52.785H108.869C107.047 52.785 105.57 54.2621 105.57 56.084C105.57 57.906 107.047 59.383 108.869 59.383H118.766C120.588 59.383 122.065 57.906 122.065 56.084C122.065 54.2621 120.588 52.785 118.766 52.785Z" fill="#373A44"/>
<path d="M300.215 28.0421H290.318C288.496 28.0421 287.019 29.5191 287.019 31.341C287.019 33.163 288.496 34.64 290.318 34.64H300.215C302.036 34.64 303.514 33.163 303.514 31.341C303.514 29.5191 302.036 28.0421 300.215 28.0421Z" fill="#373A44"/>
<path d="M263.925 107.22H254.028C252.206 107.22 250.729 108.697 250.729 110.519C250.729 112.34 252.206 113.818 254.028 113.818H263.925C265.747 113.818 267.224 112.34 267.224 110.519C267.224 108.697 265.747 107.22 263.925 107.22Z" fill="#373A44"/>
<path d="M197.944 110.519H188.047C186.225 110.519 184.748 111.996 184.748 113.818C184.748 115.64 186.225 117.117 188.047 117.117H197.944C199.765 117.117 201.242 115.64 201.242 113.818C201.242 111.996 199.765 110.519 197.944 110.519Z" fill="#373A44"/>
<path d="M247.429 90.7243H221.037C219.215 90.7243 217.738 92.2014 217.738 94.0233C217.738 95.8451 219.215 97.3222 221.037 97.3222H247.429C249.251 97.3222 250.728 95.8451 250.728 94.0233C250.728 92.2014 249.251 90.7243 247.429 90.7243Z" fill="#373A44"/>
<path d="M273.822 8.24767H247.43C245.608 8.24767 244.131 9.7247 244.131 11.5466C244.131 13.3686 245.608 14.8456 247.43 14.8456H273.822C275.643 14.8456 277.121 13.3686 277.121 11.5466C277.121 9.7247 275.643 8.24767 273.822 8.24767Z" fill="#373A44"/>
<path d="M184.747 14.8458H158.355C156.533 14.8458 155.056 16.3228 155.056 18.1448C155.056 19.9667 156.533 21.4437 158.355 21.4437H184.747C186.569 21.4437 188.046 19.9667 188.046 18.1448C188.046 16.3228 186.569 14.8458 184.747 14.8458Z" fill="#373A44"/>
<path d="M300.214 67.6308H273.822C272 67.6308 270.523 69.1079 270.523 70.9298C270.523 72.7518 272 74.2288 273.822 74.2288H300.214C302.036 74.2288 303.513 72.7518 303.513 70.9298C303.513 69.1079 302.036 67.6308 300.214 67.6308Z" fill="#373A44"/>
<path d="M174.85 70.9299H148.458C146.636 70.9299 145.159 72.4069 145.159 74.2289C145.159 76.0508 146.636 77.5278 148.458 77.5278H174.85C176.671 77.5278 178.149 76.0508 178.149 74.2289C178.149 72.4069 176.671 70.9299 174.85 70.9299Z" fill="#373A44"/>
<path d="M211.14 0H204.542C202.72 0 201.243 1.477 201.243 3.29897C201.243 5.12094 202.72 6.59794 204.542 6.59794H211.14C212.962 6.59794 214.439 5.12094 214.439 3.29897C214.439 1.477 212.962 0 211.14 0Z" fill="#373A44"/>
<path d="M273.822 84.1262H270.523C268.701 84.1262 267.224 85.6033 267.224 87.4251C267.224 89.247 268.701 90.7241 270.523 90.7241H273.822C275.644 90.7241 277.121 89.247 277.121 87.4251C277.121 85.6033 275.644 84.1262 273.822 84.1262Z" fill="#373A44"/>
<path d="M151.757 44.5374H148.458C146.636 44.5374 145.159 46.0144 145.159 47.8364C145.159 49.6583 146.636 51.1353 148.458 51.1353H151.757C153.579 51.1353 155.056 49.6583 155.056 47.8364C155.056 46.0144 153.579 44.5374 151.757 44.5374Z" fill="#373A44"/>
<path d="M218.563 120.416H215.264C213.442 120.416 211.965 121.893 211.965 123.715C211.965 125.537 213.442 127.014 215.264 127.014H218.563C220.385 127.014 221.862 125.537 221.862 123.715C221.862 121.893 220.385 120.416 218.563 120.416Z" fill="#373A44"/>
<path opacity="0.1" d="M235.058 65.9813C247.813 65.9813 258.152 55.642 258.152 42.8878C258.152 30.1337 247.813 19.7944 235.058 19.7944C222.304 19.7944 211.965 30.1337 211.965 42.8878C211.965 55.642 222.304 65.9813 235.058 65.9813Z" fill="#D3D6D9"/>
<path opacity="0.1" d="M235.058 63.5071C246.446 63.5071 255.678 54.2756 255.678 42.8879C255.678 31.5003 246.446 22.2688 235.058 22.2688C223.671 22.2688 214.439 31.5003 214.439 42.8879C214.439 54.2756 223.671 63.5071 235.058 63.5071Z" fill="#D3D6D9"/>
<path d="M235.058 61.0329C245.079 61.0329 253.203 52.9091 253.203 42.888C253.203 32.8669 245.079 24.7432 235.058 24.7432C225.037 24.7432 216.914 32.8669 216.914 42.888C216.914 52.9091 225.037 61.0329 235.058 61.0329Z" fill="#E6E8EA"/>
<path d="M244.098 56.4171C244.985 55.8231 245.811 55.1442 246.563 54.3919M250.094 49.115C250.498 48.1416 250.81 47.1205 251.019 46.0625C251.222 45.0356 251.328 43.9739 251.328 42.8873C251.328 41.8008 251.222 40.7391 251.019 39.7122C250.81 38.6543 250.498 37.6331 250.094 36.6597C249.683 35.6693 249.177 34.7282 248.588 33.8479M246.563 31.3828C245.811 30.6306 244.985 29.9517 244.098 29.3577C243.218 28.7683 242.277 28.2626 241.286 27.8519" stroke="white" stroke-linecap="round"/>
<path d="M231.883 26.9273C230.826 27.1365 229.804 27.4485 228.831 27.8521" stroke="#D8DADD" stroke-linecap="round"/>
<path d="M221.528 51.9275C222.122 52.8147 222.801 53.6403 223.553 54.3925C224.305 55.1448 225.131 55.8237 226.018 56.4177" stroke="#D8DADD" stroke-linecap="round"/>
<path d="M240.832 37.9391C242.654 37.9391 244.131 36.462 244.131 34.6401C244.131 32.8182 242.654 31.3411 240.832 31.3411C239.01 31.3411 237.533 32.8182 237.533 34.6401C237.533 36.462 239.01 37.9391 240.832 37.9391Z" fill="black" fill-opacity="0.1"/>
<path d="M228.46 54.4345C229.372 54.4345 230.11 53.696 230.11 52.785C230.11 51.874 229.372 51.1355 228.46 51.1355C227.549 51.1355 226.811 51.874 226.811 52.785C226.811 53.696 227.549 54.4345 228.46 54.4345Z" fill="black" fill-opacity="0.1"/>
<path d="M225.161 39.5886C226.528 39.5886 227.635 38.4809 227.635 37.1144C227.635 35.7479 226.528 34.6402 225.161 34.6402C223.795 34.6402 222.687 35.7479 222.687 37.1144C222.687 38.4809 223.795 39.5886 225.161 39.5886Z" fill="black" fill-opacity="0.1"/>
<path d="M235.883 49.4858C237.705 49.4858 239.182 48.0088 239.182 46.1868C239.182 44.3649 237.705 42.8878 235.883 42.8878C234.061 42.8878 232.584 44.3649 232.584 46.1868C232.584 48.0088 234.061 49.4858 235.883 49.4858Z" fill="black" fill-opacity="0.1"/>
<path d="M245.78 51.1354C246.692 51.1354 247.43 50.397 247.43 49.4859C247.43 48.5749 246.692 47.8365 245.78 47.8365C244.869 47.8365 244.131 48.5749 244.131 49.4859C244.131 50.397 244.869 51.1354 245.78 51.1354Z" fill="black" fill-opacity="0.1"/>
<path d="M243.306 44.5373C244.217 44.5373 244.956 43.7988 244.956 42.8878C244.956 41.9768 244.217 41.2383 243.306 41.2383C242.395 41.2383 241.657 41.9768 241.657 42.8878C241.657 43.7988 242.395 44.5373 243.306 44.5373Z" fill="black" fill-opacity="0.1"/>
<mask id="mask0_19064_124159" style="mask-type:alpha" maskUnits="userSpaceOnUse" x="102" y="53" width="86" height="51">
<path d="M180.993 53.043L102.128 66.949L108.573 103.5L187.438 89.5935L180.993 53.043Z" fill="white"/>
</mask>
<g mask="url(#mask0_19064_124159)">
<path d="M154.079 125.625C170.285 122.768 181.115 107.36 178.267 91.2109C175.42 75.0615 159.973 64.2867 143.767 67.1444C127.56 70.0021 116.73 85.4103 119.577 101.559C122.425 117.708 137.871 128.483 154.079 125.625Z" fill="#D3D6D9"/>
<mask id="mask1_19064_124159" style="mask-type:alpha" maskUnits="userSpaceOnUse" x="121" y="69" width="55" height="55">
<path d="M153.595 122.884C168.283 120.295 178.097 106.33 175.517 91.6958C172.936 77.0605 158.937 67.2958 144.25 69.8857C129.562 72.4754 119.748 86.4387 122.328 101.074C124.909 115.709 138.907 125.474 153.595 122.884Z" fill="white"/>
</mask>
<g mask="url(#mask1_19064_124159)">
<path d="M153.595 122.884C168.283 120.295 178.097 106.33 175.517 91.6958C172.936 77.0605 158.937 67.2958 144.25 69.8857C129.562 72.4754 119.748 86.4387 122.328 101.074C124.909 115.709 138.907 125.474 153.595 122.884Z" fill="#232632"/>
</g>
</g>
<path d="M151.984 113.747C183.385 108.209 207.686 97.1756 206.263 89.1012C204.839 81.0264 178.229 78.9692 146.828 84.5056C115.427 90.043 91.126 101.077 92.5495 109.151C93.9731 117.227 120.582 119.283 151.984 113.747Z" fill="#D3D6D9"/>
<path d="M152.467 116.488C164.116 114.434 173.127 110.314 172.592 107.286C172.059 104.258 162.183 103.469 150.534 105.522C138.885 107.577 129.874 111.696 130.409 114.724C130.942 117.752 140.818 118.542 152.467 116.488Z" fill="#232632"/>
<path d="M152.789 118.315C160.892 116.887 167.173 114.091 166.816 112.073C166.461 110.054 159.603 109.576 151.5 111.005C143.397 112.434 137.117 115.229 137.472 117.247C137.828 119.266 144.686 119.744 152.789 118.315Z" fill="#D3D6D9"/>
<path d="M147.312 87.2471C161.653 84.7183 175.341 83.722 185.788 84.3546M190.693 84.8058L191.476 84.9113L192.234 85.0235L192.604 85.0829L193.325 85.2058L193.677 85.2701L194.359 85.4037L194.692 85.473L195.018 85.5431L195.65 85.6891L195.957 85.765L196.551 85.92L196.838 86L197.393 86.1633L197.66 86.2475L197.921 86.3332" stroke="#17232F" stroke-width="2" stroke-linecap="round" stroke-linejoin="round"/>
<path d="M135.925 76.0388C134.579 76.8945 133.33 77.8761 132.192 78.9641C131.045 80.0607 130.01 81.2654 129.101 82.5581" stroke="#D8D8D8" stroke-width="2" stroke-linecap="round"/>
<g filter="url(#filter0_f_19064_124159)">
<path d="M142.609 232.731C144.929 232.731 146.808 234.611 146.808 236.93V263.557C145.409 264.62 144.009 265.152 142.609 265.152C141.21 265.152 139.811 264.62 138.411 263.557V236.93C138.411 234.611 140.291 232.731 142.609 232.731Z" fill="#2B2E39"/>
<path fill-rule="evenodd" clip-rule="evenodd" d="M142.609 232.203C143.915 232.203 145.097 232.732 145.952 233.587C146.807 234.442 147.336 235.624 147.336 236.93V263.815C145.761 265.069 144.182 265.68 142.609 265.68C141.037 265.68 139.459 265.069 137.884 263.815V236.93C137.884 235.624 138.412 234.442 139.268 233.587C140.123 232.732 141.305 232.203 142.609 232.203Z" fill="url(#paint1_linear_19064_124159)" stroke="#141721" stroke-width="1.28" stroke-linejoin="round"/>
</g>
<g filter="url(#filter1_f_19064_124159)">
<path d="M136.312 221.037C139.79 221.037 142.61 223.857 142.61 227.335V265.153C140.51 266.216 138.411 266.748 136.312 266.748C134.213 266.748 132.113 266.216 130.014 265.153V227.335C130.014 223.857 132.834 221.037 136.312 221.037Z" fill="#2B2E39"/>
<path fill-rule="evenodd" clip-rule="evenodd" d="M136.312 220.51C138.197 220.51 139.903 221.273 141.138 222.509C142.374 223.744 143.137 225.451 143.137 227.335V265.474C140.863 266.677 138.586 267.275 136.312 267.275C134.037 267.275 131.761 266.677 129.486 265.474V227.335C129.486 225.451 130.25 223.744 131.485 222.509C132.721 221.273 134.427 220.51 136.312 220.51Z" fill="url(#paint2_linear_19064_124159)" stroke="#141721" stroke-width="1.28" stroke-linejoin="round"/>
</g>
<g filter="url(#filter2_f_19064_124159)">
<path d="M128.964 227.415C131.863 227.415 134.213 229.765 134.213 232.664V265.684C132.462 266.748 130.713 267.28 128.964 267.28C127.214 267.28 125.465 266.748 123.715 265.684V232.664C123.715 229.765 126.065 227.415 128.964 227.415Z" fill="#2B2E39"/>
<path fill-rule="evenodd" clip-rule="evenodd" d="M128.964 226.887C130.559 226.887 132.003 227.534 133.048 228.58C134.094 229.625 134.74 231.069 134.74 232.664V265.978C132.815 267.202 130.888 267.807 128.964 267.807C127.04 267.807 125.113 267.202 123.187 265.978V232.664C123.187 231.069 123.834 229.625 124.88 228.58C125.924 227.534 127.369 226.887 128.964 226.887Z" fill="url(#paint3_linear_19064_124159)" stroke="#141721" stroke-width="1.28" stroke-linejoin="round"/>
</g>
<g filter="url(#filter3_f_19064_124159)">
<path d="M132.113 239.109C134.432 239.109 136.311 240.988 136.311 243.308V267.279C134.912 268.341 133.512 268.873 132.113 268.873C130.713 268.873 129.313 268.341 127.914 267.279V243.308C127.914 240.988 129.794 239.109 132.113 239.109Z" fill="#2B2E39"/>
<path fill-rule="evenodd" clip-rule="evenodd" d="M132.113 238.581C133.418 238.581 134.599 239.11 135.455 239.966C136.311 240.821 136.839 242.002 136.839 243.308V267.537C135.264 268.79 133.685 269.401 132.113 269.401C130.54 269.401 128.961 268.79 127.386 267.537V243.308C127.386 242.002 127.915 240.821 128.771 239.966C129.626 239.11 130.808 238.581 132.113 238.581Z" fill="url(#paint4_linear_19064_124159)" stroke="#141721" stroke-width="1.28" stroke-linejoin="round"/>
</g>
<g filter="url(#filter4_f_19064_124159)">
<path d="M125.815 233.794V235.388V236.717M125.963 242.032V243.361M125.963 250.802V252.131V253.725V255.053V256.648V257.977" stroke="#141721" stroke-width="1.28" stroke-linecap="round" stroke-linejoin="round"/>
</g>
<g filter="url(#filter5_f_19064_124159)">
<path d="M130.164 231.668V233.262M130.164 243.361V244.955V246.284V247.878" stroke="#141721" stroke-width="1.28" stroke-linecap="round" stroke-linejoin="round"/>
</g>
<g filter="url(#filter6_f_19064_124159)">
<path d="M132.263 234.591V236.186M132.263 259.571V260.9V262.495V263.824" stroke="#141721" stroke-width="1.28" stroke-linecap="round" stroke-linejoin="round"/>
</g>
<g filter="url(#filter7_f_19064_124159)">
<path d="M134.362 224.492V225.821M134.362 242.031V243.361M134.362 253.724V255.053V256.648" stroke="#141721" stroke-width="1.28" stroke-linecap="round" stroke-linejoin="round"/>
</g>
<g filter="url(#filter8_f_19064_124159)">
<path d="M138.411 225.821V227.415V228.744M138.411 239.108V240.437V242.031V243.361V244.955V246.284" stroke="#141721" stroke-width="1.28" stroke-linecap="round" stroke-linejoin="round"/>
</g>
<g filter="url(#filter9_f_19064_124159)">
<path d="M140.51 231.668V233.262V234.591M140.51 243.361V244.955V246.284V247.878V249.207V250.802V252.13M140.51 259.571V260.9V262.495V263.824" stroke="#141721" stroke-width="1.28" stroke-linecap="round" stroke-linejoin="round"/>
</g>
<g filter="url(#filter10_f_19064_124159)">
<path d="M144.709 252.131V253.725V255.054V256.649V257.977M144.709 239.109V240.438V242.032V243.361" stroke="#141721" stroke-width="1.28" stroke-linecap="round" stroke-linejoin="round"/>
</g>
<g opacity="0.746303">
<g filter="url(#filter11_f_19064_124159)">
<path d="M170.55 280.42C178.114 280.42 184.246 277.161 184.246 273.139C184.246 269.119 178.114 265.859 170.55 265.859C162.985 265.859 156.853 269.119 156.853 273.139C156.853 277.161 162.985 280.42 170.55 280.42Z" fill="#232632"/>
<path d="M183.834 273.139C183.834 274.923 182.467 276.634 180.041 277.924C177.633 279.204 174.278 280.008 170.55 280.008C166.821 280.008 163.466 279.204 161.058 277.924C158.632 276.634 157.266 274.923 157.266 273.139C157.266 271.356 158.632 269.645 161.058 268.356C163.466 267.076 166.821 266.272 170.55 266.272C174.278 266.272 177.633 267.076 180.041 268.356C182.467 269.645 183.834 271.356 183.834 273.139Z" stroke="#141721"/>
</g>
<g opacity="0.947196">
<g filter="url(#filter12_f_19064_124159)">
<path d="M170.55 275.87C167.506 275.87 164.463 274.96 161.418 273.139V229.456H153.254C149.694 229.456 146.808 226.58 146.808 223.032V194.926C146.808 191.88 149.285 189.412 152.341 189.412C155.397 189.412 157.873 191.88 157.873 194.926V220.747C157.873 221.536 158.515 222.175 159.306 222.175H161.418V183.951C161.418 178.925 165.507 174.85 170.55 174.85C175.593 174.85 179.681 178.925 179.681 183.951V240.376H181.843C182.666 240.376 183.334 239.712 183.334 238.891V203.307C183.334 203.078 183.334 202.852 183.336 202.628C183.35 199.353 186.01 196.707 189.284 196.707C192.472 196.707 195.057 199.292 195.057 202.48V247.268C195.057 249.424 193.341 251.188 191.186 251.248L179.681 251.164L179.799 272.998C176.676 274.913 173.593 275.87 170.55 275.87Z" fill="#141721"/>
</g>
</g>
<g filter="url(#filter13_f_19064_124159)">
<path d="M170.55 275.87C167.506 275.87 164.463 274.96 161.418 273.139V229.456H153.254C149.694 229.456 146.808 226.58 146.808 223.032V194.926C146.808 191.88 149.285 189.412 152.341 189.412C155.397 189.412 157.873 191.88 157.873 194.926V220.747C157.873 221.536 158.515 222.175 159.306 222.175H161.418V183.951C161.418 178.925 165.507 174.85 170.55 174.85C175.593 174.85 179.681 178.925 179.681 183.951V240.376H181.843C182.666 240.376 183.334 239.712 183.334 238.891V203.307C183.334 203.078 183.334 202.852 183.336 202.628C183.35 199.353 186.01 196.707 189.284 196.707C192.472 196.707 195.057 199.292 195.057 202.48V247.268C195.057 249.424 193.341 251.188 191.186 251.248L179.681 251.164L179.799 272.998C176.676 274.913 173.593 275.87 170.55 275.87Z" fill="#2B2E39"/>
<path d="M170.55 275.87C167.506 275.87 164.463 274.96 161.418 273.139V229.456H153.254C149.694 229.456 146.808 226.58 146.808 223.032V194.926C146.808 191.88 149.285 189.412 152.341 189.412C155.397 189.412 157.873 191.88 157.873 194.926V220.747C157.873 221.536 158.515 222.175 159.306 222.175H161.418V183.951C161.418 178.925 165.507 174.85 170.55 174.85C175.593 174.85 179.681 178.925 179.681 183.951V240.376H181.843C182.666 240.376 183.334 239.712 183.334 238.891V203.307C183.334 203.078 183.334 202.852 183.336 202.628C183.35 199.353 186.01 196.707 189.284 196.707C192.472 196.707 195.057 199.292 195.057 202.48V247.268C195.057 249.424 193.341 251.188 191.186 251.248L179.681 251.164L179.799 272.998C176.676 274.913 173.593 275.87 170.55 275.87Z" fill="url(#paint5_linear_19064_124159)"/>
<path d="M170.55 275.87C167.506 275.87 164.463 274.96 161.418 273.139V229.456H153.254C149.694 229.456 146.808 226.58 146.808 223.032V194.926C146.808 191.88 149.285 189.412 152.341 189.412C155.397 189.412 157.873 191.88 157.873 194.926V220.747C157.873 221.536 158.515 222.175 159.306 222.175H161.418V183.951C161.418 178.925 165.507 174.85 170.55 174.85C175.593 174.85 179.681 178.925 179.681 183.951V240.376H181.843C182.666 240.376 183.334 239.712 183.334 238.891V203.307C183.334 203.078 183.334 202.852 183.336 202.628C183.35 199.353 186.01 196.707 189.284 196.707C192.472 196.707 195.057 199.292 195.057 202.48V247.268C195.057 249.424 193.341 251.188 191.186 251.248L179.681 251.164L179.799 272.998C176.676 274.913 173.593 275.87 170.55 275.87Z" fill="url(#paint6_linear_19064_124159)" fill-opacity="0.5"/>
<path fill-rule="evenodd" clip-rule="evenodd" d="M170.55 174.026C173.299 174.026 175.787 175.137 177.589 176.932C179.392 178.729 180.506 181.21 180.506 183.951V239.552H181.843C182.028 239.552 182.194 239.478 182.315 239.357C182.435 239.238 182.509 239.073 182.509 238.891V203.307C182.509 203.077 182.509 202.85 182.511 202.624C182.519 200.76 183.28 199.074 184.506 197.855C185.731 196.635 187.42 195.882 189.284 195.882C191.106 195.882 192.755 196.62 193.95 197.814C195.144 199.009 195.882 200.658 195.882 202.48V247.268C195.882 248.531 195.395 249.682 194.595 250.541C193.786 251.412 192.656 251.982 191.389 252.064L180.511 251.994L180.626 273.453C177.223 275.624 173.862 276.695 170.55 276.695C167.233 276.695 163.912 275.672 160.594 273.602V230.281H153.254C151.246 230.281 149.43 229.469 148.114 228.158C146.798 226.846 145.984 225.033 145.984 223.032V194.926C145.984 193.175 146.695 191.59 147.847 190.443C148.997 189.296 150.586 188.587 152.341 188.587C154.096 188.587 155.685 189.296 156.835 190.443C157.986 191.59 158.698 193.175 158.698 194.926V220.747C158.698 220.914 158.766 221.064 158.876 221.173C158.985 221.282 159.138 221.35 159.306 221.35H160.594V183.951C160.594 181.21 161.709 178.729 163.511 176.932C165.312 175.137 167.801 174.026 170.55 174.026Z" fill="url(#paint7_linear_19064_124159)" stroke="#141721" stroke-width="2"/>
</g>
<g filter="url(#filter14_f_19064_124159)">
<path d="M190.639 203.519V206.248V209.434V212.163M190.639 223.994V227.18V229.91V233.095" stroke="#141721" stroke-width="2" stroke-linecap="round" stroke-linejoin="round"/>
</g>
<g filter="url(#filter15_f_19064_124159)">
<path d="M186.986 233.096V235.826V239.011" stroke="#141721" stroke-width="2" stroke-linecap="round" stroke-linejoin="round"/>
</g>
<g filter="url(#filter16_f_19064_124159)">
<path d="M183.334 244.928V247.657" stroke="#141721" stroke-width="2" stroke-linecap="round" stroke-linejoin="round"/>
</g>
<g filter="url(#filter17_f_19064_124159)">
<path d="M176.029 201.243V204.428M176.029 221.265V223.995V227.18M176.029 266.315V269.5M176.029 181.676V184.406V187.137V189.867" stroke="#141721" stroke-width="2" stroke-linecap="round" stroke-linejoin="round"/>
</g>
<g filter="url(#filter18_f_19064_124159)">
<path d="M172.376 209.889V212.619V215.804V218.535V221.265V223.995M172.376 244.017V246.747V249.932V252.663V255.393V258.124" stroke="#141721" stroke-width="2" stroke-linecap="round" stroke-linejoin="round"/>
</g>
<g filter="url(#filter19_f_19064_124159)">
<path d="M168.723 178.491V181.676M168.723 198.513V201.243V204.428V207.158V209.889M168.723 229.911V232.641V235.371V238.556M168.723 263.584V266.315V269.5" stroke="#141721" stroke-width="2" stroke-linecap="round" stroke-linejoin="round"/>
</g>
<g filter="url(#filter20_f_19064_124159)">
<path d="M165.071 184.406V187.137V189.867M165.071 235.371V238.556V241.287V244.017V246.747" stroke="#141721" stroke-width="2" stroke-linecap="round" stroke-linejoin="round"/>
</g>
<g filter="url(#filter21_f_19064_124159)">
<path d="M154.113 193.052V197.147M154.113 209.433V213.529V217.624" stroke="#141721" stroke-width="2" stroke-linecap="round" stroke-linejoin="round"/>
</g>
<g filter="url(#filter22_f_19064_124159)">
<path d="M150.461 197.147V201.243V205.339M150.461 221.72V225.814" stroke="#141721" stroke-width="2" stroke-linecap="round" stroke-linejoin="round"/>
</g>
</g>
<g opacity="0.0515951">
<g filter="url(#filter23_d_19064_124159)">
<path d="M160.005 296.916C190.068 296.916 214.439 273.283 214.439 244.131C214.439 214.979 190.068 191.346 160.005 191.346C129.941 191.346 105.57 214.979 105.57 244.131C105.57 273.283 129.941 296.916 160.005 296.916Z" fill="black"/>
</g>
<path d="M160.005 296.916C190.068 296.916 214.439 273.283 214.439 244.131C214.439 214.979 190.068 191.346 160.005 191.346C129.941 191.346 105.57 214.979 105.57 244.131C105.57 273.283 129.941 296.916 160.005 296.916Z" fill="url(#paint8_linear_19064_124159)"/>
</g>
<path opacity="0.0337612" fill-rule="evenodd" clip-rule="evenodd" d="M160.15 287.843C186.784 287.843 208.666 269.286 208.666 244.131C208.666 216.501 180.683 158.355 154.049 158.355C127.415 158.355 111.343 220.625 111.343 244.131C111.343 264.75 133.516 287.843 160.15 287.843Z" fill="url(#paint9_linear_19064_124159)"/>
<g filter="url(#filter24_f_19064_124159)">
<path fill-rule="evenodd" clip-rule="evenodd" d="M181.435 265.841C183.199 267.368 184.246 269.277 184.246 271.348C184.246 276.358 178.114 280.42 170.55 280.42C162.985 280.42 156.853 276.358 156.853 271.348C156.853 269.277 157.901 267.368 159.664 265.841C159.237 266.66 159.003 267.543 159.003 268.461C159.003 268.773 159.03 269.081 159.083 269.383C159.03 269.622 159.003 269.864 159.003 270.111C159.003 273.527 164.173 276.296 170.55 276.296C176.927 276.296 182.096 273.527 182.096 270.111C182.096 269.865 182.069 269.623 182.017 269.385C182.069 269.082 182.096 268.774 182.096 268.461C182.096 267.596 181.889 266.763 181.507 265.985L181.435 265.841Z" fill="#1B1E2A"/>
</g>
<defs>
<filter id="filter0_f_19064_124159" x="133.244" y="227.563" width="18.7324" height="42.7571" filterUnits="userSpaceOnUse" color-interpolation-filters="sRGB">
<feFlood flood-opacity="0" result="BackgroundImageFix"/>
<feBlend mode="normal" in="SourceGraphic" in2="BackgroundImageFix" result="shape"/>
<feGaussianBlur stdDeviation="2" result="effect1_foregroundBlur_19064_124159"/>
</filter>
<filter id="filter1_f_19064_124159" x="124.846" y="215.87" width="22.9315" height="56.0459" filterUnits="userSpaceOnUse" color-interpolation-filters="sRGB">
<feFlood flood-opacity="0" result="BackgroundImageFix"/>
<feBlend mode="normal" in="SourceGraphic" in2="BackgroundImageFix" result="shape"/>
<feGaussianBlur stdDeviation="2" result="effect1_foregroundBlur_19064_124159"/>
</filter>
<filter id="filter2_f_19064_124159" x="118.547" y="222.247" width="20.8333" height="50.2" filterUnits="userSpaceOnUse" color-interpolation-filters="sRGB">
<feFlood flood-opacity="0" result="BackgroundImageFix"/>
<feBlend mode="normal" in="SourceGraphic" in2="BackgroundImageFix" result="shape"/>
<feGaussianBlur stdDeviation="2" result="effect1_foregroundBlur_19064_124159"/>
</filter>
<filter id="filter3_f_19064_124159" x="122.746" y="233.941" width="18.7332" height="40.0998" filterUnits="userSpaceOnUse" color-interpolation-filters="sRGB">
<feFlood flood-opacity="0" result="BackgroundImageFix"/>
<feBlend mode="normal" in="SourceGraphic" in2="BackgroundImageFix" result="shape"/>
<feGaussianBlur stdDeviation="2" result="effect1_foregroundBlur_19064_124159"/>
</filter>
<filter id="filter4_f_19064_124159" x="121.175" y="229.154" width="9.42845" height="33.4631" filterUnits="userSpaceOnUse" color-interpolation-filters="sRGB">
<feFlood flood-opacity="0" result="BackgroundImageFix"/>
<feBlend mode="normal" in="SourceGraphic" in2="BackgroundImageFix" result="shape"/>
<feGaussianBlur stdDeviation="2" result="effect1_foregroundBlur_19064_124159"/>
</filter>
<filter id="filter5_f_19064_124159" x="125.524" y="227.028" width="9.28" height="25.4903" filterUnits="userSpaceOnUse" color-interpolation-filters="sRGB">
<feFlood flood-opacity="0" result="BackgroundImageFix"/>
<feBlend mode="normal" in="SourceGraphic" in2="BackgroundImageFix" result="shape"/>
<feGaussianBlur stdDeviation="2" result="effect1_foregroundBlur_19064_124159"/>
</filter>
<filter id="filter6_f_19064_124159" x="127.623" y="229.951" width="9.28" height="38.513" filterUnits="userSpaceOnUse" color-interpolation-filters="sRGB">
<feFlood flood-opacity="0" result="BackgroundImageFix"/>
<feBlend mode="normal" in="SourceGraphic" in2="BackgroundImageFix" result="shape"/>
<feGaussianBlur stdDeviation="2" result="effect1_foregroundBlur_19064_124159"/>
</filter>
<filter id="filter7_f_19064_124159" x="129.722" y="219.852" width="9.28" height="41.4359" filterUnits="userSpaceOnUse" color-interpolation-filters="sRGB">
<feFlood flood-opacity="0" result="BackgroundImageFix"/>
<feBlend mode="normal" in="SourceGraphic" in2="BackgroundImageFix" result="shape"/>
<feGaussianBlur stdDeviation="2" result="effect1_foregroundBlur_19064_124159"/>
</filter>
<filter id="filter8_f_19064_124159" x="133.771" y="221.181" width="9.28" height="29.7427" filterUnits="userSpaceOnUse" color-interpolation-filters="sRGB">
<feFlood flood-opacity="0" result="BackgroundImageFix"/>
<feBlend mode="normal" in="SourceGraphic" in2="BackgroundImageFix" result="shape"/>
<feGaussianBlur stdDeviation="2" result="effect1_foregroundBlur_19064_124159"/>
</filter>
<filter id="filter9_f_19064_124159" x="135.87" y="227.028" width="9.28" height="41.4359" filterUnits="userSpaceOnUse" color-interpolation-filters="sRGB">
<feFlood flood-opacity="0" result="BackgroundImageFix"/>
<feBlend mode="normal" in="SourceGraphic" in2="BackgroundImageFix" result="shape"/>
<feGaussianBlur stdDeviation="2" result="effect1_foregroundBlur_19064_124159"/>
</filter>
<filter id="filter10_f_19064_124159" x="140.069" y="234.469" width="9.28" height="28.1484" filterUnits="userSpaceOnUse" color-interpolation-filters="sRGB">
<feFlood flood-opacity="0" result="BackgroundImageFix"/>
<feBlend mode="normal" in="SourceGraphic" in2="BackgroundImageFix" result="shape"/>
<feGaussianBlur stdDeviation="2" result="effect1_foregroundBlur_19064_124159"/>
</filter>
<filter id="filter11_f_19064_124159" x="150.766" y="259.772" width="39.5683" height="26.7361" filterUnits="userSpaceOnUse" color-interpolation-filters="sRGB">
<feFlood flood-opacity="0" result="BackgroundImageFix"/>
<feBlend mode="normal" in="SourceGraphic" in2="BackgroundImageFix" result="shape"/>
<feGaussianBlur stdDeviation="3" result="effect1_foregroundBlur_19064_124159"/>
</filter>
<filter id="filter12_f_19064_124159" x="128.808" y="156.85" width="84.2488" height="137.02" filterUnits="userSpaceOnUse" color-interpolation-filters="sRGB">
<feFlood flood-opacity="0" result="BackgroundImageFix"/>
<feBlend mode="normal" in="SourceGraphic" in2="BackgroundImageFix" result="shape"/>
<feGaussianBlur stdDeviation="9" result="effect1_foregroundBlur_19064_124159"/>
</filter>
<filter id="filter13_f_19064_124159" x="143.784" y="171.826" width="54.2984" height="107.069" filterUnits="userSpaceOnUse" color-interpolation-filters="sRGB">
<feFlood flood-opacity="0" result="BackgroundImageFix"/>
<feBlend mode="normal" in="SourceGraphic" in2="BackgroundImageFix" result="shape"/>
<feGaussianBlur stdDeviation="0.6" result="effect1_foregroundBlur_19064_124159"/>
</filter>
<filter id="filter14_f_19064_124159" x="188.439" y="201.319" width="4.4" height="33.9769" filterUnits="userSpaceOnUse" color-interpolation-filters="sRGB">
<feFlood flood-opacity="0" result="BackgroundImageFix"/>
<feBlend mode="normal" in="SourceGraphic" in2="BackgroundImageFix" result="shape"/>
<feGaussianBlur stdDeviation="0.6" result="effect1_foregroundBlur_19064_124159"/>
</filter>
<filter id="filter15_f_19064_124159" x="184.786" y="230.896" width="4.4" height="10.315" filterUnits="userSpaceOnUse" color-interpolation-filters="sRGB">
<feFlood flood-opacity="0" result="BackgroundImageFix"/>
<feBlend mode="normal" in="SourceGraphic" in2="BackgroundImageFix" result="shape"/>
<feGaussianBlur stdDeviation="0.6" result="effect1_foregroundBlur_19064_124159"/>
</filter>
<filter id="filter16_f_19064_124159" x="181.134" y="242.728" width="4.4" height="7.12989" filterUnits="userSpaceOnUse" color-interpolation-filters="sRGB">
<feFlood flood-opacity="0" result="BackgroundImageFix"/>
<feBlend mode="normal" in="SourceGraphic" in2="BackgroundImageFix" result="shape"/>
<feGaussianBlur stdDeviation="0.6" result="effect1_foregroundBlur_19064_124159"/>
</filter>
<filter id="filter17_f_19064_124159" x="173.829" y="179.476" width="4.4" height="92.2236" filterUnits="userSpaceOnUse" color-interpolation-filters="sRGB">
<feFlood flood-opacity="0" result="BackgroundImageFix"/>
<feBlend mode="normal" in="SourceGraphic" in2="BackgroundImageFix" result="shape"/>
<feGaussianBlur stdDeviation="0.6" result="effect1_foregroundBlur_19064_124159"/>
</filter>
<filter id="filter18_f_19064_124159" x="170.176" y="207.689" width="4.4" height="52.6348" filterUnits="userSpaceOnUse" color-interpolation-filters="sRGB">
<feFlood flood-opacity="0" result="BackgroundImageFix"/>
<feBlend mode="normal" in="SourceGraphic" in2="BackgroundImageFix" result="shape"/>
<feGaussianBlur stdDeviation="0.6" result="effect1_foregroundBlur_19064_124159"/>
</filter>
<filter id="filter19_f_19064_124159" x="166.523" y="176.291" width="4.4" height="95.4089" filterUnits="userSpaceOnUse" color-interpolation-filters="sRGB">
<feFlood flood-opacity="0" result="BackgroundImageFix"/>
<feBlend mode="normal" in="SourceGraphic" in2="BackgroundImageFix" result="shape"/>
<feGaussianBlur stdDeviation="0.6" result="effect1_foregroundBlur_19064_124159"/>
</filter>
<filter id="filter20_f_19064_124159" x="162.871" y="182.206" width="4.4" height="66.7408" filterUnits="userSpaceOnUse" color-interpolation-filters="sRGB">
<feFlood flood-opacity="0" result="BackgroundImageFix"/>
<feBlend mode="normal" in="SourceGraphic" in2="BackgroundImageFix" result="shape"/>
<feGaussianBlur stdDeviation="0.6" result="effect1_foregroundBlur_19064_124159"/>
</filter>
<filter id="filter21_f_19064_124159" x="151.913" y="190.852" width="4.4" height="28.9715" filterUnits="userSpaceOnUse" color-interpolation-filters="sRGB">
<feFlood flood-opacity="0" result="BackgroundImageFix"/>
<feBlend mode="normal" in="SourceGraphic" in2="BackgroundImageFix" result="shape"/>
<feGaussianBlur stdDeviation="0.6" result="effect1_foregroundBlur_19064_124159"/>
</filter>
<filter id="filter22_f_19064_124159" x="148.261" y="194.947" width="4.4" height="33.0672" filterUnits="userSpaceOnUse" color-interpolation-filters="sRGB">
<feFlood flood-opacity="0" result="BackgroundImageFix"/>
<feBlend mode="normal" in="SourceGraphic" in2="BackgroundImageFix" result="shape"/>
<feGaussianBlur stdDeviation="0.6" result="effect1_foregroundBlur_19064_124159"/>
</filter>
<filter id="filter23_d_19064_124159" x="101.57" y="191.346" width="116.869" height="123.57" filterUnits="userSpaceOnUse" color-interpolation-filters="sRGB">
<feFlood flood-opacity="0" result="BackgroundImageFix"/>
<feColorMatrix in="SourceAlpha" type="matrix" values="0 0 0 0 0 0 0 0 0 0 0 0 0 0 0 0 0 0 127 0" result="hardAlpha"/>
<feOffset dy="14"/>
<feGaussianBlur stdDeviation="2"/>
<feColorMatrix type="matrix" values="0 0 0 0 0 0 0 0 0 0 0 0 0 0 0 0 0 0 0.699984 0"/>
<feBlend mode="normal" in2="BackgroundImageFix" result="effect1_dropShadow_19064_124159"/>
<feBlend mode="normal" in="SourceGraphic" in2="effect1_dropShadow_19064_124159" result="shape"/>
</filter>
<filter id="filter24_f_19064_124159" x="155.853" y="264.841" width="29.393" height="16.579" filterUnits="userSpaceOnUse" color-interpolation-filters="sRGB">
<feFlood flood-opacity="0" result="BackgroundImageFix"/>
<feBlend mode="normal" in="SourceGraphic" in2="BackgroundImageFix" result="shape"/>
<feGaussianBlur stdDeviation="0.5" result="effect1_foregroundBlur_19064_124159"/>
</filter>
<linearGradient id="paint0_linear_19064_124159" x1="172.377" y1="120.828" x2="172.377" y2="322.484" gradientUnits="userSpaceOnUse">
<stop stop-color="#373A44"/>
<stop offset="1" stop-color="#2B2F35" stop-opacity="0.1"/>
</linearGradient>
<linearGradient id="paint1_linear_19064_124159" x1="142.609" y1="232.203" x2="142.609" y2="248.941" gradientUnits="userSpaceOnUse">
<stop stop-color="#E2E2E2" stop-opacity="0.498689"/>
<stop offset="1" stop-color="#C1C1C1" stop-opacity="0"/>
</linearGradient>
<linearGradient id="paint2_linear_19064_124159" x1="136.312" y1="220.51" x2="136.312" y2="243.892" gradientUnits="userSpaceOnUse">
<stop stop-color="#E2E2E2" stop-opacity="0.498689"/>
<stop offset="1" stop-color="#C1C1C1" stop-opacity="0"/>
</linearGradient>
<linearGradient id="paint3_linear_19064_124159" x1="128.964" y1="226.887" x2="128.964" y2="247.347" gradientUnits="userSpaceOnUse">
<stop stop-color="#E2E2E2" stop-opacity="0.498689"/>
<stop offset="1" stop-color="#C1C1C1" stop-opacity="0"/>
</linearGradient>
<linearGradient id="paint4_linear_19064_124159" x1="132.113" y1="238.581" x2="132.113" y2="253.99" gradientUnits="userSpaceOnUse">
<stop stop-color="#E2E2E2" stop-opacity="0.498689"/>
<stop offset="1" stop-color="#C1C1C1" stop-opacity="0"/>
</linearGradient>
<linearGradient id="paint5_linear_19064_124159" x1="170.933" y1="174.85" x2="198.548" y2="210.986" gradientUnits="userSpaceOnUse">
<stop stop-color="#E2E2E2" stop-opacity="0.498689"/>
<stop offset="1" stop-color="#C1C1C1" stop-opacity="0"/>
</linearGradient>
<linearGradient id="paint6_linear_19064_124159" x1="195.057" y1="225.36" x2="156.714" y2="225.36" gradientUnits="userSpaceOnUse">
<stop stop-color="white" stop-opacity="0"/>
<stop offset="1"/>
</linearGradient>
<linearGradient id="paint7_linear_19064_124159" x1="170.933" y1="174.026" x2="170.933" y2="244.938" gradientUnits="userSpaceOnUse">
<stop stop-color="#C1C1C1" stop-opacity="0.248388"/>
<stop offset="1" stop-color="#141721" stop-opacity="0.3"/>
</linearGradient>
<linearGradient id="paint8_linear_19064_124159" x1="160.005" y1="191.346" x2="160.005" y2="296.916" gradientUnits="userSpaceOnUse">
<stop stop-color="#EEEEEE" stop-opacity="0"/>
<stop offset="1" stop-color="#EFF0F8"/>
</linearGradient>
<linearGradient id="paint9_linear_19064_124159" x1="160.15" y1="158.355" x2="160.15" y2="287.843" gradientUnits="userSpaceOnUse">
<stop stop-color="#D8DADD"/>
<stop offset="1" stop-color="#F8F9FA"/>
</linearGradient>
</defs>
</svg>
