<svg width="2397" height="2393" xmlns="http://www.w3.org/2000/svg" xmlns:xlink="http://www.w3.org/1999/xlink" xml:space="preserve" overflow="hidden"><g transform="translate(-55 -27)"><g><rect x="59.0001" y="32" width="2391" height="2385" fill="#001621" fill-opacity="1"/><path d="M401.025 1034.66C510.736 876.632 727.782 837.461 885.812 947.172 1043.84 1056.88 1083.01 1273.93 973.301 1431.96 863.591 1589.99 646.545 1629.16 488.515 1519.45 330.485 1409.74 291.315 1192.69 401.025 1034.66Z" fill="#7EC1CA" fill-rule="evenodd" fill-opacity="1"/><path d="M1521.01 953.318C1612.4 821.669 1794.11 789.658 1926.86 881.819 2059.61 973.98 2093.14 1155.41 2001.74 1287.06 1910.34 1418.71 1728.64 1450.72 1595.89 1358.56 1463.14 1266.4 1429.61 1084.97 1521.01 953.318Z" fill="#7EC1CA" fill-rule="evenodd" fill-opacity="1"/><path d="M0 159.797C-4.10293e-14 71.5436 72.1427-2.03443e-14 161.135-2.03443e-14 250.128-4.06886e-14 322.27 71.5436 322.27 159.797 322.27 248.051 250.128 319.594 161.135 319.594 72.1427 319.594-8.20586e-14 248.051 0 159.797Z" fill="#00A0E3" fill-rule="evenodd" fill-opacity="1" transform="matrix(-0.821449 -0.570282 -0.570282 0.821449 1527.81 1198.34)"/><path d="M0 159.797C-4.10293e-14 71.5436 72.1427-2.03443e-14 161.135-2.03443e-14 250.128-4.06886e-14 322.27 71.5436 322.27 159.797 322.27 248.051 250.128 319.594 161.135 319.594 72.1427 319.594-8.20586e-14 248.051 0 159.797Z" fill="#00A0E3" fill-rule="evenodd" fill-opacity="1" transform="matrix(-0.821449 -0.570282 -0.570282 0.821449 810.17 666.607)"/><path d="M0 159.797C-4.10293e-14 71.5436 72.1427-2.03443e-14 161.135-2.03443e-14 250.128-4.06886e-14 322.27 71.5436 322.27 159.797 322.27 248.051 250.128 319.594 161.135 319.594 72.1427 319.594-8.20586e-14 248.051 0 159.797Z" fill="#00A0E3" fill-rule="evenodd" fill-opacity="1" transform="matrix(-0.821449 -0.570282 -0.570282 0.821449 1138.98 1674.81)"/><path d="M0 80.2311C-2.06e-14 35.9207 36.2214-1.02145e-14 80.9029-1.02145e-14 125.584-2.0429e-14 161.806 35.9207 161.806 80.2311 161.806 124.541 125.584 160.462 80.9029 160.462 36.2214 160.462-4.12001e-14 124.541 0 80.2311Z" fill="#00A0E3" fill-rule="evenodd" fill-opacity="1" transform="matrix(-0.821449 -0.570282 -0.570282 0.821449 1166.79 1463.54)"/><path d="M0 80.2311C-2.06e-14 35.9207 36.2214-1.02145e-14 80.9029-1.02145e-14 125.584-2.0429e-14 161.806 35.9207 161.806 80.2311 161.806 124.541 125.584 160.462 80.9029 160.462 36.2214 160.462-4.12001e-14 124.541 0 80.2311Z" fill="#00A0E3" fill-rule="evenodd" fill-opacity="1" transform="matrix(-0.821449 -0.570282 -0.570282 0.821449 1615.09 1388.19)"/><path d="M0 80.2311C-2.06e-14 35.9207 36.2214-1.02145e-14 80.9029-1.02145e-14 125.584-2.0429e-14 161.806 35.9207 161.806 80.2311 161.806 124.541 125.584 160.462 80.9029 160.462 36.2214 160.462-4.12001e-14 124.541 0 80.2311Z" fill="#00A0E3" fill-rule="evenodd" fill-opacity="1" transform="matrix(-0.821449 -0.570282 -0.570282 0.821449 2269.62 1043.06)"/><path d="M0 80.2311C-2.06e-14 35.9207 36.2214-1.02145e-14 80.9029-1.02145e-14 125.584-2.0429e-14 161.806 35.9207 161.806 80.2311 161.806 124.541 125.584 160.462 80.9029 160.462 36.2214 160.462-4.12001e-14 124.541 0 80.2311Z" fill="#00A0E3" fill-rule="evenodd" fill-opacity="1" transform="matrix(-0.821449 -0.570282 -0.570282 0.821449 513.968 871.976)"/><path d="M0 80.2311C-2.06e-14 35.9207 36.2214-1.02145e-14 80.9029-1.02145e-14 125.584-2.0429e-14 161.806 35.9207 161.806 80.2311 161.806 124.541 125.584 160.462 80.9029 160.462 36.2214 160.462-4.12001e-14 124.541 0 80.2311Z" fill="#00A0E3" fill-rule="evenodd" fill-opacity="1" transform="matrix(-0.821449 -0.570282 -0.570282 0.821449 1218.49 1046.94)"/><path d="M0 80.2311C-2.06e-14 35.9207 36.2214-1.02145e-14 80.9029-1.02145e-14 125.584-2.0429e-14 161.806 35.9207 161.806 80.2311 161.806 124.541 125.584 160.462 80.9029 160.462 36.2214 160.462-4.12001e-14 124.541 0 80.2311Z" fill="#00A0E3" fill-rule="evenodd" fill-opacity="1" transform="matrix(-0.821449 -0.570282 -0.570282 0.821449 936.9 794.593)"/><path d="M0 80.2311C-2.06e-14 35.9207 36.2214-1.02145e-14 80.9029-1.02145e-14 125.584-2.0429e-14 161.806 35.9207 161.806 80.2311 161.806 124.541 125.584 160.462 80.9029 160.462 36.2214 160.462-4.12001e-14 124.541 0 80.2311Z" fill="#00A0E3" fill-rule="evenodd" fill-opacity="1" transform="matrix(-0.821449 -0.570282 -0.570282 0.821449 1496.74 967.019)"/><path d="M0 80.2311C-2.06e-14 35.9207 36.2214-1.02145e-14 80.9029-1.02145e-14 125.584-2.0429e-14 161.806 35.9207 161.806 80.2311 161.806 124.541 125.584 160.462 80.9029 160.462 36.2214 160.462-4.12001e-14 124.541 0 80.2311Z" fill="#00A0E3" fill-rule="evenodd" fill-opacity="1" transform="matrix(-0.821449 -0.570282 -0.570282 0.821449 2244.13 1221.64)"/><path d="M0 52.9593C-1.35978e-14 23.7107 23.9093-6.74243e-15 53.4029-6.74243e-15 82.8965-1.34849e-14 106.806 23.7107 106.806 52.9593 106.806 82.208 82.8965 105.919 53.4029 105.919 23.9093 105.919-2.71956e-14 82.208 0 52.9593Z" fill="#00A0E3" fill-rule="evenodd" fill-opacity="1" transform="matrix(-0.821449 -0.570282 -0.570282 0.821449 1014.64 890.565)"/><path d="M0 52.9593C-1.35978e-14 23.7107 23.9093-6.74243e-15 53.4029-6.74243e-15 82.8965-1.34849e-14 106.806 23.7107 106.806 52.9593 106.806 82.208 82.8965 105.919 53.4029 105.919 23.9093 105.919-2.71956e-14 82.208 0 52.9593Z" fill="#00A0E3" fill-rule="evenodd" fill-opacity="1" transform="matrix(-0.821449 -0.570282 -0.570282 0.821449 1161.25 1315.82)"/><path d="M0 39.3079C-1.00926e-14 17.5987 17.7461-5.00441e-15 39.637-5.00441e-15 61.5279-1.00088e-14 79.274 17.5987 79.274 39.3079 79.274 61.017 61.5279 78.6157 39.637 78.6157 17.7461 78.6157-2.01853e-14 61.017 0 39.3079Z" fill="#00A0E3" fill-rule="evenodd" fill-opacity="1" transform="matrix(-0.821449 -0.570282 -0.570282 0.821449 1298.77 1018.55)"/><path d="M0 52.9593C-1.35978e-14 23.7107 23.9093-6.74243e-15 53.4029-6.74243e-15 82.8965-1.34849e-14 106.806 23.7107 106.806 52.9593 106.806 82.208 82.8965 105.919 53.4029 105.919 23.9093 105.919-2.71956e-14 82.208 0 52.9593Z" fill="#00A0E3" fill-rule="evenodd" fill-opacity="1" transform="matrix(-0.821449 -0.570282 -0.570282 0.821449 1573.28 867.394)"/><path d="M0 52.9593C-1.35978e-14 23.7107 23.9093-6.74243e-15 53.4029-6.74243e-15 82.8965-1.34849e-14 106.806 23.7107 106.806 52.9593 106.806 82.208 82.8965 105.919 53.4029 105.919 23.9093 105.919-2.71956e-14 82.208 0 52.9593Z" fill="#00A0E3" fill-rule="evenodd" fill-opacity="1" transform="matrix(-0.821449 -0.570282 -0.570282 0.821449 1425.92 1452.2)"/><path d="M0 52.9593C-1.35978e-14 23.7107 23.9093-6.74243e-15 53.4029-6.74243e-15 82.8965-1.34849e-14 106.806 23.7107 106.806 52.9593 106.806 82.208 82.8965 105.919 53.4029 105.919 23.9093 105.919-2.71956e-14 82.208 0 52.9593Z" fill="#00A0E3" fill-rule="evenodd" fill-opacity="1" transform="matrix(-0.821449 -0.570282 -0.570282 0.821449 2148.87 927.959)"/><path d="M0 39.3079C-1.00926e-14 17.5987 17.7461-5.00441e-15 39.637-5.00441e-15 61.5279-1.00088e-14 79.274 17.5987 79.274 39.3079 79.274 61.017 61.5279 78.6157 39.637 78.6157 17.7461 78.6157-2.01853e-14 61.017 0 39.3079Z" fill="#00A0E3" fill-rule="evenodd" fill-opacity="1" transform="matrix(-0.821449 -0.570282 -0.570282 0.821449 1693.93 1436.74)"/><path d="M0 39.3079C-1.00926e-14 17.5987 17.7461-5.00441e-15 39.637-5.00441e-15 61.5279-1.00088e-14 79.274 17.5987 79.274 39.3079 79.274 61.017 61.5279 78.6157 39.637 78.6157 17.7461 78.6157-2.01853e-14 61.017 0 39.3079Z" fill="#00A0E3" fill-rule="evenodd" fill-opacity="1" transform="matrix(-0.821449 -0.570282 -0.570282 0.821449 1058.74 978.817)"/><path d="M0 39.3079C-1.00926e-14 17.5987 17.7461-5.00441e-15 39.637-5.00441e-15 61.5279-1.00088e-14 79.274 17.5987 79.274 39.3079 79.274 61.017 61.5279 78.6157 39.637 78.6157 17.7461 78.6157-2.01853e-14 61.017 0 39.3079Z" fill="#00A0E3" fill-rule="evenodd" fill-opacity="1" transform="matrix(-0.821449 -0.570282 -0.570282 0.821449 1139.47 1197.75)"/><path d="M0 39.3079C-1.00926e-14 17.5987 17.7461-5.00441e-15 39.637-5.00441e-15 61.5279-1.00088e-14 79.274 17.5987 79.274 39.3079 79.274 61.017 61.5279 78.6157 39.637 78.6157 17.7461 78.6157-2.01853e-14 61.017 0 39.3079Z" fill="#00A0E3" fill-rule="evenodd" fill-opacity="1" transform="matrix(-0.821449 -0.570282 -0.570282 0.821449 1646.16 814.817)"/><path d="M0 39.3079C-1.00926e-14 17.5987 17.7461-5.00441e-15 39.637-5.00441e-15 61.5279-1.00088e-14 79.274 17.5987 79.274 39.3079 79.274 61.017 61.5279 78.6157 39.637 78.6157 17.7461 78.6157-2.01853e-14 61.017 0 39.3079Z" fill="#00A0E3" fill-rule="evenodd" fill-opacity="1" transform="matrix(-0.821449 -0.570282 -0.570282 0.821449 1220.56 1395.39)"/><path d="M0 39.3079C-1.00926e-14 17.5987 17.7461-5.00441e-15 39.637-5.00441e-15 61.5279-1.00088e-14 79.274 17.5987 79.274 39.3079 79.274 61.017 61.5279 78.6157 39.637 78.6157 17.7461 78.6157-2.01853e-14 61.017 0 39.3079Z" fill="#00A0E3" fill-rule="evenodd" fill-opacity="1" transform="matrix(-0.821449 -0.570282 -0.570282 0.821449 1300.42 1440.53)"/><path d="M0 39.3079C-1.00926e-14 17.5987 17.7461-5.00441e-15 39.637-5.00441e-15 61.5279-1.00088e-14 79.274 17.5987 79.274 39.3079 79.274 61.017 61.5279 78.6157 39.637 78.6157 17.7461 78.6157-2.01853e-14 61.017 0 39.3079Z" fill="#00A0E3" fill-rule="evenodd" fill-opacity="1" transform="matrix(-0.821449 -0.570282 -0.570282 0.821449 1235.19 1512.99)"/><path d="M0 39.3079C-1.00926e-14 17.5987 17.7461-5.00441e-15 39.637-5.00441e-15 61.5279-1.00088e-14 79.274 17.5987 79.274 39.3079 79.274 61.017 61.5279 78.6157 39.637 78.6157 17.7461 78.6157-2.01853e-14 61.017 0 39.3079Z" fill="#00A0E3" fill-rule="evenodd" fill-opacity="1" transform="matrix(-0.821449 -0.570282 -0.570282 0.821449 403.324 1006.59)"/><path d="M0 39.3079C-1.00926e-14 17.5987 17.7461-5.00441e-15 39.637-5.00441e-15 61.5279-1.00088e-14 79.274 17.5987 79.274 39.3079 79.274 61.017 61.5279 78.6157 39.637 78.6157 17.7461 78.6157-2.01853e-14 61.017 0 39.3079Z" fill="#00A0E3" fill-rule="evenodd" fill-opacity="1" transform="matrix(-0.821449 -0.570282 -0.570282 0.821449 1172.17 1594.58)"/><path d="M0 39.3079C-1.00926e-14 17.5987 17.7461-5.00441e-15 39.637-5.00441e-15 61.5279-1.00088e-14 79.274 17.5987 79.274 39.3079 79.274 61.017 61.5279 78.6157 39.637 78.6157 17.7461 78.6157-2.01853e-14 61.017 0 39.3079Z" fill="#00A0E3" fill-rule="evenodd" fill-opacity="1" transform="matrix(-0.821449 -0.570282 -0.570282 0.821449 1186.69 1689.69)"/><path d="M0 39.3079C-1.00926e-14 17.5987 17.7461-5.00441e-15 39.637-5.00441e-15 61.5279-1.00088e-14 79.274 17.5987 79.274 39.3079 79.274 61.017 61.5279 78.6157 39.637 78.6157 17.7461 78.6157-2.01853e-14 61.017 0 39.3079Z" fill="#00A0E3" fill-rule="evenodd" fill-opacity="1" transform="matrix(-0.821449 -0.570282 -0.570282 0.821449 2045.61 860.409)"/><path d="M0 27.5C-7.06086e-15 12.3122 12.4153-3.50112e-15 27.7302-3.50112e-15 43.0452-7.00223e-15 55.4605 12.3122 55.4605 27.5 55.4605 42.6878 43.0452 55 27.7302 55 12.4153 55-1.41217e-14 42.6878 0 27.5Z" fill="#00A0E3" fill-rule="evenodd" fill-opacity="1" transform="matrix(-0.821449 -0.570282 -0.570282 0.821449 1709.65 796.996)"/><path d="M0 27.5C-7.06086e-15 12.3122 12.4153-3.50112e-15 27.7302-3.50112e-15 43.0452-7.00223e-15 55.4605 12.3122 55.4605 27.5 55.4605 42.6878 43.0452 55 27.7302 55 12.4153 55-1.41217e-14 42.6878 0 27.5Z" fill="#00A0E3" fill-rule="evenodd" fill-opacity="1" transform="matrix(-0.821449 -0.570282 -0.570282 0.821449 364.759 1090.6)"/><path d="M0 27.5C-7.06086e-15 12.3122 12.4153-3.50112e-15 27.7302-3.50112e-15 43.0452-7.00223e-15 55.4605 12.3122 55.4605 27.5 55.4605 42.6878 43.0452 55 27.7302 55 12.4153 55-1.41217e-14 42.6878 0 27.5Z" fill="#00A0E3" fill-rule="evenodd" fill-opacity="1" transform="matrix(-0.821449 -0.570282 -0.570282 0.821449 1955.18 826.201)"/><path d="M0 27.5C-7.06086e-15 12.3122 12.4153-3.50112e-15 27.7302-3.50112e-15 43.0452-7.00223e-15 55.4605 12.3122 55.4605 27.5 55.4605 42.6878 43.0452 55 27.7302 55 12.4153 55-1.41217e-14 42.6878 0 27.5Z" fill="#00A0E3" fill-rule="evenodd" fill-opacity="1" transform="matrix(-0.821449 -0.570282 -0.570282 0.821449 1143.5 1765.41)"/><path d="M0 27.5C-7.06086e-15 12.3122 12.4153-3.50112e-15 27.7302-3.50112e-15 43.0452-7.00223e-15 55.4605 12.3122 55.4605 27.5 55.4605 42.6878 43.0452 55 27.7302 55 12.4153 55-1.41217e-14 42.6878 0 27.5Z" fill="#00A0E3" fill-rule="evenodd" fill-opacity="1" transform="matrix(-0.821449 -0.570282 -0.570282 0.821449 2068.36 1306.8)"/><path d="M0 80.2311C-2.06e-14 35.9207 36.2214-1.02145e-14 80.9029-1.02145e-14 125.584-2.0429e-14 161.806 35.9207 161.806 80.2311 161.806 124.541 125.584 160.462 80.9029 160.462 36.2214 160.462-4.12001e-14 124.541 0 80.2311Z" fill="#00A0E3" fill-rule="evenodd" fill-opacity="1" transform="matrix(-0.821449 -0.570282 -0.570282 0.821449 768.41 1662.52)"/><path d="M0 39.3079C-1.00926e-14 17.5987 17.7461-5.00441e-15 39.637-5.00441e-15 61.5279-1.00088e-14 79.274 17.5987 79.274 39.3079 79.274 61.017 61.5279 78.6157 39.637 78.6157 17.7461 78.6157-2.01853e-14 61.017 0 39.3079Z" fill="#00A0E3" fill-rule="evenodd" fill-opacity="1" transform="matrix(-0.821449 -0.570282 -0.570282 0.821449 597.008 1598.08)"/></g></g></svg>
