<?xml version="1.0" encoding="UTF-8"?>
<svg width="376px" height="376px" viewBox="0 0 376 376" version="1.1" xmlns="http://www.w3.org/2000/svg" xmlns:xlink="http://www.w3.org/1999/xlink">
    <!-- Generator: Sketch 52.6 (67491) - http://www.bohemiancoding.com/sketch -->
    <title>Group 6 Copy 40</title>
    <desc>Created with Sketch.</desc>
    <defs>
        <linearGradient x1="50%" y1="0%" x2="50%" y2="96.3714776%" id="linearGradient-1">
            <stop stop-color="#00CDF3" stop-opacity="0.1" offset="0%"></stop>
            <stop stop-color="#009FE3" offset="100%"></stop>
        </linearGradient>
    </defs>
    <g id="Data-viz-vocabulary" stroke="none" stroke-width="1" fill="none" fill-rule="evenodd">
        <g id="Details-large-2" transform="translate(-532.000000, -2136.000000)">
            <g id="Group-6-Copy-40" transform="translate(532.000000, 2136.000000)">
                <rect id="Rectangle-Copy-3" fill="#001521" x="0" y="0" width="376" height="376"></rect>
                <g id="Group-59" transform="translate(52.000000, 71.000000)">
                    <g id="Group-58" transform="translate(24.000000, 5.000000)" fill="#009FE3">
                        <rect id="Rectangle-Copy-264" fill-opacity="0.9" x="0" y="0" width="20" height="20"></rect>
                        <rect id="Rectangle-Copy-292" fill-opacity="0.65" x="0" y="40" width="20" height="20"></rect>
                        <rect id="Rectangle-Copy-386" fill-opacity="0.5" x="20" y="40" width="20" height="20"></rect>
                        <rect id="Rectangle-Copy-268" fill-opacity="0.9" x="20" y="20" width="20" height="20"></rect>
                        <rect id="Rectangle-Copy-269" fill-opacity="0.9" x="40" y="40" width="20" height="20"></rect>
                        <rect id="Rectangle-Copy-273" fill-opacity="0.6" x="0" y="20" width="20" height="20"></rect>
                        <rect id="Rectangle-Copy-293" fill-opacity="0.15" x="0" y="60" width="20" height="20"></rect>
                        <rect id="Rectangle-Copy-297" fill-opacity="0.05" x="20" y="40" width="20" height="20"></rect>
                        <rect id="Rectangle-Copy-318" fill-opacity="0.2" x="20" y="80" width="20" height="20"></rect>
                        <rect id="Rectangle-Copy-342" fill-opacity="0.2" x="20" y="100" width="20" height="20"></rect>
                        <rect id="Rectangle-Copy-338" fill-opacity="0.3" x="20" y="120" width="20" height="20"></rect>
                        <rect id="Rectangle-Copy-354" fill-opacity="0.35" x="20" y="140" width="20" height="20"></rect>
                        <rect id="Rectangle-Copy-301" fill-opacity="0.3" x="20" y="60" width="20" height="20"></rect>
                        <rect id="Rectangle-Copy-274" fill-opacity="0.3" x="0" y="100" width="20" height="20"></rect>
                        <rect id="Rectangle-Copy-295" fill-opacity="0.3" x="0" y="140" width="20" height="20"></rect>
                        <rect id="Rectangle-Copy-294" fill-opacity="0.3" x="0" y="80" width="20" height="20"></rect>
                        <rect id="Rectangle-Copy-296" fill-opacity="0.2" x="0" y="120" width="20" height="20"></rect>
                        <rect id="Rectangle-Copy-275" fill-opacity="0.25" x="0" y="160" width="20" height="20"></rect>
                        <rect id="Rectangle-Copy-278" fill-opacity="0.4" x="0" y="180" width="20" height="20"></rect>
                        <rect id="Rectangle-Copy-265" fill-opacity="0.5" x="20" y="0" width="20" height="20"></rect>
                        <rect id="Rectangle-Copy-276" fill-opacity="0.9" x="60" y="60" width="20" height="20"></rect>
                        <rect id="Rectangle-Copy-280" fill-opacity="0.3" x="40" y="80" width="20" height="20"></rect>
                        <rect id="Rectangle-Copy-343" fill-opacity="0.15" x="40" y="100" width="20" height="20"></rect>
                        <rect id="Rectangle-Copy-339" fill-opacity="0.4" x="40" y="120" width="20" height="20"></rect>
                        <rect id="Rectangle-Copy-355" fill-opacity="0.3" x="40" y="140" width="20" height="20"></rect>
                        <rect id="Rectangle-Copy-359" fill-opacity="0.3" x="40" y="160" width="20" height="20"></rect>
                        <rect id="Rectangle-Copy-365" fill-opacity="0.2" x="40" y="180" width="20" height="20"></rect>
                        <rect id="Rectangle-Copy-345" fill-opacity="0.5" x="80" y="120" width="20" height="20"></rect>
                        <rect id="Rectangle-Copy-356" fill-opacity="0.65" x="80" y="140" width="20" height="20"></rect>
                        <rect id="Rectangle-Copy-360" fill-opacity="0.6" x="80" y="160" width="20" height="20"></rect>
                        <rect id="Rectangle-Copy-366" fill-opacity="0.2" x="80" y="180" width="20" height="20"></rect>
                        <rect id="Rectangle-Copy-346" fill-opacity="0.5" x="100" y="120" width="20" height="20"></rect>
                        <rect id="Rectangle-Copy-357" fill-opacity="0.6" x="100" y="140" width="20" height="20"></rect>
                        <rect id="Rectangle-Copy-361" fill-opacity="0.5" x="100" y="160" width="20" height="20"></rect>
                        <rect id="Rectangle-Copy-367" fill-opacity="0.3" x="100" y="180" width="20" height="20"></rect>
                        <rect id="Rectangle-Copy-284" fill-opacity="0.4" x="20" y="160" width="20" height="20"></rect>
                        <rect id="Rectangle-Copy-368" fill-opacity="0.35" x="20" y="180" width="20" height="20"></rect>
                        <rect id="Rectangle-Copy-266" fill-opacity="0.7" x="40" y="0" width="20" height="20"></rect>
                        <rect id="Rectangle-Copy-298" fill-opacity="0.5" x="40" y="20" width="20" height="20"></rect>
                        <rect id="Rectangle-Copy-299" fill-opacity="0.3" x="40" y="60" width="20" height="20"></rect>
                        <rect id="Rectangle-Copy-300" fill-opacity="0.6" x="80" y="60" width="20" height="20"></rect>
                        <rect id="Rectangle-Copy-340" fill-opacity="0.4" x="80" y="100" width="20" height="20"></rect>
                        <rect id="Rectangle-Copy-270" fill-opacity="0.2" x="60" y="0" width="20" height="20"></rect>
                        <rect id="Rectangle-Copy-302" fill-opacity="0.3" x="60" y="20" width="20" height="20"></rect>
                        <rect id="Rectangle-Copy-310" fill-opacity="0.25" x="60" y="40" width="20" height="20"></rect>
                        <rect id="Rectangle-Copy-319" fill-opacity="0.4" x="60" y="80" width="20" height="20"></rect>
                        <rect id="Rectangle-Copy-344" fill-opacity="0.75" x="60" y="100" width="20" height="20"></rect>
                        <rect id="Rectangle-Copy-341" fill-opacity="0.6" x="60" y="120" width="20" height="20"></rect>
                        <rect id="Rectangle-Copy-358" fill-opacity="0.9" x="60" y="140" width="20" height="20"></rect>
                        <rect id="Rectangle-Copy-362" fill-opacity="0.8" x="60" y="160" width="20" height="20"></rect>
                        <rect id="Rectangle-Copy-369" fill-opacity="0.3" x="60" y="180" width="20" height="20"></rect>
                        <rect id="Rectangle-Copy-271" fill-opacity="0.5" x="80" y="0" width="20" height="20"></rect>
                        <rect id="Rectangle-Copy-303" fill-opacity="0.3" x="80" y="20" width="20" height="20"></rect>
                        <rect id="Rectangle-Copy-311" fill-opacity="0.2" x="80" y="40" width="20" height="20"></rect>
                        <rect id="Rectangle-Copy-320" fill-opacity="0.3" x="80" y="80" width="20" height="20"></rect>
                        <rect id="Rectangle-Copy-272" fill-opacity="0.3" x="100" y="0" width="20" height="20"></rect>
                        <rect id="Rectangle-Copy-304" fill-opacity="0.2" x="100" y="20" width="20" height="20"></rect>
                        <rect id="Rectangle-Copy-312" fill-opacity="0.3" x="100" y="40" width="20" height="20"></rect>
                        <rect id="Rectangle-Copy-327" fill-opacity="0.45" x="100" y="60" width="20" height="20"></rect>
                        <rect id="Rectangle-Copy-321" fill-opacity="0.65" x="100" y="80" width="20" height="20"></rect>
                        <rect id="Rectangle-Copy-390" fill-opacity="0.4" x="120" y="80" width="20" height="20"></rect>
                        <rect id="Rectangle-Copy-279" fill-opacity="0.25" x="120" y="0" width="20" height="20"></rect>
                        <rect id="Rectangle-Copy-305" fill-opacity="0.3" x="120" y="20" width="20" height="20"></rect>
                        <rect id="Rectangle-Copy-313" fill-opacity="0.2" x="120" y="40" width="20" height="20"></rect>
                        <rect id="Rectangle-Copy-328" fill-opacity="0.5" x="120" y="60" width="20" height="20"></rect>
                        <rect id="Rectangle-Copy-322" fill-opacity="0.1" x="120" y="80" width="20" height="20"></rect>
                        <rect id="Rectangle-Copy-333" fill-opacity="0.5" x="120" y="100" width="20" height="20"></rect>
                        <rect id="Rectangle-Copy-283" fill-opacity="0.3" x="140" y="0" width="20" height="20"></rect>
                        <rect id="Rectangle-Copy-306" fill-opacity="0.3" x="140" y="20" width="20" height="20"></rect>
                        <rect id="Rectangle-Copy-314" fill-opacity="0.25" x="140" y="40" width="20" height="20"></rect>
                        <rect id="Rectangle-Copy-329" fill-opacity="0.4" x="140" y="60" width="20" height="20"></rect>
                        <rect id="Rectangle-Copy-290" fill-opacity="0.3" x="180" y="0" width="20" height="20"></rect>
                        <rect id="Rectangle-Copy-307" fill-opacity="0.2" x="180" y="20" width="20" height="20"></rect>
                        <rect id="Rectangle-Copy-315" fill-opacity="0.3" x="180" y="40" width="20" height="20"></rect>
                        <rect id="Rectangle-Copy-330" fill-opacity="0.3" x="180" y="60" width="20" height="20"></rect>
                        <rect id="Rectangle-Copy-324" fill-opacity="0.2" x="180" y="80" width="20" height="20"></rect>
                        <rect id="Rectangle-Copy-335" fill-opacity="0.3" x="180" y="100" width="20" height="20"></rect>
                        <rect id="Rectangle-Copy-348" fill-opacity="0.15" x="180" y="120" width="20" height="20"></rect>
                        <rect id="Rectangle-Copy-351" fill-opacity="0.3" x="180" y="140" width="20" height="20"></rect>
                        <rect id="Rectangle-Copy-383" fill-opacity="0.3" x="180" y="160" width="20" height="20"></rect>
                        <rect id="Rectangle-Copy-277" fill-opacity="0.9" x="80" y="80" width="20" height="20"></rect>
                        <rect id="Rectangle-Copy-281" fill-opacity="0.9" x="100" y="100" width="20" height="20"></rect>
                        <rect id="Rectangle-Copy-285" fill-opacity="0.4" x="120" y="140" width="20" height="20"></rect>
                        <rect id="Rectangle-Copy-363" fill-opacity="0.5" x="120" y="160" width="20" height="20"></rect>
                        <rect id="Rectangle-Copy-370" fill-opacity="0.25" x="120" y="180" width="20" height="20"></rect>
                        <rect id="Rectangle-Copy-364" fill-opacity="0.4" x="140" y="160" width="20" height="20"></rect>
                        <rect id="Rectangle-Copy-371" fill-opacity="0.2" x="140" y="180" width="20" height="20"></rect>
                        <rect id="Rectangle-Copy-380" fill-opacity="0.3" x="160" y="180" width="20" height="20"></rect>
                        <rect id="Rectangle-Copy-267" fill-opacity="0.2" x="160" y="0" width="20" height="20"></rect>
                        <rect id="Rectangle-Copy-308" fill-opacity="0.3" x="160" y="20" width="20" height="20"></rect>
                        <rect id="Rectangle-Copy-316" fill-opacity="0.2" x="160" y="40" width="20" height="20"></rect>
                        <rect id="Rectangle-Copy-331" fill-opacity="0.8" x="160" y="60" width="20" height="20"></rect>
                        <rect id="Rectangle-Copy-325" fill-opacity="0.4" x="160" y="80" width="20" height="20"></rect>
                        <rect id="Rectangle-Copy-387" fill-opacity="0.5" x="140" y="80" width="20" height="20"></rect>
                        <rect id="Rectangle-Copy-336" fill-opacity="0.6" x="160" y="100" width="20" height="20"></rect>
                        <rect id="Rectangle-Copy-388" fill-opacity="0.2" x="140" y="100" width="20" height="20"></rect>
                        <rect id="Rectangle-Copy-349" fill-opacity="0.7" x="160" y="120" width="20" height="20"></rect>
                        <rect id="Rectangle-Copy-389" fill-opacity="0.4" x="140" y="120" width="20" height="20"></rect>
                        <rect id="Rectangle-Copy-352" fill-opacity="0.4" x="160" y="140" width="20" height="20"></rect>
                        <rect id="Rectangle-Copy-282" fill-opacity="0.9" x="120" y="120" width="20" height="20"></rect>
                        <rect id="Rectangle-Copy-286" fill-opacity="0.9" x="140" y="140" width="20" height="20"></rect>
                        <rect id="Rectangle-Copy-287" fill-opacity="0.9" x="160" y="160" width="20" height="20"></rect>
                        <rect id="Rectangle-Copy-288" fill-opacity="0.9" x="180" y="180" width="20" height="20"></rect>
                    </g>
                    <rect id="Rectangle-Copy-291" fill="url(#linearGradient-1)" x="240" y="5" width="8" height="200"></rect>
                    <rect id="Rectangle" fill-opacity="0.25" fill="#FFFFFF" x="252" y="5" width="4" height="2"></rect>
                    <rect id="Rectangle-Copy-248" fill-opacity="0.25" fill="#FFFFFF" x="252" y="104" width="4" height="2"></rect>
                    <rect id="Rectangle-Copy-250" fill-opacity="0.25" fill="#FFFFFF" x="16" y="5" width="4" height="2"></rect>
                    <rect id="Rectangle-Copy-251" fill-opacity="0.25" fill="#FFFFFF" x="16" y="45" width="4" height="2"></rect>
                    <rect id="Rectangle-Copy-252" fill-opacity="0.25" fill="#FFFFFF" x="16" y="85" width="4" height="2"></rect>
                    <rect id="Rectangle-Copy-253" fill-opacity="0.25" fill="#FFFFFF" x="16" y="125" width="4" height="2"></rect>
                    <rect id="Rectangle-Copy-254" fill-opacity="0.25" fill="#FFFFFF" x="16" y="165" width="4" height="2"></rect>
                    <rect id="Rectangle-Copy-258" fill-opacity="0.25" fill="#FFFFFF" x="252" y="203" width="4" height="2"></rect>
                    <rect id="Rectangle-Copy-262" fill-opacity="0.25" fill="#FFFFFF" x="62" y="209" width="2" height="4"></rect>
                    <rect id="Rectangle-Copy-263" fill-opacity="0.25" fill="#FFFFFF" x="102" y="209" width="2" height="4"></rect>
                    <rect id="Rectangle-Copy-392" fill-opacity="0.25" fill="#FFFFFF" x="142" y="209" width="2" height="4"></rect>
                    <rect id="Rectangle-Copy-393" fill-opacity="0.25" fill="#FFFFFF" x="182" y="209" width="2" height="4"></rect>
                    <rect id="Rectangle-Copy-394" fill-opacity="0.25" fill="#FFFFFF" x="222" y="209" width="2" height="4"></rect>
                    <text id="v1" font-family="TitilliumWeb-Regular, Titillium Web" font-size="10" font-weight="normal" line-spacing="16" fill="#FFFFFF" fill-opacity="0.55">
                        <tspan x="0" y="11">v1</tspan>
                    </text>
                    <text id="0.1" font-family="TitilliumWeb-Regular, Titillium Web" font-size="10" font-weight="normal" line-spacing="16" fill="#FFFFFF" fill-opacity="0.55">
                        <tspan x="260" y="11">0.1</tspan>
                    </text>
                    <text id="0.5" font-family="TitilliumWeb-Regular, Titillium Web" font-size="10" font-weight="normal" line-spacing="16" fill="#FFFFFF" fill-opacity="0.55">
                        <tspan x="260" y="111">0.5</tspan>
                    </text>
                    <text id="v1" font-family="TitilliumWeb-Regular, Titillium Web" font-size="10" font-weight="normal" line-spacing="16" fill="#FFFFFF" fill-opacity="0.55">
                        <tspan x="214" y="228">v1</tspan>
                    </text>
                    <text id="v2" font-family="TitilliumWeb-Regular, Titillium Web" font-size="10" font-weight="normal" line-spacing="16" fill="#FFFFFF" fill-opacity="0.55">
                        <tspan x="173" y="228">v2</tspan>
                    </text>
                    <text id="v3" font-family="TitilliumWeb-Regular, Titillium Web" font-size="10" font-weight="normal" line-spacing="16" fill="#FFFFFF" fill-opacity="0.55">
                        <tspan x="134" y="228">v3</tspan>
                    </text>
                    <text id="v4" font-family="TitilliumWeb-Regular, Titillium Web" font-size="10" font-weight="normal" line-spacing="16" fill="#FFFFFF" fill-opacity="0.55">
                        <tspan x="94" y="228">v4</tspan>
                    </text>
                    <text id="v5" font-family="TitilliumWeb-Regular, Titillium Web" font-size="10" font-weight="normal" line-spacing="16" fill="#FFFFFF" fill-opacity="0.55">
                        <tspan x="53" y="228">v5</tspan>
                    </text>
                    <text id="v2" font-family="TitilliumWeb-Regular, Titillium Web" font-size="10" font-weight="normal" line-spacing="16" fill="#FFFFFF" fill-opacity="0.55">
                        <tspan x="0" y="51">v2</tspan>
                    </text>
                    <text id="v3" font-family="TitilliumWeb-Regular, Titillium Web" font-size="10" font-weight="normal" line-spacing="16" fill="#FFFFFF" fill-opacity="0.55">
                        <tspan x="0" y="91">v3</tspan>
                    </text>
                    <text id="v4" font-family="TitilliumWeb-Regular, Titillium Web" font-size="10" font-weight="normal" line-spacing="16" fill="#FFFFFF" fill-opacity="0.55">
                        <tspan x="0" y="131">v4</tspan>
                    </text>
                    <text id="v5" font-family="TitilliumWeb-Regular, Titillium Web" font-size="10" font-weight="normal" line-spacing="16" fill="#FFFFFF" fill-opacity="0.55">
                        <tspan x="0" y="171">v5</tspan>
                    </text>
                    <text id="1.0" font-family="TitilliumWeb-Regular, Titillium Web" font-size="10" font-weight="normal" line-spacing="16" fill="#FFFFFF" fill-opacity="0.55">
                        <tspan x="260" y="207">1.0</tspan>
                    </text>
                </g>
            </g>
        </g>
    </g>
</svg>
