<?xml version="1.0" encoding="UTF-8"?>
<svg width="376px" height="376px" viewBox="0 0 376 376" version="1.1" xmlns="http://www.w3.org/2000/svg" xmlns:xlink="http://www.w3.org/1999/xlink">
    <!-- Generator: Sketch 52.6 (67491) - http://www.bohemiancoding.com/sketch -->
    <title>Group 6 Copy 5</title>
    <desc>Created with Sketch.</desc>
    <g id="Data-viz-vocabulary" stroke="none" stroke-width="1" fill="none" fill-rule="evenodd">
        <g id="Details-large-1" transform="translate(-132.000000, -934.000000)">
            <g id="Group-6-Copy-5" transform="translate(132.000000, 934.000000)">
                <rect id="Rectangle-Copy-3" fill="#001521" x="0" y="0" width="376" height="376"></rect>
                <g id="Group-13" transform="translate(52.000000, 90.000000)" fill="#009FE3">
                    <rect id="Rectangle-Copy-61" fill-opacity="0.5" x="0" y="0" width="62" height="60"></rect>
                    <rect id="Rectangle-Copy-65" fill-opacity="0.35" x="0" y="68" width="62" height="60"></rect>
                    <rect id="Rectangle-Copy-69" fill-opacity="0.2" x="0" y="136" width="62" height="60"></rect>
                    <rect id="Rectangle-Copy-62" fill-opacity="0.65" x="70" y="0" width="62" height="60"></rect>
                    <rect id="Rectangle-Copy-66" fill-opacity="0.5" x="70" y="68" width="62" height="60"></rect>
                    <rect id="Rectangle-Copy-70" fill-opacity="0.35" x="70" y="136" width="62" height="60"></rect>
                    <rect id="Rectangle-Copy-63" fill-opacity="0.85" x="140" y="0" width="62" height="60"></rect>
                    <rect id="Rectangle-Copy-67" fill-opacity="0.65" x="140" y="68" width="62" height="60"></rect>
                    <rect id="Rectangle-Copy-71" fill-opacity="0.5" x="140" y="136" width="62" height="60"></rect>
                    <rect id="Rectangle-Copy-64" x="210" y="0" width="62" height="60"></rect>
                    <rect id="Rectangle-Copy-68" fill-opacity="0.85" x="210" y="68" width="62" height="60"></rect>
                    <rect id="Rectangle-Copy-72" fill-opacity="0.65" x="210" y="136" width="62" height="60"></rect>
                </g>
            </g>
        </g>
    </g>
</svg>
