<?xml version="1.0" encoding="UTF-8"?>
<svg width="376px" height="376px" viewBox="0 0 376 376" version="1.1" xmlns="http://www.w3.org/2000/svg" xmlns:xlink="http://www.w3.org/1999/xlink">
    <!-- Generator: Sketch 52.6 (67491) - http://www.bohemiancoding.com/sketch -->
    <title>Group 6 Copy 32</title>
    <desc>Created with Sketch.</desc>
    <g id="Data-viz-vocabulary" stroke="none" stroke-width="1" fill="none" fill-rule="evenodd">
        <g id="Details-large-2" transform="translate(-932.000000, -934.000000)">
            <g id="Group-6-Copy-32" transform="translate(932.000000, 934.000000)">
                <rect id="Rectangle-Copy-3" fill="#001521" x="0" y="0" width="376" height="376"></rect>
                <g id="Group-49" transform="translate(48.000000, 80.000000)" stroke="#009FE3">
                    <path d="M101.5,67.5 L117,83.9375" id="Line-3" stroke-linecap="square"></path>
                    <path d="M189,12 L189,53" id="Line-3-Copy-6" stroke-linecap="square"></path>
                    <path d="M17,115 L51,121" id="Line-3" stroke-linecap="square"></path>
                    <path d="M102,127.346166 L118.5,94.5" id="Line-3-Copy-2" stroke-linecap="square"></path>
                    <path d="M126,92.5 L157.941176,111.95" id="Line-3-Copy-3" stroke-linecap="square"></path>
                    <path d="M168,117.5 L195.5,133.5" id="Line-3-Copy-7" stroke-linecap="square"></path>
                    <path d="M169,114.5 L208,107.5" id="Line-3-Copy-7" stroke-linecap="square"></path>
                    <path d="M127,87.5 L183.5,61.5" id="Line-3-Copy-3" stroke-linecap="square"></path>
                    <path d="M195,56.9166667 L219.916667,45" id="Line-3-Copy-3" stroke-linecap="square"></path>
                    <path d="M230,38.5 L261,10.5" id="Line-3-Copy-5" stroke-linecap="square"></path>
                    <path d="M230.5,43.5 L249,51" id="Line-3-Copy-5" stroke-linecap="square"></path>
                    <path d="M116,92 L63,119.5" id="Line-3-Copy-4" stroke-linecap="square"></path>
                    <path d="M58.4352936,155 L57,127" id="Line-3-Copy" stroke-linecap="square"></path>
                    <path d="M10,185 L54,126" id="Line-3-Copy" stroke-linecap="square"></path>
                    <circle id="Oval-Copy-41" fill-opacity="0.2" fill="#009FE3" cx="97" cy="63" r="5.5"></circle>
                    <circle id="Oval-Copy-149" fill-opacity="0.2" fill="#009FE3" cx="12" cy="112" r="5.5"></circle>
                    <circle id="Oval-Copy-86" fill-opacity="0.2" fill="#009FE3" cx="59" cy="161" r="5.5"></circle>
                    <circle id="Oval-Copy-143" fill-opacity="0.2" fill="#009FE3" cx="99" cy="132" r="5.5"></circle>
                    <circle id="Oval-Copy-90" fill-opacity="0.2" fill="#009FE3" cx="121" cy="89" r="5.5"></circle>
                    <circle id="Oval-Copy-146" fill-opacity="0.2" fill="#009FE3" cx="189" cy="59" r="5.5"></circle>
                    <circle id="Oval-Copy-140" fill-opacity="0.2" fill="#009FE3" cx="163" cy="115" r="5.5"></circle>
                    <circle id="Oval-Copy-145" fill-opacity="0.2" fill="#009FE3" cx="57" cy="121" r="5.5"></circle>
                    <circle id="Oval-Copy-147" fill-opacity="0.2" fill="#009FE3" cx="6" cy="189" r="5.5"></circle>
                    <circle id="Oval-Copy-152" fill-opacity="0.2" fill="#009FE3" cx="201" cy="136" r="5.5"></circle>
                    <circle id="Oval-Copy-153" fill-opacity="0.2" fill="#009FE3" cx="214" cy="106" r="5.5"></circle>
                    <circle id="Oval-Copy-144" fill-opacity="0.2" fill="#009FE3" cx="189" cy="6" r="5.5"></circle>
                    <circle id="Oval-Copy-139" fill-opacity="0.2" fill="#009FE3" cx="265" cy="6" r="5.5"></circle>
                    <circle id="Oval-Copy-151" fill-opacity="0.2" fill="#009FE3" cx="255" cy="53" r="5.5"></circle>
                    <circle id="Oval-Copy-150" fill-opacity="0.2" fill="#009FE3" cx="225" cy="42" r="5.5"></circle>
                </g>
            </g>
        </g>
    </g>
</svg>
