<?xml version="1.0" encoding="UTF-8"?>
<svg width="376px" height="376px" viewBox="0 0 376 376" version="1.1" xmlns="http://www.w3.org/2000/svg" xmlns:xlink="http://www.w3.org/1999/xlink">
    <!-- Generator: Sketch 52.6 (67491) - http://www.bohemiancoding.com/sketch -->
    <title>Group 6 Copy 43</title>
    <desc>Created with Sketch.</desc>
    <g id="Data-viz-vocabulary" stroke="none" stroke-width="1" fill="none" fill-rule="evenodd">
        <g id="Details-large-2" transform="translate(-532.000000, -2536.000000)">
            <g id="Group-6-Copy-43" transform="translate(532.000000, 2536.000000)">
                <rect id="Rectangle-Copy-3" fill="#001521" x="0" y="0" width="376" height="376"></rect>
                <g id="Group-70" transform="translate(52.000000, 90.000000)">
                    <polyline id="Path-15-Copy" stroke-opacity="0.5" stroke="#009FE3" stroke-width="4" points="2 40.4240416 136.22113 48 272 30"></polyline>
                    <polyline id="Path-15-Copy-3" stroke-opacity="0.5" stroke="#009FE3" stroke-width="4" points="2 16.7862437 137.405532 20 272 6"></polyline>
                    <polyline id="Path-15-Copy-4" stroke-opacity="0.5" stroke="#009FE3" stroke-width="4" points="2 100.625 135.937008 124 272 90"></polyline>
                    <polyline id="Path-15-Copy-8" stroke-opacity="0.5" stroke="#009FE3" stroke-width="4" points="2 79.146405 136.25126 109 270 69"></polyline>
                    <polyline id="Path-15-Copy-5" stroke-opacity="0.5" stroke="#009FE3" stroke-width="4" points="2 147 137.33996 139.87054 270 122"></polyline>
                    <polyline id="Path-15-Copy-7" stroke-opacity="0.5" stroke="#009FE3" stroke-width="4" points="2 123 136.67725 100.683959 270 47"></polyline>
                    <polyline id="Path-15-Copy-6" stroke-opacity="0.5" stroke="#009FE3" stroke-width="4" points="1 168.950854 136.103972 177 270 158"></polyline>
                    <polyline id="Path-15-Copy-2" stroke="#009FE3" stroke-width="4" points="2 57 136 81.1388889 270 136"></polyline>
                    <rect id="Rectangle" fill="#009FE3" x="0" y="0" width="4" height="196"></rect>
                    <rect id="Rectangle-Copy-309" fill="#009FE3" x="268" y="0" width="4" height="196"></rect>
                    <rect id="Rectangle-Copy-317" fill="#009FE3" x="136" y="0" width="4" height="196"></rect>
                </g>
            </g>
        </g>
    </g>
</svg>
