<?xml version="1.0" encoding="UTF-8"?>
<svg overflow="hidden" viewBox="0 0 2085 2080" xml:space="preserve" xmlns="http://www.w3.org/2000/svg"><defs><clipPath id="b"><rect x="1416" y="197" width="2085" height="2080"/></clipPath><clipPath id="a"><rect x="1416" y="197" width="2085" height="2080"/></clipPath></defs><g transform="translate(-1416 -197)" clip-path="url(#b)"><g clip-path="url(#a)" fill-rule="evenodd"><path d="m1420 1237.5c0-574.1 465.4-1039.5 1039.5-1039.5s1039.5 465.4 1039.5 1039.5-465.4 1039.5-1039.5 1039.5-1039.5-465.4-1039.5-1039.5z" fill="#051C2C"/><path d="m2366.8 418h0.9-0.9zm252.63 1638.6v-0.89l0.45-0.89 1.79-1.35h1.34l0.89-0.89 3.13-1.34 0.45-1.79 2.24-0.45 3.13-0.89 4.02 0.89 0.45-0.89v-0.89l1.79-0.45h3.57l4.92 1.34 2.68-1.34 2.24-0.89 4.02 1.34 3.13-0.45 1.35-0.89v-0.9h0.89l-0.89-0.44 0.89-0.9 5.37-1.79-1.79-0.44 0.89-0.9 0.9-0.89 2.23-0.45 2.24 0.45 2.23-0.45 2.24-0.89 4.47 0.89 4.92 1.34v-0.89h0.44l9.39 0.89h-0.89v-0.89-0.45l0.89-0.89h2.24l0.45-0.9h2.68l4.92 1.79h7.15l3.13 1.34h1.34l2.24 1.34h2.24 0.89 0.89l3.58 0.9h0.9l-0.9-0.9v-0.44l2.24-1.79v-1.34l2.23-0.9h4.03l4.47 1.79h1.34 2.23 1.79 0.9 0.44l-0.44-1.79-1.79-0.89v-0.45l1.79-2.23 2.68-1.79 2.24-0.45h3.13 2.23l4.92 1.34h0.45 2.23l2.24-0.89 4.02-2.23h3.13l1.34-1.35h1.79l0.45-0.89h1.79l0.45-1.34h1.78l6.71-4.92 2.24-1.34 2.23-1.34 4.47-2.23 0.9-1.79 3.13-1.34 1.34-2.24 5.36-2.23 0.9-1.79 2.23-0.89 2.24-2.24h0.89v-0.45l2.24-1.78 0.89-1.34 2.24-0.9v-1.34h1.34l1.79-2.23 1.34-0.9 0.9-2.23 1.34-0.9h0.89l0.45-2.23 1.79-0.89 0.89-0.45v-0.9l0.45-0.89 0.89-0.45 3.13-0.89 2.24-2.24 1.34-2.23h0.89 1.35l5.36-5.36 0.89-0.9 3.14-3.13 3.57-4.47 3.13-5.36 4.47-6.26 3.13-6.7 4.47-3.58-0.44-0.89 0.44-1.34 2.24-4.92 4.02-4.47 5.37-4.47 3.58-4.47 6.26-2.23 6.7-5.37 1.79-2.23 0.45-0.89 0.89-3.13 2.24-5.37 1.34-6.7 1.79-6.71v-0.89l3.58-8.49 0.89-5.81 0.89-3.13-0.89-1.79 0.89-4.47v-1.34l0.45-7.15-0.45 0.89-0.89 1.79-0.89 1.34 0.89 0.9h-1.34l-2.24-2.24h-0.89l-0.89-1.79-0.9-2.23h-0.45l-0.89-0.89h-1.34l0.44 0.89h-0.44v-0.89l0.44-1.35 1.79 1.35 2.24-2.24 0.89-1.34 0.45 1.34v-1.34-1.79l2.24-3.57 4.91-4.03 3.58-1.34 6.71-3.13 7.6-3.12 3.13-0.45 5.37-2.24 2.23-0.89 2.24-0.89 8.49-3.13 6.26-2.24 1.34-1.34 1.35-0.89v-1.34l4.91-5.37 2.24-3.13v-2.23l1.34-3.13-0.89-0.89v-0.45l-0.45-0.89v1.34l-0.9 0.89-0.89-0.89v0.89l-0.45-0.89v0.89h-0.89l0.89 0.89-0.89 0.9-0.9 1.34v-1.34-0.9-0.89l0.9-3.58h-0.9v-0.89h1.79v1.34l0.45-2.23v-3.13l1.79-4.47-0.9-3.13 0.9-1.34 2.23-3.13v-0.45l-1.78-0.89 0.89 0.89h-0.89l-0.45-3.13v-4.46l0.45-4.03v-2.23-1.34-2.68 0.89 3.13l-0.45-3.13-0.9-2.24-0.89 0.9v0.45h-0.45v0.89 0.89-0.89l-0.89 0.89v-0.89h-0.9v-4.47l-0.89-0.89 0.89-0.45-1.34-2.68v-4.47l-3.13-4.47-0.89-2.24v-1.78l-0.45 1.78v-0.89-0.89l-0.89-0.45 0.89 0.45h0.45v-0.45-0.9 0.9l-0.45-0.9v-0.89-0.45h-1.79l0.9-0.89h0.89 0.45v-0.89l-0.45-0.45h0.45l0.89-1.79-0.89-0.89h-1.34l0.89-0.45-0.89-1.79v0.9h-0.9v-0.9h-0.89l0.89-0.45h0.9l-0.9-0.89v0.89-0.89-0.89l-0.89 0.89 0.89-0.89h-0.89l-0.45-0.45h-0.89v0.45 0.89h-0.9 0.9l-0.9-1.34 0.9-0.89-0.9 0.89v0.45-0.45h-1.34v0.45-0.45h0.9-0.9 0.9v-0.89h0.44-0.44l0.44-0.9-1.34-0.89h-0.89 0.89l-0.89-0.45h-0.45 0.45l-0.45-0.89h-0.89l0.89-0.9-0.89-0.44-0.9-0.9 0.9-0.89v-0.45h-0.9v-0.89 0.89l0.9-0.89 0.89-1.79v-0.45l-0.89-0.89v-0.89h0.89l0.45 0.89v-0.89l-0.45-2.69 0.45-1.78-0.45-1.35 0.45-0.89v-1.34-0.89l0.89 0.89 0.9 1.34h1.34l4.47-3.13 0.89-1.34v0.9l6.26-5.37 2.24-3.13 3.58-4.02v-0.45h0.89 0.89-0.89v-0.89l4.47-2.24h-0.89v-0.89l0.89 0.89h0.9v-1.78h1.34l0.89-0.45-0.89-0.89h0.89v0.89l-0.89 0.45-0.9 0.89h0.9 0.89v-0.89h0.9 0.44l-0.44 0.89 0.44-0.89 0.9-0.45v0.45h0.89l2.24-0.45h0.44l1.79-1.79v-0.44l0.9-0.9-1.79 0.9 0.89-1.79 0.9-0.45 0.44-0.89h-0.44 0.44l0.9-0.9-0.9-0.89h1.79v-0.45l2.24-2.23v-0.9h0.45v-0.89l0.89 0.89v-0.89l4.02-3.13v-0.45h-0.89v0.45h-0.89v-0.45l1.78-0.89h0.45l2.24-2.24v-0.89l3.13-4.47 2.23-1.34 2.24-2.68 7.15-2.68 1.34-0.9v-0.89l0.9 0.89 5.36-3.13 5.37-1.34 0.45-0.89 5.36-2.24 5.37-1.34 3.13-0.89 3.57-0.89h1.79l1.34-1.35-0.44-0.89 0.44-0.89v0.89l0.9-1.34 2.23-1.79 5.37-2.23 1.34-1.34 7.16-4.03-0.9-0.44h1.34v-0.9 0.9-0.9h-0.44 0.44l1.79-1.78h-0.89l-0.9-0.45h-1.34-0.89l3.13-0.9h0.89l1.34-1.34v-1.78l1.79-0.45v-0.9l0.45-0.89v-0.89l-0.45-0.45h1.34l3.58-4.47 2.68-3.13 1.34-1.79 1.34-1.34v-0.89h-0.44 0.44v-0.9l1.79-1.34-0.89 0.9 1.34-2.24v-2.23l-0.45-0.9v0.9l-0.89-0.9-0.9 0.9h0.9l-0.9 0.45-1.34-0.45v0.45-0.45l0.9-0.9 0.44-0.89v0.89l1.79-1.78h1.34v-0.45l-0.89-0.89v-0.9 0.9h-0.45v-0.9-0.45l0.45 0.45h1.79v0.9h0.89l-0.89-1.35h-0.9l-1.34-0.89v-0.89-0.45l0.45 1.34 1.79-0.89 1.34-0.45h0.89v-0.89h-0.89l0.89-0.9v-2.23l-0.89-0.9 0.89-2.23h-0.89l-0.45 0.89v-0.89l1.34-0.45-0.89-2.68-2.24 0.89-0.89 0.9v2.23l-1.34 0.9 0.89-1.79-0.89-0.45 1.34-0.89-0.45 0.89v-0.89h0.45l-0.45-0.9v-1.34l-0.89-0.89h0.89l0.45 0.89 1.79-0.89v-1.34h-0.9v-1.79h-1.34l-0.89 0.89v0.9l-0.9-0.9h0.9l-0.9-0.89v0.89h-0.44l0.44-0.89-0.44-0.45 1.34-0.89v-0.89h-0.9l1.79-0.9v-0.45-0.89h-0.89-0.9v-0.89h1.79l-0.89-0.45v-0.89l-0.9-4.47-0.44-0.9v-0.89l1.34-0.45v-0.89h-0.9l-0.44-0.9v-2.23l0.44-0.89v-0.45l-0.44-1.79 0.44-0.45v-2.23l-0.44-1.79 0.44-3.13h-0.44-0.9-0.89l0.89 0.9v1.34l-0.89-0.45h-0.45l-0.89-1.79v-0.44l1.34-0.9h0.89v0.9l0.9-2.24h0.44v-0.89 0.89l0.9-0.89 0.89-0.9h-0.89v-0.89-0.45l-0.9 0.45v-1.34h0.9v-0.9 0.9l-0.9-0.9-0.44-1.34 0.44-0.89h-1.34l-0.89 0.89 0.89-0.89-0.89-0.45 0.89-1.79 1.34-0.89h-0.44-0.9-0.89l0.89-1.34v-1.34-0.9-0.89-0.89-1.34-0.9-0.45l0.9-0.89-0.9-0.89-0.89-1.34 0.89-0.9-0.89-0.89v-1.34l-0.45-0.9v-0.44-0.9l0.45-0.89-1.34-1.34 0.89-0.9 0.45-0.89v-0.45-0.89h-0.45v-0.89 0.89l-0.89-0.89v-0.45h-0.9v-0.9l0.9-0.89 0.89-1.34 1.34-0.89v-0.9l0.9-1.34 0.44-0.89-1.34-0.45v-0.89-0.9-0.44l2.24-0.9v-0.89l-0.9-0.9-2.23-1.34 2.23-1.34 1.79 0.45v-0.45l-1.79-0.89v-0.9l-1.34-1.34h0.9v-1.78h-2.24l-0.89-2.24 0.89-0.45-0.89-0.89-0.9 0.89h0.9v0.45l-1.79-0.45-0.45-1.78-1.79-0.45v-0.9l-0.44 1.35 0.44-0.45 0.9 0.45h-0.9-0.44v-0.45l-1.79 0.45h-0.45l0.45-0.45v-1.79l-3.13-0.89h-0.45l0.45 0.89v0.89h-0.45v-0.89-0.89l-1.79-2.24-0.44-0.44h-0.9v-0.9h-2.23l-0.9 1.34h-0.89l0.89-0.44v-0.9l2.24-0.89-0.45-0.45 0.45-0.89v-0.9l-0.45-1.34v-0.89h-0.89l0.89-0.9h-0.89v-0.44-0.9-0.89l-0.9-1.34-0.89-0.9v-0.89l-0.45-0.45h-0.89-0.9v-0.89h0.9l1.34-0.89v-2.24h-0.45v-0.45-1.78l-0.89-0.9 0.89-1.34-1.79-0.89v1.79h0.9v0.44l-0.9-0.44-1.34 0.44 0.89 0.9h-0.89v-1.34h-0.89l0.89-0.9v-1.34-0.89-0.9h-0.89v-0.89h-0.45-0.9v-0.45h1.35l0.89 0.45v0.89h0.89 0.45l-0.45-0.89-0.89-2.24v0.9l-0.89-0.9-0.45-1.34h-0.9-0.89v-1.34-0.89l-0.89-0.9 0.89-0.89h-0.89v-0.45l-0.45-0.89v-0.89-0.45-0.9-0.89l-0.9-1.34h0.9v-0.89l0.45 0.89 0.89-0.89h-0.89v-0.9-0.45l0.89 0.45 2.24-4.91-0.45-2.69v-0.44l0.45-0.9-2.24-1.34-0.89-0.89v0.89h-0.45v-0.89-1.34-0.9l-0.9-0.89 0.9-3.13 1.34-1.34v-2.24l1.79-0.89v-1.34l0.45-0.89 0.89 0.89 0.89-1.79h0.45l-0.45-0.44v-2.24l-1.78-3.13h-0.45-0.9-0.89l-0.89-0.89h-0.45v0.89 0.45-0.45-0.89-0.9-0.44l-0.9-0.9v0.9h-0.89v-2.24l-1.34-1.79-0.9-0.89-0.44-0.45-1.79-0.89-0.9-0.89 0.9 0.89-2.24-0.89-2.23-2.69 0.89-2.68v-1.34h-0.89l-0.9-2.23v-0.9l0.9-1.34v-2.23l1.34-3.13v-1.79l1.79-2.23 0.44-2.24 0.9-0.45 1.79-4.02-0.9-0.89 0.9-0.45v-0.89l0.44-0.9v-1.34l-0.44 0.9v-0.9h0.44l0.9-0.89h-0.9v-0.9-0.44-0.9l0.9-0.89v0.89 0.9l0.89-1.79 0.45-1.34h-0.45l-0.89-0.9h0.89v-1.34l0.45-0.89 0.89-0.89 0.9-0.45v0.45h2.23 0.9l-0.9-0.45 0.9-0.9v0.9l0.45-0.9v-1.34l0.89-1.78h0.89l1.35-5.37 1.34-2.23-0.45-0.45h-1.79v-0.89h1.79l0.45-0.9 0.89 1.79 0.9-0.89v-0.9l0.89-1.34 1.34-2.23 0.9-3.13v-1.79l2.23-4.92 3.58-2.68v-0.45-1.78l0.89-1.34v-0.9l0.9-1.34 0.44-0.89h-0.44l-0.9-1.34v-2.24-1.79l1.34-1.34 1.79-1.78 3.13-1.35 2.24-0.89 1.34 0.89h0.89l1.34-1.34 1.79-0.89v-0.89l0.45-0.9 0.89-0.45h-1.34l0.45-0.89v0.89l1.79-1.78h0.45l0.89 0.89h0.89v-1.34-0.89h-1.78v-4.47l-2.24-1.79 2.24 0.89v0.9l0.89 1.34 0.89-0.9v-0.44-0.9-0.89l0.45-0.45-0.45 0.45v1.79l0.45 0.44h0.9v-0.44l2.23-0.9h0.9 0.89v-0.89l0.45 0.89v-0.89h0.89v0.89l3.13-3.13-0.89 0.9 1.79-0.9h-0.9l0.9-0.44v-0.9 0.9l0.44-0.9 1.79-3.13h0.45v-0.89l6.26-8.04-0.9-1.79-0.44-0.45-2.69 1.34 1.79-1.34h0.9l-0.9-0.89 0.9 0.89h0.44v0.45h0.9v0.89h0.89l0.45-0.89-0.45 0.89v-0.89l1.34-0.45h-0.89l1.79-2.68-0.9-0.45h0.9l-0.9-0.89 0.9-1.34-1.79-0.9h0.89l0.9 0.9-0.9 1.34h0.9v0.89l1.34-0.89-0.89-0.9 2.68-1.34-0.9-0.89v0.89h-0.89v-1.34h-0.89-0.45v-0.89l0.45 0.89h0.89v1.34l0.89-0.89h0.9l1.34-0.45 5.37-7.15 0.89-1.34 0.45 0.89v-0.89l0.89-0.89v-0.9h0.89v0.9-0.9l1.35-2.23 6.26-5.81 4.47-5.37 6.7-7.15 2.24-2.68 7.15-5.36 2.69-3.13h0.89l2.24-2.24 1.79-0.89 0.44-1.34 4.03-3.13 5.81-5.36h0.89l3.13-2.24 5.82-4.02 8.49-3.58 0.9-0.89 8.49-5.36 2.24-0.45 2.23-1.79 2.24-2.23 2.23-3.13 2.24-1.34 0.89-1.34 7.61-7.16 5.36-5.81 5.81-7.15 6.26-5.81 3.58-4.91 3.13-2.24 4.02-5.36 3.58-4.47 3.13-5.81 1.34-2.24 5.37-7.15 2.23-3.13 1.79-2.68 4.47-7.15 0.9-1.34 2.68-5.37v-1.34l0.9-4.02 2.23-6.7 4.47-7.15v-0.45l6.26-8.49 2.24-3.58v-0.89l1.34-2.24v-0.89h-0.45v-0.9l0.45-2.23 3.13-3.58 2.23-1.78 1.79-0.45v-2.24l1.34-2.68 3.13-2.68v-2.23l0.9-1.79 0.45-3.58 0.89-0.89 4.47-4.02v-2.69l1.79-1.78 0.45-0.45 2.23-3.13v-0.89l-0.44-1.34v-1.79-1.34l0.44-4.47h0.9l0.89-3.13-0.89-2.24 0.89-1.78v-3.13l2.24-2.24 3.57-0.44h1.79l0.9 0.44v0.9h1.34 0.89l0.45-1.34-0.45-0.9h-2.23l-2.69-1.34 0.9 1.34 0.89 0.9h-2.23l-2.24 0.44v-0.44l0.45-0.9h0.89v-1.34l1.34-0.89-0.44-2.24-0.9-7.15 0.9-1.34 0.44-2.24-1.34-0.89-0.89-1.34v-2.23l0.89-2.24v-1.79l3.13-3.57v-0.9l0.9-3.126h-0.9l-2.23-0.447h-2.24l-1.79-0.894-3.13-0.894-0.44-0.894-3.13 0.894h-0.9l-1.34 0.894-0.89 0.894-0.9 2.683-0.45 0.89-1.78 0.9-2.24 1.34-0.45 0.89-3.13 0.9-1.79 0.44h-2.68l-2.68 1.79h-1.34l-1.34-0.89-0.9 0.89h-2.23l-1.79 1.34h-0.45l-0.89 0.9h-3.13l-0.45 0.44-7.15 1.79h-1.35l-5.36-1.79h-1.34-1.79l-1.34 0.9h-2.24l-1.79 1.78h-1.34l-2.23 1.34-4.03 0.9-0.45-0.9-1.78 0.9h-1.35l-2.23 0.45-1.79-0.45-1.34-1.79h-3.13l-5.81 2.24-1.79 2.23h-1.34l-0.9 0.89-1.34 0.9-0.89 0.89-4.47 2.68-5.37 1.79-2.24-0.89-2.23-1.34h-3.13-3.13l-3.58-2.24h-0.89l-0.9 0.45-1.34 1.79h-1.79l-0.44 0.44-2.24 1.79h-3.13l-2.24 2.24-2.23 1.34h-1.79v0.89l-2.23 0.9h0.89l-1.79 0.44h-1.34-3.13l-3.13 0.9-2.68-0.9h-1.79l-2.24-0.44-3.13-2.24-1.34-0.89-0.89-0.9-3.58-2.23-4.92-5.37-2.68-5.36-0.9-0.45-0.89-3.12v-0.9l-0.45 0.9-0.89-0.9-1.79-0.89v-0.45l-0.45 0.45v-1.34l-1.79 0.89-0.44-1.79h-0.9l-0.89-2.23h-0.45 0.45l-0.45 0.89h-0.89v-0.89 0.89-0.89l-0.9 0.89h-2.23-1.34l-0.9-0.89v0.89h-1.34l-2.68 0.9-0.45 0.44h0.45v0.9h-0.45-0.89-0.9l-1.34-0.9v-0.44h0.89l-0.89-0.9h0.89 0.45 0.9l0.89 0.9-0.89-0.9 1.34 0.9v-2.69l1.79-0.44 0.89-1.79h0.45l1.79-0.45h0.44 0.9l0.89-0.89h1.34l3.13-3.131h2.24v-0.894h1.34l1.79-2.234v-1.341-1.341l-1.79-1.788v-2.235l-0.45-1.341v-0.894l-0.89 0.894-3.13-4.916-0.45-1.341-0.89-0.894v-2.235l-1.79-0.894-0.45-1.341h-0.89 0.89l-0.89 0.894 0.89 0.447v0.894 0.894l-1.79 0.894v-0.894h-0.44l-0.9-0.894h-1.34l-0.89-0.894v-0.447l-0.9-0.894 0.9-0.894v-0.446l-1.79-0.894-1.34-1.341-0.9-0.894-0.45-0.894v-0.894h-0.89v0.894h-0.89l-2.24-0.894-0.89-4.47-0.45-1.341-0.89-1.787-0.9-1.341-0.45-0.894h-0.89-0.89l1.78 0.894h-0.89 0.89v0.894l0.45 0.447h-0.45l-1.78-1.341v-0.894l-0.45 0.894-0.9-2.235h-0.89v-0.894h-0.89v-1.341h-0.45v-0.894h-0.9-0.89-1.34l-0.9-1.341h-1.34-0.89-0.9l-0.44-2.234-2.24-2.235-0.89-2.682-2.24-1.341v-1.341l-1.79-0.894-0.44-2.234-2.24-1.788-0.89-1.341-3.13-0.894h-1.35v-0.447h-0.89l-0.89-0.894h-1.35l-0.89 0.894v-0.894l-0.45 0.894v-0.894h0.45-0.45-0.89v-0.894l0.89-0.447h-0.89v-0.894l-0.9-0.894h0.9-0.9-0.89l0.89-0.894v0.894-0.894h-0.89-1.34l0.89-0.447v-0.893l-1.79 0.893v-0.893-0.894l-0.44-0.447v1.341h-0.9-1.34 0.45v-0.894h-0.45l-0.89 0.894h0.89l-0.89 0.893-0.9-0.893 0.9-0.894h-0.9v1.787h-0.89l-0.45 0.447-0.89-0.447h-1.34l-0.9-1.787v-0.447l-0.89-0.894h-0.45v-0.894 0.894-1.341l-1.79-1.788h0.9v0.894l0.89-0.894h-1.79l0.9-0.894h-0.9l0.9-1.341 0.89-0.894-3.13-1.341v-0.893h-1.79l-0.44-1.341v0.894h-0.9v0.447-0.447 0.447h-0.89v0.893h-0.45l0.45 1.341-0.45 0.894 0.45 0.894v0.447-0.447h0.89l0.9 2.235-0.9 0.894-0.89 1.341h-0.45v-0.894h-1.79v-0.447-3.129l-0.89-1.788-0.45-2.681-0.89-0.894-0.9-0.894-1.34 0.894-0.89-0.894-0.45-1.341h0.45 0.89l-0.89-0.894h0.89l-0.89-0.894-0.45-1.341v-1.788l-3.13-2.234-1.79-3.576-0.45-4.47v-4.022l-0.89-0.894v-0.447-0.894l-0.9-1.341 0.9-0.894v-0.894l-2.24-4.47-1.79-6.257v-0.447l-0.44-0.894-0.9-4.469-2.23-4.47-4.03-4.917v-1.34l-1.34-0.894-0.89-1.341 0.89-0.894h-0.89v-1.341l-0.45-0.894-0.89 0.894h0.89l-0.89 0.894v-0.894h-0.9 0.9l-0.9-0.894-0.45 0.894-0.89-0.894v-0.894h0.89l-0.89-0.447h-0.89v0.447l-2.24-0.447 0.89-1.788h-0.89 0.89l-0.89-0.447v1.341h-0.89-1.35v-0.894h-0.89l-0.45-0.447v-0.894-1.34l0.45-0.894-2.24-1.788-1.34-1.341-4.02-1.341v-0.894l-0.45-0.894h-1.79v-0.447h-0.89l-1.34 0.447-0.9-0.447-1.34-0.894-1.34-2.234v-1.788l-0.89-0.447 0.89-0.894h-0.89v-1.788l-0.9-1.341v0.894h-0.89l0.89-0.894-0.89-3.576v-0.894-0.893l-0.45-2.235v-0.894l-0.89-1.341v-0.894h-0.9v-0.447 0.447h0.9v-1.341l0.89-2.235v-1.787h-0.89v-0.447l-0.9-0.894v-0.894l-0.44-1.341v-0.894l0.44-0.894v0.894-0.894-2.235-1.341l-0.44 0.894 0.44-1.787-0.44-2.235 0.44-0.894-0.44-0.447 0.44-0.894v0.894l0.9-0.894v-1.341l-0.9-1.788v-0.447l-0.44-0.894-0.9-5.363-1.34-3.129 0.45-0.894h0.89l-0.89-0.447 0.89-0.894h-0.89l-0.45-0.894 1.34-0.447h0.9v1.341h0.44-0.44 1.34v1.341l0.89 0.894-0.89-0.894-1.34-0.447 1.34 2.235h1.34v-1.788h-0.45l-0.89-2.235-2.24-2.234-2.23-1.341-3.13-5.364-0.9-4.469v-0.894-0.894-1.341l-0.45-1.341h0.45v-1.788l-0.45-0.894-1.78-2.235-0.45 0.894h-0.9l-3.13-3.128-3.13-1.341-0.44-1.788-0.9-0.447-1.79-0.894-0.44-3.129-2.24-0.894-3.13-0.447h-1.79-0.44v-0.893l-0.9 0.893 0.9-0.893h-0.9-0.89l-0.45-0.894-0.89-2.235v0.894h-0.9v-0.894-0.447 0.447l-1.34-1.341-0.89-0.894v-2.235l-0.9-1.341-1.34-2.234v-3.129l-2.24-3.129 0.9-2.235v-0.894-1.34-0.894l-0.9-0.894h0.9v-0.447l-0.9 0.447 0.9-0.447h-0.9l0.9-1.788-0.9-1.341 0.9-0.894h1.34-1.34v0.894l1.34-0.894v0.894h1.34l1.79 0.894 0.89-0.894 0.45 0.894h0.9l-1.35-2.682-3.13-0.447v-0.894l-0.89-0.894-1.34-0.447v0.447-0.447l-1.79-1.787-0.45-1.341-0.89-0.894-0.9-1.341h-0.89l-1.34-0.894-0.89-1.341-1.35-0.894v-1.341h0.9l-0.9-0.894h-0.89v-0.894-0.893l-0.45-1.341-1.79-2.235v-1.341l-1.34-1.788v-0.894l-0.89-1.341-0.9-2.234-1.34-0.894v-1.341l-0.89-0.894-0.45-1.341-0.89-0.894-0.9-1.341-0.89-1.788v-0.894l-0.45-0.447-1.79-3.128-0.44-0.894-0.9-0.447-0.89-0.894-0.45-2.235-0.89-0.894-0.9-2.235h-0.89v-0.893l-1.34-2.235-0.9-2.235-2.23-3.129-1.35-3.575-2.23-0.894 0.45-2.235-0.45-0.894 0.45-0.447v-0.894h0.89v-0.894h-0.89l-1.35-2.235 0.9-0.894-0.9-0.447-1.34-0.893v-2.235h0.45v-1.788l-2.68-1.341h-0.9v-1.341-0.894l-1.79-0.894v-0.447l-1.34-0.894v-1.787l-1.34-1.341 0.45-0.894 0.89 0.894 0.9 0.894v-0.894l-0.9-0.894v-1.341h-0.89l-0.45-1.341h1.34l0.9 0.447v0.894h0.44v-0.894h-0.44v-1.341l-2.24-3.129-1.79-0.894h-0.44l-0.9-0.447-0.89-0.893-0.9-0.894h-0.44v-0.447l-3.13-3.129v-1.788l-1.35-0.447-0.89-1.788-0.89-0.894-1.35-1.34h-1.78v-1.341l-0.45-3.129-1.79-0.894-1.34-1.341-0.89-1.788-0.9-0.447v-2.234l1.79-0.894-2.24-5.364v-0.894l-4.47-3.575-0.89-1.788 0.89-0.447h-0.89 0.89l-0.89-0.894 3.57-4.47h-0.44-0.9l0.9-1.788 1.34-0.447v0.447h0.89-0.89l2.24 1.788-0.9 1.341 1.79 1.788v2.682l0.89 0.894v0.894 0.447h0.45l-0.45 1.787 0.45-0.894v0.894l1.79 0.894v2.235h1.34v1.341l1.34 0.894 3.13 2.235v1.341l2.24 0.893-0.45 1.341h0.45v2.235l0.89 1.788-0.89 2.235 1.79 2.235h-0.9 0.9 0.44l-0.44 0.893 1.34 0.447 0.89 0.894 1.34 1.788 3.13 2.235 0.9 1.341h0.44v0.894l0.9 0.894 1.79 2.234h0.44v0.447l3.13 2.235h0.9l0.45 0.894h0.89l1.79 1.788 0.45 0.447h0.89 1.34l0.9 1.788h0.89v-0.894h-0.89l-0.9-0.894h1.79v-1.341h0.45 0.89v-1.788h0.9l0.89-0.447 0.45-0.894v-0.894-1.34l0.89-1.341-1.34-1.788v-2.235l0.45-0.894 0.89-1.341 0.9-0.894h0.44v-2.234l0.9-0.894v-0.447-0.894l1.34-1.341v-2.682l0.89-0.447-0.89-1.788 1.79-0.447-0.9-1.787 0.9-3.129h0.89v-0.447-2.235l0.45-0.894 2.23-3.129 0.9-0.893-0.9-2.235 0.9-0.447-0.9-1.788v-1.341l-3.57-9.386-1.79-4.47-2.24-0.447 0.9-1.787-0.9-1.341-0.44-3.129-2.24-4.023-2.68-5.81-1.34-4.023v-0.447l-5.37 2.235-5.81 2.235h-3.13-3.13-0.9v0.894h-0.44-0.9-1.79 0.9-0.9-0.44-1.79l0.89 0.447h-0.89 0.89-1.34v-0.447h-0.89v-0.894h-0.9 0.9-0.9l0.9-0.894 0.89 0.894-1.79-1.788-1.34 0.894-0.89 1.788-0.9-0.894 0.9 0.894h0.89v-0.894h0.89 0.45-0.45v0.894h-0.89v0.447h-1.79 0.9v-0.447h-0.9-0.45-0.89l-3.13 0.447h0.89v0.894l-0.89-0.894-0.45 0.894v-0.894h-0.89 0.89l1.34-0.447 3.13-1.788-4.02 1.788-2.23 0.447h-1.35l-1.79-1.341-1.34-1.788-1.34-0.447v-0.894l-0.89 1.341v-1.341 0.894l-0.9-0.894 0.9-0.894h-0.9l-3.13-0.447-3.57-2.235-1.79-2.681 1.79 1.788-0.9-0.894-1.34-0.894h-1.79l-1.34 0.894v0.894h-0.89v-0.894h-0.45l-3.13 0.894h-2.24l-4.91-2.235-3.58-0.894h-1.34-1.79l-9.84 3.129-3.58-0.894-1.78 3.128-1.34 1.341h-1.79-1.35l-0.89-0.447h0.89-0.89l-3.13 2.235h-0.45-0.89v1.341-0.894h0.89-0.89l-0.89 0.894h-0.45l-3.13 2.235-4.47 3.128-5.37 1.341-4.02 0.894h-0.45v-0.894h-0.89l-1.79-0.447-1.34-0.894-0.9-0.894-1.34-0.446-3.13-0.894-1.34-0.894h-1.79l-1.34-0.447h-2.24-2.23-1.79-5.37l-0.44-0.894v-1.788l-0.9-1.341-0.89 0.894-2.69 0.447h-0.89-1.79l-0.45-0.447h-2.23l-1.79-0.894-0.45-3.129-4.02 0.894v-0.894h0.89-3.13v-0.447h-1.34l-0.89-0.893h-3.13l-2.24-0.894h-4.02v-0.894l-1.34 0.894-8.95-2.235-4.91-0.894h-2.24l-6.71 2.235h-2.23-2.24l-3.13-0.447v-0.894-0.894l-0.89-1.341v-1.788h-0.45l-1.79-2.235v-1.341l-0.44-0.893-3.13-0.447-2.24-0.894h-1.79-0.45l-2.68 0.894h-1.34-2.24l-3.13-0.894-1.34 0.894-2.23-0.894-3.13-0.894v-0.894l1.34 0.894v-0.894h-0.45l-2.68-0.447-3.58-1.788h-6.71l-2.23-0.447v0.447 0.894l-0.9-0.894h-0.89l-0.89-2.235-2.69-0.447v-2.682l1.34 0.894h-0.89 0.89v-0.894-0.446l-0.89-1.788v-0.447-0.894-0.894l-4.47-0.447-2.24-1.788-3.57-0.894h-0.9l-1.79-0.447-1.34-0.894-2.23-0.894-4.03-0.447h-0.44v-0.893h-0.9l-2.23 0.893h-3.13l-4.48-0.893h-1.34l-4.02 2.234-1.34 0.894-7.6 0.447-9.39 4.023-5.82 3.575-4.92 3.129-1.34 2.235h-0.89l-0.45 1.788h-0.89 0.89v0.447-0.447l-0.89 0.447v-0.447 0.447h0.89l-0.89 0.894-1.34 2.235v0.893l-0.9 3.576 0.9 1.788 0.44 4.47 0.9 0.894v1.34l1.34 0.894 1.79 2.235v2.235 2.235l-2.24 4.469-3.13 4.023-3.13 3.129-3.57 3.128h-1.79l-3.58 2.235-3.13 0.447h-1.79-3.58-1.34l-1.79-1.341h-2.23v-0.894l-3.13-0.447-1.34-1.787v-0.894 0.894-0.894h-1.79l-2.24-2.235-2.23-1.341-2.24-2.235h-0.89l-5.82-1.788-1.78-1.341-3.58-0.894-4.02-1.34-2.24-1.341h-2.24l-6.7-1.788-5.37-1.341h-8.49l-5.82-0.894-4.02-0.894-5.37-2.235-2.23-2.234-3.13-4.47-2.69-6.257v-2.235-2.235l-0.89-1.341-1.34-2.235-0.9-0.894h0.9-0.9l-3.12-1.788h-3.13-1.35-3.13l-3.57-1.34-2.69-0.894-3.57-2.235-1.34-0.447v-0.894l-1.79-0.894h-3.58l-1.79-0.894-3.13-0.447h-4.47l-4.47-1.788-0.9-0.447-3.57-0.893v0.893h-0.9l0.9-0.893-0.9 0.893h-0.89l-3.58 1.341-5.36 0.894h-3.58l-5.37-0.894-3.13-0.894-8.49-5.363-0.9 0.894-0.44-0.894-1.79-0.447v0.447h1.79l0.44 0.894-3.57-0.894-1.34-1.341-1.79-0.894-3.58-1.341 2.24 1.341v0.894l-6.26-0.894v-1.341l-0.9-0.894v-0.447h0.9l3.13 1.341-2.24-1.341-1.79-0.894-0.45-1.787 0.45-0.447-0.45-2.235-0.89-1.788-1.34-0.447v0.447h-0.9l-0.89 0.894 0.89 0.894-0.89 0.447-3.58 1.788-1.79-0.894v-0.894l0.9-1.341 0.89-1.341-0.89-0.894-6.26 1.341h-0.45l0.45-0.447-2.68-0.894-4.92-4.023-1.34-2.234-0.9-2.235v-2.235l2.24-3.129 0.89-0.447 0.9-0.894 0.89 0.894 0.45-0.894 0.89-0.893h0.9 0.44-0.44l0.44-0.894v0.894l2.24-2.235 3.13-0.894v-0.447l1.79-1.788h0.44 0.9l0.89-1.341v-0.894l0.45 0.894-0.45-0.894 2.24-1.341v-0.894l1.34-0.893v-2.235l1.79-0.894 0.45-0.447v-1.788l0.89-0.447 0.89-0.894 0.45-0.894 0.9-0.447-1.35-0.894-1.78-1.787v-2.235l0.89-0.447 0.89-0.894h-0.89l-0.89-0.894 0.89-1.341-5.37-2.235v-0.894-0.894h-2.23l-1.34-0.447-3.13-4.022v-0.894l-0.9-0.447-0.89-1.788 0.89-2.682 1.79-3.128h0.45 0.89l1.34-0.894 2.24-0.894 4.02-5.811 2.24-2.234h1.34v-1.788h-0.45v-1.341l-0.89-1.788v-0.447l-0.89-0.894-1.35 0.894h-1.34v1.341l-3.13 2.235h-1.79-2.23v0.894l-1.34 2.234-2.24 0.894h-0.89l-1.34-0.894-0.9-0.893 1.34-2.235h-0.44v-0.447l-2.24-0.894-0.89-1.788v-1.341l0.89-0.894v0.894-0.894-0.447l-0.89 0.447h0.89l-2.68-0.447h0.89 1.79l1.34-0.894h-1.34l-1.79-0.894h-1.34l-0.89-0.447h-1.34-2.24l-1.79 0.447h2.24v1.788l-1.34 0.447h-0.9l-1.34-2.235 3.13-1.34-0.89-0.894h-1.79l-0.45-0.894-0.89 0.894h-1.35l-1.78 0.894h-0.45l-2.24 0.893h-1.79l-1.34 0.447h-1.79-0.44l-2.24 1.788-2.68 0.447-0.45 0.894-0.89 0.894-2.24 1.341-1.34 0.894h-0.89-0.9-1.34l-5.37 1.341-1.78-0.447h-1.35l-1.34-0.894-4.92 2.235h-3.57-0.9l-0.44-0.894v-0.447l0.44-0.894h-2.23-0.9v-0.894l-0.44 0.894-1.79-0.894-1.34-1.341-2.24 0.447-0.89-0.447 0.89-0.894-1.79 0.894-0.44-0.894-0.9 0.894-1.34-0.894h-0.89l1.34 1.341h0.89l-1.34 2.682h-1.79-1.34l-3.13 0.447h-1.34v-0.447h-0.9v-0.894h-0.89-0.45-0.89-0.9-0.89-0.45v-0.894h-1.79l0.9-0.894h-0.9-0.44l0.44-0.447h-0.44l-0.9-0.894h-0.89l-3.13 0.894-0.45 0.447h-0.89l-0.9 0.894 0.9 0.894-1.34 1.341-7.16 1.788h-0.45-0.89-0.89-0.45-1.79l-0.89 0.447-2.24 0.893v0.894l-1.34 0.447-1.34 0.894h-2.68-1.35l-3.13-0.894-0.44-0.447v-0.894l0.44-0.893h-2.23v-0.447h-1.34l-0.9-0.894-2.23-0.894h-0.9-5.36l-2.69-0.447v0.447h-2.68l-0.45-0.447-1.78 0.447-1.35-0.447-0.89 0.447h-3.58l-0.89-0.447h-0.9l-2.68 0.447-1.79 0.894-4.47 2.234-4.02-0.893-1.34-0.447-0.9 1.34h-0.45-1.78-0.45v-0.893l-1.79-0.447-2.24 0.447-0.89 0.893h-0.45v0.894l-0.89 0.447-4.02 1.788-1.35 0.894h-3.13l-0.44-0.894-1.79-0.894-7.6 2.235-2.24-0.447-2.23 0.447h-3.13l-1.35 0.894-1.78-0.894-0.45 0.894-0.9-0.894-1.34 0.894v-0.894h-1.79v0.894h-0.89-2.24l-1.34 0.894h-0.89l-3.58 0.447v1.788h-1.79l-1.34 0.447-0.89 0.894h-2.24l-3.58 2.234-3.12 0.894-0.9 0.894-2.23 0.447-2.24 1.788-2.24 4.47-3.13 1.34-3.57-0.447-0.9-0.893h0.9v-0.894h-1.79v-0.447h-0.9l-0.44 0.447h-1.79v0.894l-0.45 1.34h-0.89l-1.34 1.788h-0.9 0.9-1.79 0.89-0.89l-0.9-0.894 0.9 0.894-0.9-0.894h-0.44l-0.9-0.894h-0.89l-0.45 1.788h-0.89-0.9l-1.34 0.447h-0.89l-0.9 0.894-0.45 0.894-1.78 0.894h-0.45l-0.9 2.682-1.34 2.235h-0.89l-1.79 0.893h-1.34l-1.34 0.894h-0.9l-0.89 0.894-0.45 0.447-0.89 0.894h-0.9l-1.34 1.341-0.89-0.447-2.24 1.341h-1.34-2.68l-2.24-0.894-0.44 0.894-5.37-1.341-2.24 1.341h-2.23l-2.68-0.894-2.24-1.341 2.24 1.341h-0.45-0.9l-1.34-0.447-1.79-0.894v-0.894h0.9-0.9v-0.447l2.24 0.447-2.24-1.341h-0.44v-0.894-1.34l0.44-0.894-0.44-0.894h-0.9v1.788l-1.79 2.234h-0.44-0.9l-1.34 0.894-3.13 1.341-5.36-0.894-2.24-1.341h-0.89-0.9l-0.45 1.341h-0.89-2.24l-0.89-1.341-0.45 0.894h-1.79l-2.23 0.447-3.13 0.894-1.34 0.894h-2.24l-0.89-0.894h-3.13l-0.45-0.894h-0.89-1.79l-2.68-2.235h-0.9l-2.23-2.234h-0.9l-1.34-1.341-1.79-1.788h-1.34l-0.89-2.235v-0.894h-0.45l-0.9-0.447v-4.022h-0.89v-0.447h-1.34-0.9l-1.34 1.341h-0.89l-3.13 0.893h-0.9v0.447h-0.44-0.9 0.9l-1.79-0.447-1.34 0.447-2.24 6.258-1.79 3.129-1.34 3.575h0.9l-0.9 0.894-3.13 6.705-2.23 4.022-3.13 5.811-3.58 4.022h0.89-0.89l-0.9 2.235-2.23 3.129-4.47 3.575-2.24 0.894-2.23 0.894-3.13 2.235h-0.9v-0.894 0.894l-3.13 1.341-1.34 0.894h-0.89l0.89-0.894v0.894h-1.34l-3.13 1.341h-0.89l-2.24 1.788-8.5 2.234-0.44 0.894-2.69 1.341-0.44 0.894-0.9-0.894h-0.89l-1.34 2.235v0.894h-0.9 0.9-0.9v0.447l-3.13 4.023-7.6 6.257-3.58 2.682 0.9 1.788v0.446l-0.9 1.788v0.894l0.9 0.447-0.9 0.894 0.9 0.894v0.447l-1.79 1.788-0.45 2.235-7.6 7.598v1.341l-2.68 2.235 0.89 0.894-2.23 2.234h0.89l0.45 1.788-1.34 4.47 0.89 0.894v1.341 1.34 1.788 0.447 0.894l-1.79 2.235v1.788l2.24 0.447 0.89 1.788h0.9l1.34 3.128v-0.894l0.89 0.894-0.89 6.705-3.13 5.363-1.34 1.341-3.13 3.129-1.34 2.235-0.9 1.341-2.23 3.128-0.9 1.788-2.23 1.341-3.13 3.129-1.34 2.234-4.48 2.235-7.6 4.023-1.79 1.341-4.91 3.575v0.894l-1.79 2.235-0.9 0.894-0.44 0.894-9.84 3.129-3.13 1.341-4.02 0.893v0.447h-0.45v0.894l-1.79 0.894 0.89-1.788 1.35-0.447-7.61 1.341-7.6 0.894-1.34 1.341-0.89 2.235-0.45 0.894-3.13 1.341-2.24 7.151-3.13 5.364v1.341l-3.13 6.704-0.89 1.788-2.24 1.341-6.7 4.022-1.34 0.447-3.13 0.894-1.79 2.235-1.34 0.894-2.24 0.447-1.79 1.788-0.44 1.341 0.44 0.893v2.235l-2.23 3.129-1.34 1.341-0.9 5.363-2.23 3.129-0.9 2.235-0.45 4.022v1.341l0.45 0.894v3.129l-1.34 2.235v2.235l-2.24 1.34-0.89 1.788-3.13 1.341-1.34 1.341-2.24 3.129-6.26 4.469v1.788l-4.47 2.235-2.23 2.235-0.9 2.235-1.34 1.341v0.893l0.89-0.893 0.45-0.447 0.9-3.129 1.34-0.894h0.89l0.9-1.341v0.894l0.89 0.447-0.89 1.788 0.89-0.894-1.79 2.235-1.34 2.234h-0.89v1.788l-1.35 1.341v0.894l-0.89 1.341-1.34 1.341v0.894l-1.79 1.788v0.446l-1.34 2.235 0.45 0.894 0.89 1.341-0.89 0.894-0.45 0.894-1.79 0.894h-0.45v0.447 0.894l-0.89 1.341-0.9 4.916-1.34 1.341-0.89 2.235-0.9 1.341-2.68 1.788-0.89-0.894-2.24 2.234-0.89 0.894-2.24 4.47v1.788l-1.34 1.341v0.894l0.45 0.447-0.45 0.893v4.023l-1.79 4.47-0.44 7.598-0.9 2.235 0.9 0.894-0.9 0.447 1.34 1.788v-1.788l-0.44-0.447 0.44-0.894h0.9v-1.341-0.894h-0.9v-0.894h0.9v0.894-0.894l0.89-1.341h0.45v-0.894l0.89-0.894v1.788l0.9 2.235 0.44 0.894 0.9 0.447 0.89 0.894v1.341l0.9 0.894 0.44 1.34h0.9v1.788l3.13 3.129v-4.917l0.44 0.894v0.894l1.79 0.894v0.447l0.9 2.235 0.44 1.788v0.447h0.9l1.34 3.129h0.89l0.9 1.787-0.9 1.341h-0.89l0.89 1.341v0.894 0.894l-1.34 2.235v0.894l0.45-0.894v0.894 0.447 1.787l-0.45 0.447h0.45l-0.45 0.894v-0.894h-0.89l-0.9 0.894-0.44 2.235 0.44-0.447-1.34 2.235-0.89 2.235 0.89 0.447v-0.447h0.9v-1.788l0.44-0.447-0.44 1.341 1.34-1.341h0.89l-1.79 2.235-0.44 0.447-1.79 0.894h-0.9v-0.894 0.894-0.894l-0.44 0.894h0.44l0.9 2.234 2.23 1.788 1.79 2.235 2.24 3.576 1.34 6.257 1.79 4.47 0.45 6.704v3.129 0.894l-0.45 6.704-0.9 4.47-1.78 4.916-2.24 4.47-2.24 5.363-1.34 5.364-0.89 2.682-1.34 4.916 0.44 5.364-0.44 3.575v2.235-0.894 0.894l-2.24 4.023-4.92 7.598-1.34 1.341-4.47 5.364-0.89 1.34-3.58 2.682-5.37 1.341 0.45 0.894 0.9 0.447h0.89v0.894-0.894-0.447l0.89 0.447v-0.447l-0.89-0.894h1.34l2.24 0.894 1.79 0.447 2.23 3.129 0.9 1.787 1.34 0.447 1.34 1.788v1.341l1.79 1.341v0.894l0.44 1.788v-0.894l0.9 1.341 0.89 4.022v-0.894l0.9-0.893 1.34-0.447 0.89 0.447 0.45-0.447h0.89 0.9l-1.79 0.447h0.89 0.9 0.44l0.9 0.893-0.9 0.894v0.447h0.9v-0.447 0.447l-0.9 0.894h0.9-0.9v0.894l0.9 0.894-0.9 0.447v0.894l-0.44 0.894h0.44v0.447l-2.23 0.894 0.89 0.894h0.9l-0.9-0.894 0.9 0.894v-0.894 0.894 1.341l-0.9 0.893 0.9 0.894h-0.9l-1.34-0.894-0.89 0.894v-0.894l-1.34 0.894-0.9 1.341h-0.89v1.341 0.894 0.894 2.235l0.89 0.894v0.447l0.9 0.894v2.234l-1.79 4.47 0.89-1.341v0.894 0.447h-0.89 0.89l-0.89 1.788 1.79-1.788 0.44 0.894v-0.894l0.9-0.447h0.89 0.45l-0.45-0.894v-0.894-0.894h-0.89 0.89l-0.89-0.447 0.89-1.788v0.894h0.45v0.894-0.894l0.89 1.341-0.89 3.129 0.89 0.894h0.9v0.894h-0.9l1.34 1.341v-0.894l0.9 0.894 0.89 0.894v-0.894 0.894h0.9l-0.9 0.894-0.89-0.894h-0.9-0.44v-0.894l-1.79-0.894-0.45 1.788-0.89 0.894v1.34h-0.9l0.9 0.894v0.447l-0.9-0.447h-0.44 0.44v-0.894h0.9l-1.34-0.893v-0.447h-0.9l-0.89 1.34v0.894l0.89 0.447 0.9 0.894v0.894h0.44l0.9 0.447v-0.447l1.34 1.341 1.79 0.894 1.34 1.341h0.89 0.9v-0.447l0.44 0.447 0.9-0.447v-0.894h0.89l-0.89 0.894h0.89l2.24-1.788h1.34l-2.24 0.894-0.89 1.341-1.34 0.894-0.9 0.894 0.9 1.341v0.893h0.89l0.45 0.447 0.89 1.788h2.24l0.89 0.894 0.9-0.894h1.34l1.34-0.894-0.45-0.894-0.89-0.447v-0.893l0.89 0.893v0.447h0.45 0.9l0.89-0.447h1.34l-0.89 0.447h-0.45l-1.79 2.682v1.343l-0.45 0.89v0.45h0.45 0.9v-0.45h0.89l0.45-0.89h0.89l-0.89 1.34 2.68-0.45 1.34-0.89 1.34-0.896 0.9-0.447v-0.894l0.89 0.894 0.45-1.788h1.79 0.89 1.34l0.9 0.894h2.23l1.34-1.788h1.79 0.45l0.89 0.894h-0.89-0.45l-1.79 0.894-0.89 0.894h-2.68-1.79-0.45l-0.89 0.447h-0.9l-1.34 1.786-0.89 1.34 0.89-0.89v1.79l0.45-0.9h0.89-0.89v0.9 0.44h0.89l0.9-0.44h0.89-0.89v0.44l-0.9 0.9h0.9-0.9l0.9 1.79v-0.9 0.9-1.79h0.89v0.89h0.45l-0.45-0.89 0.45 0.89-0.45-1.79 1.34 0.9v-0.9-0.44 1.34-0.9h0.9v-0.44h-0.9 0.9v-0.9 0.9l0.44-1.79-0.44 1.79 0.44-0.9v0.9 0.44-0.44 0.44l0.9-0.44v-0.9 0.9l0.89-0.9h-0.89 0.89l-0.89-0.89h0.89v-0.45 0.45h0.45-0.45l0.45 0.89-0.45-0.89v0.89 0.9h-0.89 0.89l-0.89 0.44h-0.9 0.9 0.89v-0.44 0.44h0.45v-0.44h0.89v-0.9 0.9l-0.89 0.44h0.89l0.9-0.44v0.44l-0.9 0.9h0.9l0.89-0.9-0.89 0.9 1.34-0.9-0.45 0.9h-0.89l0.89 0.89h0.45l0.89-0.89v0.89h-0.89v0.9-0.9 0.9l-0.45-0.9v0.9-0.9 0.9-0.9l-0.89 0.9 0.89-0.9-0.89 0.9v-0.9l-0.9 0.9v-0.9h0.9-0.9 0.9l-0.9-0.89v0.89-1.79l-0.89 0.9v-0.9h-0.45l0.45 0.9-0.45-0.9v0.9h0.45-0.45l0.45 0.89h-0.45v0.9-0.9l-0.89-0.89h0.89-0.89-1.34 0.44v0.89h0.9v0.9l-0.9-0.9v0.9l-0.44-1.79-0.9 0.89h0.9l0.44 0.9h-0.44v-0.9l-0.9 0.9v-0.9 1.34h-0.89v-0.44h-0.45v0.44h0.45l-0.45 0.9h0.45-0.45l-0.89-0.9v0.9h-0.9-0.89l0.89 0.89-0.89 0.45v1.79h0.89l0.9-0.9 1.34-0.89 0.89-0.45-0.89 1.34h0.89l0.9-0.89-0.9 0.89h-0.89-0.45l-0.89 1.34v0.9l0.89 0.89 0.45-0.89h0.89v0.89h-1.34 0.45l-0.45 0.89v-0.89l-0.89 0.89 2.23 1.34h0.9v0.9h1.34v-0.9-1.34-0.89 0.89l0.89 1.34-0.89 0.9v0.45l-0.9 0.89 0.9 0.89 2.23-1.78 0.9-0.45 0.89-0.9v-0.89l0.45 0.89v-0.89l0.89-0.45 0.9-0.89h0.45l-1.35 0.89v0.45 0.89h0.9-0.9l0.9 0.9-1.79-0.9v0.9h-0.45l-0.89 0.45v0.89 0.89 1.34 0.9l1.34-0.9 0.89-0.89h0.9l0.45 0.89 0.89-0.89v-0.45l-0.89-0.89v-0.89 0.89h0.89l0.89-1.34h-0.89 0.89v1.34h-0.89v1.34h1.34v-0.45h0.9v0.45h0.89l-1.79 0.89v1.79l0.9-0.89-0.9 0.89v1.34l1.79-0.89 0.89-1.34h-0.89 0.89l-0.89 0.89 0.89 0.45h-0.89v1.79h-0.89v1.34h0.89v-0.9l1.34-0.44 0.9-0.9h0.89v-0.89 0.89h0.45l0.89-0.89h0.9l-0.9 0.89-0.89 2.24h-0.45v1.34 0.89h0.45l-1.34 1.79v-0.89 0.89l-0.9 0.45 0.9 0.89h0.89v-0.89 0.89h-0.89 0.89l0.45 0.9 3.13 2.23v0.45l-0.9 0.89 0.9 1.79 1.78-0.9 1.35 0.9v-0.9h0.89v0.9l-0.89-0.9v0.9l1.34 0.45v-0.45h0.89-0.89l1.79 0.45-0.9-0.45 0.9 0.45h-1.79v0.89l0.89 0.89 0.9-0.89v-0.89 0.89l0.44-0.89v-0.45l1.79 0.45 0.9 0.89 0.44-1.34-0.44 1.34 0.44 0.89 0.9 0.45h0.89-0.89l-0.9-0.45h-0.44v0.45h0.44v0.89 0.9l0.9 0.45h0.89l2.68 3.12 2.69-0.44 0.44-1.79v0.89l-1.34 1.34h0.9v0.9l0.44-0.9h0.9v-0.44h-0.9l0.9-0.9v0.9 0.44l0.89 0.9v0.89h0.45l0.89-0.89v1.34l0.9-0.45-0.9 0.45h-0.89v-0.45l-0.45 0.45h0.45-0.45v2.23l-0.89 0.9-0.9 0.89-0.44 0.9v0.44l1.34-1.34h0.89l0.45-0.89h0.89l-0.89 0.89h0.89-0.89l0.89 1.34h0.9l0.45-1.34h-0.45v-0.89-0.9 0.9 0.89h0.45v-0.89 0.89l-0.45 2.24v0.89l0.45 0.45h0.89 0.89l0.9-0.45v0.45h-0.9v3.13l1.35-0.45v-0.9h0.89v-0.89 0.89l0.89-0.89-0.89 0.89 0.89 0.9 0.45-0.9-0.45 0.9h-0.89v-0.9h-0.89l0.89 3.13v0.45l0.89-0.45-0.89 0.45v-0.45 0.45h0.89v-0.45l0.45-0.89-0.45 0.89 0.45 0.45 0.9-0.45 0.89 0.45h-0.89l-1.35 0.89-0.89 1.35 0.89 2.68 0.45-0.9v0.9l0.9 0.44 0.89 0.9 0.45-0.9h1.79l-2.24 0.9 0.45 0.89h1.79v0.45h-0.9-0.89l-1.34-0.45-0.9 0.45v4.02l1.79 3.13h0.45v-0.89l0.89-0.9-0.89-0.44h0.89-0.89l-0.45-0.9 0.45-0.89v0.89 0.9h0.89v-0.9 0.9h0.9v-1.79 0.89l0.89-0.89v0.89h0.45l-2.24 1.34 0.9 0.9 1.34-0.9h1.79l0.44 0.9v-0.9l1.79 0.9h-0.89l-1.34 0.89h-0.9v-0.89h-0.89l-0.45 0.89v0.45h0.45v0.89l-0.45-0.89v-0.45l-0.89 0.45h-0.9v0.89h-0.89v0.9h1.79v0.44l0.89 0.9-0.89-0.9v0.9l-0.9-1.34h-0.89l-1.34-1.79h-0.9-0.45v0.89-0.89h-0.89l0.89 0.89-0.89 0.9 1.34 1.34 0.9 0.89 0.89 0.89v0.45l0.45 0.89-0.45 1.35 2.24-1.35h1.34l1.79 1.35 0.44 1.78v0.45 1.79l1.79 0.89h-1.79l-1.34 0.45 0.9 0.89 0.44 0.9 0.9 0.44 1.34 0.9 0.89-0.9-0.89 0.9v0.89l2.68 0.45h0.45l1.79 0.89 2.23-1.34v1.34h-0.89l1.34 1.79v1.34h1.79 0.89 0.45-0.45v0.9h-1.79l-1.34 1.34 0.45 0.89h0.89 0.9 0.89v0.45l-1.79-0.45h-0.89l-1.34 0.45 4.47 0.89 9.84 4.02 5.36 2.69 1.79 1.78h0.45-0.45l2.68 1.34h-0.44l2.23 1.79 0.9 1.34 0.44 0.9 2.24-0.9 0.89 0.9h-0.89l0.89 0.44v0.9h-0.89l-2.24-1.34h-0.44v-0.9l-0.9 0.9 0.9 0.44 8.04 4.03 3.13 1.34 0.9 1.78 0.45 0.9-0.45 0.45h0.45-0.45v0.89l2.23 1.34h0.9l6.71 2.24 0.89 0.89 2.24 1.79 1.34 1.34 2.23 1.34h0.9v0.89l4.47 4.03 1.34 2.23 4.92 2.68v0.9l1.34 1.78 1.34 1.34 1.79 1.35 2.23 1.78v0.45l1.35 0.89 2.23 0.9v0.89l1.79 0.45v0.89l3.58 0.9 1.79 1.34 1.34 0.89 0.89 0.45 2.24 0.89 2.23 0.9 1.34 1.34 2.69 0.89 2.23 1.34 6.71 1.79 2.24 0.45 0.89 0.89h-0.89l0.89 0.89h0.45 0.89v0.9h2.24 2.23l3.13-0.9 2.24-1.78h0.89l0.9-0.45 0.44-0.89 4.03-0.9h0.89l1.34-1.34v-0.89l5.37-0.45 1.34-0.89v-0.9l0.89 0.9v-0.9l3.13-0.89h0.45l5.37-2.24 2.23-0.44 0.9-0.9 6.26-1.34 5.81-1.79h5.37l2.23-0.89 9.84-0.45 4.92-0.89 7.6-0.89h2.68 1.79l0.89-0.45 5.82 1.34 6.26 0.89 7.6 1.34 8.94 2.24 6.71 1.79 3.13 0.44v0.9h0.89l1.34 1.34h1.79v0.89 0.9-0.9l0.45 0.9 0.89-0.9h0.9l1.34-1.34 2.23-0.89h0.9 0.89l-0.89-0.9h1.34-0.45l0.45-0.44h0.89v-0.9h0.9l0.89-1.34 3.58-0.89h0.89l2.24-0.9h1.34l4.02-2.23h5.82l2.23-2.24 1.79-0.89h0.9v-0.45h2.68l0.89-1.78 1.34-0.9 1.79-0.44 2.24-0.9 2.23-0.89 1.35-0.45 1.78-0.89 0.9-1.34h1.34l1.34-0.9 2.24-0.89 3.13-0.9 5.36 0.9h6.26l1.34-1.34v-2.24l1.79-2.23 2.68-1.79 2.24-0.89 1.79-0.45 5.81-1.79 7.16-1.34 4.47-0.89h4.47 2.23l0.9-0.45h5.36 3.13l8.05-0.9h4.92l8.94-0.89h2.24l9.84 1.79 2.23 0.45 2.24 0.89 4.92 4.47 4.47 4.02 2.23 3.58h0.9v1.79l1.34 2.23h0.89l0.45-0.89 1.79 0.89 0.45-2.23v1.34 0.89h0.89l0.89-0.89v0.89 0.45l-4.02-0.45-1.34 1.34 1.34 1.34 0.89 0.9 2.24 0.89h1.79v-0.89-0.9 0.9l0.44 0.89 1.79-2.23h1.34l0.9-0.9h0.45-0.45l-0.9 0.9h-1.34v1.34 0.89h0.45v0.89l-2.24 0.45-0.44-0.45h-1.79v0.45-0.45h-0.89l0.89 4.47 0.89 0.45 1.34-0.45v0.45h-1.34l1.34 4.02v1.34l1.79 3.13 2.69 4.47h0.89v0.9h0.89l0.9 1.34h0.45l0.89 0.89 1.34-0.89-0.45 0.89v0.89l0.45 0.9 1.79 0.45v-0.45-0.9l0.45 0.9-0.45 0.45 2.24 0.89v-0.89l-0.9-0.45h0.9v-0.9l1.34-0.89 0.89 0.89-0.89 0.9h-0.45v0.45 1.78l2.68-0.89-0.44-0.89 0.44-1.35-0.44-0.89h0.44l0.9 0.89-0.9-1.78 0.9 0.89v0.89l0.89-0.89h0.45l0.89 1.79 0.9 0.45h0.89 3.58v-0.45h-0.9 0.9v-2.68l-0.9-0.45h-0.44v-0.89l0.44 0.89 0.9 0.45v2.68l0.89 0.45h1.34v-1.35l-0.89-0.89v-1.34h-0.45 0.45l0.89 1.34v-2.23l0.9-0.9v-1.34 0.9 0.44l-0.9 1.79v0.45 2.68h1.79 2.24l-0.9-0.9-0.89-3.12v-0.9l0.89-0.44v-0.9l-1.34-0.89v-2.24l-0.89-0.89v-0.45l0.89 0.45 0.45-0.45-0.45 0.45v0.89 0.9-0.9l0.45 0.9h-0.45v1.34l1.34 0.89v0.9h0.9 0.45 0.89l-0.89-2.24h-0.45 0.45l0.89 2.24 0.89-0.9v-2.23 0.89l0.45 0.45v-0.45l1.79-0.89v-0.9 0.9l0.89-0.9v0.9h-0.89l1.34 1.34 0.9-0.45v0.45 0.89l1.34 1.34 0.89 1.79h1.34v-0.89h-0.44-0.9v-0.9-0.44h0.9l0.44 0.44v-0.44l0.9 0.44h0.89 0.9v0.9l0.44-0.9 0.9 0.9 0.89-0.9v0.9l1.34 0.89v0.45l1.34-0.45 5.37-0.89h5.36 3.13v-0.9l0.9-0.44v-0.9-0.89-2.24l-2.24-1.34-0.89-0.89-1.34-2.24v-1.34-1.79l0.44 1.79v-0.89h0.9v0.89l0.89 0.45 0.45 0.89v0.9l0.89 0.44v0.9h0.9v0.89h0.45v0.45l0.89 0.89 0.89-0.89-0.89 0.89 0.89 0.9h0.9l0.45-0.9v0.9l-0.45 0.89h1.34 0.89l-0.89-1.79 1.34-1.34v0.45l-0.45 0.89 0.45 0.9 1.79-0.9v0.9l0.45-0.9v0.9h-0.45v0.89l0.45 0.45h0.89v-0.45-0.89 0.89 0.45h-0.89l0.89 0.89v0.9l1.79 1.34v-0.9l-0.89-1.34v-1.34-0.89-0.9h0.89-0.89l0.89 0.9h-0.89v1.34h1.34l0.89-1.34-0.89-0.9-0.45-0.89 0.45 0.89 0.89 0.9-0.89 2.23 1.79 0.9v2.23h0.44v-1.79h0.9v-0.44 0.44l-1.34 2.24h0.44l-0.44 0.89v0.89l0.44 1.35v0.89l1.79 2.23v2.24l0.45 0.89h1.79l0.89 1.34 0.45-0.44h1.79v1.34h0.44l0.9-0.9h0.89v-0.44h0.45 0.89v-0.9l0.9-0.89h0.89l0.45-0.89v0.89 0.89h0.89l0.9 0.9 0.45-0.9-0.45 0.9h0.45-0.45l0.45 0.44 0.89-0.44 0.89-0.9h0.45v-0.89-0.89h-0.45 0.45v0.89h0.9l-1.35 1.79 0.45 0.44v-0.44l0.9 0.44h-0.9l-0.45-0.44-0.89 1.34h1.34v0.89l1.79-0.89h0.45 0.89-0.89l-0.45 0.89h-1.79l0.9 1.34 0.89-0.89 0.45 0.89h0.89-0.89-0.45v0.9h0.45v1.34-1.34l-0.45 0.44-0.89-1.34h-0.9v1.34l0.9 0.9h-0.9l0.9 0.89-0.9-0.89v1.79-0.9l-1.34-0.89v0.89l1.34 1.34-2.23-2.23v-0.9l-0.45-0.44 2.23 4.47v0.89l2.24-0.89v0.89l-0.89 0.45h-1.35l2.24 2.23 3.13 3.13 2.24 5.36-0.9 1.79-0.89 0.45v0.89l-0.45 2.24v0.89l-0.89 2.24-0.9 3.13v5.36l-0.89 0.45v3.12l-0.45 2.24 1.34 3.13v0.89l-1.34 1.34-0.89 1.79-2.24 2.24v1.34 0.89h-0.89l-0.45 2.23-2.24 1.35v1.78l-0.89 1.34h-0.9v2.24h-0.89l0.89 1.79h0.9l1.34-0.9h0.89l1.35 2.24 1.78-0.9 0.45-0.44 0.9-0.9h-0.9v1.34l1.79-0.44 1.34 0.44h-0.89v1.79-0.89l-0.45-0.9-0.89 0.9-1.35-0.9v1.79h-1.78l-0.45 1.34 1.34 4.47v3.13 0.89 0.45l1.34 1.79-2.23-0.89 0.89 1.78-0.89-0.89v-0.89h-0.45 0.45l-0.45-0.9v-0.45-0.89l-0.9 0.89-0.89-0.89-0.45 0.89 0.45-0.89h0.89v-0.89l-0.89-0.45-0.45 0.45h-1.79-1.34v0.89 2.24l0.45-0.9 0.89 0.9 2.24 3.12v1.35h0.89 0.9l0.45-0.45v-0.9 0.9l-0.45 0.45 2.68 2.23 0.9-0.45v0.45l1.34 0.89h0.89 1.79l0.45-0.89 0.89 0.89 1.34-0.89 1.79 0.89-1.79-0.89-0.44 0.89h-0.9l-0.89-0.89-0.45 0.89-1.79 0.9h-1.34l0.45 0.89 0.89 1.34v0.9l0.9-0.9-0.9 0.9-0.89-0.9-0.45-2.23h-1.79-0.45l-0.89-0.9-0.89 0.9v1.34-2.24h-1.35-0.89v1.79-0.89l-0.45-0.9-0.89-0.89h-0.9v-0.45l-0.89-1.78h0.89l-0.89-1.35-1.34 1.35 1.34 7.15-0.45 0.44v2.69 1.34l-0.89 3.57-0.9 2.68-2.23 2.24v0.45l-0.45 0.89v1.34l-0.89 1.79v-1.79h-0.9l-0.89-1.34-1.34 0.89v1.34h-0.9l-0.44-0.89v0.89l0.44 0.9-0.44-0.9-0.9 2.24h0.9-0.9l-0.89-1.34-0.45-1.79v-0.45h-0.89v-0.89h-0.9v-0.89 1.78l4.03 7.6v0.45l-0.9-0.45 3.13 4.47v0.9 0.44l0.45 1.79 4.92 5.81 1.34 4.02-0.9 0.9v1.34l0.9 0.89 6.71 6.71v3.12l0.89 1.35 5.37 5.36 0.89 0.89 5.81 4.47 2.24 1.34 3.13 2.69 3.13 3.57 0.89 0.89 2.24 1.35v1.78l-0.9 0.45 6.71 5.36 2.24 3.13-0.45 0.9 0.45 0.44 2.23 2.24 4.92 3.13 0.45 0.89v0.9l0.89 0.44 6.71 6.26h0.89-0.89l3.13 3.13-0.9 1.34h-0.44l1.34 2.23v0.9-0.9 0.9l4.02 5.36 2.69 3.58v0.89l0.89 1.34v0.9l1.79 3.12v1.35h-0.9-0.89l-0.89 2.23v0.89l1.78 2.24 2.24 2.23 0.89 0.9 1.35 2.23v-0.89h1.34l0.89 0.89-1.34 0.9h2.24l0.89-0.9 0.45-0.89v0.89h2.23l0.9-0.89v-0.45l0.89-1.79 3.13-0.44 3.58 0.44h0.89l-1.79 0.9h-0.44-0.9v0.89l-0.89 0.45-0.45 0.89h-0.89l-0.9 0.9-0.89-0.9-0.45 0.9h-0.89-1.34l-0.9 0.89-1.34-0.89v0.89h-1.79v0.45l-0.89-0.45v0.45h-0.45-1.79v0.89l-0.45-0.89v0.89h-0.89v0.9h-0.89l3.13 3.12 4.02 7.6 3.58 4.92 2.23 2.68v2.68 4.02l1.79 0.9 0.45 2.23 1.79 3.58 0.44 3.13 0.9 1.34 0.89 0.89 0.45 2.24v0.89l0.89 0.9 0.9 1.34 0.89 1.34 0.45 0.89 1.79 4.02 0.44 1.34v1.35h-0.44l0.44 3.12 0.9 1.79-0.9 2.24h-1.34l-0.89 0.44h-0.45-0.89l1.34-0.44-0.45 0.44h-0.89v0.9-0.9 0.9 0.89l-1.79 0.45v1.79h-0.45l-2.23 3.13v-0.9-0.89l0.44-0.45 2.24-2.68v-0.45h0.89-0.89l-2.24 2.24-0.44 1.34-0.9 1.79 3.58 4.46 0.89 2.24v1.34l0.9 1.79-0.9 0.89 1.79 1.34-0.89 0.9 2.23 4.47 0.9 2.23h-0.9l3.13 3.13 0.45 2.23 0.89 1.35 0.9 2.23h-0.9l3.13 3.13 3.13 4.02v0.45l-1.78 0.89 3.13 4.03v2.23l-0.9 5.36v1.34l-0.45 0.9 0.45 0.45-0.45 2.23v1.79 0.89 0.45 4.02l-0.89 3.58-0.89 0.89v3.13l-0.45 0.45-0.9 2.68-1.34 2.23h-0.89l0.89-0.89-1.79 0.89-0.89 2.24v0.89 0.45l-2.68 2.23h-0.9v-0.44h-0.89l-0.45 0.44h-0.89v-0.44l-1.79 0.44v0.9l-4.47 4.02v0.45l0.89 3.13-1.34 0.89-0.89 1.34-0.9 0.89-0.89 0.9-0.45 0.45h-0.89v0.89h-0.9l-0.44 0.89-0.9 0.45v0.89l-0.89 0.9-1.34 1.34v1.79 0.44 0.9 0.89 1.34l-0.9 2.24 0.9 1.79-0.9 0.44h-0.89 0.89-2.23l0.89 1.79-0.89 0.45v1.78l-0.9 0.45-0.45 0.9 0.45 1.78h-0.45l0.45 2.69-0.45 0.89v1.34l-0.89 4.02v2.24l-0.89 0.89v0.45l-0.45 2.68h-0.9v1.34 0.89l-0.89 0.45v0.9l-0.89 0.89-0.45 2.23h0.45v0.9 0.45-0.45l-0.45 0.45-0.9 0.89-0.89 2.23v1.34l-0.45 4.03v1.34l-1.79 0.89-0.44 1.79-0.9 0.45-0.89 0.89-0.9-0.89h0.9-1.34l-0.9 2.23v0.9l1.34 2.23v2.24l0.9 7.59-0.9 7.16v1.34h-0.44l0.44-1.34-0.44 0.44v2.24 3.13 5.36 2.23l-0.9 2.24v3.13l0.9 4.47 0.44 2.23v2.24l1.79 3.13 2.24 3.12v0.9l0.89 1.34 0.45 2.23v0.9l7.15 5.36 2.69 3.58 0.89 2.68 1.79 1.34 2.68 5.36v3.13l3.13 4.47 0.9 1.34 3.57 6.26v2.23l2.24 1.35 1.79 1.78v0.45l0.89 1.79v3.13l2.24 3.57 0.44 1.79v2.23l0.9 2.24 3.13 3.58 0.89 1.78 2.24 2.69 0.45 1.78 3.13 4.47 0.89 1.34 2.24 3.13v0.9l-0.9 0.89 2.24 1.34 5.36 6.26v0.45l2.24 3.12 0.89 1.79 0.9 2.24 1.34 2.23v0.9 1.34 2.23l0.89 0.89-0.89 2.24-0.9 1.34-0.44 1.79 0.44-1.79h-1.34l0.9-2.23-0.9 0.89v0.89 0.45 3.13l1.34 5.36v1.34h-0.44l0.44-0.44h-0.44 0.44-0.44l-0.9 0.44 2.24 5.37-0.9 3.13 0.9 3.12-1.34 1.35v1.78l1.34 4.47 2.23 4.47v0.9l-0.44 1.34 3.57 5.36 0.9 1.79v1.34l2.23 3.58-2.23 5.36 0.45 1.79 0.89 0.44-0.89 1.79 1.78 1.34-0.89 1.79v2.23l-0.89 0.45 2.68 2.68v1.34l0.45 1.35 0.89 2.23-0.89 0.89-0.45 0.9 0.45 0.89v0.45 2.23l0.89 0.9 2.24 0.89 0.89 1.34v0.9l0.45 2.23h0.89l-0.89 1.34v-0.45 1.35l-0.45-1.35-0.89 0.45v-0.45 2.24 0.45l0.89-0.45v1.34l0.45 1.79v0.45l1.78 0.89v3.13l0.9 0.44v0.9 0.89 0.9l0.45 2.68 1.78 1.79v0.44l1.35 1.79 0.89 1.34 1.34 2.24v0.89l0.9 1.34 3.13 3.13v1.79l2.23 3.13 5.37 3.57 6.7 6.71 3.13 1.78 2.24 2.24v0.89l0.89 2.24 2.24 1.34 0.45 2.23 1.79 1.79 0.44 2.24 3.13 5.36 0.9 2.23v0.45l0.89 0.9v1.34l0.45 3.13 0.89 3.12 1.34 0.9 0.9 3.57v0.9l1.79 3.57 3.57 5.37v0.89l1.35 2.24 2.68 4.47 1.34 1.78 1.34 3.13 3.13 2.68 0.89 2.69 4.48 4.46 0.89 2.24 1.34 2.23v1.35l1.79 1.78v0.45l0.45 3.13v1.79l0.89 3.57v0.9h-0.89l0.89 3.12-0.89 2.69-1.34 1.78-2.24 2.24-2.24 0.89-0.89-1.78h-0.89v-0.45l-0.45 0.45-0.9-0.45v0.45 1.78l-1.78 0.45 0.89 0.89-0.89 0.9 0.89 0.44v0.9 0.89h0.89l-0.89 0.9h0.89 0.9 0.45-0.45l0.45-0.9h0.89l-0.89 0.9 0.89-0.9 0.89 0.9v1.34l0.45 0.89v0.45h0.9v0.89h-0.9l-1.34-1.34v-0.89h-0.89 0.89l-0.89-0.9v0.9h-0.45 0.45v0.89l0.89 0.45 2.24 1.79 0.89 2.23v0.89l2.24 0.45 1.34 1.79v0.45 1.78h0.89l2.24 3.13v0.45l0.89 2.24v0.89 0.89h-0.89-0.9 0.9-1.34v1.34l-1.79 1.79 0.89 0.45v-0.45l0.9 0.45-0.9 1.79h-0.89l1.79 1.34v1.79l0.44 0.44 1.79 0.9-0.89-0.9 0.89-1.34-1.79-1.79 0.9-0.44 0.89-0.9 3.13-0.89h3.58l1.34 1.79-0.45 0.44 0.45 1.79-0.45 1.34v0.9 0.89h0.45 0.89l0.9-0.89 0.89 0.89 0.45-0.89h1.79l0.45 0.89 0.89 0.45h0.89 0.45l0.9 0.89 1.78-0.89 1.35 0.89 0.89 2.24-2.24 2.23 2.69-0.45 0.89 0.45 1.34 0.89 0.9 0.9h0.89v0.45h0.9v0.89h0.44l0.9-0.89 3.57 0.89 2.69 0.89 0.44 0.45 1.79-0.45zm-232.95-1631.8h0.89-0.89zm22.8 1.788h0.89v0.447h-0.89v-0.447zm-365.31 22.795v0.447-0.447zm370.68 7.598v0.447-0.447zm-4.48 1.341v0.894-0.894zm9.39 23.689h0.45l0.9-0.894-0.9-0.894h0.9v-0.447h-0.9l-0.45-0.894 0.45 1.341h-0.45v0.894h-0.89l-0.89-0.894v0.894l-0.9 0.894v0.447l2.68-0.447zm1.35-3.129h0.89v0.894h-0.89v-0.894zm0 1.341h0.89v0.894h-0.89v-0.894zm-4.03 2.235h-0.45-2.23l-0.9 0.894 2.24 0.894 1.34-1.788zm-18.78 7.151h0.9-0.9zm13.86 16.091 0.45-0.894 0.89-0.894v1.788l0.9-2.682h1.34v-1.341h-0.89l-2.69-1.34 1.34 0.446-4.02-0.446h-1.34l0.89 2.234-0.89 0.447v0.894l0.89 0.894h0.45v-0.894h0.89l0.9 0.894v0.894l0.89 0.447v-0.447zm-4.92-1.788h0.9-0.9zm7.16 0.894v0.894-0.894zm2.23 6.705h0.45v0.893h-0.45v-0.893zm497.66 49.612h0.9 3.57-3.57-0.9l-3.13 1.341 3.13-1.341zm7.16 0.447-2.69-0.447 3.13 1.341-0.44-0.894zm0.44 0.894h0.9-0.9zm0.9 0h0.89-0.89zm-8.95 0.894h0.45-0.45zm14.31 75.089v0.894-0.894zm0 0v0.894-0.894zm0 0v0.894-0.894zm0 1.788v0.447-0.447zm0 0.447h0.9v0.894h-0.9v-0.894zm-1.79 0h0.9v0.894h-0.9v-0.894zm4.03 0h0.89v0.894h-0.89v-0.894zm0 0.894h0.89v0.894h-0.89v-0.894zm0 2.234v-0.893l-0.9-0.447v0.447l0.9 0.893h-0.9 0.9zm5.36 2.235v-0.447l-1.78-0.894h-0.45v0.894h1.34l0.89 0.447zm-3.13 4.47 1.35 1.788-1.35-1.788zm-0.89 0.894h0.89v0.894h-0.89v-0.894zm2.24 0h0.89v0.894h-0.89v-0.894zm0.89 10.727-0.89-0.894v0.894l0.89 0.894v-0.894zm26.83 46.931v0.893-0.893zm22.8 23.688h0.45v0.894h-0.45v-0.894zm-10.73 16.091h0.89v0.894h-0.89v-0.894zm0.89 0h0.45v1.341h-0.45v-1.341zm-0.89 0h0.89v0.894h-0.89v-0.894zm11.18 3.129h0.89-0.89zm9.84 11.174h0.89v0.894h-0.89v-0.894zm14.75 34.416v-1.788l-0.89 0.894v1.34l0.89-0.446zm-1218 3.128v0.447-0.447zm0 0v1.341-1.341zm0.9 0.447v0.894-0.894zm2.23 20.56v-1.341l0.9-0.893v-0.894l-0.9-0.447-0.44 0.447h-0.9v2.234h-0.89-0.9v1.788l0.9-0.894v1.788l0.89 0.447 1.34-2.235zm0-1.341h0.9v1.341h-0.9v-1.341zm1234.5 21.008h0.9-0.9zm-4.02 0.893h0.89v0.894h-0.89v-0.894zm11.63 0.894v0.894-0.894zm3.57 4.47v0.894-0.894zm-8.05 6.257h0.45v0.447h-0.45v-0.447zm0.45 0h0.9v0.447h-0.9v-0.447zm0 0.447h1.79v0.894h-1.79v-0.894zm0.9 0.894h0.89-0.89zm-1.35 0h1.35-1.35zm3.58 1.341v-0.447h-0.45v0.447h0.45l0.9 0.894-0.9-0.894zm-1441.1 28.159 2.23-2.235h0.9l1.34-0.447 0.89-1.788h-0.89l-0.45-1.341-1.79-0.894-2.23 1.341-1.34 0.894-1.79 0.894-0.45 0.894 0.45 0.447v1.788l0.89 0.447h0.9 1.34zm7.6 2.234v-0.447l-1.34-0.894 0.44-0.893h-0.44-0.9-0.89v0.893h-1.34l-0.9 1.341 2.24 0.894 3.13-0.894zm44.26 4.917 0.45 0.447-0.45-1.341 0.45-0.894-0.45-1.341 0.45-0.894-0.45-0.894 0.45-0.447h-0.45l-1.78 0.447-0.45 0.894 0.45 0.894v0.894l0.89 0.447v0.894l0.89 1.341v-0.447zm-40.24-3.129h-0.89l-0.9-0.894-0.44-0.894v0.894l0.44 0.894h1.79zm8.95 4.47 1.34-0.894h0.89l1.79 0.894h2.23v-0.894l-0.89-0.447h-2.24l-1.78-0.894h-1.34l-1.35-0.894-1.78 0.894v0.894l1.78 0.447 0.45 2.235 0.9-1.341zm-8.95-3.129h0.45v0.894h-0.45v-0.894zm1.34 1.788h0.9-0.9zm1466.2 2.235h1.79l-0.9-0.894-0.89 0.894v0.447-0.447zm-13.42 3.575h1.35-1.35zm8.05 0.894h0.9l-0.9-0.894h-0.44l0.44 0.894v0.894-0.894zm7.16-0.894h0.44v0.894h-0.44v-0.894zm-9.39 0h0.89v0.894h-0.89v-0.894zm9.39 1.788h0.44v0.447h-0.44v-0.447zm-1425.9 6.705 2.24-1.341v-0.894-1.788l-0.89-1.341-1.35-0.894-0.89 0.894h-1.79l-0.45-0.894v1.788 1.341l-0.89 0.894-0.89 1.341 2.23 0.894h1.79 0.89zm1421-5.364h0.89-0.89zm1.79 0v0.894-0.894zm2.23 2.235v-0.894h0.9l-0.9-0.447v0.447l-0.89 0.894v0.894l0.89-0.894zm-1429-1.341h0.89-0.89zm1413.8 3.129v-0.894l-0.89-1.788h-0.45l0.45 0.894v1.788h0.89zm12.97 0.447v-0.447h0.89 0.45v-0.894h-1.34l-0.9-0.894v1.788h-0.89v0.447h0.89l0.9 0.894h1.34l-1.34-0.894zm1.34-1.341h1.79v1.341h-1.79v-1.341zm-3.58 0v0.894-0.894zm6.71 1.341h0.89v0.894h-0.89v-0.894zm-3.13 0.894h0.89v0.894h-0.89v-0.894zm-2.24 0h0.9v0.894h-0.9v-0.894zm-9.83 0v0.894-0.894zm14.3 0.894h0.9v0.447h-0.9v-0.447zm-14.3 0h1.34v0.447h-1.34v-0.447zm12.96 0.447h0.9-0.9zm3.58 0h0.89v0.893h-0.89v-0.893zm-5.81 0h0.89v0.893h-0.89v-0.893zm11.17 0h0.9v0.893h-0.9v-0.893zm-3.57 6.257-0.9 0.894v-0.894h-0.89l-0.45-1.341h-0.89l-0.9 0.447h-0.44l2.23 0.894h-0.89l-0.9 0.894-1.34-0.894-0.89-1.341v-2.682h-0.45l0.45 0.894h-0.45v-0.894l-0.89-0.447-0.9-0.894h-1.34 0.45v0.894h0.89v0.447l-0.89-0.447v0.447 0.894h-1.34v0.894l0.89 0.894v-0.894h0.45l1.79 1.341v0.894h-0.9-0.89v-0.894 0.894l-0.45-0.894-0.89-0.447 0.89 1.341v0.894h1.34l0.9 0.447h0.89l0.45-0.447 0.89 0.447h1.34 1.79 1.34 1.79l-0.89-1.341zm-6.71-5.364h0.45v0.894h-0.45v-0.894zm8.94 0v0.894-0.894zm1.34 0.894v0.447-0.447zm-4.47 0v0.447-0.447zm-2.23 0.447h0.89-0.89zm8.94 0h0.89v0.894h-0.89v-0.894zm-4.47 1.788h0.89-0.89zm6.26 0h0.89-0.89zm-12.07 1.341v-1.341h-0.9l0.9 0.894-0.9 0.447h0.9zm-6.26-1.341h0.89v0.894h-0.89v-0.894zm16.09 0v0.894-0.894zm-16.99 0.894h0.9-0.9zm18.33 0.447h0.9v0.894h-0.9v-0.894zm1.79 0.894h0.45-0.45zm0 1.341h0.45-0.45zm-18.33 0.894h0.45-0.45zm18.33 0h1.34v1.788h-1.34v-1.788zm1.34 0.894h0.9v0.894h-0.9v-0.894zm-21.46 0v0.894-0.894zm-2.23 0h0.89v0.894h-0.89v-0.894zm12.07 0h1.79v0.894h-1.79v-0.894zm9.39 0h0.89v0.894h-0.89v-0.894zm-22.8 0v0.894l0.89 0.447-0.89-1.341zm-1422.3 7.598v-0.894l-0.45-2.235h-0.89v-0.894h-0.9v0.894h-0.89l-0.45 0.894 0.45 0.447-0.45 1.788 0.45 0.894 1.79 0.447 1.34-1.341zm-9.84 5.81h0.9l0.89-1.34v-0.894-0.447l-0.89-0.894-0.9-1.341h-0.89l-0.45-0.894-0.89-1.788-1.34-0.447v-0.894-0.894h-1.79v0.894h-0.45l0.45 1.341-0.45 1.788 0.45 0.894-0.45 1.341 1.34 1.341 2.24 2.234h2.23zm1443.3-7.598h0.9v0.894h-0.9v-0.894zm-2.68 0h0.45-0.45zm-0.89 0h0.89-0.89zm4.47 2.682v-0.894l0.89-0.894-1.79 0.894v0.894l0.9 0.447v-0.447zm-2.24-1.788v0.894-0.894zm-0.89 0.894v0.894-0.894zm4.02 0.894h0.45v0.447h-0.45v-0.447zm-0.89 0.447v0.894-0.894zm0.89 0h0.45v0.894h-0.45v-0.894zm3.58 0.894h0.89-0.89zm-3.58 2.235 0.45-0.894v-1.341h-0.45l-0.89 1.341v0.894h0.89zm-1463.5 3.128 0.9-0.894v-3.128l-0.9-0.447h-1.34l-2.24 0.447-0.89 1.787 0.89 1.341 2.24 1.788 1.34-0.894zm1465.7-4.469h0.89-0.89zm-1473.3 1.341h0.89-0.89zm1476.9 0h0.9-0.9zm-1476.9 3.128-0.45-1.788h-0.89v0.894h-0.9v0.894l1.79 0.894 0.45-0.894zm1480.9-0.894h0.89v0.894h-0.89v-0.894zm3.13 2.235h0.45v0.894h-0.45v-0.894zm-1299.4 18.325-0.44-0.893v1.787l0.44 0.447v-1.341zm-1.34 2.235 0.9-0.894v-0.447-1.787h-0.9-0.89l-0.45 0.893-1.79-0.893-0.44 0.893v1.341h0.44v0.894h0.9l0.89 0.894 1.34-0.894zm0-0.894h1.34v0.894h-1.34v-0.894zm-2.23 2.682v-0.894-0.894h-0.9v-0.894h-0.44v0.894 0.894-0.894l0.44 1.788h0.9zm1328-2.682v0.894-0.894zm-1330.2 1.788v-1.788 2.682-0.894zm1329.3-1.788v0.894-0.894zm-1324.8 5.364h0.9l0.44-1.341v-0.894-0.447-0.894-0.894l-1.34 0.894-1.34 1.341v1.788l0.45 0.447h0.89zm-2.23-4.47v1.788-1.788zm0 0.894h0.89v0.894h-0.89v-0.894zm0.89 0h0.45v0.894h-0.45v-0.894zm-0.89 0h0.89v0.894h-0.89v-0.894zm3.13 3.129h0.44-0.44zm-2.24 0v0.447-0.447zm-0.89 0.447h0.89v0.894h-0.89v-0.894zm1340.9 9.833h0.45v0.894h-0.45v-0.894zm6.71 4.023h0.9v0.894h-0.9v-0.894zm1.34 1.34h0.9-0.9zm-2.23 0h0.89v0.894h-0.89v-0.894zm1.79 0v0.894-0.894zm1.34 1.788-0.9-0.894h-0.44l0.44 0.894v0.447l0.9 0.894v-1.341zm-3.58-0.894h0.45-0.45zm-1345.4 0h0.45v0.894h-0.45v-0.894zm1.34 1.341-0.89-0.447h-0.45v-0.894l-0.89 0.894 0.89 0.447h-0.89 0.89l0.45 0.894h-0.45v0.894l0.45 0.894 0.89-2.682zm1347.7-0.447h0.89v0.447h-0.89v-0.447zm-1.34 0.447v0.894-0.894zm-0.9 0v0.894-0.894zm-1.34 0h0.45v0.894h-0.45v-0.894zm2.24 0.894h0.44-0.44zm0.44 0h0.9v0.894h-0.9v-0.894zm-1349 2.235 0.89 0.894 0.45-0.894v-0.447h-0.45-0.89l-0.9 0.447v0.894h0.9v-0.894zm1.34 2.235 0.89-0.447v-0.894-0.894h-0.89l-0.45 0.894v1.341h0.45zm-0.45 0.894-0.89-3.129v0.894l-1.34-0.894-0.9 0.894-0.89 1.341 0.89 1.788h0.9l2.23-0.894zm1.34-2.235h0.9v0.894h-0.9v-0.894zm-3.57 4.023h1.34v0.447h-1.34v-0.447zm0 1.34h0.44v0.894h-0.44v-0.894zm0.44 0.894h0.9-0.9zm19.68 9.833-1.34 0.447v0.894l1.34-1.341zm-7.6 3.129-1.35-0.894-1.34-1.788v1.788l-0.89 0.894v0.447h2.23l1.35-0.447zm3.13-0.894h1.78v0.894h-1.78v-0.894zm0 3.577 0.89-2.683h-0.89-1.35-1.78v1.343l1.78 0.89v0.45h1.35zm13.86-2.683h0.89v0.447h-0.89v-0.447zm-0.9 0h0.9v0.447h-0.9v-0.447zm-12.07 0.447v0.896-0.896zm2.24 2.236h0.89-0.89zm1337.8 0h0.9v0.89h-0.9v-0.89zm-1329.3 5.36h-0.89v-0.44h0.89l0.45-0.9v0.9h0.89l-0.89-0.9v-0.89l0.89-0.9-1.34 0.9-0.89 0.89h-0.9l-0.44 0.9v0.44h1.34 0.89zm-8.49-0.44-0.9-0.9-0.45-0.89-0.89 0.89h0.89v0.9l0.45 0.44 0.9-0.44zm-8.5 1.34 0.89-1.34-0.89-0.9h-0.45l-0.89 0.9h-1.34l-0.9 0.44 0.9 0.9 1.34-0.9 0.89 0.9h0.45zm7.15-1.34-0.89-0.9-0.89 0.9 0.89 0.44 0.89-0.44zm0 0h0.45v0.44h-0.45v-0.44zm-6.26 2.23 1.35-1.79v-0.44l-1.35 0.44-0.89 0.9-0.45 0.89h1.34zm6.26 0h1.35l-0.9-1.79h-0.45-0.89-0.89l-1.35 1.79 1.35 0.45 0.89-0.45h0.89v0.45-0.45zm1345.4-1.79v0.9-0.9zm-1339.6 1.79h0.89v-0.89-0.9h-0.89v0.9l-0.45 0.89h0.45zm1339.6 0v0.45-0.45zm-1353 0v0.45-0.45zm4.47 1.34v-0.89h0.9-0.9-1.78v0.89h0.89 0.89zm1.35 0h0.89-0.89zm3.13 0h1.34v1.34h-1.34v-1.34zm2.23 0.9v-0.9l-0.89 0.9v0.44h0.89v-0.44zm-5.81 0 0.45 0.44h-0.45 0.45v-0.44h-1.35-0.89v0.44l0.89 0.9 0.9-1.34zm-3.13 0h0.45-0.45zm10.73 0h0.45v0.44h-0.45v-0.44zm-15.2 1.34-1.79-0.9-0.9 0.9h2.69zm4.47 1.78 0.45-0.89v-0.89l-0.45-0.9v0.9-0.9h-0.9v0.9h-0.89l-0.45 0.89 0.45 0.89h1.79zm8.05 0v-0.89h-0.45 0.45l-0.45-0.89h0.45v-0.9h-0.45l-0.89 2.68h0.89 0.45zm2.68 0.45v-0.45-0.89l0.45 0.89v-0.89h0.89v-1.79h-1.34v0.9h-0.89v0.89h-0.9l0.9 0.89h-0.9l0.9 0.45h0.89zm-15.2-3.13h0.44v0.9h-0.44v-0.9zm15.2 0v0.9-0.9zm7.6 1.79h1.34v-0.89h-0.89l-0.45 0.89h-0.89 0.89zm1417.4 0h0.89v0.89h-0.89v-0.89zm-1434.4 4.47h1.79v-0.89h0.45l-0.45-0.45h0.45l-0.45-0.9v-0.89l-1.79-0.45v0.45h-0.89l-0.45 1.79h-0.9l0.9-0.9-0.9 0.9-0.89 0.45 2.24 0.89h0.89zm3.13-0.89 0.89-0.45-0.89-1.79v-0.45l-0.89 0.45v-0.45l-0.45 1.34 0.45 0.9v-0.9 0.9 0.45h0.89zm2.24 0v-2.24l-1.35-0.45v0.45h-0.89l0.89 0.89h0.45l-1.34 1.35 1.34-0.45-1.34 1.34h2.24v-0.89zm15.2-1.35h0.89-0.89zm-9.84 2.24h0.9-0.9zm-6.71 0h-1.78 1.78zm5.37 0h0.45v0.89h-0.45v-0.89zm20.12 0.89h0.9v0.45h-0.9v-0.45zm-19.67 0h0.89v0.45h-0.89v-0.45zm16.99 4.47-0.9-0.89h-0.89 0.89 0.9l-0.9-0.45h0.9l1.34-1.79-1.34-0.89-1.79 0.89-1.34 1.79 1.34 2.24h1.79v-0.9zm0.45-4.02h0.89v0.89h-0.89v-0.89zm0.89 0.89h0.89v0.9h-0.89v-0.9zm0 3.13v-0.89-0.45-0.89l-1.34 0.89 0.45 1.34h0.89zm0-2.23v1.34-1.34zm6.26 5.36 0.45-3.13h-0.45-0.89l-0.9 0.9-0.45 1.34v0.89l0.45-0.89-0.45 0.89 0.45 0.45 1.79-0.45zm10.28 10.73h1.79v1.34h-1.79v-1.34zm1.79 2.68v-0.45 0.45-2.23 0.89h-0.89v-0.89l-1.34 1.78h0.44-0.44l0.44 0.45h1.79zm0-1.34h0.9v0.89h-0.9v-0.89zm1.34 2.23v-0.89 0.89-0.89h-0.44l-0.9 0.89 1.34 0.9v-0.9zm7.6 2.24v0.89-0.89zm-2.23 3.13 1.79-1.34-2.69 0.44v0.9h0.9zm3.13 0-0.9-0.9v0.9-0.9l-0.44 0.9v-0.9h-0.9v0.9 0.89l0.9 0.45 1.34-1.34zm-4.47 6.26h1.34v1.34h-1.34v-1.34zm1.34 0.44h0.89v1.79h-0.89v-1.79zm-0.9 0.9h0.9-0.9zm8.5 4.47h0.89-0.89zm6.71 7.59h0.89v0.9h-0.89v-0.9zm-2.24 0h0.9v0.9h-0.9v-0.9zm1.79 0.9h0.45v0.89h-0.45v-0.89zm1.34 0.89v0.45-0.45zm0 0h0.9v0.45h-0.9v-0.45zm-0.89 5.81h0.89v0.9h-0.89v-0.9zm3.13 0h0.89v0.9h-0.89v-0.9zm-1.34 0.9v0.89-0.89zm2.23 0h0.9v0.89h-0.9v-0.89zm-6.26 8.94h1.79v1.78h-1.79v-1.78zm16.1 9.83h0.89v0.89h-0.89v-0.89zm-12.07 1.79h0.89v0.89h-0.89v-0.89zm11.17 0h0.9v0.89h-0.9v-0.89zm0.9 5.81v-2.24h0.89v-1.34h-1.79l-0.44-0.89v-0.45h0.44l-0.44-0.89h-2.24l-0.89 0.89h-1.79-0.45-0.89l-0.9 0.45h-1.34l7.6 2.23 1.34 0.9v1.34h0.9zm0.89-4.92h0.45-0.45zm-0.89 1.34h0.89v-0.89l-1.79-0.45-0.44 0.45 0.44 0.89h0.9zm-10.73-0.89h0.89-0.89zm12.07 0.89v0.9-0.9zm-0.45 2.24h0.45v0.89h-0.45v-0.89zm1.34 0.89h1.79v0.45h-1.79v-0.45zm19.23 9.83h0.45-0.45zm386.77 35.76h0.89-0.89zm0 0h0.89v0.89h-0.89v-0.89zm-0.9 0.89h1.79-1.79zm60.37 5.81v0.9l0.44 0.89-0.44-1.79zm2.68 4.03-1.34-0.9-0.9-0.89v-0.45l-0.44-0.89 0.44 2.23 0.9 0.9v-0.9 0.9l0.89 0.44 0.45 0.9 0.89 0.89-0.89-2.23zm0-0.9-0.45-0.89-0.89-0.45-0.9-0.89v0.89 0.45l2.24 1.79v-0.9zm-0.45 0v0.9-0.9zm-0.89 0.9h0.89v1.34h-0.89v-1.34zm0 0v0.44l1.34 1.79-1.34-2.23zm0.89 0.44v0.9-0.9zm1.34 0.9h0.9v0.89h-0.9v-0.89zm-0.89 0h0.89v0.89h-0.89v-0.89zm0.89 0.89h0.9v0.45h-0.9v-0.45zm6.26 0h0.45v0.45h-0.45v-0.45zm0.45 0v0.45-0.45zm-0.45 0.45h0.45v0.89h-0.45v-0.89zm0 0.89v0.9-0.9zm-33.53 0v0.9-0.9zm34.88 0h0.89v1.79h-0.89v-1.79zm-1.35 0.9h0.45v0.89h-0.45v-0.89zm1.35 2.23v-0.89l0.89-0.45-0.89-0.89v0.89-0.89h-0.9v0.89h-0.45l0.45 0.45v0.89h0.9zm-35.77-2.23h0.89v0.89h-0.89v-0.89zm2.23 3.57-0.45-1.34v-0.89l-0.89-0.45h-0.89-0.9l0.9 1.34h0.89v1.34-0.44h0.89v0.44h0.45zm31.3-2.68h0.89v0.45h-0.89v-0.45zm-34.43 0h0.9v0.45h-0.9v-0.45zm35.32 0h0.45v1.34h-0.45v-1.34zm2.24 1.34v-1.34l-0.89 1.34 0.89 0.9v0.44l0.45 0.9-0.45-2.24zm-38.01-0.89h0.45v0.89h-0.45v-0.89zm42.48 1.79-0.89-0.9v-0.89h-0.45v0.89l1.34 2.24v-1.34zm-6.26-0.9h-0.45v-0.89h-0.89v1.79l1.34-0.9zm-31.74 0.9-0.9-0.9-0.45-0.89 0.45 0.89v1.34h0.9v-0.44zm-2.24-0.9h-0.89v-0.89h-0.9l0.9 0.89h-0.9v0.9h0.9l0.89 0.44v-1.34zm28.17 0h0.45v0.9h-0.45v-0.9zm7.6 2.24v-0.9l-0.89-1.34h-0.9v0.9l-0.45 0.44h0.45-0.45l0.45 1.79h1.79v-0.89zm-34.43-2.24v0.9-0.9zm32.19 0h0.45v0.9h-0.45v-0.9zm-35.32 5.36h0.9l-0.9-0.89-0.45-2.23-1.78-0.9 0.89-0.44h-0.89-0.45-0.9l-0.89 0.44 0.89 2.24h0.9v0.89l0.45-0.89v-0.45 0.45l1.78 1.78 0.45 0.9v-0.9zm1.79-0.89v-1.34l-0.89-1.79-0.9-0.44 0.9 3.57h0.89zm-2.24-3.57h-0.89v0.44h0.89v1.79-2.23zm6.71 0h0.9v0.44h-0.9v-0.44zm-2.23 2.68v-1.34l-0.9-0.9h-0.45v-0.44l-0.89 0.44h0.89v0.9 0.89l0.45-0.89h0.9l-0.9 0.89h-0.45v0.45h1.35zm31.74-1.34-0.45-0.9v-0.44l-0.89 0.44v1.79l1.34-0.89zm8.5-1.34v0.44-0.44zm-37.11 0h0.44v1.34h-0.44v-1.34zm-0.9 0.44h0.9-0.9zm1.34 0v0.9 0.89-1.79zm0 0h1.79v1.79h-1.79v-1.79zm-4.92 0.9v-0.9h-0.89v1.79 0.45h0.89v-1.34zm7.61 0.89v-0.89h0.44v0.89h0.9 0.89v-0.89h-0.89l-0.9-0.9h-0.44v0.9h-0.9v0.89h0.9zm-4.03-1.79h0.9v0.9h-0.9v-0.9zm0.9 0h0.44v0.9h-0.44v-0.9zm31.74 1.79-0.89-0.89h-0.45v0.89h-1.79-0.45 2.69 0.89zm-30.4-0.89h0.89-0.89zm-0.9 2.23-0.44-0.89 0.44-0.45h-1.34l-0.89-0.89-2.24 3.12h1.79l2.68-0.89zm-37.11-2.23h0.89v0.89h-0.89v-0.89zm32.19 0h0.45v0.89h-0.45v-0.89zm10.29 1.34v-0.45l-0.45 0.45v-0.45 0.45l-2.23-0.45h-0.9v-0.89l-0.89 0.89h-0.9v0.45l2.69 0.89 2.68-0.89zm-2.68-1.34h0.44v0.89h-0.44v-0.89zm2.23 0.89h0.45-0.45-0.89 0.89zm-12.97 2.23-0.89-0.89h-0.89v-0.89l-0.45 0.89v-0.89l-0.9 0.89 0.9 0.89h2.23zm-12.07 2.24-1.79-1.34-0.89-0.9v-0.89l-1.34 1.79-0.9 1.34h1.79 3.13zm-7.6-3.13h0.45v1.79h-0.45v-1.79zm2.68 1.79h0.9-0.9zm73.78 4.92v0.89-0.89zm-1.34 0.89h0.89v1.79h-0.89v-1.79zm0 0h0.89v1.79h-0.89v-1.79zm-1.79 0.89h0.89v0.9h-0.89v-0.9zm2.68 0h0.45v0.9h-0.45v-0.9zm-1.79 1.34 0.9-0.44v-0.9l-0.9 0.9h-0.89l-0.45 0.44 1.34 0.9v-0.9zm1.79-0.44h0.45v0.44h-0.45v-0.44zm-0.89 0h0.89v0.44h-0.89v-0.44zm1.34 0h0.89v1.34h-0.89v-1.34zm0 2.23h-1.34v0.45-0.45h0.89v-0.89-0.9h-0.89v-0.44 0.44 0.9h-0.9-0.89l-0.45-0.9v0.9-0.9l-0.89 0.9 0.89 0.89 1.34 0.45h0.9l1.34-0.45zm-3.13-1.79h1.79v0.9h-1.79v-0.9zm7.6 5.37v-1.34l-0.45-0.9h-0.89l-0.89 1.34 0.89 0.9h0.89 0.45zm-22.8 12.07 2.68-2.24v-1.34l0.45-0.89v-0.9l0.89-2.23 1.34-1.34 0.9-2.24-0.9-0.89h-0.44-0.9-2.23l-0.9-0.9h-0.89l-1.34 3.13v2.24l-0.9 0.89v0.89 0.45l-2.23-0.45-0.45 1.35-0.9 1.78 0.9 1.34 2.23 0.9h0.45l2.24 0.45zm23.7-8.05h0.89-0.89zm0 0h-1.35l-0.89 0.45h0.89l1.35-0.45zm-0.9 0h0.9v0.45h-0.9v-0.45zm-51.42 46.04h0.9v-1.34h0.44l-0.44-0.9 0.44-0.44-1.34-0.9-0.89 0.9v1.34h-0.9v1.34l0.9-0.45 0.89 0.45zm53.21 10.72h0.45v0.9h-0.45v-0.9zm-6.26 1.79h0.89v0.45h-0.89v-0.45zm-3.58 1.34h0.45v0.9h-0.45v-0.9zm5.37 7.6v0.89-0.89zm0 1.34h0.45v0.9h-0.45v-0.9zm-68.41 10.73 0.44 0.89v-1.34l0.9 0.45 1.34-0.45-0.45-0.89 2.24-2.24v-0.89l0.89-0.89-0.89-0.45-0.9-0.9h0.9l-0.9-0.89h-2.23l-0.9 0.89h-0.44l-0.9 0.9-0.89 1.34v1.34l0.89 2.68h0.9l-0.9 0.45 0.9 0.89v-0.89zm76.46-3.13h0.89v0.89h-0.89v-0.89zm-0.45 0h0.45v0.89h-0.45v-0.89zm-76.91 4.92h0.9-0.9zm58.58 15.19v0.45-0.45zm-79.15 16.54h1.35v1.79h-1.35v-1.79zm812.44 7.6h0.9v0.89h-0.9v-0.89zm-3.57 5.36h-0.9-0.89l0.89-0.89-0.89 0.89 0.89 0.9-0.89 0.44 1.79-1.34zm-4.03 0.9h1.79-1.79zm-3.13 3.13h0.9 1.78v-0.9h0.45 0.9v-0.89l-1.35-0.9h-0.89l-0.89 0.9-1.35 0.89v0.9 0.44l0.45 0.9v-1.34zm-30.85 42.46h1.34v0.89h-1.34v-0.89zm3.58 31.28v-1.78l0.89-1.35 0.9-4.02h-0.9v0.9-0.9-0.44-1.79l0.9 0.89v-0.89-2.24 0.9h-0.9v-0.9 0.9h-0.89l0.89 0.44-0.89-0.44-2.24-0.9v-0.89l-0.89 1.79 0.89 0.44h-0.89l0.89 1.79h-0.89l1.79 0.9h-0.9v0.44 0.9h0.9l-0.9 0.89 0.9-0.89v0.89 0.45h-0.9-0.89v-0.45l-0.45 0.45h0.45v0.89l0.89-0.89 1.79 0.89h-0.89-0.9v0.89h-0.89l0.89 1.35h-0.89v-0.9l-0.45 2.68v0.45h0.45 0.89 0.9-0.9 0.9v0.89l1.34-1.34zm-3.13-10.28v0.9-0.9zm-0.45 2.69 0.45-1.79-0.45 2.23v-0.44zm5.37 0v-0.9l-0.9 0.9h0.9l-0.9 0.44h0.9v-0.44zm-5.37 0.44v0.9-0.9zm-0.89 6.26h0.89-0.89zm1.34 2.23v-0.89h-0.45l-0.89-0.45h-0.9l0.9 1.34h0.89 0.45zm-2.24 21.91 0.9-1.35-1.35-2.23v-2.23l-0.89-1.79v0.89 0.9 0.44l-0.89-0.44v0.44l-0.45-0.44v-0.9-1.34l-0.9-0.89-0.89-3.13v-2.24l-1.34-2.23-0.9 3.57h-0.89v0.9h-0.45v1.34l0.45 2.68v1.34l-0.45 0.9v0.44l2.24 2.68v-1.78 0.89-0.89l1.34 1.78v0.45l1.79 1.79v-1.79l-0.9-0.45 1.35 2.69 0.89 0.89h0.89l0.45-0.89zm-7.6-13.41v-0.9-1.34l-0.45 2.24 0.45 0.44v-0.44zm-595.13 0h0.89-1.34-0.89l0.89 0.44 0.45-0.44zm-0.45 0h1.34v0.44h-1.34v-0.44zm-0.89 1.34h1.34l1.79-0.9h-1.79l-1.34-0.44-0.9 0.44h-0.89v0.9l-1.34 0.89v0.45-0.45l1.34 0.45 1.79-1.34zm3.57-0.9h0.9-0.9zm-0.44 0h0.44-0.44zm-5.37 0h0.45v0.9h-0.45v-0.9zm2.24 1.79h0.89-0.89zm-0.9 0h0.9-0.9zm1.79 0.45 0.45-0.45-2.24 0.45h1.79zm-1.79-0.45v0.45-0.45zm2.24 0h0.89v0.45h-0.89v-0.45zm-4.47 0.45h0.89-0.89zm-6.71 0.89 1.34-0.89h-0.89-0.45l-0.89 0.89h0.89zm7.6 0 0.45-0.89-2.24 0.89h1.79zm0.45-0.89h0.89v0.89h-0.89v-0.89zm-4.92 0.89h0.45-0.45zm4.92 0h0.89-0.89zm0.89 0v0.9-0.9zm-1.34 0h0.45-0.45zm-4.02 0.9h1.79v0.89h-1.79v-0.89zm3.13 0h0.89-0.89zm-9.84 2.23v-0.89h-0.89 0.89l0.89-0.45-1.78 0.45v0.89h0.89zm-0.89 0h0.89-0.89zm612.57 6.26v0.45-0.45zm-1.35 5.81v0.89-0.89zm11.63 29.95-0.89-0.9 0.89-1.79h0.45l0.89 0.9 0.9-1.34v-0.9l0.44-1.34v-3.13l-0.44 1.34-0.9 1.79h-0.89l-0.45 0.45h0.45l-2.24 0.89 0.9 0.9-1.79 0.44-1.34 1.79 0.89 0.9h1.34 1.79zm0.45-1.79h0.89v0.89h-0.89v-0.89zm-6.71 0h0.89v0.89h-0.89v-0.89zm6.71 2.23v-0.44-0.9 0.9h-0.45v0.44h0.45zm-0.45-1.34v0.9-0.9zm-1.79 2.24h0.9-0.9zm-4.47 9.83h0.89v0.89h-0.89v-0.89zm-1.34 8.49v0.45-0.45zm-0.9 0h0.9v0.45h-0.9v-0.45zm0 0.45h1.35-1.35zm-595.13 0v0.89-0.89zm597.37 0.89h0.89v1.79h-0.89v-1.79zm18.78 29.95v0.45-0.45zm0.89 0.45v0.89-0.89zm6.26 11.62h0.45v0.44h-0.45v-0.44zm0 0.44h0.45v1.79h-0.45v-1.79zm-0.89 2.69h0.89-0.89zm2.23 2.23-1.34 0.45-0.89-0.45 0.89 0.45 1.34-0.45zm-1.34 2.68h1.34v0.9h-1.34v-0.9zm-1.79 0.9h1.79-1.79zm66.18 16.98 0.89-0.89-1.34-1.79v-1.34l-1.79-2.24 0.9-5.36-0.9-0.89-0.89-0.45-1.34 0.45-0.9 0.89v6.26l-0.44 0.44v0.9l1.34 2.23h2.23l0.9 1.79 0.89 0.45 0.45-0.45zm41.14 309.3h5.36l2.24-1.34 1.34-1.79 4.02-2.24 7.6-3.13 3.13-0.44h3.13 2.69l0.89 0.44 1.34-0.44 0.9-0.9h-0.9v-0.89 0.89h1.79l0.9-0.89 0.44-0.89h1.79l-0.89-0.45h0.89-0.89 0.89v-0.9 0.9h0.45v0.45l0.89-0.45v-0.9l0.9-0.89h1.34-0.9v-0.45l0.9 0.45 0.89-0.45-0.89-0.89h0.89v0.89l0.9-0.89-0.9-0.89v-0.45l0.9-0.9 0.44-0.89h-0.44 0.44v-1.34l2.24-4.02 1.79-5.37 2.23-5.36v-0.45h0.9l2.23-4.91v-0.45h-0.89 0.89l0.45-4.47h-0.45-0.89 0.89v-0.89-0.9 0.9h0.45v0.89l0.89-3.13 0.9-3.13v0.9-0.9l0.45-1.34 0.89-3.13 1.79-4.02 0.45-4.47 0.89-6.26 1.34-3.57 3.13-7.6 2.24-6.26 0.89-1.34 0.9-1.79h-0.9v-0.44h0.9l-0.9 2.23 1.34-4.47 0.9-3.13 0.89-0.89-0.89-0.89h0.89l1.34-5.82h0.9l-0.9 0.9v-0.9-0.89l0.9 0.89v-3.12l0.89-0.9v-2.68l2.24-6.26 0.44-2.23 4.92-9.39-0.89 0.9 0.89-0.9v-1.34l0.45-4.47 3.13-6.7v-3.13l2.24-5.37 3.13-7.59 2.23-5.37 0.9-4.47 0.44-0.89h0.9l-0.9-2.24v-0.89l3.13-7.6v-0.89h-0.89l-0.45-1.34v-1.34-0.9l-0.89-0.89 0.89-0.45-1.79-1.79 0.9-0.89 4.02-8.94 1.34-0.89 3.58-0.45-0.45-0.89h-0.89l-0.9-1.34v-0.9-0.89h0.9l-0.9 0.89 0.9-0.89 0.89-1.34v-0.9l0.45-0.89v-0.45l0.89-1.79v-0.44h-0.89v-0.9l-0.45-0.89 0.45-2.24h0.89v-1.34 0.45l-0.89-0.45-2.24-0.89-1.34-2.24v-1.78l1.34-1.34-0.44-0.9v-0.44l-0.9-3.13-0.89-0.9v-0.89-0.45l-0.45-1.79 2.24-2.23h0.44 0.9 0.89 0.45l0.89-0.9 0.9 0.9v0.89 0.9 0.44l0.89 1.79h0.45v0.45 2.68l0.89 0.45v2.23l1.34 0.9 1.79 0.89 0.45 0.45h1.79v-0.45h-0.9l0.9-0.89 1.34-0.9v-1.34h0.89-0.89l0.89-3.13 1.35-2.23 0.89-2.24 0.89-0.89h-0.89l0.89-0.9v-0.44-0.9-1.34-0.89-0.89l-0.89-0.45v-0.9l-2.24-2.23-0.89-2.24-1.34-3.12v-0.9l-0.9-2.23-0.89-2.24v-3.13l0.89-3.12-0.89-0.45-0.45-0.9 0.45-4.02-0.45-1.34v-4.47l-1.79-3.13v-0.89-0.45-0.89l-0.44-0.9-0.9-2.23 0.9-0.89-0.9-0.45h-0.89v-0.9-0.89l-0.45-0.45v-1.78h-0.89l0.89-3.13-0.89-1.34-0.9-1.34v0.44l-0.89-0.44 0.89-0.9h-0.89-0.45l-0.89-1.34h0.89l-1.79-1.79v0.9l-0.44-0.9h0.44l-0.44-0.89v1.79h-0.9v0.89-0.89l-0.89 0.89 0.89-0.89-0.89-2.24-0.45-0.89h-0.89-0.9l0.9-1.34-0.9-2.24h0.9v1.34h0.89v-0.89l-0.89-2.24-0.9 0.9h0.9-0.9-0.89v-0.9h-0.45l0.45-0.89 0.89 0.89v-0.89l-0.89-0.45h-0.45l-0.89 0.45v-0.45-0.89l-0.9 0.89v-1.78-0.45l-0.44-0.9-0.9 0.9 0.9 0.45-0.9 0.89h-0.89v-0.89-0.45l-0.45 0.45h-0.89v0.89l-0.9-0.89v-0.45l1.79 0.45v-0.45l-0.89-0.9v-0.89-0.89l0.89 0.89h0.45v0.89-0.89-0.89l1.79 1.78-0.9-2.23h0.9l-0.9-1.79h-0.89 0.89l-0.89-0.45v-0.89l-0.45-0.89h-0.89l-0.9 0.89h0.9v0.89l-0.9-0.89v0.89h-0.89v0.45h0.89v0.9l0.9 0.89-0.9-0.89v0.89l-1.34-1.79v0.9h-0.89l0.89 0.89v-0.89l0.45 0.89v0.45-0.45l0.89 0.45-0.89 0.89v-0.89 0.89l-0.45 0.89h0.45l-0.45 0.9h-0.89v1.34h-0.9v-0.89l-0.45 0.89h-0.89l-0.89 0.89v0.45l-0.45 2.68-0.9 0.45-0.89-2.24h-1.34l-0.9-0.89-0.89 1.79h0.89v0.89l1.79 0.45v0.89h0.45 0.89l-0.89 1.34v0.9h0.89v2.23l0.9 0.9v0.89l0.45 1.34h-0.45v0.9l-0.9 0.44h0.9l-0.9 0.9h-0.89v0.89l-0.45 0.45v0.89 0.89h-0.89l0.89 0.9h-0.89 0.89-0.89l0.89 0.45h-0.89l0.89 0.89-0.89 0.89h0.89-0.89l-0.9 1.34h0.9v0.9l-1.79 1.34-1.34 0.89v-0.89 0.89h-1.34l-3.13-2.23 0.89 1.34 0.45 2.23h0.89-0.89v0.9l-0.45-0.9v0.9-0.9h-0.89l-0.9 0.9h0.9-0.9v-0.9h-0.89v0.9 0.89-0.89 0.89h-0.45v-0.89-0.9l-0.89 0.9 0.89 0.89h-0.89l0.89 0.45h-0.89v0.89 0.9 0.44 1.79-0.89l-1.34 1.79-0.9-0.9-1.34-0.89v-0.9h0.45-0.45v-1.34-0.89h-0.89l0.89-0.45h-0.89-0.9-0.89l0.89-0.89-0.89-0.9h-0.45l0.45 0.9h-0.45v0.89l-0.89-0.89v0.89-0.89h-0.9l0.9-0.9-0.9-0.44-0.45 1.34h0.45v0.89h-1.34v2.24h0.89l-0.89 0.44-0.89 0.9 0.89 0.89v0.9 1.34l1.34 0.89h0.9v0.45l0.89-0.45-0.89 0.45h0.89l-0.89 0.89v-0.89 0.89h-1.35l1.35 1.34h0.89v-0.45l0.45 0.45h-0.45l0.45 0.9-0.45 0.89 0.45 0.89h-0.45l-0.89 0.45 0.89 0.89v0.9h-0.89v1.34 0.89-0.89l-0.9-0.89 0.9-2.24v-0.45-0.89h-0.9v-0.89h-0.45-0.89 0.89-0.89l1.34 1.78-0.45 1.34v0.9l-0.89-0.9v0.9h-0.89l-1.35-1.79v0.89h-0.89l0.89 1.35-1.78 0.89-0.45 2.23 0.45 1.79v0.45 0.89 0.9h1.78v-0.9l0.9 0.9h0.45l0.89-0.9 2.24 0.9v0.44 0.9-0.9l-0.9-0.44-0.45 0.44v0.9 0.89-0.89l-2.23-0.9-0.9-1.34v0.9h-0.89l-0.89 1.34-0.45 0.89v0.45l-1.79 1.79h0.89l-0.89 0.89-0.45 2.23h-0.89v0.45 0.9-0.9l-0.89 0.9-0.45 0.89v0.45l-1.79 0.89h-0.89l0.89-1.34-0.89-1.79 3.13-3.57h-0.45v-1.79-0.45l-0.9-0.89-0.89 0.89-3.13 3.58 1.79 0.89v-0.89-0.45l0.45 0.45-0.45 0.89-0.9 0.89v-0.89l-1.34 1.34v0.9l-0.89-0.9v0.9l-0.9 1.34-0.44 0.89h-0.9l-1.79 1.79v1.34l0.9 0.89v0.45h0.89l0.9-0.45v2.24l0.44 0.44h0.9v0.9h-0.9v0.89l-0.44-0.89v0.89l-0.9-0.89h-0.89l0.89 1.79-0.89-0.9v1.34-0.44l-0.9-0.9v1.34 0.9l-1.34-2.24-0.89 2.24-0.45 0.89v-0.89l-0.89 0.89 1.34-1.79 0.89-2.23 2.24-2.24-3.13-1.34v-1.78l-1.34 0.89-5.37 3.57h0.9v0.9h-0.9l0.9-0.9h-1.79l-2.69 2.69v0.44-0.44l-1.78 1.34-0.9 0.89-1.34 2.24h0.89 0.45v0.89l-1.34 1.34v0.9h1.34l2.68 2.23 0.45 0.45 2.24 0.89 0.89 0.89-0.89 0.9v0.45l-0.45-1.35h-0.89-3.13l-1.35-0.89-2.23-3.57-0.9-0.9 0.9-1.34v-0.89h-1.79-2.24l-1.34 2.23h0.45l1.79-0.89-0.9 0.89-0.89 0.9h0.89l-0.89 0.44-0.45-0.44h-0.89l-0.9-0.9 0.9-0.89h-1.34-1.79v0.89-0.89l-0.45 1.79h-0.89v-0.9h-0.9 0.9l-1.79-0.89h-0.45l-1.79 1.79 0.9-0.9-0.9 0.9 0.9 1.34h-0.9v0.89l0.9 0.45-0.9-0.45v1.34 0.89-0.89 1.79-0.9h-0.44 0.44l-0.44-0.89v0.89h-0.9v0.9l0.9-2.68v-0.45l-4.03 0.45h-1.34l0.45 1.78v-0.89h0.89v0.89l-0.89 0.9h-0.45v0.45h0.45-0.45-0.89v0.89l-0.9-0.89 0.9-1.35-0.9-0.89v-1.34h-0.45l-2.23 1.34-3.13 2.24-1.79 0.89 1.79 0.89v0.45-0.45h-2.24-0.89v0.45h-0.9l0.9 0.89h-0.9 0.9-0.9-0.44l-0.9-0.89-0.89 0.89 0.89-0.89h-0.89 0.89-2.23l-4.03-0.45h0.9v0.45l-0.9-0.45h-0.44l-0.9 0.45v0.89l-0.89 2.24 1.79 4.02v0.45l-0.9 0.89 0.9 0.9v0.44h0.44-0.44v-0.44h-0.9v1.34 0.89l-0.89 0.9-0.9 0.44h-0.44v1.79-0.89l-1.79 2.23v0.89l-0.45 1.35-1.79 1.78v0.45l-0.44-0.45-0.9 1.34 0.9 0.9h-0.9v1.34h-0.89l-0.9 1.34v0.89h-0.44v0.9h-0.9l-0.89 2.23 0.89 0.9h-0.89l0.89 2.23v0.45 0.89h0.9-0.9v0.9h0.9l0.44 0.89-0.44 4.47 0.44 3.13 0.9 2.23v2.69l-0.9 1.78 2.69 3.13 0.44 1.34 1.79 2.24h-0.89l1.34 4.02h-0.45l0.45 0.45-0.45 0.89 0.45 0.89h-0.45v-0.89 0.89 2.24l0.45 0.89h-0.45l0.45 0.45v0.89h0.89l0.9 1.35v0.89l0.44 0.89 1.79 1.34-0.89-0.44 1.79 2.68v0.89 1.34-0.44l-0.9 1.34h-0.89v0.89h0.89v0.9 0.44-0.44h-0.89l0.89 1.34-0.89 0.89h0.89-0.89v-0.89 0.89 0.45h0.89l-0.89 0.89h0.89 0.9v0.89l0.44 2.24-0.44 0.89h0.44-0.44v-0.89l-0.9 1.34h0.9-0.9l-0.89 1.79v0.45h-0.9v0.89l-1.34 2.23-0.89 0.9v1.34l-2.24 1.79-0.44 1.34v-0.9l-2.69 5.37h0.9l-1.34 0.89h0.44l-0.44 0.89v-0.89h-0.9v0.89l-0.89 0.45 0.89-0.45h-0.89l-0.45 2.69-1.79 5.36-0.45 1.79-0.89 0.45-0.89 0.89-0.9-0.89-1.34 0.89h-0.89l-1.35 0.89h-0.89l-0.45 2.24v0.89 2.68 1.79h-0.89l-0.9 1.34-0.89 0.9-0.45 2.23 0.45 0.89-0.45 0.9-0.89-1.79v0.89 1.35h-0.9v0.89l-0.44 2.23h0.44l-0.44 1.35h0.44v0.89l0.9-0.89 0.89 1.78-0.89 0.9v-0.9h-1.34v0.9 0.44 0.9l0.44 0.89 0.9 2.24v0.44 2.69l0.89 2.23 0.45 2.68 3.13 3.13v0.89h0.89l2.24 2.24v2.23 3.13 0.9h0.89l2.24 2.23v0.45 0.89h-0.89v0.9l0.89-0.9v0.9l-2.24 0.89-0.89 1.34h0.89l-0.89 1.34h0.89-0.89l0.89 1.79v0.45 1.78l0.45 3.13-0.45 5.81 0.45 1.79 0.9 0.45 2.23 2.23 2.24 3.13v0.9 0.89 0.45l0.89 1.78 1.34 1.35v2.23 0.89h0.9v0.9l0.89 0.45h1.34 0.9l3.13 2.68 1.34 0.44h0.89v0.9h-1.79v-0.9l-1.34-1.34 1.34 1.34v0.9l-0.44 0.89h2.23l4.47 0.45 4.03 0.89 2.68 1.34 0.9 1.79 3.12 1.34 0.9 0.9 0.45 0.89 3.13-0.89zm-107.32-307.96h0.9-0.9zm89.88 8.49v-1.78-0.45l-0.9-3.13v-0.89l-0.44-0.9-0.9 0.9v0.89 0.45l-1.79 0.89h-1.34l-2.23-0.89 3.13 2.68h1.34v0.45l2.23 1.78v0.45h0.9v-0.45zm109.55-5.36v0.45-0.45zm-198.53 2.23v-0.89h-0.9l0.9 1.79v-0.9zm190.03 0h0.89v0.9h-0.89v-0.9zm-116.25 3.13-3.13-2.23h-1.35-0.89v1.34h0.89v0.89h2.24v0.45l0.89-0.45 1.35 0.45v-0.45zm-73.78 0.45v-0.45l0.89-0.89h-1.79l0.9 0.89h-0.9-0.44l0.44 0.45v0.89l0.9-0.89zm69.75 0h0.9v0.89h-0.9v-0.89zm-0.45 0v0.89-0.89zm132.8 0h0.9v0.89h-0.9v-0.89zm-131.45 0v0.89-0.89zm-70.65 0v1.79-1.79zm-0.9 3.13h0.9v0.89h-0.9v-0.89zm203.9 1.79h0.89v0.44h-0.89v-0.44zm-203 0h0.89v0.44h-0.89v-0.44zm203 0.44h0.89-0.89zm-103.29 0h0.45v0.9h-0.45v-0.9zm3.58 7.6v0.9l0.89-0.9h-0.89v-0.44h0.89v-0.9l0.89-0.89h-0.89v-0.45l0.89-0.89v-0.9l-0.89-0.89h-0.89-0.45v-0.45l-0.9-0.89-0.89 0.89h-0.89v0.45h0.89l-0.89 0.89h1.78v1.79 0.45l0.9 0.89v0.9h-0.9v-0.9h-0.89l0.89 0.9-0.89 0.44h0.89v0.9h0.9l0.45-0.9zm101.05-6.7h0.89v0.89h-0.89v-0.89zm-21.91 1.34h0.89v0.89h-0.89v-0.89zm-77.36 0.89h1.35v1.79h-1.35v-1.79zm102.4 0v0.9-0.9zm0.89 0.9h0.45v0.89h-0.45v-0.89zm-26.83 3.13-0.44-1.79h0.44v-0.45l-0.44 0.45v0.89 0.9l-0.9-0.9h-0.89l1.79 0.9h0.44zm-5.81 10.28h-0.89v-0.45-0.9l0.89 0.9v-0.9l-0.89-0.89v-0.45h-0.9l0.9-0.89-0.9-0.89h-0.44v0.89 0.89h-0.9-0.89-0.45l0.45 0.45v0.89 0.9l0.89 0.45 0.9 0.89 0.44-0.89 0.9 0.89 0.89-0.89zm-4.47-2.24v0.89-0.89zm8.05 1.79-0.45-0.9-0.89-0.89v1.79h0.89 0.45zm-4.47 1.34h0.89v1.79h-0.89v-1.79zm-12.08 4.02h0.9-0.9zm-0.89 7.6h0.89v0.45h-0.89v-0.45zm0.89 0.45v0.89 0.89l0.9 0.45-0.9-2.23zm-1.78 3.13h0.89v0.89h-0.89v-0.89zm1.78 0.89h0.9v0.89h-0.9v-0.89zm4.48 2.23h0.89-0.89zm-8.5 7.6v-0.89h-0.45l0.45-0.45h-0.45v0.45h-0.89l0.89 0.89h0.45zm6.26 1.34h1.34-1.34zm-160.52 4.92h0.89v0.45h-0.89v-0.45zm144.42 12.51h0.9v0.9h-0.9v-0.9zm0 0.9h0.9-0.9zm-0.44 0h0.44v0.89h-0.44v-0.89zm0 0.89h0.44-0.44zm-2.69 0h0.9-0.9zm0 0v0.9-0.9zm61.71 0v0.9-0.9zm-61.71 0h0.9-0.9zm-0.44 0h0.44v0.9h-0.44v-0.9zm0 0.9h0.44v0.44h-0.44v-0.44zm0 0h0.44v0.44h-0.44v-0.44zm-2.24 1.34h0.45-0.45zm-12.97 4.02h0.45-0.45zm-8.49 0.45v0.89-0.89zm-4.47 0h0.89v0.89h-0.89v-0.89zm0 0h0.89v1.79h-0.89v-1.79zm4.47 1.79h0.89-0.89zm1.34 0h0.89-0.89zm7.15 0.44h1.35-1.35zm0 0h0.45v1.79h-0.45v-1.79zm1.35 0h0.89v0.9h-0.89v-0.9zm-2.24 0h1.34v0.9h-1.34v-0.9zm1.34 0h0.9v0.9h-0.9v-0.9zm5.37 4.92 0.89-0.9-0.89-0.89h-0.45l-0.89-0.89h-0.9v-0.45l-2.23-1.79 0.89 1.79 1.34 1.34 1.79 0.89 0.45 1.35v-0.45zm-1183.1-3.13v-0.89l-1.79-0.9-1.34 2.24 0.44 0.89 2.69-1.34zm1175.5-0.89h0.89v0.89h-0.89v-0.89zm0.89 0h0.89v0.89h-0.89v-0.89zm2.24 0h0.89v0.89h-0.89v-0.89zm-1.35 0h0.45v0.89h-0.45v-0.89zm0 0h0.45v0.89h-0.45v-0.89zm0.45 0h1.79v1.34h-1.79v-1.34zm4.92 3.12-0.89-0.89-0.9 0.89-4.47-2.23 0.89 0.45 1.35 0.89 3.13 0.89h0.89zm-4.92-2.23h0.9-0.9zm-0.45 0.45-0.89-0.45 0.89 1.34h1.35l-1.35-0.89zm4.48 0.89h-0.9l-1.34-0.89h-0.89l2.23 1.78 0.9-0.89zm-0.9-0.89h0.9-0.9zm-3.58 0.89h0.45-0.45zm-22.8 2.24h0.45-0.45zm101.5 3.12v0.9-0.9zm0 1.35h0.89-0.89zm0.89 2.68h0.9v0.44h-0.9v-0.44zm0 0.44h0.9-0.9zm-0.89 0.9v0.89-0.89zm-863.41 2.23 0.89-1.34h-0.89l-0.45 0.45v0.89l0.45 2.24 0.89 0.89-0.89-3.13zm863.41-0.89v0.89-0.89zm2.68 7.6-0.89 1.78 0.89-1.78 2.24-3.58-0.9-0.89-0.89 1.79v0.44l-0.45 0.9-0.89 0.89-0.9 1.34v2.24h-0.89l-0.45 1.78 3.13-4.91zm-3.13 4.91v0.45-0.45zm-133.24 8.05h0.89v0.89h-0.89v-0.89zm-160.08 16.09h0.45v0.89h-0.45v-0.89zm-1.78 1.34h0.89-0.89zm169.01 15.2v0.89-0.89zm3.58 19.22v0.89-0.89zm0 1.34h0.89-0.89zm0.89 0.89h0.9-0.9zm0 0h0.9v0.89h-0.9v-0.89zm0.9 3.13v0.89-0.89zm-215.52 16.09v-0.89h-0.45 0.45l-0.45-0.9h-0.89v0.9 0.89h1.34zm3.13 9.83h0.89v0.45h-0.89v-0.45zm0 1.34v0.9-0.9zm9.39 10.73v-0.89-1.34l-0.9-0.9v0.9 1.34l-0.89 0.89v0.9 0.44l0.89 1.79 0.9-3.13zm-2.24 4.47h1.34v1.79h-1.34v-1.79zm0.45 2.24v0.89-0.89zm2.24 4.02v0.45-0.45zm174.38 1.34h0.44-0.44zm24.14 70.17h0.9-0.9zm-262.02 12.07v0.89-0.89zm-0.89 2.23v0.9-0.9zm6.71 1.35h-0.9l-0.45 0.89-0.89 0.89 0.89 0.45v-0.45-0.89h0.45v1.34l0.9-2.23zm-402.87 22.79v0.89-0.89zm65.28 145.26h0.9v0.9h-0.9v-0.9zm6.26 8.49h0.9v0.9h-0.9v-0.9z" fill="#00A9F4" stroke="#00A9F4" stroke-linejoin="round" stroke-miterlimit="10" stroke-width="2.2917"/></g></g></svg>
